<svg xmlns="http://www.w3.org/2000/svg" width="36" height="12" viewBox="0 0 36 12">
  <g id="hmall_logo" data-name="hmall logo" transform="translate(0.006 -0.126)">
    <g id="bi" transform="translate(0.285 0.947)">
      <path id="패스_1" data-name="패스 1" d="M192.8,324.75h-.181a1.062,1.062,0,0,0-.967,1.075v2.794h-3.867v-2.794a1.062,1.062,0,0,0-.967-1.075h-.181a1.062,1.062,0,0,0-.967,1.075v7.6a1.062,1.062,0,0,0,.967,1.075h.181a1.062,1.062,0,0,0,.967-1.075v-2.753h3.867v2.753a1.062,1.062,0,0,0,.967,1.075h.181a1.062,1.062,0,0,0,.967-1.075v-7.6A1.062,1.062,0,0,0,192.8,324.75Z" transform="translate(-185.668 -324.608)" fill="#ff5340" fill-rule="evenodd"/>
      <g id="그룹_1" data-name="그룹 1" transform="translate(29.443 0)">
        <rect id="사각형_2" data-name="사각형 2" width="2.115" height="10.04" rx="1.057" transform="translate(0)" fill="#333"/>
        <rect id="사각형_3" data-name="사각형 3" width="2.115" height="10.04" rx="1.057" transform="translate(3.363)" fill="#333"/>
      </g>
      <path id="패스_2" data-name="패스 2" d="M234.874,335.133a2.9,2.9,0,0,0-4.92-1.668,2.9,2.9,0,0,0-4.924,1.7c-.006.029-.009.058-.013.088,0,.009,0,.018,0,.026a.924.924,0,0,0-.01.1v.1c0,.027,0,.053,0,.08s0,.053,0,.08v3.748a1.055,1.055,0,0,0,.96,1.07h.18a1.055,1.055,0,0,0,.96-1.07v-1.01l.011,0v-2.81a.907.907,0,1,1,1.813,0v3.971a1.036,1.036,0,0,0,.945.917h.18a1.054,1.054,0,0,0,.959-1.068v-3.82a.907.907,0,1,1,1.813,0v3.971a1.036,1.036,0,0,0,.945.917h.18a1.055,1.055,0,0,0,.96-1.07v-4.011A.982.982,0,0,0,234.874,335.133Z" transform="translate(-215.495 -330.566)" fill="#333" fill-rule="evenodd"/>
      <path id="패스_3" data-name="패스 3" d="M277.7,336.517a3.978,3.978,0,1,0-3.977,4.016,1.333,1.333,0,0,0,.734-.136,1.078,1.078,0,0,0,.445-.515,1.163,1.163,0,0,0,.076-.395,1.059,1.059,0,0,0-1.065-1.053c-.026,0-.05.006-.075,0-.045,0-.09.007-.136.007a1.917,1.917,0,1,1,1.863-1.917c0,.2.008.392.008.588,0,.214,0,.429,0,.643q0,.365,0,.73,0,.312,0,.624c0,.1,0,.2,0,.3a1,1,0,0,0,.971,1.017h.182a1,1,0,0,0,.972-1.017v-1.534q0-.332,0-.664c0-.113,0-.222,0-.338S277.7,336.634,277.7,336.517Z" transform="translate(-249.43 -330.472)" fill="#333" fill-rule="evenodd"/>
    </g>
    <rect id="사각형_4141" data-name="사각형 4141" width="36" height="12" transform="translate(-0.006 0.126)" fill="none"/>
  </g>
</svg>
