<svg xmlns="http://www.w3.org/2000/svg" xmlns:xlink="http://www.w3.org/1999/xlink" width="323" height="109.241" viewBox="0 0 323 109.241">
  <defs>
    <clipPath id="clip-path">
      <rect id="사각형_3274" data-name="사각형 3274" width="323" height="109.241" fill="none"/>
    </clipPath>
  </defs>
  <g id="Logo_e" transform="translate(135 253.304)">
    <g id="그룹_9625" data-name="그룹 9625" transform="translate(-135 -253.304)" clip-path="url(#clip-path)">
      <path id="패스_8488" data-name="패스 8488" d="M206.694,124.825a12.687,12.687,0,0,1,8.019-3.312c4.828,0,8.4,2.524,8.4,8.661v17.145h-6.45V131.936c0-2.711-1.5-4.818-4.331-4.818-2.7,0-4.99,2.132-5.639,2.663v17.538h-6.4V109.568h1.361a4.949,4.949,0,0,1,5.043,5.258Z" transform="translate(-71.343 -39.028)" fill="#e95d15"/>
      <path id="패스_8489" data-name="패스 8489" d="M179.27,147.5a11.24,11.24,0,0,1-5.985,1.795c-4.372,0-7.487-3.451-7.487-7.961,0-5.027,3.54-8.019,7.48-8.019,2.125,0,3.023.649,4.429.649,1.5,0,2.3-.724,3.046-2.177.408-.8.652-1.268.652-1.268a16.784,16.784,0,0,0-9.1-2.408c-8.1,0-12.952,5.807-12.952,13.224,0,8.088,5.543,13.16,12.952,13.16a16.073,16.073,0,0,0,9.2-2.6Z" transform="translate(-56.761 -45.631)" fill="#e95d15"/>
      <path id="패스_8490" data-name="패스 8490" d="M254.166,128.1c-6.157,0-11.359,5.014-11.359,13.218,0,8.4,5.04,13.166,12.569,13.166a15.249,15.249,0,0,0,9.467-2.86s-.584-.955-.744-1.222a3.2,3.2,0,0,0-2.862-1.811c-2.121,0-2.393.873-5.264.873a6.483,6.483,0,0,1-6.755-6.4h16.5v-1.912c0-7.868-4.531-13.049-11.552-13.049m-4.959,10.4c0-2.882,2.023-5.564,4.861-5.564,3.173,0,4.924,2.762,4.978,5.564Z" transform="translate(-86.487 -45.631)" fill="#e95d15"/>
      <path id="패스_8491" data-name="패스 8491" d="M316.325,128.1a11.239,11.239,0,0,0-8.859,4.209,7.91,7.91,0,0,0-7.354-4.209,11.364,11.364,0,0,0-8.123,3.3c-.2-.759-1.2-2.831-4.359-2.831a13.933,13.933,0,0,0-2.356.313,36.285,36.285,0,0,1,.729,7.475v17.561h6.424V136.013c.127-.11,2.529-2.542,5.428-2.542,2.948,0,4.321,2.155,4.321,5.108v15.343h6.457V136.013c.124-.121,2.488-2.542,5.42-2.542s4.283,2.155,4.283,5.108v15.343h6.489V137.577c0-5.743-3.265-9.472-8.5-9.472" transform="translate(-101.614 -45.631)" fill="#e95d15"/>
      <path id="패스_8492" data-name="패스 8492" d="M362.389,114.569a3.994,3.994,0,1,1-3.993-3.884,3.937,3.937,0,0,1,3.993,3.884" transform="translate(-126.238 -39.426)" fill="#e95d15"/>
      <rect id="사각형_3273" data-name="사각형 3273" width="6.428" height="25.349" transform="translate(228.944 82.942)" fill="#e95d15"/>
      <path id="패스_8493" data-name="패스 8493" d="M427.128,151.391a3.83,3.83,0,0,0,3.783,2.536,12.682,12.682,0,0,0,2.986-.417,24.848,24.848,0,0,1-.784-7.133v-8.87c0-6.578-4.243-9.4-10.778-9.4a18.46,18.46,0,0,0-9.885,2.94s.261.464.441.788c.55.937,1.036,2.322,2.648,2.322s2.985-1.233,6.036-1.233c3.364,0,5,1.627,5,4.122v.886h-2.112c-8.619,0-13.157,3.335-13.157,8.685,0,4.73,3.6,7.88,8.581,7.88a9.387,9.387,0,0,0,7.243-3.1m-.555-3.816a8.031,8.031,0,0,1-4.713,1.794c-2.218,0-3.912-1.342-3.912-3.577,0-1.887,1.82-3.52,5.3-3.52h3.321Z" transform="translate(-146.505 -45.631)" fill="#e95d15"/>
      <path id="패스_8494" data-name="패스 8494" d="M392.623,147.478a11.17,11.17,0,0,1-5.987,1.795c-4.37,0-7.486-3.45-7.486-7.96,0-5.026,3.544-8.013,7.48-8.013,2.125,0,3.023.648,4.427.648,1.5,0,2.307-.73,3.051-2.183.407-.793.651-1.255.651-1.255a16.583,16.583,0,0,0-9.1-2.416c-8.107,0-12.955,5.8-12.955,13.219,0,8.088,5.544,13.166,12.955,13.166a16.119,16.119,0,0,0,9.192-2.6Z" transform="translate(-132.757 -45.627)" fill="#e95d15"/>
      <path id="패스_8495" data-name="패스 8495" d="M459.324,139.7v-26.3a4.956,4.956,0,0,0-5.054-5.262h-1.377v34.143c0,3.144,1.945,5.1,5.332,5.1,4.169,0,5.425-2.97,5.425-5.761a5.037,5.037,0,0,1-1.952.445,2.164,2.164,0,0,1-2.374-2.356" transform="translate(-161.319 -38.516)" fill="#e95d15"/>
      <path id="패스_8496" data-name="패스 8496" d="M480.641,154.478a17.84,17.84,0,0,1-9.35-2.369l2.09-4.7a12.25,12.25,0,0,0,6.78,2.275c2.622,0,4.307-1.089,4.307-2.808,0-1.935-2.895-2.906-5.024-3.758-3.11-1.251-6.6-2.86-6.6-7.544,0-4.372,3.489-7.469,9.561-7.469a20.181,20.181,0,0,1,7.928,1.528s-.256.758-.337,1.031c-.259.867-.9,3.057-2.972,3.057-1.48,0-2.4-.713-4.681-.713-2.055,0-3.318.869-3.318,2.247,0,1.743,2.258,2.461,4.788,3.457,2.89,1.141,7.059,3.253,7.059,7.9,0,5.651-4.8,7.863-10.231,7.863" transform="translate(-167.872 -45.631)" fill="#e95d15"/>
      <path id="패스_8497" data-name="패스 8497" d="M20.544,114.062c-3.886-1.819-7.07-3.284-7.07-6.254,0-2.264,1.812-3.914,5.4-3.914a18.721,18.721,0,0,1,3.509.359,10.391,10.391,0,0,0,1.719.184c3.133,0,4.9-1.864,6.074-5.412l.486-1.441a32.759,32.759,0,0,0-12.286-2.45C7.765,95.134,2.16,101.93,2.166,109a11.943,11.943,0,0,0,2.862,8.17c2.25,2.616,5.455,4.33,8.457,5.8,4.371,2.147,8.314,3.735,8.314,6.907.005,2.825-2.913,4.429-6.809,4.429-5.337,0-10.008-3.052-10.607-3.422L0,139.1a30.315,30.315,0,0,0,15.72,4.03c9.907-.006,17.408-5.68,17.408-14.424,0-8.69-6.957-11.908-12.584-14.641" transform="translate(0 -33.886)" fill="#c00020"/>
      <path id="패스_8498" data-name="패스 8498" d="M81.057,118.653,99.023,96.628h-12.8L71.892,115.636H71.68V96.628H61.127v46.66h.632c4.559,0,9.991-2.107,9.991-9.738V122.845h.211L86.569,142.71H99.995Z" transform="translate(-21.773 -34.419)" fill="#c00020"/>
      <path id="패스_8499" data-name="패스 8499" d="M114.912,18.985c-3.713.7-9.222,4.073-9.2,10.029.015,5.425,4.444,8.7,4.455,15.8a12.539,12.539,0,0,1-6.1,10.921c1.287-.11,2.694-.185,4.244-.191a35.957,35.957,0,0,1,5.331.324L130.3,35.418a69.171,69.171,0,0,0-15.39-16.433" transform="translate(-37.066 -6.762)" fill="#c00020"/>
      <path id="패스_8500" data-name="패스 8500" d="M138.513,83.3c2.1-3.26,2.362-8.465,2.546-13.769.193-4.939,1.227-8.668,7.842-8.692,1.465,0,2.859.2,5.39.2a39.064,39.064,0,0,0,19.952-5.576A69.252,69.252,0,0,0,139.9,44.51c-.949,2.681-8.326,23.2-8.888,24.856a27.029,27.029,0,0,1,2.994,4.366,48.522,48.522,0,0,1,4.5,9.566" transform="translate(-46.667 -15.854)" fill="#c00020"/>
      <path id="패스_8501" data-name="패스 8501" d="M84.351,50.687c-.845.007-1.262-.56-1.377-1.522S78.7,10.069,78.081,4.3c-.093-.842-.3-2.391-.307-2.94A1.24,1.24,0,0,1,79.036,0c1.975,0,12.736,2.514,24.157,10.52-3.29.934-9.241,4.35-9.215,11.431.02,6.277,4.513,9.727,4.536,16.021.035,10.236-11.73,12.709-14.162,12.714" transform="translate(-27.703 0)" fill="#e95d15"/>
      <path id="패스_8502" data-name="패스 8502" d="M144.146,92.892a6.852,6.852,0,0,0,.521,1.152,1.139,1.139,0,0,0,1.024.649,2.535,2.535,0,0,0,.951-.256c.879-.411,35.677-16.606,40.925-19.031.768-.359,2.2-1.008,2.681-1.286a1.224,1.224,0,0,0,.512-1.788c-.652-1.06-4.023-4.639-9.647-8.54-4.472,2.46-11.451,6.27-21.834,6.311-2.541,0-3.115-.174-4.851-.162-5.072.017-6.335,2.183-6.526,6.629-.026.839-.041,1.969-.093,3.208-.162,3.972-.628,9.449-3.664,13.113" transform="translate(-51.344 -22.723)" fill="#e95d15"/>
    </g>
  </g>
</svg>
