<svg xmlns="http://www.w3.org/2000/svg" width="1378.627" height="532.524" viewBox="0 0 1378.627 532.524">
  <g id="img_bg" transform="translate(-251.592 -358.476)">
    <path id="다각형_11" data-name="다각형 11" d="M63.75,0,85,37,63.75,74H21.25L0,37,21.25,0Z" transform="translate(507.5 817)" fill="#9d9d9d" opacity="0.268"/>
    <path id="다각형_13" data-name="다각형 13" d="M32.789,0l10.93,19.008L32.789,38.016H10.93L0,19.008,10.93,0Z" transform="translate(1586.5 358.476)" fill="#e95d15" opacity="0.416"/>
    <path id="다각형_9" data-name="다각형 9" d="M87.993,0l29.331,51L87.993,102H29.331L0,51,29.331,0Z" transform="translate(1442.408 407.5)" fill="#a2a2a2" opacity="0.183"/>
    <path id="다각형_12" data-name="다각형 12" d="M123.243,0l41.081,71-41.081,71H41.081L0,71,41.081,0Z" transform="translate(251.592 725.048)" fill="#e95d15" opacity="0.071"/>
    <path id="다각형_10" data-name="다각형 10" d="M36.15,0,48.2,20.952,36.15,41.9H12.05L0,20.952,12.05,0Z" transform="translate(653.909 775.096)" fill="#e95d15" opacity="0.168"/>
  </g>
</svg>
