<svg id="login_logo" xmlns="http://www.w3.org/2000/svg" width="208.277" height="55" viewBox="0 0 208.277 55">
  <g id="사각형_3" data-name="사각형 3" fill="#fff" stroke="#707070" stroke-width="1" opacity="0">
    <rect width="117" height="55" stroke="none"/>
    <rect x="0.5" y="0.5" width="116" height="54" fill="none"/>
  </g>
  <g id="그룹_5" data-name="그룹 5" transform="translate(0 1.057)">
    <g id="그룹_3" data-name="그룹 3" transform="translate(0 6.008)">
      <g id="그룹_1" data-name="그룹 1" transform="translate(0 23.229)">
        <path id="패스_1" data-name="패스 1" d="M818.518,403.6c-1.909-.891-3.476-1.614-3.476-3.071,0-1.113.891-1.926,2.653-1.926a8.984,8.984,0,0,1,1.727.179,5.408,5.408,0,0,0,.845.091c1.539,0,2.408-.919,2.984-2.661l.239-.711a16.068,16.068,0,0,0-6.038-1.2c-5.217,0-7.97,3.347-7.969,6.816a5.88,5.88,0,0,0,1.406,4.018,12.687,12.687,0,0,0,4.157,2.846c2.149,1.055,4.088,1.833,4.088,3.4,0,1.386-1.431,2.174-3.348,2.174a10.44,10.44,0,0,1-5.21-1.682l-2.156,4.041a14.884,14.884,0,0,0,7.728,1.978c4.866,0,8.554-2.792,8.554-7.086C824.7,406.526,821.284,404.944,818.518,403.6Z" transform="translate(-808.42 -394.298)" fill="#c00020"/>
        <path id="패스_2" data-name="패스 2" d="M879.338,406.62l8.831-10.828h-6.292l-7.042,9.342h-.107v-9.342h-5.185v22.934h.309c2.242,0,4.912-1.036,4.912-4.781v-5.267h.105l7.178,9.764h6.6Z" transform="translate(-850.202 -395.319)" fill="#c00020"/>
      </g>
      <g id="그룹_2" data-name="그룹 2" transform="translate(32.927)">
        <path id="패스_3" data-name="패스 3" d="M917.81,318.155c-1.824.343-4.532,2-4.521,4.933.005,2.658,2.182,4.275,2.188,7.76a6.172,6.172,0,0,1-3,5.371c.632-.057,1.326-.095,2.086-.095a17.561,17.561,0,0,1,2.621.157l8.19-10.052A34.085,34.085,0,0,0,917.81,318.155Z" transform="translate(-912.477 -318.155)" fill="#c00020"/>
        <path id="패스_4" data-name="패스 4" d="M943.118,362.741c1.033-1.6,1.161-4.164,1.249-6.767.1-2.431.6-4.26,3.856-4.272.72,0,1.407.094,2.649.094a19.161,19.161,0,0,0,9.807-2.741,34.09,34.09,0,0,0-16.878-5.382c-.465,1.318-4.092,11.4-4.367,12.214a13.53,13.53,0,0,1,1.47,2.151A23.791,23.791,0,0,1,943.118,362.741Z" transform="translate(-930.904 -335.599)" fill="#c00020"/>
      </g>
    </g>
    <g id="그룹_4" data-name="그룹 4" transform="translate(24.61 0)">
      <path id="패스_5" data-name="패스 5" d="M889.425,324.08c-.415.006-.621-.273-.678-.748s-2.1-19.215-2.4-22.051c-.045-.414-.148-1.175-.15-1.445a.607.607,0,0,1,.619-.666c.971,0,6.261,1.235,11.874,5.171-1.618.455-4.545,2.137-4.531,5.62.01,3.084,2.218,4.781,2.23,7.874C896.4,322.862,890.622,324.08,889.425,324.08Z" transform="translate(-886.193 -299.169)" fill="#e95d15"/>
      <path id="패스_6" data-name="패스 6" d="M952.563,377.26a3.6,3.6,0,0,0,.255.566.559.559,0,0,0,.5.319,1.156,1.156,0,0,0,.468-.128c.432-.2,17.536-8.159,20.116-9.348.373-.18,1.081-.495,1.315-.632a.627.627,0,0,0,.353-.543.66.66,0,0,0-.1-.339,21,21,0,0,0-4.746-4.2,21.13,21.13,0,0,1-10.729,3.1c-1.249,0-1.532-.083-2.386-.08-2.49.011-3.114,1.075-3.2,3.259-.016.412-.021.968-.047,1.576C954.285,372.766,954.053,375.459,952.563,377.26Z" transform="translate(-931.561 -342.772)" fill="#e95d15"/>
    </g>
  </g>
  <g id="그룹_6" data-name="그룹 6" transform="translate(56.081 35.296)">
    <path id="패스_7" data-name="패스 7" d="M1029.16,428.227h.735a2.037,2.037,0,0,0,2.038-2.035V410.107h-2.773Z" transform="translate(-1015.392 -410.107)" fill="#e95d15"/>
    <path id="패스_8" data-name="패스 8" d="M995.362,415.062H993.9v-4.955h-7.345v1.938h4.575v3.017h-4.575V417h4.49c-.461,3.116-2.62,5.148-5.135,5.148h-.259v1.937h.309A7.929,7.929,0,0,0,993.828,417h1.534v11.226h.734a2.035,2.035,0,0,0,2.035-2.035V410.107h-2.768Z" transform="translate(-985.65 -410.107)" fill="#e95d15"/>
    <path id="패스_9" data-name="패스 9" d="M1093.9,428.227h.735a2.036,2.036,0,0,0,2.035-2.035V410.107h-2.77Z" transform="translate(-1059.645 -410.107)" fill="#e95d15"/>
    <path id="패스_10" data-name="패스 10" d="M1051.18,410.594v10.353a2.037,2.037,0,0,0,2.038,2.035h6.992a2.035,2.035,0,0,0,2.035-2.035v-10.84H1051.18Zm8.3,10.452h-5.524v-9h5.524Z" transform="translate(-1030.444 -410.107)" fill="#e95d15"/>
    <path id="패스_11" data-name="패스 11" d="M1126.3,413.77v-3.663h-10.208v1.938h7.439v1.232h-7.439v1.935h7.023c-.621,1.129-1.915,1.52-3.728,1.52h-4.14v1.935h5.665C1123.6,418.667,1126.3,417.293,1126.3,413.77Z" transform="translate(-1074.24 -410.107)" fill="#e95d15"/>
    <path id="패스_12" data-name="패스 12" d="M1159.9,413.281v-3.173h-2.771v8.913h2.771v-3.8h2.117v-1.938Z" transform="translate(-1102.87 -410.107)" fill="#e95d15"/>
    <path id="패스_13" data-name="패스 13" d="M1124.756,445.977h11.121v-3.068a2.038,2.038,0,0,0-2.035-2.035h-11.858v1.938h11.121v1.223h-11.121v3.187a2.037,2.037,0,0,0,2.038,2.035h12.354v-1.941h-11.62Z" transform="translate(-1078.844 -431.138)" fill="#e95d15"/>
  </g>
  <path id="패스_8420" data-name="패스 8420" d="M-1.66-8.957-7.474,8.415h-4.089L-17.342-8.957l-.676-2.581.068,2.581V8.415h-3.785V-15.912h5.543l6.151,18L-9.5,4.23l.575-2.14,6.151-18H2.733V8.415H-1.052V-8.957l.068-2.581ZM25.715,8.415H9.155V-15.912H25.715v3.3H13.379v6.168H24.87v3.273H13.379V5.111H25.715ZM44.507-10.373a10.406,10.406,0,0,0-2.89-1.873,8.583,8.583,0,0,0-3.43-.677q-4.157,0-4.157,2.8a2.74,2.74,0,0,0,.929,2.187A8.729,8.729,0,0,0,37.511-6.5l2.332.944A14.067,14.067,0,0,1,44.591-2.6a5.7,5.7,0,0,1,1.673,4.154,7.032,7.032,0,0,1-.676,3.179,6,6,0,0,1-1.91,2.234,8.561,8.561,0,0,1-2.94,1.306A15.6,15.6,0,0,1,36.97,8.7a15.114,15.114,0,0,1-4.123-.535A9.164,9.164,0,0,1,29.467,6.4V2.31a.273.273,0,0,1,.169-.268.254.254,0,0,1,.3.047,14.278,14.278,0,0,0,1.453,1.353A8.3,8.3,0,0,0,32.982,4.45a8.339,8.339,0,0,0,1.842.629A10.107,10.107,0,0,0,37,5.3a5.869,5.869,0,0,0,3.6-.865,3.178,3.178,0,0,0,1.1-2.659A3.007,3.007,0,0,0,40.687-.538a9.917,9.917,0,0,0-2.94-1.715L35.415-3.2A17.07,17.07,0,0,1,33.1-4.331a8.34,8.34,0,0,1-1.825-1.432,6.118,6.118,0,0,1-1.2-1.841,6.183,6.183,0,0,1-.439-2.423,5.763,5.763,0,0,1,.608-2.706,5.326,5.326,0,0,1,1.724-1.935,8.425,8.425,0,0,1,2.67-1.18,13.4,13.4,0,0,1,3.414-.409,16.788,16.788,0,0,1,1.724.094,13.839,13.839,0,0,1,1.825.315,9.805,9.805,0,0,1,1.774.614,7.565,7.565,0,0,1,1.605.991v3.651a.273.273,0,0,1-.169.268A.254.254,0,0,1,44.507-10.373Z" transform="translate(162.013 45.951)" fill="#151515"/>
</svg>
