<svg id="btn_retransD" xmlns="http://www.w3.org/2000/svg" width="16" height="16" viewBox="0 0 16 16">
  <path id="패스_8402" data-name="패스 8402" d="M0,0H16V16H0Z" fill="none"/>
  <path id="_134221_refresh_reload_repeat_update_arrow_icon" data-name="134221_refresh_reload_repeat_update_arrow_icon" d="M13.143,8a.86.86,0,0,0-.857.757A4.445,4.445,0,0,1,8,12.286a4.286,4.286,0,1,1,2.554-7.714h-.84a.857.857,0,1,0,0,1.714h2.571a.857.857,0,0,0,.857-.857V2.857a.857.857,0,1,0-1.714,0v.222A6,6,0,1,0,8,14a6.207,6.207,0,0,0,6-5.089A.854.854,0,0,0,13.143,8Z" transform="translate(0 0)" fill="#afafaf"/>
</svg>
