<svg xmlns="http://www.w3.org/2000/svg" width="20" height="20" viewBox="0 0 20 20">
  <g id="ico_file" transform="translate(-239 -188)">
    <rect id="사각형_915" data-name="사각형 915" width="20" height="20" transform="translate(239 188)" fill="none"/>
    <path id="Fill" d="M11.118,6.845,5.08.807A3.024,3.024,0,0,0,.807,5.08L2.2,6.473l.655-.655L1.462,4.425A2.09,2.09,0,1,1,4.416,1.471l6.038,6.038A2.09,2.09,0,1,1,7.5,10.463L4.653,7.616A1.166,1.166,0,0,1,6.3,5.962L7.769,7.435l.655-.655s-1.5-1.5-1.51-1.5A2.086,2.086,0,0,0,3.97,8.224l2.875,2.894a3.024,3.024,0,0,0,4.273-4.273Z" transform="translate(243 192)" fill="#151515"/>
  </g>
</svg>
