<svg id="btn_pdfD" xmlns="http://www.w3.org/2000/svg" width="16" height="16" viewBox="0 0 16 16">
  <path id="패스_8402" data-name="패스 8402" d="M0,0H16V16H0Z" fill="none"/>
  <path id="패스_8457" data-name="패스 8457" d="M13.967,13.339H0V0H13.967V13.339M1.342,12H12.623V1.343H1.342" transform="translate(1.017 1.33)" fill="#afafaf"/>
  <path id="패스_8458" data-name="패스 8458" d="M9.582,4.258c.18.078.139.2.08.751a11.534,11.534,0,0,1-.655,2.651,14.282,14.282,0,0,1-1.479,2.789,7.646,7.646,0,0,1-1.268,1.515,1.482,1.482,0,0,1-.71.381c-.148.026-.216,0-.256-.075a.522.522,0,0,1-.02-.349,1.087,1.087,0,0,1,.343-.549,4.441,4.441,0,0,1,1.135-.755,12.022,12.022,0,0,1,1.755-.654,12.487,12.487,0,0,1,1.363-.318A10.108,10.108,0,0,1,10.891,9.5a5.672,5.672,0,0,1,.932,0,5.772,5.772,0,0,1,.858.136,2.194,2.194,0,0,1,.661.257,1.115,1.115,0,0,1,.432.461.642.642,0,0,1,.014.524.561.561,0,0,1-.358.28.883.883,0,0,1-.54,0,2.591,2.591,0,0,1-.709-.381,6.634,6.634,0,0,1-.877-.754,15.392,15.392,0,0,1-1.148-1.285,9.011,9.011,0,0,1-.865-1.291,4.81,4.81,0,0,1-.4-1,5.286,5.286,0,0,1-.182-.9,3.171,3.171,0,0,1,.013-.729,1.082,1.082,0,0,1,.135-.449.468.468,0,0,1,.23-.175.537.537,0,0,1,.148-.031.273.273,0,0,1,.142,0A1.141,1.141,0,0,1,9.582,4.258Z" transform="translate(-1.547 -0.25)" fill="none" stroke="#afafaf" stroke-linejoin="round" stroke-width="1"/>
</svg>
