<svg id="ico_printer" xmlns="http://www.w3.org/2000/svg" width="16" height="16" viewBox="0 0 16 16">
  <path id="패스_8378" data-name="패스 8378" d="M0,0H16V16H0Z" fill="none"/>
  <path id="패스_8379" data-name="패스 8379" d="M4.4,12.2H2.6a.6.6,0,0,1-.6-.6v-6A.6.6,0,0,1,2.6,5H4.4V2.6A.6.6,0,0,1,5,2h6a.6.6,0,0,1,.6.6V5h1.8a.6.6,0,0,1,.6.6v6a.6.6,0,0,1-.6.6H11.6v1.2a.6.6,0,0,1-.6.6H5a.6.6,0,0,1-.6-.6Zm0-1.2v-.6A.6.6,0,0,1,5,9.8h6a.6.6,0,0,1,.6.6V11h1.2V6.2H3.2V11ZM5.6,3.2V5h4.8V3.2Zm0,7.8v1.8h4.8V11ZM3.8,6.8H5.6V8H3.8Z" fill="#c00020"/>
</svg>
