<svg xmlns="http://www.w3.org/2000/svg" width="18" height="18" viewBox="0 0 18 18">
  <g id="btn_star" transform="translate(-183 -198)">
    <g id="사각형_1264" data-name="사각형 1264" transform="translate(183 198)" fill="#fff" stroke="#E95D15" stroke-width="1" opacity="0">
      <rect width="18" height="18" stroke="none"/>
      <rect x="0.5" y="0.5" width="17" height="17" fill="none"/>
    </g>
    <g id="다각형_1" data-name="다각형 1" transform="translate(185 200)" fill="#FFD0B8">
      <path d="M 10.66976165771484 13.06835174560547 L 7.240940093994141 11.18270015716553 L 7 11.05020046234131 L 6.759059906005859 11.18270015716553 L 3.330238342285156 13.06835174560547 L 3.982510089874268 9.018059730529785 L 4.022419929504395 8.770199775695801 L 3.847490072250366 8.590149879455566 L 1.033068180084229 5.693309307098389 L 4.906620025634766 5.092659950256348 L 5.168910026550293 5.051980018615723 L 5.282179832458496 4.81194019317627 L 7 1.171618223190308 L 8.717820167541504 4.81194019317627 L 8.831089973449707 5.051980018615723 L 9.093379974365234 5.092659950256348 L 12.96693134307861 5.693309307098389 L 10.15250968933105 8.590149879455566 L 9.977580070495605 8.770199775695801 L 10.01749038696289 9.018059730529785 L 10.66976165771484 13.06835174560547 Z" stroke="none"/>
      <path d="M 7 2.343257904052734 L 5.507820129394531 5.505410194396973 L 2.066135406494141 6.039086818695068 L 4.55597972869873 8.601850509643555 L 3.986715316772461 12.13670539855957 L 7 10.47957992553711 L 10.01328468322754 12.13670539855957 L 9.444019317626953 8.601850509643555 L 11.93386459350586 6.039086818695068 L 8.492179870605469 5.505410194396973 L 7 2.343257904052734 M 7 0 L 9.170000076293945 4.598560333251953 L 14 5.347519874572754 L 10.51113033294678 8.938560485839844 L 11.32624053955078 14 L 7 11.62082004547119 L 2.673760414123535 14 L 3.488869667053223 8.938560485839844 L 0 5.347519874572754 L 4.829999923706055 4.598560333251953 L 7 0 Z" stroke="none" fill="#E95D15"/>
    </g>
  </g>
</svg>
