<svg id="btn_bartch" xmlns="http://www.w3.org/2000/svg" width="16" height="16" viewBox="0 0 16 16">
  <path id="패스_8402" data-name="패스 8402" d="M0,0H16V16H0Z" fill="none"/>
  <circle id="XMLID_224_" cx="2" cy="2" r="2" transform="translate(6 6)" fill="none" stroke="#c00020" stroke-linecap="round" stroke-linejoin="round" stroke-width="1.5"/>
  <path id="XMLID_242_" d="M15.6,6.6l-.489-.846A.977.977,0,0,0,13.772,5.4l-.257.149a1.466,1.466,0,0,1-2.2-1.269v-.3A.977.977,0,0,0,10.339,3H9.361a.977.977,0,0,0-.977.977v.3a1.466,1.466,0,0,1-2.2,1.269L5.928,5.4a.977.977,0,0,0-1.335.358L4.1,6.6a.977.977,0,0,0,.358,1.335l.257.149a1.466,1.466,0,0,1,0,2.539l-.257.149A.977.977,0,0,0,4.1,12.1l.489.846a.977.977,0,0,0,1.335.358l.257-.149a1.466,1.466,0,0,1,2.2,1.269v.3a.977.977,0,0,0,.977.977h.977a.977.977,0,0,0,.977-.977v-.3a1.466,1.466,0,0,1,2.2-1.269l.257.149a.977.977,0,0,0,1.335-.358L15.6,12.1a.977.977,0,0,0-.358-1.335l-.257-.149a1.466,1.466,0,0,1,0-2.539l.257-.149A.977.977,0,0,0,15.6,6.6Z" transform="translate(-1.85 -1.352)" fill="none" stroke="#c00020" stroke-linecap="round" stroke-linejoin="round" stroke-width="1.2"/>
</svg>
