<svg xmlns="http://www.w3.org/2000/svg" width="18" height="18" viewBox="0 0 18 18">
  <g id="ico_check" transform="translate(0 -0.35)">
    <rect id="사각형_709" data-name="사각형 709" width="18" height="18" transform="translate(0 0.35)" fill="#fff" opacity="0"/>
    <path id="Fill" d="M5.5,11A5.493,5.493,0,0,1,1.616,1.616,5.493,5.493,0,1,1,9.384,9.384,5.461,5.461,0,0,1,5.5,11ZM3.379,5.107,2.75,5.7,4.714,7.661l3.536-3.5-.628-.629L4.714,6.443,3.379,5.107Z" transform="translate(4 3.35)" fill="#009e5f"/>
    <path id="Inner_Fill" data-name="Inner Fill" d="M2.086,4.381,0,2.295l.668-.626L2.086,3.087,5.173,0l.668.668Z" transform="translate(3.755 3.589)" opacity="0"/>
  </g>
</svg>
