<svg id="ico_openfolder" xmlns="http://www.w3.org/2000/svg" xmlns:xlink="http://www.w3.org/1999/xlink" width="20" height="20" viewBox="0 0 20 20">
  <defs>
    <clipPath id="clip-path">
      <rect id="사각형_1315" data-name="사각형 1315" width="16" height="7" transform="translate(2)" fill="#880017"/>
    </clipPath>
  </defs>
  <path id="패스_8410" data-name="패스 8410" d="M0,0H20V20H0Z" fill="none"/>
  <path id="패스_8414" data-name="패스 8414" d="M11.129,4.556h5.257a.788.788,0,0,1,.8.778v.778H2.816V3.778A.788.788,0,0,1,3.614,3H9.532ZM2.885,7.667h14.23a.808.808,0,0,1,.588.251.766.766,0,0,1,.208.591l-.666,7.778a.79.79,0,0,1-.8.713H3.55a.79.79,0,0,1-.8-.713L2.089,8.509A.766.766,0,0,1,2.3,7.918a.808.808,0,0,1,.588-.251Z" transform="translate(-2)" fill="#c00020"/>
  <g id="마스크_그룹_5" data-name="마스크 그룹 5" transform="translate(-2)" clip-path="url(#clip-path)">
    <path id="패스_8411" data-name="패스 8411" d="M11.129,4.556h5.257a.788.788,0,0,1,.8.778v.778H2.816V3.778A.788.788,0,0,1,3.614,3H9.532ZM2.885,7.667h14.23a.808.808,0,0,1,.588.251.766.766,0,0,1,.208.591l-.666,7.778a.79.79,0,0,1-.8.713H3.55a.79.79,0,0,1-.8-.713L2.089,8.509A.766.766,0,0,1,2.3,7.918a.808.808,0,0,1,.588-.251Z" fill="#880017"/>
  </g>
</svg>
