<svg xmlns="http://www.w3.org/2000/svg" width="16" height="16" viewBox="0 0 16 16">
  <g id="ico_home" transform="translate(-1590 -107)">
    <g id="사각형_1276" data-name="사각형 1276" transform="translate(1590 107)" fill="#fff" stroke="#707070" stroke-width="1" opacity="0">
      <rect width="16" height="16" stroke="none"/>
      <rect x="0.5" y="0.5" width="15" height="15" fill="none"/>
    </g>
    <path id="_928434_begin_default_home_house_main_icon" data-name="928434_begin_default_home_house_main_icon" d="M27.838,17.484l-4.592-3.863a.444.444,0,0,0-.571,0l-4.624,3.89a.444.444,0,0,0,.286.784h.675v5.157a1.065,1.065,0,0,0,1.065,1.065h1.509V21.5a.355.355,0,0,1,.355-.355h2.041a.355.355,0,0,1,.355.355v3.018h1.509a1.065,1.065,0,0,0,1.065-1.065V18.3h.678a.444.444,0,0,0,.249-.811Z" transform="translate(1575.037 95.983)" fill="#666"/>
  </g>
</svg>
