<svg xmlns="http://www.w3.org/2000/svg" width="16" height="16" viewBox="0 0 16 16">
  <g id="ico_launch" transform="translate(1 1.222)">
    <rect id="사각형_1181" data-name="사각형 1181" width="16" height="16" rx="3" transform="translate(-1 -1.222)" fill="#c00020"/>
    <path id="패스_8354" data-name="패스 8354" d="M13.627,14.5H4.875A.876.876,0,0,1,4,13.627V4.875A.876.876,0,0,1,4.875,4H9.251v.875H4.875v8.752h8.751V9.251H14.5v4.376A.876.876,0,0,1,13.627,14.5Z" transform="translate(-2.377 -2.346)" fill="#fff"/>
    <path id="패스_8355" data-name="패스 8355" d="M18.875,2v.875h2.882L18,6.632l.619.619,3.757-3.757V6.376h.875V2Z" transform="translate(-10.252 -1.222)" fill="#fff"/>
    <rect id="_Transparent_Rectangle_" data-name="&lt;Transparent Rectangle&gt;" width="12" height="12" transform="translate(1 0.778)" fill="none"/>
  </g>
</svg>
