<svg id="icon_warning_20" xmlns="http://www.w3.org/2000/svg" width="35" height="35" viewBox="0 0 35 35">
  <rect id="사각형_706" data-name="사각형 706" width="35" height="35" fill="#da1e28" opacity="0"/>
  <path id="제외_2" data-name="제외 2" d="M15.125,31.438A15.313,15.313,0,0,1,4.3,5.3,15.313,15.313,0,1,1,25.952,26.953,15.212,15.212,0,0,1,15.125,31.438Zm.186-13.482h0l4.517,4.515A1.161,1.161,0,1,0,21.47,20.83l-4.517-4.517L21.47,11.8a1.163,1.163,0,0,0-.822-1.984,1.148,1.148,0,0,0-.82.341l-4.517,4.517L10.8,10.154A1.162,1.162,0,0,0,9.152,11.8l4.516,4.516L9.152,20.83a1.161,1.161,0,1,0,1.642,1.642l4.516-4.515Z" transform="translate(2.188 1.187)" fill="#da1e28" stroke="rgba(0,0,0,0)" stroke-width="1"/>
</svg>
