<svg width="576" height="512" viewBox="0 0 576 512" fill="none" xmlns="http://www.w3.org/2000/svg">
<path d="M572.694 292.093L500.27 416.248C494.634 425.91 486.564 433.926 476.865 439.497C467.165 445.069 456.175 448 444.989 448H45.025C26.502 448 14.961 427.907 24.294 411.907L96.718 287.752C102.354 278.09 110.424 270.074 120.124 264.503C129.824 258.932 140.814 256 152 256H551.964C570.487 256 582.028 276.093 572.694 292.093ZM152 224H480V176C480 149.49 458.51 128 432 128H272L208 64H48C21.49 64 0 85.49 0 112V390.046L69.077 271.628C86.214 242.25 117.989 224 152 224Z" fill="white"/>
</svg>
