<svg width="512" height="512" viewBox="0 0 512 512" fill="none" xmlns="http://www.w3.org/2000/svg">
<path d="M256.455 7.99991C322.724 8.11891 382.892 34.2329 427.314 76.6849L463.029 40.9699C478.149 25.8509 504 36.5589 504 57.9409V192C504 205.255 493.255 216 480 216H345.941C324.559 216 313.851 190.149 328.97 175.029L370.72 133.279C339.856 104.38 299.919 88.3719 257.49 88.0059C165.092 87.2079 87.207 161.983 88.006 257.448C88.764 348.009 162.184 424 256 424C297.127 424 335.997 409.322 366.629 382.444C371.372 378.283 378.535 378.536 382.997 382.997L422.659 422.659C427.531 427.531 427.29 435.474 422.177 440.092C378.202 479.813 319.926 504 256 504C119.034 504 8.001 392.967 8 256.002C7.999 119.193 119.646 7.75491 256.455 7.99991Z" fill="white"/>
</svg>
