<svg width="576" height="512" viewBox="0 0 576 512" fill="none" xmlns="http://www.w3.org/2000/svg">
<path d="M288 0C218.41 0 162 56.41 162 126C162 182.26 244.35 284.8 275.9 322.02C282.29 329.56 293.72 329.56 300.1 322.02C331.65 284.8 414 182.26 414 126C414 56.41 357.59 0 288 0ZM288 168C264.8 168 246 149.2 246 126C246 102.8 264.8 84 288 84C311.2 84 330 102.8 330 126C330 149.2 311.2 168 288 168ZM20.12 215.95C14.1818 218.325 9.09131 222.425 5.5051 227.72C1.91889 233.016 0.00142221 239.264 0 245.66L0 495.98C0 507.3 11.43 515.04 21.94 510.84L160 448V214.92C151.16 198.94 143.93 183.38 138.75 168.5L20.12 215.95ZM288 359.67C273.93 359.67 260.62 353.49 251.49 342.71C231.83 319.51 210.92 293.09 192 265.99V447.99L384 511.99V266C365.08 293.09 344.18 319.52 324.51 342.72C315.38 353.49 302.07 359.67 288 359.67ZM554.06 161.16L416 224V512L555.88 456.05C561.819 453.676 566.91 449.577 570.497 444.281C574.083 438.985 576 432.736 576 426.34V176.02C576 164.7 564.57 156.96 554.06 161.16Z" fill="white"/>
</svg>
