<svg width="512" height="512" viewBox="0 0 512 512" fill="none" xmlns="http://www.w3.org/2000/svg">
<g clip-path="url(#clip0)">
<path d="M508.5 468.9L387.1 347.5C384.8 345.2 381.8 344 378.6 344H365.4C396.9 307.5 416 260 416 208C416 93.1 322.9 0 208 0C93.1 0 0 93.1 0 208C0 322.9 93.1 416 208 416C260 416 307.5 396.9 344 365.4V378.6C344 381.8 345.3 384.8 347.5 387.1L468.9 508.5C473.6 513.2 481.2 513.2 485.9 508.5L508.5 485.9C513.2 481.2 513.2 473.6 508.5 468.9ZM208 368C119.6 368 48 296.4 48 208C48 119.6 119.6 48 208 48C296.4 48 368 119.6 368 208C368 296.4 296.4 368 208 368Z" fill="white"/>
</g>
<defs>
<clipPath id="clip0">
<rect width="512" height="512" fill="white"/>
</clipPath>
</defs>
</svg>
