<svg width="107" height="50" viewBox="0 0 107 50" fill="none" xmlns="http://www.w3.org/2000/svg">
<path d="M0 28.8461H4.20854V37.8998H4.273L11.4008 28.8461H15.8304L7.89216 38.233L16.6592 49.6762H11.5205L4.273 39.5848H4.20854V49.6667H0V28.8461Z" fill="white"/>
<path d="M41.0171 35.4055C40.9803 35.5674 38.7241 45.9634 38.7241 45.9634C38.7241 45.9634 35.3075 35.5483 35.2615 35.4055C35.1325 35.4055 33.5117 35.4055 33.3736 35.4055C33.3276 35.5578 30.2149 46.1443 30.2149 46.1443C30.2149 46.1443 27.6456 35.5578 27.6087 35.4055C27.4614 35.4055 24.4776 35.4055 24.229 35.4055C24.3027 35.6721 28.0508 49.5239 28.0876 49.6763C28.2349 49.6763 31.1266 49.6763 31.2647 49.6763C31.3108 49.5335 34.184 40.5559 34.184 40.5559C34.184 40.5559 37.3795 49.5335 37.4256 49.6763C37.5637 49.6763 40.4922 49.6763 40.6395 49.6763C40.6764 49.5144 43.964 35.6626 44.0193 35.4055C43.8075 35.4055 41.1645 35.4055 41.0171 35.4055Z" fill="white"/>
<path d="M54.8584 47.439C54.8584 47.439 54.8584 49.4763 54.8584 49.6667C55.0517 49.6667 58.3762 49.6667 58.5696 49.6667C58.5696 49.4573 58.5696 39.9752 58.5696 39.9752C58.5696 37.4237 57.8789 35.0627 52.8508 35.0627C48.8633 35.0627 46.7268 36.5955 46.6807 39.4991C46.8833 39.4991 50.4748 39.4991 50.6498 39.4991C50.6498 39.442 50.659 39.3754 50.659 39.3754C50.7143 38.3662 50.834 36.2718 52.8232 36.2718C54.2598 36.2718 54.8676 37.1477 54.8676 39.204V41.7364H54.7663C52.6298 41.8221 46.1282 42.0886 46.1282 46.4679C46.1282 48.4672 47.9331 49.9809 50.3275 49.9809C53.4217 49.9999 54.8584 47.439 54.8584 47.439ZM51.847 48.1149C50.6867 48.1149 49.9591 47.2962 49.9591 45.9729C49.9591 44.2783 51.5707 43.2691 54.7478 42.974L54.8584 42.9645V44.145C54.8584 46.1157 53.8269 48.1149 51.847 48.1149Z" fill="white"/>
<path d="M68.5799 49.9999C69.4455 49.9999 70.302 49.9142 71.2137 49.8286H71.2321C71.2321 49.6667 71.2321 48.1625 71.2321 47.934C70.6795 48.0864 70.0717 48.1149 69.5837 48.1149C68.0089 48.1149 67.4748 47.4866 67.4748 45.6302V36.9478C67.4748 36.9478 71.6189 36.9478 71.8123 36.9478C71.8123 36.7669 71.8123 35.5769 71.8123 35.396C71.6189 35.396 67.4748 35.396 67.4748 35.396C67.4748 35.396 67.4748 30.1789 67.4748 29.8362C67.1985 29.998 63.8648 31.883 63.7635 31.9401C63.7635 32.0639 63.7635 35.396 63.7635 35.396C63.7635 35.396 61.0745 35.396 60.8811 35.396C60.8811 35.5769 60.8811 36.7669 60.8811 36.9478C61.0745 36.9478 63.7635 36.9478 63.7635 36.9478V46.0871C63.7635 49.3526 65.6053 49.9999 68.5799 49.9999Z" fill="white"/>
<path d="M80.5515 49.9999C82.7525 49.9999 83.7102 49.7143 85.4323 49.0289C85.4323 48.9051 85.4323 47.9531 85.4323 47.7246C84.6127 48.0102 83.5721 48.3244 82.5223 48.3244C77.9914 48.3244 76.5272 43.3548 76.5272 40.9462V40.8415C76.5272 40.8415 85.5152 40.8415 85.7178 40.8415C85.7178 40.6987 85.7178 40.4036 85.7178 40.4036C85.7178 36.9573 83.5353 35.0627 79.5754 35.0627C75.0906 35.0627 72.8159 37.3476 72.8159 41.8602C72.8251 49.2097 78.2308 49.9999 80.5515 49.9999ZM76.5364 39.4135C76.6745 38.471 77.2271 36.2813 79.4556 36.2813C82.071 36.2813 82.1539 39.1088 82.1539 39.4325V39.5372H76.5272L76.5364 39.4135Z" fill="white"/>
<path d="M97.7356 38.6614C97.7356 38.471 97.7356 35.3103 97.7356 35.0818C95.0281 35.3008 93.6928 37.0905 92.5969 39.0231L92.4588 39.2516C92.4588 39.2516 92.4588 35.6054 92.4588 35.4055C92.2654 35.4055 88.9409 35.4055 88.7476 35.4055C88.7476 35.6149 88.7476 49.4668 88.7476 49.6762C88.9409 49.6762 92.2654 49.6762 92.4588 49.6762C92.4588 49.4668 92.4588 43.2977 92.4588 43.2977C92.4588 39.9847 93.9415 38.6804 97.7356 38.6614Z" fill="white"/>
<path d="M24.2383 28.6938C34.8932 21.8678 47.4543 17.9265 60.8811 17.9265C74.4092 17.9265 87.044 21.925 97.7542 28.8461V19.345C86.8967 13.2711 74.4921 9.79625 61.3231 9.72009C47.3162 12.5285 34.5985 19.1451 24.2383 28.4844V28.6938Z" fill="url(#paint0_linear)"/>
<path d="M24.2383 19.2213V28.4939C34.5985 19.1546 47.307 12.5381 61.3231 9.72963C61.1758 9.72963 61.0284 9.72011 60.8811 9.72011C47.6477 9.71059 35.1694 13.1569 24.2383 19.2213Z" fill="#005097"/>
<path d="M76.4997 0C57.4093 0 39.2582 6.2738 24.2383 17.8694V19.2117C35.1602 13.1474 47.6385 9.71059 60.8811 9.71059C61.0285 9.71059 61.1758 9.72011 61.3231 9.72011C66.2408 8.73001 71.315 8.21592 76.4997 8.21592C87.3019 8.21592 97.5976 10.4532 107 14.4992V5.66451C97.4963 1.99924 87.219 0 76.4997 0Z" fill="url(#paint1_linear)"/>
<defs>
<linearGradient id="paint0_linear" x1="24.2422" y1="19.2848" x2="97.7568" y2="19.2848" gradientUnits="userSpaceOnUse">
<stop offset="0.4" stop-color="#00B9EF"/>
<stop offset="1" stop-color="#4694D1"/>
</linearGradient>
<linearGradient id="paint1_linear" x1="24.2422" y1="9.60944" x2="106.999" y2="9.60944" gradientUnits="userSpaceOnUse">
<stop stop-color="#ED6C00"/>
<stop offset="1" stop-color="#FDD000"/>
</linearGradient>
</defs>
</svg>
