<svg xmlns="http://www.w3.org/2000/svg" viewBox="0 0 173.75 53.87"><defs><style>.cls-1{fill:#df0515;}.cls-2{fill:#251511;}.cls-3{fill:#f49c00;}.cls-4{fill:#0078c0;}</style></defs><g id="레이어_2" data-name="레이어 2"><g id="레이어_1-2" data-name="레이어 1"><path class="cls-1" d="M43.24,41.27c-.92-6.92-4.33-12.56-7.81-12.59s-8.57,5.65-11.53,12.6.39,12.59,7.84,12.59,12.41-5.67,11.5-12.6"/><path class="cls-2" d="M7.7,22.85h0a7.69,7.69,0,0,0-7.7,8,7.59,7.59,0,0,0,7.7,7.86,8.15,8.15,0,0,0,6.36-3,2.3,2.3,0,0,0-2-1.07c-1.36,0-1.66,1.35-4.33,1.35a4.93,4.93,0,0,1-4.79-5.1A5,5,0,0,1,7.7,25.61c2.38,0,3,1.42,4.19,1.42A2.93,2.93,0,0,0,14,25.9a8,8,0,0,0-6.3-3"/><path class="cls-2" d="M23.4,23.32H17.14A1.63,1.63,0,0,0,15.34,25v.92h2.79s.11,9.43,0,10.44h0A4,4,0,0,1,16,39.81a2.2,2.2,0,0,0-1.56,2.37c0,.07,0,.12.09.12h0c.05,0,1.46-.36,1.67-.45h0a7.08,7.08,0,0,0,4.31-3.18,8.45,8.45,0,0,0,.89-4.38v-8.4h.13a1.72,1.72,0,0,0,1.91-1.64v-.92"/><path class="cls-3" d="M55.66,18.36c-6.52-2.56-13.12-2.3-14.8.74s.8,10.22,5.44,16.18S57.49,41,61.11,34.52s1.06-13.6-5.45-16.16"/><path class="cls-4" d="M22.48,20.44c5.79,4,12.27,5.15,14.57,2.59s1.52-10.14-1.68-17S25.74-2.07,20.76,3.48s-4.06,13,1.72,17"/><path class="cls-2" d="M148.45,23.2h1.26l4.93,11v.08a1,1,0,0,1-.37.82,1.48,1.48,0,0,1-1,.28h-1.13L151,32.69h-3.9l.35-.85a2.38,2.38,0,0,1,.59-.95,1.48,1.48,0,0,1,1-.34h1l-1.63-3.8-3.35,7.83h0a1.2,1.2,0,0,1-1.26.78h-1.76l5-11.55c.22-.46.73-.62,1.38-.62"/><path class="cls-2" d="M93.65,23.19a1.19,1.19,0,0,0-1.34,1.32l3.08,10.87h1.53a1.33,1.33,0,0,0,1.36-.77l2.1-7.66,3.11,8.43h1.31a1.3,1.3,0,0,0,1.34-.77l2.94-11.42h-1.81a1.14,1.14,0,0,0-1.27.95l-1.32,6.73a5.14,5.14,0,0,0-.1,1.18l-2.88-8.86h-1.58a1.33,1.33,0,0,0-1.41.9h0L97,31.18a5,5,0,0,0-.08.82l-2.14-8.81H93.65"/><path class="cls-2" d="M118.39,23.19h-6.28a1.54,1.54,0,0,0-1.06.32,1.24,1.24,0,0,0-.37,1v10.9H117c.86,0,1.44-.43,1.44-1.23v-1h-4a1.11,1.11,0,0,0-1,.47l0,.08V30.38h3.34c.84,0,1.42-.42,1.42-1.22v-1h-3.65a1.17,1.17,0,0,0-1.07.48l0,.07V25.37H117a1.3,1.3,0,0,0,1.44-1.3v-.88"/><path class="cls-2" d="M173.75,23.19h-7.84a1.31,1.31,0,0,0-1.44,1.31v1.32h3.31v9.55h1.16c.93,0,1.44-.46,1.44-1.3V25.82h1.92a1.31,1.31,0,0,0,1.45-1.3V23.19"/><path class="cls-2" d="M159.66,22.94a3.61,3.61,0,0,0-3.87,3.46c0,1.9,1.41,2.77,2.79,3.36l1.18.54c1.2.49,1.64.95,1.64,1.7a1.58,1.58,0,0,1-1.63,1.59h-.17a1.74,1.74,0,0,1-1.6-.65l0,0a2.27,2.27,0,0,0-1.73-1l-.81.17,0,.44a4,4,0,0,0,4.17,3.36A3.92,3.92,0,0,0,163.87,32c0-2.42-1.81-3.41-3.16-3.94l-1.21-.52c-1.12-.43-1.25-.86-1.25-1.14,0-.65.71-1.09,1.38-1.09a1.45,1.45,0,0,1,.94.25h0a2,2,0,0,0,1.19.36,2.37,2.37,0,0,0,.75-.13l.77-.43-.25-.45a3.74,3.74,0,0,0-3.38-2"/><path class="cls-2" d="M69.79,30.56V25.75H72A2.11,2.11,0,0,1,72,30h-.88a1.48,1.48,0,0,0-1.35.6m3-7.36H68.59c-1.19,0-1.84.57-1.84,1.65V38.69H68c1.09,0,1.83-.55,1.83-1.58V32.48h3c5.76,0,5.64-9.28,0-9.28"/><path class="cls-2" d="M84.9,33.17a3.55,3.55,0,0,1-3.64-3.86,3.59,3.59,0,0,1,3.64-3.92,3.65,3.65,0,0,1,3.6,3.92c0,2.43-1.39,3.86-3.6,3.86m0-10.36h0a6.48,6.48,0,0,0,0,13,6.26,6.26,0,0,0,6.29-6.45,6.35,6.35,0,0,0-6.28-6.5"/><path class="cls-2" d="M137.25,22.88A6.25,6.25,0,0,0,131,29.36a6.17,6.17,0,0,0,6.26,6.39,6.61,6.61,0,0,0,5.15-2.44l-.13-.17a1.86,1.86,0,0,0-.28-.29,1.83,1.83,0,0,0-1.2-.38,2.8,2.8,0,0,0-1.34.44,4.86,4.86,0,0,1-2.2.44,3.43,3.43,0,0,1-2.62-1.1,4.21,4.21,0,0,1-1-2.89,4.35,4.35,0,0,1,1-2.93,3.4,3.4,0,0,1,2.62-1.15,4.57,4.57,0,0,1,2.09.47,3,3,0,0,0,1.34.47,2,2,0,0,0,1.17-.41,3.59,3.59,0,0,0,.51-.48,6.52,6.52,0,0,0-5.11-2.45"/><path class="cls-2" d="M123.42,28.65V25.41h1.24c.94,0,1.9.16,1.9,1.38s-1,1.38-2,1.38h-.29a1,1,0,0,0-.88.48m1.37-5.46h-2.64c-.93,0-1.45.45-1.45,1.3V35.37H122c.85,0,1.44-.43,1.44-1.24V30.39H124l4,5h.58a1.3,1.3,0,0,0,1.41-.91.93.93,0,0,0-.14-.58l-3.08-3.83A3,3,0,0,0,129.28,27a3.66,3.66,0,0,0-1.15-2.8,4.58,4.58,0,0,0-3.34-1"/></g></g></svg>