<?xml version="1.0" standalone="no"?>
<!DOCTYPE svg PUBLIC "-//W3C//DTD SVG 20010904//EN"
 "http://www.w3.org/TR/2001/REC-SVG-20010904/DTD/svg10.dtd">
<svg version="1.0" xmlns="http://www.w3.org/2000/svg"
 width="29.000000pt" height="34.000000pt" viewBox="0 0 29.000000 34.000000"
 preserveAspectRatio="xMidYMid meet">

<g transform="translate(0.000000,34.000000) scale(0.100000,-0.100000)"
fill="#000000" stroke="none">
<path d="M72 269 l-72 -61 0 -104 0 -104 50 0 50 0 0 60 0 60 45 0 45 0 0 -60
0 -60 50 0 50 0 0 103 0 103 -57 49 c-32 28 -65 56 -74 62 -13 11 -27 3 -87
-48z m196 -158 l3 -91 -31 0 -30 0 0 60 0 60 -65 0 -65 0 0 -60 0 -60 -30 0
-30 0 0 89 0 89 62 55 63 55 60 -53 60 -53 3 -91z"/>
</g>
</svg>
