<svg xmlns="http://www.w3.org/2000/svg" width="69.5" height="57.5" viewBox="0 0 69.5 57.5"><defs><style>.a{fill:#fff;}.b{fill:#ddd;}</style></defs><rect class="a" width="67" height="55" rx="9.411" transform="translate(1.25 1.25)"/><path class="b" d="M814.966,1179.792H757.376a5.962,5.962,0,0,1-5.955-5.956v-45.589a5.962,5.962,0,0,1,5.955-5.956h57.589a5.962,5.962,0,0,1,5.956,5.956v45.589A5.962,5.962,0,0,1,814.966,1179.792Zm-57.589-55a3.46,3.46,0,0,0-3.455,3.456v45.589a3.46,3.46,0,0,0,3.455,3.456h57.589a3.46,3.46,0,0,0,3.456-3.456v-45.589a3.46,3.46,0,0,0-3.456-3.456Z" transform="translate(-751.421 -1122.292)"/><g transform="translate(1.5 9)"><line class="a" x2="67" transform="translate(0 1.25)"/><rect class="b" width="67" height="2.5" transform="translate(0)"/></g><rect class="b" width="66.5" height="9" rx="3" transform="translate(1.75 1.25)"/><circle class="a" cx="2" cy="2" r="2" transform="translate(48.5 4)"/><circle class="a" cx="2" cy="2" r="2" transform="translate(54.5 4)"/><circle class="a" cx="2" cy="2" r="2" transform="translate(60.5 4)"/><g transform="translate(-629.339 -1410.929)"><path class="b" d="M856.946,1455.136a4.548,4.548,0,0,0-4.571,4.616,4.259,4.259,0,0,0,1.348,3.181,4.825,4.825,0,0,0,3.22,1.335h0a1.868,1.868,0,0,0,1.4-.556,1.165,1.165,0,0,0,.213-.93,1.143,1.143,0,0,0-.463-.737,1.293,1.293,0,0,0-1-.2,2.163,2.163,0,0,1-1.572-.423,2.233,2.233,0,0,1-.862-1.592,2.165,2.165,0,0,1,.623-1.687,2.131,2.131,0,0,1,1.73-.661,2.251,2.251,0,0,1,2.028,2.339l.006,3.381,0,.019a1.33,1.33,0,0,0,1.27,1.152h0a1.26,1.26,0,0,0,1.188-1.233V1459.8A4.686,4.686,0,0,0,856.946,1455.136Z" transform="translate(-185.249 -15.707)"/><path class="b" d="M651.446,1438.943a1.23,1.23,0,0,0-1.228,1.228v3.015l-4.171.006v-3.021a1.23,1.23,0,0,0-1.228-1.228,1.089,1.089,0,0,0-1.228,1.163v8.829a1.21,1.21,0,0,0,1.228,1.069,1.23,1.23,0,0,0,1.228-1.228v-3.093h4.171v3.093a1.19,1.19,0,0,0,1.193,1.264,1.251,1.251,0,0,0,1.264-1.264v-8.6A1.23,1.23,0,0,0,651.446,1438.943Z" transform="translate(0 -1.339)"/><path class="b" d="M747.149,1456.136a3.737,3.737,0,0,0-2.242.822,3.477,3.477,0,0,0-5.722,2.656v4.407a1.234,1.234,0,0,0,2.469,0v-4.407a1.009,1.009,0,0,1,2.018,0v4.407a1.234,1.234,0,0,0,2.469,0v-4.407a1.009,1.009,0,0,1,2.018,0v4.407a1.234,1.234,0,1,0,2.469,0v-4.407A3.482,3.482,0,0,0,747.149,1456.136Z" transform="translate(-84.817 -16.594)"/><path class="b" d="M951.535,1447.428a1.235,1.235,0,0,1-2.469,0v-8.759a1.235,1.235,0,1,1,2.469,0Z" transform="translate(-271.04)"/><path class="b" d="M990.066,1447.428a1.235,1.235,0,0,1-2.469,0v-8.759a1.235,1.235,0,1,1,2.469,0Z" transform="translate(-305.228)"/></g></svg>