<svg xmlns="http://www.w3.org/2000/svg" width="21.67" height="16.001" viewBox="0 0 21.67 16.001"><defs><style>.a{fill:#fff;}.b{fill:none;stroke:#fff;stroke-linecap:round;stroke-width:2px;}</style></defs><g transform="translate(0 0)"><path class="a" d="M4.4,11.85H1a1,1,0,0,1-1-1V5.15a1,1,0,0,1,1-1H4.4L12.129,0V16Z" transform="translate(0 0)"/><path class="b" d="M314.849,684.66a2.233,2.233,0,0,1,1.673,2.39,2.168,2.168,0,0,1-1.673,2.246" transform="translate(-299.538 -679.16)"/><path class="b" d="M314.849,684.66a5.127,5.127,0,0,1,3.814,5.5c-.218,4.62-3.814,5.17-3.814,5.17" transform="translate(-298.003 -682.16)"/></g></svg>