<svg xmlns="http://www.w3.org/2000/svg" width="34" height="34" viewBox="0 0 34 34">
  <g id="그룹_11997" data-name="그룹 11997" transform="translate(22731 -6160)">
    <circle id="타원_1116" data-name="타원 1116" cx="17" cy="17" r="17" transform="translate(-22731 6160)" fill="none"/>
    <g id="그룹_11733" data-name="그룹 11733" transform="translate(-22726.75 6167.65)">
      <rect id="사각형_5124" data-name="사각형 5124" width="17.85" height="2.55" transform="translate(2.232 0)" fill="#fff" stroke="#000222" stroke-linecap="round" stroke-linejoin="round" stroke-width="1"/>
      <rect id="사각형_5125" data-name="사각형 5125" width="17.85" height="11.05" transform="translate(2.232 7.65)" fill="#fff" stroke="#000222" stroke-linecap="round" stroke-linejoin="round" stroke-width="1"/>
      <rect id="사각형_5126" data-name="사각형 5126" width="11.925" height="7.797" transform="translate(5.091 10.946)" fill="#fff" stroke="#000222" stroke-linecap="round" stroke-linejoin="round" stroke-width="1"/>
      <path id="패스_4495" data-name="패스 4495" d="M0,0V7.8" transform="translate(8.627 10.946)" fill="none" stroke="#000222" stroke-linecap="round" stroke-width="1"/>
      <line id="선_254" data-name="선 254" y2="7.797" transform="translate(13.243 10.946)" fill="none" stroke="#000222" stroke-linecap="round" stroke-linejoin="round" stroke-width="1"/>
      <rect id="사각형_5127" data-name="사각형 5127" width="7.797" height="7.797" transform="translate(18.85 10.946)" fill="#336e5a" stroke="#000222" stroke-linecap="round" stroke-linejoin="round" stroke-width="1"/>
      <rect id="사각형_5128" data-name="사각형 5128" width="0.68" height="1.376" transform="translate(11.97 14.156)" fill="#000222"/>
      <rect id="사각형_5129" data-name="사각형 5129" width="0.764" height="1.835" transform="translate(20.608 10.946)" fill="#000222"/>
      <rect id="사각형_5130" data-name="사각형 5130" width="0.764" height="1.835" transform="translate(24.048 10.946)" fill="#000222"/>
      <g id="그룹_11732" data-name="그룹 11732" transform="translate(0 2.306)">
        <rect id="사각형_5131" data-name="사각형 5131" width="22.015" height="5.962" fill="#fff" stroke="#000222" stroke-linecap="round" stroke-linejoin="round" stroke-width="1"/>
        <g id="그룹_11731" data-name="그룹 11731" transform="translate(2.938 1.781)">
          <g id="그룹_11730" data-name="그룹 11730">
            <g id="그룹_11729" data-name="그룹 11729">
              <path id="패스_4488" data-name="패스 4488" d="M395.858,955.4v-2.351h-.539l.1.177V955.4Z" transform="translate(-379.72 -953.046)" fill="#231815"/>
              <path id="패스_4489" data-name="패스 4489" d="M380.22,955.4v-2.351h-.449l.1.181V954.7l-1.226-1.653h-.506l.126.177V955.4h.346v-1.715l1.218,1.715Z" transform="translate(-370.421 -953.046)" fill="#231815"/>
              <path id="패스_4490" data-name="패스 4490" d="M374.441,955.032v-1.987H373.9l.1.177v1.783a.707.707,0,0,1-.378.11.555.555,0,0,1-.549-.559v-1.511h-.539l.1.177v1.46a.768.768,0,0,0,.791.762,1.388,1.388,0,0,0,.782-.265,2.129,2.129,0,0,0,.226-.148" transform="translate(-367.387 -953.046)" fill="#231815"/>
              <path id="패스_4491" data-name="패스 4491" d="M368.952,953.046h-.574l.07.177-.51.849-.61-1.027h-.52l.859,1.414v.936h.436v-.95Z" transform="translate(-364.285 -953.046)" fill="#231815"/>
              <path id="패스_4492" data-name="패스 4492" d="M363.264,955.4v-2.351h-.539l.1.177v.791h-.982v-.969h-.539l.1.177V955.4h.436v-1.056h.982V955.4Z" transform="translate(-361.307 -953.046)" fill="#231815"/>
              <path id="패스_4493" data-name="패스 4493" d="M385.162,953.046h-1l.1.177V955.4h.7a1.155,1.155,0,0,0,.585-.152c.065-.035.129-.074.194-.113a1.118,1.118,0,0,0-.582-2.086m.333,1.957a.652.652,0,0,1-.358.074H384.7v-1.712h.245a.907.907,0,0,1,.914.914.85.85,0,0,1-.362.723" transform="translate(-373.677 -953.046)" fill="#231815"/>
              <path id="패스_4494" data-name="패스 4494" d="M390.581,953.046h-.472l.077.177-.962,2.174h.514l-.068-.178.206-.468h.982l.288.646h.475Zm-.562,1.389.352-.794.352.794Z" transform="translate(-376.42 -953.046)" fill="#231815"/>
            </g>
          </g>
        </g>
      </g>
    </g>
  </g>
</svg>
