<svg xmlns="http://www.w3.org/2000/svg" width="34" height="34" viewBox="0 0 34 34">
  <g id="그룹_11998" data-name="그룹 11998" transform="translate(-410 -208)">
    <circle id="타원_1119" data-name="타원 1119" cx="17" cy="17" r="17" transform="translate(410 208)" fill="none"/>
    <g id="그룹_12003" data-name="그룹 12003" transform="translate(414 215)">
      <g id="그룹_11880" data-name="그룹 11880" transform="translate(0)">
        <g id="사각형_5194" data-name="사각형 5194" transform="translate(0 5.6)" fill="#fff" stroke="#000" stroke-linejoin="round" stroke-width="1">
          <rect width="26" height="14.4" stroke="none"/>
          <rect x="0.5" y="0.5" width="25" height="13.4" fill="none"/>
        </g>
        <g id="사각형_5195" data-name="사각형 5195" transform="translate(6.276 0.8)" fill="#fff" stroke="#000" stroke-linejoin="round" stroke-width="1">
          <rect width="13.448" height="19.2" stroke="none"/>
          <rect x="0.5" y="0.5" width="12.448" height="18.2" fill="none"/>
        </g>
        <g id="사각형_5196" data-name="사각형 5196" transform="translate(0 15.2)" fill="none" stroke="#000" stroke-width="1">
          <rect width="26" height="1.032" rx="0.516" stroke="none"/>
          <rect x="0.5" y="0.5" width="25" height="0.032" rx="0.016" fill="none"/>
        </g>
        <g id="사각형_5197" data-name="사각형 5197" transform="translate(6.276)" fill="#336e5a" stroke="#000" stroke-linejoin="round" stroke-width="1">
          <rect width="13.448" height="4.2" stroke="none"/>
          <rect x="0.5" y="0.5" width="12.448" height="3.2" fill="none"/>
        </g>
      </g>
      <path id="패스_4461" data-name="패스 4461" d="M141.093,306.051v-4.814h-1.061l.2.361v1.621H138.3v-1.982H137.24l.2.361v4.453h.859v-2.162h1.932v2.162Z" transform="translate(-126.272 -294.124)" fill="#20433c"/>
    </g>
  </g>
</svg>
