<svg xmlns="http://www.w3.org/2000/svg" width="18" height="18" viewBox="0 0 18 18"><defs><style>.a{fill:#6d48f8;}.b,.c{fill:none;stroke:#fff;}.b{stroke-miterlimit:10;}.c{stroke-linejoin:round;}</style></defs><g transform="translate(-663.178 -2152.862)"><circle class="a" cx="9" cy="9" r="9" transform="translate(663.178 2152.862)"/><g transform="translate(666.6 2157.772)"><path class="b" d="M675.831,2158.972" transform="translate(-666.519 -2158.872)"/><path class="c" d="M668.7,2158.872l1.545,3.146,1.936-3.146Z" transform="translate(-666.585 -2158.872)"/><path class="c" d="M675.628,2158.872l-1.545,3.146-1.936-3.146Z" transform="translate(-666.553 -2158.872)"/><path class="c" d="M668.719,2158.872l-2.115,3.146h3.659Z" transform="translate(-666.604 -2158.872)"/><path class="c" d="M677.683,2162.019l-2.072-3.146-1.569,3.146Z" transform="translate(-666.536 -2158.872)"/><path class="c" d="M672.166,2158.872l-1.936,3.146h3.847Z" transform="translate(-666.571 -2158.872)"/><path class="c" d="M666.6,2161.99h3.659l1.924,6.284Z" transform="translate(-666.604 -2158.843)"/><path class="c" d="M677.709,2161.99h-3.641l-1.924,6.284Z" transform="translate(-666.553 -2158.843)"/><path class="c" d="M670.23,2161.99h3.856l-1.924,6.284Z" transform="translate(-666.571 -2158.843)"/></g></g></svg>