<svg xmlns="http://www.w3.org/2000/svg" width="140" height="140" viewBox="0 0 140 140"><defs><style>.a{fill:#f4f4f4;}.b{fill:#fff;}.c{fill:#ddd;}</style></defs><g transform="translate(-1350 -1038)"><circle class="a" cx="70" cy="70" r="70" transform="translate(1350 1038)"/><g transform="translate(1390 1081.5)"><circle class="b" cx="22.75" cy="22.75" r="22.75" transform="translate(1.25 1.25)"/><path class="c" d="M1454,1173a24,24,0,1,1,24-24A24.027,24.027,0,0,1,1454,1173Zm0-45.5a21.5,21.5,0,1,0,21.5,21.5A21.525,21.525,0,0,0,1454,1127.5Z" transform="translate(-1430 -1125)"/></g><g transform="translate(1429.72 1118.234)"><line class="b" x2="16.263" y2="16.263" transform="translate(0.884 0.884)"/><rect class="c" width="2.5" height="23" transform="matrix(0.707, -0.707, 0.707, 0.707, 0, 1.768)"/></g><g transform="translate(1423.085 1079.396)"><circle class="c" cx="9.457" cy="9.457" r="9.457"/><path class="b" d="M1507.419,1139.8a.8.8,0,0,1-.563-1.36l6.87-6.87a.8.8,0,0,1,1.126,1.126l-6.871,6.87A.792.792,0,0,1,1507.419,1139.8Z" transform="translate(-1501.397 -1126.067)"/><path class="b" d="M1514.289,1139.8a.794.794,0,0,1-.563-.234l-6.87-6.87a.8.8,0,0,1,1.126-1.126l6.871,6.87a.8.8,0,0,1-.563,1.36Z" transform="translate(-1501.397 -1126.067)"/></g></g></svg>