<svg xmlns="http://www.w3.org/2000/svg" width="140" height="140" viewBox="0 0 140 140"><defs><style>.a{fill:#f4f4f4;}.b{fill:#fff;}.c{fill:#ddd;}</style></defs><g transform="translate(-2337.594 -1049.671)"><circle class="a" cx="70" cy="70" r="70" transform="translate(2337.594 1049.671)"/><g transform="translate(2368.979 1090.533)"><g transform="translate(28.433 45.914)"><line class="b" x1="22.25" transform="translate(0 1.253)"/><rect class="c" width="22.251" height="2.505"/></g><g transform="translate(22.779)"><path class="b" d="M2448.189,1175.7v-38.25a3.733,3.733,0,0,1,3.733-3.733h41.6a3.733,3.733,0,0,1,3.732,3.733v42.182h-49.064" transform="translate(-2446.936 -1132.466)"/><path class="c" d="M2496.006,1179.638h-49.064v-2.505h47.812V1136.2a2.482,2.482,0,0,0-2.48-2.48h-41.6a2.482,2.482,0,0,0-2.48,2.48v38.25h-2.505V1136.2a4.991,4.991,0,0,1,4.986-4.985h41.6a4.991,4.991,0,0,1,4.986,4.985v42.182A1.253,1.253,0,0,1,2496.006,1179.638Z" transform="translate(-2445.689 -1131.219)"/></g><g transform="translate(0 8.529)"><path class="b" d="M2416.795,1188.125h-14.066v-8.816c0-26.761,22.779-28.57,22.779-28.57v33.924" transform="translate(-2401.476 -1149.488)"/><path class="c" d="M2415.548,1188.131h-14.067a1.253,1.253,0,0,1-1.253-1.253v-8.816c0-14.378,6.5-21.729,11.947-25.362a27.622,27.622,0,0,1,11.985-4.456,1.252,1.252,0,0,1,1.352,1.249v33.924h-2.505V1150.93c-4.772.854-20.273,5.309-20.273,27.132v7.563h12.814Z" transform="translate(-2400.229 -1148.24)"/></g><g transform="translate(13.39 41.982)"><circle class="b" cx="6.895" cy="6.895" r="6.895" transform="translate(1.253 1.253)"/><path class="c" d="M2435.1,1231.3a8.148,8.148,0,1,1,8.148-8.147A8.157,8.157,0,0,1,2435.1,1231.3Zm0-13.79a5.642,5.642,0,1,0,5.643,5.643A5.649,5.649,0,0,0,2435.1,1217.509Z" transform="translate(-2426.951 -1215.004)"/></g><g transform="translate(49.084 42.717)"><circle class="b" cx="6.528" cy="6.528" r="6.528" transform="translate(1.253 1.252)"/><path class="c" d="M2505.969,1232.031a7.78,7.78,0,1,1,7.781-7.781A7.789,7.789,0,0,1,2505.969,1232.031Zm0-13.055a5.275,5.275,0,1,0,5.275,5.275A5.281,5.281,0,0,0,2505.969,1218.975Z" transform="translate(-2498.188 -1216.47)"/></g></g></g></svg>