<svg xmlns="http://www.w3.org/2000/svg" width="18" height="18" viewBox="0 0 18 18"><defs><style>.a{fill:#fff;}.b,.d{fill:#999;}.b{font-size:13px;font-family:Roboto-Medium, Roboto;font-weight:500;letter-spacing:-0.04em;}.c,.d{stroke:none;}</style></defs><g class="a"><path class="c" d="M 9 17.5 C 4.313079833984375 17.5 0.5 13.68692016601563 0.5 9 C 0.5 4.313079833984375 4.313079833984375 0.5 9 0.5 C 13.68692016601563 0.5 17.5 4.313079833984375 17.5 9 C 17.5 13.68692016601563 13.68692016601563 17.5 9 17.5 Z"/><path class="d" d="M 9 1 C 4.588789939880371 1 1 4.588789939880371 1 9 C 1 13.41121006011963 4.588789939880371 17 9 17 C 13.41121006011963 17 17 13.41121006011963 17 9 C 17 4.588789939880371 13.41121006011963 1 9 1 M 9 0 C 13.97056007385254 0 18 4.029439926147461 18 9 C 18 13.97056007385254 13.97056007385254 18 9 18 C 4.029439926147461 18 0 13.97056007385254 0 9 C 0 4.029439926147461 4.029439926147461 0 9 0 Z"/></g><text class="b" transform="translate(6 14)"><tspan x="0" y="0">?</tspan></text></svg>