<svg xmlns="http://www.w3.org/2000/svg" width="118" height="30" viewBox="0 0 118 30"><defs><style>.a{fill:#fff;stroke:#eee;}.b,.c{fill:none;}.c{stroke:#999;stroke-linecap:round;stroke-linejoin:round;stroke-width:1.5px;}.d{fill:#ff5340;font-size:14px;font-family:Roboto-Bold, Roboto;letter-spacing:-0.04em;font-weight:700;}.e{fill:#999;font-family:Roboto-Regular, Roboto;font-weight:400;}.f{stroke:none;}</style></defs><g transform="translate(-100 -1014)"><g transform="translate(64 103)"><g class="a" transform="translate(36 911)"><rect class="f" width="30" height="30" rx="5"/><rect class="b" x="0.5" y="0.5" width="29" height="29" rx="4.5"/></g><g transform="translate(0 1)"><rect class="b" width="7" height="10" transform="translate(47 920)"/><path class="c" d="M4,8,0,4,4,0" transform="translate(48.167 921)"/></g></g><g transform="translate(30 1)"><text class="d" transform="translate(115 1034)"><tspan x="0" y="0">3</tspan><tspan class="e" y="0">/36</tspan></text></g><g transform="translate(254 1955) rotate(180)"><g class="a" transform="translate(36 911)"><rect class="f" width="30" height="30" rx="5"/><rect class="b" x="0.5" y="0.5" width="29" height="29" rx="4.5"/></g><g transform="translate(0 1)"><rect class="b" width="7" height="10" transform="translate(47 920)"/><path class="c" d="M4,8,0,4,4,0" transform="translate(48.167 921)"/></g></g></g></svg>