<svg xmlns="http://www.w3.org/2000/svg" width="16" height="16" viewBox="0 0 16 16"><defs><style>.a,.b,.d{fill:none;}.a,.b{stroke:#999;}.b{stroke-miterlimit:10;}.c{stroke:none;}</style></defs><g transform="translate(0 0)"><g class="a" transform="translate(0 0)"><circle class="c" cx="8" cy="8" r="8"/><circle class="d" cx="8" cy="8" r="7.5"/></g><g transform="translate(8.315 2.615) rotate(34)"><path class="b" d="M3.866,2.038,2.792.15a.261.261,0,0,0-.472,0L1.246,2.038.056,4.13a.453.453,0,0,0-.006.427l1.2,2.251,1.073,2.02a.258.258,0,0,0,.474,0l1.073-2.02,1.2-2.254a.446.446,0,0,0-.006-.421Z" transform="translate(0.096 0)"/><line class="b" x2="5.264" transform="translate(0 4.341)"/></g></g></svg>