<svg xmlns="http://www.w3.org/2000/svg" width="62.74" height="57.015" viewBox="0 0 62.74 57.015"><defs><style>.a,.c{fill:none;}.a{stroke:#231815;stroke-linecap:round;stroke-linejoin:round;stroke-width:2px;}.b{stroke:none;}</style></defs><g transform="translate(-37.417 -592.965)"><line class="a" x2="50.111" transform="translate(38.417 608)"/><path class="a" d="M78.056,635H46.366a1,1,0,0,1-.992-.888l-3.779-25A1,1,0,0,1,42.587,608h41.77a1,1,0,0,1,.992,1.108L83.79,623.046"/><line class="a" y1="13.667" x2="7.979" transform="translate(50.889 594.333)"/><line class="a" x1="7.979" y1="13.667" transform="translate(66.889 594.333)"/><g class="a" transform="translate(77 622)"><circle class="b" cx="10" cy="10" r="10"/><circle class="c" cx="10" cy="10" r="9"/></g><path class="a" d="M85.157,641.02l-4.2,7.96-1.943-3.206-3.743.206,4.2-7.96"/><path class="a" d="M94.957,638.02l4.2,7.96-3.743-.206-1.943,3.206-4.2-7.96"/><path class="a" d="M83.9,632.143,86.365,635l4.286-5"/><line class="a" x2="1.762" y2="15.741" transform="translate(53.116 614)"/><line class="a" x1="1.762" y2="15.741" transform="translate(73.116 614)"/><line class="a" y2="15.741" transform="translate(64.222 614)"/></g></svg>