<svg xmlns="http://www.w3.org/2000/svg" width="52.234" height="55.117" viewBox="0 0 52.234 55.117"><defs><style>.a,.c,.f{fill:none;}.a,.b,.c{stroke-miterlimit:10;}.b{fill:#f3f3f3;}.b,.c{stroke:#e6007e;stroke-width:2px;}.c{stroke-linecap:round;}.d,.e{stroke:none;}.e{fill:#000;}</style></defs><g transform="translate(-5.883 -3.883)"><g class="a" transform="translate(-156)"><path class="d" d="M195.289,16.075a8,8,0,0,1,0,11.314L184.682,38a8,8,0,0,1-11.314,0h0a3,3,0,0,0-4.242,0l-6.364,6.364a3,3,0,0,0,0,4.242l2.828,2.829a16,16,0,0,0,22.628,0l21.213-21.213a16,16,0,0,0,0-22.628L206.6,4.762a3,3,0,0,0-4.242,0l-7.071,7.071a3,3,0,0,0,0,4.242Z"/><path class="e" d="M 204.4810028076172 5.88299560546875 C 204.3264465332031 5.88299560546875 204.0291900634766 5.921005249023438 203.7742156982422 6.176204681396484 L 196.7026214599609 13.24779510498047 C 196.4480133056641 13.50218200683594 196.4100036621094 13.79944229125977 196.4100036621094 13.95399475097656 C 196.4100036621094 14.10854721069336 196.4480133056641 14.40580749511719 196.7034301757813 14.66100692749023 C 200.6017761230469 18.56058120727539 200.6016693115234 24.90474700927734 196.7032012939453 28.80320739746094 L 186.0962219238281 39.41021728515625 C 184.2075500488281 41.29886627197266 181.6962738037109 42.33899688720703 179.0249938964844 42.33899688720703 C 176.3537139892578 42.33899688720703 173.8424377441406 41.29886627197266 171.9531707763672 39.40959548950195 C 171.6988067626953 39.1550178527832 171.4015502929688 39.11700439453125 171.2469940185547 39.11700439453125 C 171.0924377441406 39.11700439453125 170.7951965332031 39.1550178527832 170.5402221679688 39.41020584106445 L 164.1756134033203 45.77480697631836 C 163.9210052490234 46.02919387817383 163.8829956054688 46.32644271850586 163.8829956054688 46.48099517822266 C 163.8829956054688 46.63554763793945 163.9210052490234 46.93279266357422 164.1764526367188 47.18803024291992 L 167.0042114257813 50.01678466796875 C 169.6482849121094 52.66084289550781 173.1639556884766 54.11699676513672 176.9036254882813 54.11699676513672 C 180.6433563232422 54.11699676513672 184.1593322753906 52.66080474853516 186.8037872314453 50.01678466796875 L 208.0166625976563 28.80389022827148 C 210.6608123779297 26.15933609008789 212.1170043945313 22.64334869384766 212.1170043945313 18.90361785888672 C 212.1170043945313 15.16395950317383 210.6608428955078 11.64827728271484 208.0170288085938 9.004451751708984 L 205.1871948242188 6.175605773925781 C 204.9328155517578 5.921005249023438 204.6355438232422 5.88299560546875 204.4810028076172 5.88299560546875 M 204.4810028076172 3.88299560546875 C 205.2487487792969 3.88299560546875 206.0165100097656 4.175994873046875 206.6020050048828 4.761993408203125 L 209.4309997558594 7.589996337890625 C 215.6790008544922 13.83800506591797 215.6790008544922 23.968994140625 209.4309997558594 30.21799468994141 L 188.2180023193359 51.43099594116211 C 185.0934906005859 54.55499267578125 180.9984893798828 56.11699676513672 176.9036254882813 56.11699676513672 C 172.8087463378906 56.11699676513672 168.7139892578125 54.55499267578125 165.5899963378906 51.43099594116211 L 162.7619934082031 48.60199356079102 C 161.5899963378906 47.43099594116211 161.5899963378906 45.5309944152832 162.7619934082031 44.35999298095703 L 169.1260070800781 37.99599456787109 C 169.7115020751953 37.40999984741211 170.479248046875 37.11700439453125 171.2470092773438 37.11700439453125 C 172.0147552490234 37.11700439453125 172.7825012207031 37.40999984741211 173.3679962158203 37.99599456787109 C 174.9300079345703 39.5579948425293 176.9775085449219 40.33899688720703 179.0250091552734 40.33899688720703 C 181.072509765625 40.33899688720703 183.1199951171875 39.5579948425293 184.6820068359375 37.99599456787109 L 195.2890014648438 27.38899612426758 C 198.4129943847656 24.26499557495117 198.4129943847656 19.19999313354492 195.2890014648438 16.07499313354492 C 194.1170043945313 14.90399551391602 194.1170043945313 13.00400543212891 195.2890014648438 11.8329963684082 L 202.3600006103516 4.761993408203125 C 202.9454956054688 4.175994873046875 203.7132568359375 3.88299560546875 204.4810028076172 3.88299560546875 Z"/></g><g class="b" transform="translate(32 35)"><circle class="d" cx="12" cy="12" r="12"/><circle class="f" cx="12" cy="12" r="11"/></g><path class="c" d="M195.464,46.5l3.5,3.5,6.625-6.625" transform="translate(-156)"/></g></svg>