<svg xmlns="http://www.w3.org/2000/svg" xmlns:xlink="http://www.w3.org/1999/xlink" width="52.671" height="38" viewBox="0 0 52.671 38"><defs><style>.a{fill:#fff;}.b,.c{stroke:none;}.c{fill:#eee;}.d{filter:url(#a);}</style><filter id="a" x="0" y="0" width="52.671" height="38" filterUnits="userSpaceOnUse"><feOffset dy="4" input="SourceAlpha"/><feGaussianBlur stdDeviation="4" result="b"/><feFlood flood-opacity="0.161"/><feComposite operator="in" in2="b"/><feComposite in="SourceGraphic"/></filter></defs><g class="d" transform="matrix(1, 0, 0, 1, 0, 0)"><g class="a" transform="translate(12 8)"><path class="b" d="M 26.2154598236084 13.49999618530273 L 2.455199003219604 13.49999618530273 C 2.143218994140625 13.49999618530273 2.021888971328735 13.26165676116943 1.992139101028442 13.18860626220703 C 1.96238911151886 13.11555671691895 1.882649064064026 12.86026668548584 2.105859041213989 12.64228630065918 L 13.9859790802002 1.040056347846985 C 14.0799388885498 0.9483063817024231 14.20399951934814 0.8977763652801514 14.33532905578613 0.8977763652801514 C 14.46665859222412 0.8977763652801514 14.59071922302246 0.9483063817024231 14.68467903137207 1.040056347846985 L 26.56480979919434 12.64228630065918 C 26.78800964355469 12.86026668548584 26.7082691192627 13.11555671691895 26.67851829528809 13.18860626220703 C 26.64876937866211 13.26165676116943 26.52743911743164 13.49999618530273 26.2154598236084 13.49999618530273 Z"/><path class="c" d="M 14.33532905578613 1.39776611328125 L 2.4552001953125 12.9999942779541 C 2.4552001953125 12.99999523162842 2.455202102661133 12.99999618530273 2.455198287963867 12.99999618530273 L 26.2154483795166 12.99999618530273 L 14.33622932434082 1.397856712341309 C 14.33613872528076 1.397836685180664 14.33579921722412 1.39777660369873 14.33532905578613 1.39777660369873 L 14.33532905578613 1.39776611328125 M 14.33532905578613 0.3977737426757813 C 14.58754444122314 0.3977737426757813 14.83975887298584 0.4926309585571289 15.03401947021484 0.6823463439941406 L 26.91413879394531 12.28457641601563 C 27.55560874938965 12.91103649139404 27.11207962036133 13.99999618530273 26.2154598236084 13.99999618530273 L 2.455198287963867 13.99999618530273 C 1.558578491210938 13.99999618530273 1.115049362182617 12.91103649139404 1.756509780883789 12.28457641601563 L 13.63663864135742 0.6823463439941406 C 13.83089923858643 0.4926309585571289 14.08311367034912 0.3977737426757813 14.33532905578613 0.3977737426757813 Z"/></g></g></svg>