<svg xmlns="http://www.w3.org/2000/svg" width="84.125" height="93.559" viewBox="0 0 84.125 93.559"><defs><style>.a,.b,.c{fill:none;stroke:#000;stroke-width:4px;}.a,.c{stroke-linecap:round;}.a{stroke-linejoin:round;}</style></defs><g transform="translate(2.002 2)"><g transform="translate(0 16.745)"><path class="a" d="M91.51,50.071,89.747,28.962A3.232,3.232,0,0,0,86.526,26H39.421A3.232,3.232,0,0,0,36.2,28.962L31.435,85.978a3.232,3.232,0,0,0,3.221,3.5h45.5" transform="translate(-31.424 -26)"/></g><path class="a" d="M44.469,43.787V25.617s.868-9.978,10.763-9.978,9.7,9.988,9.7,9.988v18.16" transform="translate(-23.386 -15.639)"/><path class="b" d="M92.091,76.9v9.811a2.6,2.6,0,0,1-.239,1.1,2.8,2.8,0,0,1-.646.9,3.07,3.07,0,0,1-.97.6,3.247,3.247,0,0,1-1.181.221H66.034a3.247,3.247,0,0,1-1.181-.221,3.069,3.069,0,0,1-.97-.6,2.854,2.854,0,0,1-.646-.9,2.626,2.626,0,0,1-.238-1.1V43.878a2.657,2.657,0,0,1,.238-1.1,2.865,2.865,0,0,1,.646-.9,3.069,3.069,0,0,1,.97-.6,3.247,3.247,0,0,1,1.181-.221H89.056a3.247,3.247,0,0,1,1.181.221,3.069,3.069,0,0,1,.97.6,2.8,2.8,0,0,1,.646.9,2.6,2.6,0,0,1,.239,1.1V76.9Z" transform="translate(-11.97 0.021)"/><line class="c" x2="5.82" transform="translate(62.665 48.671)"/><path class="a" d="M63,65.278" transform="translate(-11.97 14.945)"/></g></svg>