<svg xmlns="http://www.w3.org/2000/svg" width="26.555" height="29.003" viewBox="0 0 26.555 29.003"><rect width="12.069" height="1.81" transform="translate(3.923 11.617)"/><path d="M45.56,29l1.28-1.28-4.306-4.306a6.122,6.122,0,0,0-2.335-9.2V6.565L33.635,0H20.285V26.854H40.2V25.327a6.135,6.135,0,0,0,1.055-.629ZM34.165,3.091l2.944,2.944H34.165ZM22.1,1.81H32.354V7.845h6.035V13.7a6.126,6.126,0,0,0-5.472,2.145H24.208v1.81h7.655a6.1,6.1,0,0,0-.379,2.123c0,.1,0,.195.007.291H24.208v1.81h7.647a6.161,6.161,0,0,0,2.633,3.168H22.1Zm15.515,22.28a4.317,4.317,0,1,1,4.317-4.317A4.322,4.322,0,0,1,37.611,24.091Z" transform="translate(-20.285)"/></svg>