<svg xmlns="http://www.w3.org/2000/svg" width="96" height="96" viewBox="0 0 96 96"><defs><style>.a,.b,.c{fill:none;}.b,.c{stroke:#000;stroke-linecap:round;stroke-width:2px;}.b{stroke-linejoin:round;}</style></defs><g transform="translate(0 0.302)"><rect class="a" width="96" height="96" transform="translate(0 -0.302)"/><path class="b" d="M85.745,68.344V19H5V68.344Z" transform="translate(2.476 9.41)"/><line class="b" y1="11" x2="6" transform="translate(13 77.698)"/><line class="b" x1="6" y1="11" transform="translate(76 77.698)"/><g transform="translate(29.412 46.772)"><path d="M19.67,31.35H22V43.91H19.67Z" transform="translate(-19.67 -31.245)"/><path d="M31.275,31.923a4.112,4.112,0,0,1,1.854,1.5,4.74,4.74,0,0,1,0,4.77,4.142,4.142,0,0,1-1.854,1.5,6.923,6.923,0,0,1-2.841.538H25.593V43.84H23.26V31.28h5.174A6.923,6.923,0,0,1,31.275,31.923Zm-.643,5.772a2.2,2.2,0,0,0,.793-1.839A2.228,2.228,0,0,0,30.632,34a3.529,3.529,0,0,0-2.3-.643H25.593v4.979h2.736a3.529,3.529,0,0,0,2.3-.643Z" transform="translate(-17.892 -31.28)"/><path d="M34.462,33.324H30.29V31.35H40.951v1.974H36.794V43.91H34.462Z" transform="translate(-14.41 -31.245)"/><path d="M50.313,31.35,44.84,43.91h-2.3L37.05,31.35h2.527l4.187,9.689,4.217-9.689Z" transform="translate(-11.062 -31.245)"/></g><g transform="translate(36.216 7.501)"><path class="c" d="M27.05,12.086a10.467,10.467,0,0,1,14.8,0h0" transform="translate(-22.818 -3.034)"/><path class="c" d="M24.22,9.837a16.448,16.448,0,0,1,23.267,0" transform="translate(-24.22 -5.016)"/><path class="c" d="M29.88,14.335a4.486,4.486,0,0,1,6.34,0" transform="translate(-21.417 -1.051)"/></g></g></svg>