<svg xmlns="http://www.w3.org/2000/svg" width="25.833" height="28.828" viewBox="0 0 25.833 28.828"><defs><style>.a{fill:none;stroke:#000;stroke-linecap:square;stroke-linejoin:round;stroke-width:2px;}</style></defs><g transform="translate(1 1.015)"><rect class="a" width="21.847" height="14.896" transform="translate(0.993 11.916)"/><rect class="a" width="23.833" height="6.951" transform="translate(0 4.965)"/><g transform="translate(4.601)"><path class="a" d="M23.631,13.623h-5.6c-1.645,0-1.908-2.165-1.406-3.351,1.011-2.386,4.053-.92,5.36.386A4.719,4.719,0,0,1,23.631,13.623Z" transform="translate(-16.396 -9)"/><path class="a" d="M24.4,13.623H30c1.645,0,1.908-2.165,1.405-3.351-1.011-2.386-4.052-.92-5.359.386A4.719,4.719,0,0,0,24.4,13.623Z" transform="translate(-16.999 -9)"/></g></g></svg>