<svg xmlns="http://www.w3.org/2000/svg" width="90.212" height="88.941" viewBox="0 0 90.212 88.941"><defs><style>.a,.c{fill:none;}.a,.b,.c{stroke:#000;stroke-linecap:round;stroke-width:4px;}.a,.b{stroke-linejoin:round;}.b{fill:#fff;}</style></defs><g transform="translate(2 2)"><g transform="translate(0)"><g transform="translate(0 0)"><path class="a" d="M362.566,642.9l2.016-2.016L368.5,644.8h.379l3.914-3.915L376.7,644.8h.381L381,640.889l3.916,3.915h.376l3.918-3.915,3.914,3.915h.379l3.914-3.915,3.915,3.915h.381l3.913-3.915,3.915,3.915h.379l3.918-3.915,3.914,3.915h.379l3.913-3.915,1.33,1.328V620.3H362.566Z" transform="translate(-362.566 -559.862)"/><path class="b" d="M436.986,585.107H378.752a16.185,16.185,0,0,0-16.186,16.185v44.25h60.807v-44.25C423.373,592.353,428.047,585.107,436.986,585.107Z" transform="translate(-362.566 -585.107)"/></g><path class="a" d="M302.7,599.36c0-6.869-4.778-12.969-12.05-12.969-7.615,0-12.05,6.1-12.05,12.969l.015,5.027H302.7Z" transform="translate(-216.49 -586.391)"/><g transform="translate(11.431 23.957)"><line class="c" x2="36.256"/><line class="c" x2="36.256" transform="translate(0 15.138)"/></g></g></g></svg>