<svg xmlns="http://www.w3.org/2000/svg" width="65.585" height="93.042" viewBox="0 0 65.585 93.042"><defs><style>.a,.b{fill:none;}.a{stroke-linecap:round;stroke-linejoin:round;}.b{stroke:#000;stroke-width:4px;}.c,.d{stroke:none;}.d{fill:#000;}</style></defs><g transform="translate(3.942 4)"><g class="a" transform="translate(-247.932 -50.104)"><path class="c" d="M305.575,135.012H247.99l28.792-61.506Z"/><path class="d" d="M 305.5749816894531 135.0123596191406 L 276.7825927734375 73.50661468505859 L 247.9903869628906 135.0123596191406 L 305.5749816894531 135.0123596191406 M 305.5749816894531 139.0123596191406 L 247.9903869628906 139.0123596191406 C 246.6224517822266 139.0123596191406 245.349365234375 138.3133087158203 244.6152191162109 137.1590423583984 C 243.8810882568359 136.0047912597656 243.7877197265625 134.555419921875 244.3676910400391 133.3164978027344 L 273.1598815917969 71.81074523925781 C 273.8180236816406 70.40480041503906 275.230224609375 69.50661468505859 276.7825927734375 69.50661468505859 C 278.3349609375 69.50661468505859 279.7471313476563 70.40479278564453 280.4053039550781 71.81072998046875 L 309.1976928710938 133.3164825439453 C 309.7776489257813 134.5554046630859 309.6842956542969 136.0047912597656 308.9501342773438 137.1590423583984 C 308.2160034179688 138.3133087158203 306.9429321289063 139.0123596191406 305.5749816894531 139.0123596191406 Z"/></g><g class="a" transform="translate(-415.178 -340.608)"><path class="c" d="M443.587,340.608l3.56,7.585,7.961,1.216-5.761,5.9,1.36,8.337-7.121-3.936-7.121,3.936,1.36-8.337-5.761-5.9,7.961-1.216Z"/><path class="d" d="M 443.5865478515625 340.6083374023438 L 440.0262451171875 348.1937866210938 L 432.06494140625 349.41015625 L 437.8257446289063 355.314453125 L 436.4657592773438 363.6516723632813 L 443.5865478515625 359.7155151367188 L 450.7073364257813 363.6516723632813 L 449.3473510742188 355.314453125 L 455.1082153320313 349.41015625 L 447.1469116210938 348.1937866210938 L 443.5865478515625 340.6083374023438 M 443.5865478515625 336.6083374023438 C 445.137451171875 336.6083374023438 446.5485534667969 337.5048217773438 447.20751953125 338.9087524414063 L 449.8609924316406 344.5620422363281 L 455.7123413085938 345.4560241699219 C 457.1943969726563 345.6824645996094 458.4253845214844 346.7186584472656 458.9013061523438 348.1403503417969 C 459.3772583007813 349.5620422363281 459.0182189941406 351.1305236816406 457.9712219238281 352.2035827636719 L 453.6201782226563 356.6629333496094 L 454.6551513671875 363.0076904296875 C 454.9017639160156 364.5195007324219 454.2633361816406 366.0393981933594 453.0111389160156 366.9216003417969 C 452.3233337402344 367.4061889648438 451.5165710449219 367.6516723632813 450.7070007324219 367.6516723632813 C 450.0426635742188 367.6516723632813 449.3764953613281 367.4864501953125 448.772216796875 367.1524353027344 L 443.5865478515625 364.2859497070313 L 438.40087890625 367.1524353027344 C 437.7966918945313 367.4864196777344 437.13037109375 367.6516723632813 436.4660949707031 367.6516723632813 C 435.6564636230469 367.6516723632813 434.8498229980469 367.40625 434.1619567871094 366.9216003417969 C 432.9097595214844 366.0393981933594 432.2713317871094 364.5195007324219 432.5179443359375 363.0076904296875 L 433.5529174804688 356.6629333496094 L 429.2019348144531 352.2035827636719 C 428.1549377441406 351.1304931640625 427.7958984375 349.5620422363281 428.2718505859375 348.1403503417969 C 428.7477722167969 346.7186584472656 429.978759765625 345.6824645996094 431.4608154296875 345.4560241699219 L 437.3121643066406 344.5620422363281 L 439.9655456542969 338.9087829589844 C 440.62451171875 337.5048522949219 442.03564453125 336.6083374023438 443.5865478515625 336.6083374023438 Z"/></g><path class="b" d="M0,0H24.552" transform="translate(15.579 47.419) rotate(-30)"/><path class="b" d="M0,0,28.768.253" transform="translate(28.8 87.082) rotate(-30)"/><path class="b" d="M0,0H41.407" transform="translate(5.565 68.256) rotate(-30)"/><path class="b" d="M0,0H54.2" transform="translate(0 87.202) rotate(-30)"/></g></svg>