<svg xmlns="http://www.w3.org/2000/svg" width="75.7" height="50.18" viewBox="0 0 75.7 50.18"><defs><style>.a,.f,.h{fill:none;}.a,.d,.e,.f{stroke:#000;}.a,.b,.e{stroke-linecap:round;}.a,.b,.d,.e,.f{stroke-width:2px;}.b,.d,.e{fill:#fff;}.b{stroke:#030303;stroke-linejoin:round;}.c{fill:#262626;font-size:8px;font-family:NotoSansCJKkr-Medium, Noto Sans CJK KR;font-weight:500;letter-spacing:-0.02em;}.g{stroke:none;}</style></defs><g transform="translate(-374.5 -1677)"><g transform="translate(436.741 1725.845) rotate(180)"><path class="a" d="M0,0,.8,8.426" transform="matrix(0.966, -0.259, 0.259, 0.966, 12.12, 0.316)"/><path class="a" d="M.8,0,0,8.426" transform="matrix(0.966, 0.259, -0.259, 0.966, 49.045, 0)"/><rect class="b" width="61.241" height="39.448" transform="translate(61.241 47.845) rotate(180)"/><text class="c" transform="translate(32.668 26.882) rotate(180)"><tspan x="-8.304" y="0">IPTV</tspan></text></g><g transform="translate(431.976 1689.483)"><path class="d" d="M631.618,354.467v7.358a2.4,2.4,0,0,1-.142.824,2.147,2.147,0,0,1-.385.673,1.824,1.824,0,0,1-.571.454,1.567,1.567,0,0,1-.7.167H616.19a1.566,1.566,0,0,1-.7-.167,1.826,1.826,0,0,1-.571-.454,2.194,2.194,0,0,1-.385-.673,2.428,2.428,0,0,1-.141-.824V329.7a2.435,2.435,0,0,1,.141-.825,2.209,2.209,0,0,1,.385-.673,1.827,1.827,0,0,1,.571-.454,1.575,1.575,0,0,1,.7-.166h13.631a1.576,1.576,0,0,1,.7.166,1.824,1.824,0,0,1,.571.454,2.161,2.161,0,0,1,.385.673,2.409,2.409,0,0,1,.142.825v24.769Z" transform="translate(-614.394 -327.58)"/><g transform="translate(4.749 5.789)"><line class="e" x2="0.769"/><line class="e" x2="0.769" transform="translate(3.844)"/><line class="e" x2="0.769" transform="translate(7.689)"/></g><g transform="translate(4.749 9.731)"><line class="e" x2="0.769"/><line class="e" x2="0.769" transform="translate(3.844)"/><line class="e" x2="0.769" transform="translate(7.689)"/></g><g transform="translate(4.362 13.845)"><line class="e" x2="0.769" transform="translate(0.384)"/><line class="e" x2="0.769" transform="translate(4.229)"/><line class="e" x2="0.769" transform="translate(8.073)"/><line class="b" x2="9.226" transform="translate(0 14.819)"/><line class="b" x2="9.226" transform="translate(0 18.663)"/><g class="f" transform="translate(0.384 3.316)"><circle class="g" cx="3.844" cy="3.844" r="3.844"/><circle class="h" cx="3.844" cy="3.844" r="2.844"/></g></g></g></g></svg>