<svg xmlns="http://www.w3.org/2000/svg" width="45" height="54" viewBox="0 0 45 54"><defs><style>.a,.b{fill:none;}.a{stroke:#231815;stroke-linecap:round;stroke-linejoin:round;stroke-width:2px;}.b{stroke-miterlimit:10;}.c,.d{stroke:none;}.d{fill:#231815;}</style></defs><g transform="translate(0 0)"><path class="a" d="M1045.178,193.849l7.794,7.794,13-13" transform="translate(-1031.076 -168.143)"/><g class="b" transform="translate(-1031.237 -165.556)"><path class="c" d="M1053.737,219.556h0s13.489-6.152,17.819-9.33c3.009-2.209,4.68-6.342,4.68-10.655v-23c-9.4-2.587-22.494-11-22.5-11.01h0c-.005.005-11.326,8.108-22.5,11.01v23c0,4.313,1.672,8.447,4.681,10.655,4.329,3.179,17.819,9.33,17.819,9.33Z"/><path class="d" d="M 1053.737426757813 217.3536834716797 C 1056.714111328125 215.9723663330078 1066.860961914063 211.1921539306641 1070.37353515625 208.6134643554688 C 1072.756591796875 206.8640594482422 1074.237060546875 203.3990325927734 1074.237060546875 199.5706024169922 L 1074.237060546875 178.0552673339844 C 1070.4462890625 176.8402099609375 1065.836791992188 174.7568511962891 1060.507080078125 171.8481597900391 C 1057.829467773438 170.3868408203125 1055.288208007813 168.8770904541016 1053.788452148438 167.9491577148438 C 1053.48828125 168.1496887207031 1053.173706054688 168.3563842773438 1052.88232421875 168.5462188720703 C 1051.730590820313 169.2965698242188 1049.8896484375 170.4555969238281 1047.659301757813 171.7159881591797 C 1042.490600585938 174.6369476318359 1037.647216796875 176.7750854492188 1033.237060546875 178.0844879150391 L 1033.237060546875 199.5706024169922 C 1033.237060546875 203.3987121582031 1034.7177734375 206.8637237548828 1037.1015625 208.6136169433594 C 1040.61328125 211.1921997070313 1050.760620117188 215.9723815917969 1053.737426757813 217.3536834716797 M 1053.737915039063 219.5559997558594 L 1053.737060546875 219.5559997558594 C 1053.737060546875 219.5559997558594 1040.246948242188 213.4044952392578 1035.917846679688 210.2257080078125 C 1032.9091796875 208.0171051025391 1031.237060546875 203.8834075927734 1031.237060546875 199.5706024169922 L 1031.237060546875 176.5657043457031 C 1042.411376953125 173.6641082763672 1053.731567382813 165.5614166259766 1053.737060546875 165.5559997558594 C 1053.743286132813 165.5614166259766 1066.839233398438 173.9782104492188 1076.237060546875 176.5657043457031 L 1076.237060546875 199.5706024169922 C 1076.237060546875 203.8834075927734 1074.565673828125 208.0171051025391 1071.557006835938 210.2257080078125 C 1067.22705078125 213.4044952392578 1053.737915039063 219.5559997558594 1053.737915039063 219.5559997558594 Z"/></g></g></svg>