<svg xmlns="http://www.w3.org/2000/svg" xmlns:xlink="http://www.w3.org/1999/xlink" width="60.237" height="76.679" viewBox="0 0 60.237 76.679"><defs><style>.a{fill:#e6007e;}.b{fill:#fff;}.c{filter:url(#a);}</style><filter id="a" x="0" y="0" width="60.237" height="76.679" filterUnits="userSpaceOnUse"><feOffset dy="2" input="SourceAlpha"/><feGaussianBlur stdDeviation="3" result="b"/><feFlood flood-opacity="0.451"/><feComposite operator="in" in2="b"/><feComposite in="SourceGraphic"/></filter></defs><g transform="translate(-1206.067 -1236.764)"><g transform="translate(1215.067 1243.764)"><path class="a" d="M234.709,211.352,234,210.158C234.225,210.565,234.463,210.961,234.709,211.352Z" transform="translate(-231.463 -178.989)"/><g class="c" transform="matrix(1, 0, 0, 1, -9, -7)"><path class="a" d="M248.678,131.092A21.131,21.131,0,0,0,230.1,162.261l.705,1.194L237.029,174l8.2,13.886a3.839,3.839,0,0,0,6.581.05L260.326,174l6.225-10.543c.246-.391.484-.787.7-1.194a20.98,20.98,0,0,0,2.4-7.652,21.336,21.336,0,0,0,.139-2.4A21.118,21.118,0,0,0,248.678,131.092Z" transform="translate(-218.56 -124.09)"/></g></g><circle class="b" cx="12.212" cy="12.212" r="12.212" transform="translate(1224.192 1252.025)"/></g></svg>