<svg xmlns="http://www.w3.org/2000/svg" width="64" height="64" viewBox="0 0 64 64"><defs><style>.a,.b,.c{fill:none;}.b,.c{stroke:#231815;stroke-miterlimit:10;stroke-width:2px;}.b{stroke-linejoin:round;}.d{stroke:none;}</style></defs><g transform="translate(6.694 6)"><rect class="a" width="64" height="64" transform="translate(-6.694 -6)"/><g transform="translate(0)"><g class="b" transform="translate(-3.694 9.397)"><rect class="d" width="58" height="43.603" rx="1"/><rect class="a" x="1" y="1" width="56" height="41.603"/></g><path class="c" d="M744.141,71.982a9.71,9.71,0,1,1,19.42,0" transform="translate(-728.545 -62.272)"/><path class="c" d="M764.654,91.181h-6.92V84.26a.971.971,0,0,0-.971-.971h-5.95a.971.971,0,0,0-.971.971v6.921h-6.92a.971.971,0,0,0-.971.971V98.1a.971.971,0,0,0,.971.971h6.92v6.92a.971.971,0,0,0,.971.971h5.95a.971.971,0,0,0,.971-.971v-6.92h6.92a.971.971,0,0,0,.971-.971V92.152A.971.971,0,0,0,764.654,91.181Z" transform="translate(-728.482 -63.943)"/></g></g></svg>