<svg xmlns="http://www.w3.org/2000/svg" width="72.995" height="52.737" viewBox="0 0 72.995 52.737"><defs><style>.a{fill:none;stroke-linecap:round;stroke-linejoin:round;}.b{fill:#212121;font-size:23px;}.b,.c{font-family:NotoSansCJKkr-Medium, Noto Sans CJK KR;font-weight:500;letter-spacing:-0.04em;}.c{fill:#e6007e;font-size:16px;}.d,.e,.f{stroke:none;}.e{fill:#000;}.f{fill:#e6007e;}</style></defs><g transform="translate(-616.429 -316.925)"><g transform="translate(-2.995 -8.24)"><g class="a" transform="translate(133.358 -243.735)"><path class="d" d="M494.988,583.222h22.156c3.823,0,6.922,2.711,6.922,6.056v30.359l-7.942-7.158H494.988a7.131,7.131,0,0,1-6.922-6.786V589.277C488.066,585.933,491.165,583.222,494.988,583.222Z"/><path class="e" d="M 494.9876098632813 583.2218627929688 C 491.1651000976563 583.2218627929688 488.0658569335938 585.93310546875 488.0658569335938 589.2774047851563 L 488.0658569335938 605.6918334960938 C 488.0658569335938 609.0360107421875 491.1651000976563 612.4783325195313 494.9876098632813 612.4783325195313 L 516.1242065429688 612.4783325195313 L 524.0658569335938 619.6362915039063 L 524.0658569335938 589.2774047851563 C 524.0658569335938 585.93310546875 520.966552734375 583.2218627929688 517.14404296875 583.2218627929688 L 494.9876098632813 583.2218627929688 M 494.9876098632813 581.2218627929688 L 517.14404296875 581.2218627929688 C 519.477294921875 581.2218627929688 521.6831665039063 582.0274658203125 523.355224609375 583.490234375 C 525.1032104492188 585.0194091796875 526.0658569335938 587.0746459960938 526.0658569335938 589.2774047851563 L 526.0658569335938 619.6362915039063 C 526.0658569335938 620.4263916015625 525.6007080078125 621.1423950195313 524.87890625 621.4635620117188 C 524.617919921875 621.5796508789063 524.341064453125 621.6363525390625 524.0662841796875 621.6363525390625 C 523.580810546875 621.6363525390625 523.1015625 621.4596557617188 522.726806640625 621.1218872070313 L 515.3558959960938 614.4783325195313 L 494.9876098632813 614.4783325195313 C 492.6409301757813 614.4783325195313 490.3953857421875 613.50537109375 488.6646118164063 611.73876953125 C 487.0130615234375 610.052978515625 486.0658569335938 607.8489379882813 486.0658569335938 605.6918334960938 L 486.0658569335938 589.2774047851563 C 486.0658569335938 587.0746459960938 487.0285034179688 585.0194091796875 488.7764282226563 583.490234375 C 490.448486328125 582.0274658203125 492.654296875 581.2218627929688 494.9876098632813 581.2218627929688 Z"/></g><text class="b" transform="translate(638.516 362.498)"><tspan x="-3.944" y="0">!</tspan></text></g><g class="a" transform="translate(175.358 -262.885)"><path class="d" d="M507.451,583.222H492.68a4.394,4.394,0,0,0-4.615,4.134v20.724l5.294-4.886h14.091a4.811,4.811,0,0,0,4.614-4.633v-11.2A4.394,4.394,0,0,0,507.451,583.222Z"/><path class="f" d="M 492.6804809570313 583.2219848632813 C 490.1321105957031 583.2219848632813 488.06591796875 585.07275390625 488.06591796875 587.3555297851563 L 488.06591796875 608.0792236328125 L 493.3603820800781 603.1929931640625 L 507.4514465332031 603.1929931640625 C 509.9997863769531 603.1929931640625 512.06591796875 600.84326171875 512.06591796875 598.5604858398438 L 512.06591796875 587.3555297851563 C 512.06591796875 585.07275390625 509.9997863769531 583.2219848632813 507.4514465332031 583.2219848632813 L 492.6804809570313 583.2219848632813 M 492.6804809570313 581.2219848632813 L 507.4514465332031 581.2219848632813 C 511.0986633300781 581.2219848632813 514.06591796875 583.9734497070313 514.06591796875 587.3555297851563 L 514.06591796875 598.5604858398438 C 514.06591796875 600.1889038085938 513.3710327148438 601.84912109375 512.159423828125 603.1154174804688 C 510.8775329589844 604.4552001953125 509.20556640625 605.1929931640625 507.4514465332031 605.1929931640625 L 494.1422424316406 605.1929931640625 L 489.4223327636719 609.5489501953125 C 489.0455322265625 609.896728515625 488.5588684082031 610.0792846679688 488.0654907226563 610.0792846679688 C 487.7945556640625 610.0792846679688 487.5216064453125 610.0242309570313 487.263671875 609.9112548828125 C 486.5360107421875 609.5926513671875 486.06591796875 608.8735961914063 486.06591796875 608.0792236328125 L 486.06591796875 587.3555297851563 C 486.06591796875 583.9734497070313 489.033203125 581.2219848632813 492.6804809570313 581.2219848632813 Z"/></g><text class="c" transform="translate(675.501 335.925)"><tspan x="-3.928" y="0">?</tspan></text></g></svg>