<svg xmlns="http://www.w3.org/2000/svg" width="15.224" height="20.448" viewBox="0 0 15.224 20.448"><defs><style>.a{fill:#e6007e;}.b{fill:#fff;}</style></defs><path class="a" d="M235.171,131.092a7.489,7.489,0,0,0-7.612,7.359,7.21,7.21,0,0,0,.916,3.5l.254.416,2.243,3.674,2.955,4.839a1.408,1.408,0,0,0,2.372.018l3.07-4.856,2.244-3.674c.089-.136.174-.274.254-.416a7.21,7.21,0,0,0,.916-3.5A7.489,7.489,0,0,0,235.171,131.092Z" transform="translate(-227.559 -131.092)"/><circle class="b" cx="3.5" cy="3.5" r="3.5" transform="translate(4 4.15)"/></svg>