<svg xmlns="http://www.w3.org/2000/svg" width="61.261" height="62.761" viewBox="0 0 61.261 62.761"><defs><style>.a,.c,.d{fill:none;stroke-linecap:round;}.a,.c{stroke:#231815;stroke-width:2px;}.a,.d{stroke-linejoin:round;}.b{fill:#231815;}.c{stroke-miterlimit:10;}.e,.f{stroke:none;}.f{fill:#231815;}</style></defs><g transform="translate(-41 -443.866)"><path class="a" d="M55.608,486.449l14.351-9.61-8.029-5.376v21.786l8.029-5.376-14.351-9.61"/><circle class="b" cx="1.75" cy="1.75" r="1.75" transform="translate(61.023 456.813)"/><path class="c" d="M72.3,448.662a13.646,13.646,0,0,0-19.055.162"/><path class="c" d="M67.788,453.175a7.269,7.269,0,0,0-10.029.161"/><line class="c" y2="6.186" transform="translate(86.415 489.255)"/><line class="c" y2="0.689" transform="translate(86.415 499.67)"/><path class="a" d="M75.157,499H43a1,1,0,0,1-1-1V467a1,1,0,0,1,1-1H83a1,1,0,0,1,1,1v16.684"/><g class="d" transform="translate(-1.858 -1.627)"><path class="e" d="M87.287,481.074,72.581,506.546a1.138,1.138,0,0,0,.986,1.707H102.98a1.138,1.138,0,0,0,.986-1.707L89.258,481.074A1.138,1.138,0,0,0,87.287,481.074Z"/><path class="f" d="M 88.27271270751953 483.3666687011719 L 75.05957794189453 506.2530822753906 L 101.4868545532227 506.2530822753906 L 88.27271270751953 483.3666687011719 M 88.27310943603516 480.5045166015625 C 88.65641784667969 480.5045166015625 89.03958892822266 480.6942443847656 89.25822448730469 481.0736999511719 L 103.9654006958008 506.5459899902344 C 104.4026641845703 507.3049011230469 103.8555145263672 508.2530822753906 102.9798583984375 508.2530822753906 L 73.56661987304688 508.2530822753906 C 72.69097900390625 508.2530822753906 72.1427001953125 507.3049011230469 72.58109283447266 506.5459899902344 L 87.28713989257813 481.0736999511719 C 87.50634002685547 480.6942443847656 87.88979339599609 480.5045166015625 88.27310943603516 480.5045166015625 Z"/></g></g></svg>