<svg xmlns="http://www.w3.org/2000/svg" width="85.233" height="80.891" viewBox="0 0 85.233 80.891"><defs><style>.a,.b,.d,.f{fill:none;}.a,.b,.d{stroke:#000;stroke-width:4px;}.a,.b{stroke-linecap:round;}.b{stroke-linejoin:round;}.c{fill:#fff;}.e,.g{stroke:none;}.g{fill:#000;}</style></defs><g transform="translate(0 0)"><g transform="translate(7.879 43.46)"><path class="a" d="M566.334,55.333v33.8" transform="translate(-500.115 -54.339)"/><g class="b" transform="translate(0 0)"><rect class="e" width="49.072" height="37.431" rx="1"/><rect class="f" x="2" y="2" width="45.072" height="33.431" rx="1"/></g></g><g class="c" transform="translate(1.245 0.003)"><path class="e" d="M 4.665164947509766 45.279296875 C 3.286189794540405 45.279296875 2.30140233039856 44.8621826171875 1.654514789581299 44.00410842895508 C 0.6198647618293762 42.63167190551758 0.463402271270752 40.20129776000977 1.235952258110046 37.50288391113281 L 1.262077212333679 37.41162109375 L 1.279452204704285 37.31829452514648 L 6.234789848327637 10.68964576721191 L 6.238064765930176 10.67199611663818 L 6.241039752960205 10.65428352355957 C 6.266564846038818 10.50194644927979 6.292027473449707 10.34897136688232 6.317564964294434 10.19554615020752 C 6.687839984893799 7.970733642578125 7.070727348327637 5.670183658599854 7.883202075958252 4.065771102905273 C 8.627277374267578 2.596396207809448 9.557452201843262 1.997046232223511 11.09381484985352 1.997046232223511 C 11.19276428222656 1.997046232223511 11.2954273223877 1.999721169471741 11.39895248413086 2.004996299743652 L 11.44977760314941 2.007583618164063 L 11.50066471099854 2.007583618164063 L 71.30990600585938 2.007583618164063 C 73.62128448486328 2.144600391387939 74.41687774658203 2.958748579025269 74.93130493164063 3.819271087646484 C 75.72274017333984 5.143221378326416 76.10905456542969 7.281508922576904 76.55635070800781 9.7574462890625 L 76.62435150146484 10.13348388671875 L 81.58657836914063 37.31162261962891 L 81.59159851074219 37.33917236328125 L 81.59740447998047 37.36655807495117 C 82.25260162353516 40.46191024780273 82.07957458496094 42.73880767822266 81.09703826904297 43.95109558105469 C 80.38848876953125 44.82530975341797 79.14038848876953 45.26858520507813 77.38740539550781 45.26858520507813 L 5.099639892578125 45.26858520507813 L 5.051052093505859 45.26858520507813 L 5.002514839172363 45.27094650268555 C 4.888477325439453 45.27648544311523 4.774977207183838 45.279296875 4.665164947509766 45.279296875 Z"/><path class="g" d="M 11.09381866455078 3.997039794921875 C 10.71041870117188 3.997039794921875 10.42970275878906 4.056301116943359 10.25946807861328 4.173179626464844 C 10.07008361816406 4.303192138671875 9.865379333496094 4.578502655029297 9.667465209960938 4.969333648681641 C 8.993316650390625 6.300594329833984 8.635978698730469 8.447624206542969 8.2904052734375 10.52394866943359 C 8.264747619628906 10.6781005859375 8.239173889160156 10.83179473876953 8.213531494140625 10.98482513427734 L 8.207588195800781 11.02024078369141 L 8.201019287109375 11.05554580688477 L 3.245697021484375 37.6841926574707 L 3.210960388183594 37.8708381652832 L 3.158699035644531 38.05336380004883 C 2.495964050292969 40.36822509765625 2.727790832519531 42.10540771484375 3.251533508300781 42.80014801025391 C 3.350326538085938 42.93119430541992 3.612762451171875 43.27930068969727 4.6651611328125 43.27930068969727 C 4.742713928222656 43.27930068969727 4.823471069335938 43.27728652954102 4.905189514160156 43.27330017089844 L 5.002357482910156 43.26857757568359 L 5.099639892578125 43.26857757568359 L 77.38739013671875 43.26857757568359 C 78.46038818359375 43.26857757568359 79.24619293212891 43.05834579467773 79.54328155517578 42.69179534912109 C 79.97911834716797 42.15403747558594 80.23358917236328 40.58151626586914 79.6407470703125 37.78073120117188 L 79.62914276123047 37.72593307495117 L 79.61908721923828 37.67083740234375 L 74.65736389160156 10.495361328125 L 74.65688323974609 10.49271774291992 L 74.65641021728516 10.49005508422852 L 74.58822631835938 10.11301040649414 C 74.19281005859375 7.92431640625 73.81931304931641 5.85699462890625 73.21463775634766 4.845470428466797 C 73.0174560546875 4.515636444091797 72.77310943603516 4.1068115234375 71.24840545654297 4.007579803466797 L 11.50067138671875 4.007579803466797 L 11.39896392822266 4.007579803466797 L 11.29737854003906 4.002407073974609 C 11.22637939453125 3.998794555664063 11.1597900390625 3.997039794921875 11.09381866455078 3.997039794921875 M 11.09382629394531 -0.002956390380859375 C 11.22676086425781 -0.002956390380859375 11.36190032958984 0.00051116943359375 11.50067138671875 0.007579803466796875 L 71.3665771484375 0.007579803466796875 C 77.00830078125 0.3143463134765625 77.57749938964844 4.176040649414063 78.59231567382813 9.77691650390625 L 83.55403900146484 36.952392578125 C 85.35613250732422 45.46594619750977 81.19342041015625 47.26857757568359 77.38739013671875 47.26857757568359 L 5.099639892578125 47.26857757568359 C 4.952339172363281 47.27574157714844 4.80706787109375 47.27929306030273 4.6651611328125 47.27929306030273 C -0.67669677734375 47.27929306030273 -2.211006164550781 42.27621841430664 -0.6867904663085938 36.952392578125 L 4.268531799316406 10.32374572753906 C 5.079193115234375 5.486152648925781 5.822227478027344 -0.002956390380859375 11.09382629394531 -0.002956390380859375 Z"/></g><line class="d" x2="77.536" transform="translate(3.323 28.052)"/></g></svg>