<svg xmlns="http://www.w3.org/2000/svg" width="25.687" height="25.672" viewBox="0 0 25.687 25.672"><defs><style>.a{fill:#e6007e;}</style></defs><path class="a" d="M244.64,21.3l1.3-.163a1.072,1.072,0,0,0,.928-1.19,1.055,1.055,0,0,0-1.19-.928l-3.911.488a1.069,1.069,0,0,0-.928,1.185l.482,3.963a1.064,1.064,0,1,0,2.113-.262l-.178-1.473a10.664,10.664,0,0,1-6.338,19.224,1.066,1.066,0,1,0,0,2.128A12.79,12.79,0,0,0,244.64,21.3h0Z" transform="translate(-224.012 -18.604)"/><path class="a" d="M19.375,30.717a1.064,1.064,0,1,0-2.113.262l.178,1.473a10.664,10.664,0,0,1,6.338-19.224,1.066,1.066,0,1,0,0-2.128,12.792,12.792,0,0,0-7.717,22.977l-1.3.163a1.071,1.071,0,0,0-.928,1.19,1.055,1.055,0,0,0,1.19.928l3.911-.488a1.069,1.069,0,0,0,.928-1.185l-.488-3.968Z" transform="translate(-11.003 -11.1)"/></svg>