<svg xmlns="http://www.w3.org/2000/svg" width="13.19" height="13.19" viewBox="0 0 13.19 13.19"><defs><style>.a{fill:none;stroke:#999;stroke-miterlimit:10;}.b{fill:#999;}</style></defs><g transform="translate(0.5 0.5)"><path class="a" d="M410.228,196.408h3.493a2.042,2.042,0,0,1,2.036,2.036v8.118a2.042,2.042,0,0,1-2.036,2.036H405.6a2.041,2.041,0,0,1-2.036-2.036V203.07" transform="translate(-403.567 -196.408)"/><path class="b" d="M402.836,195.986V198.7a.43.43,0,1,0,.859,0v-1.653a.341.341,0,0,0,.042.052l3.031,3.031h-1.677a.43.43,0,0,0,0,.859h2.713a.43.43,0,0,0,.43-.43v-2.713a.43.43,0,0,0-.859,0V199.5a.586.586,0,0,0-.041-.051l-3.032-3.031h1.677a.43.43,0,1,0,0-.859h-2.713A.43.43,0,0,0,402.836,195.986Z" transform="translate(-402.574 -195.409)"/></g></svg>