<svg xmlns="http://www.w3.org/2000/svg" width="88" height="85" viewBox="0 0 88 85"><defs><style>.a,.d{fill:none;}.a,.b{stroke:#000;stroke-linecap:round;stroke-width:4px;}.a{stroke-linejoin:round;}.b{fill:#fff;}.c{stroke:none;}</style></defs><g transform="translate(3.909 4.393)"><g transform="translate(0 0)"><g transform="translate(0 0)"><g class="a" transform="translate(0.091 -0.393)"><rect class="c" width="80" height="77" rx="2"/><rect class="d" x="-2" y="-2" width="84" height="81" rx="4"/></g><g transform="translate(48.777 19.034)"><g transform="translate(0 0)"><line class="b" x2="19" transform="translate(0.315 -0.428)"/><line class="b" x2="18.887" transform="translate(0.339 17.874)"/></g></g><g transform="translate(11.897 58.294)"><line class="b" x2="56" transform="translate(0.195 0.313)"/></g><g transform="translate(13.046 13.24)"><path class="a" d="M630.39,341.754a6.828,6.828,0,1,1-6.826-6.829A6.827,6.827,0,0,1,630.39,341.754Z" transform="translate(-611.1 -334.925)"/><path class="a" d="M-.881,21.245S-.365,8.758,11.606,8.758,24.093,21.245,24.093,21.245" transform="translate(0.881 6.222)"/></g></g></g></g></svg>