<svg xmlns="http://www.w3.org/2000/svg" width="92.443" height="82.562" viewBox="0 0 92.443 82.562"><defs><style>.a{fill:none;stroke-linecap:round;stroke-linejoin:round;}.b,.c{stroke:none;}.c{fill:#000;}</style></defs><g transform="translate(4 4)"><g class="a" transform="translate(-488.066 -583.222)"><path class="b" d="M559.126,583.222H501.449c-7.391,0-13.383,5.367-13.383,11.988v62.574L503.42,641.14h55.706c7.391,0,13.382-6.815,13.382-13.435v-32.5C572.509,588.589,566.517,583.222,559.126,583.222Z"/><path class="c" d="M 501.448486328125 583.221923828125 C 494.0579833984375 583.221923828125 488.06591796875 588.5892944335938 488.06591796875 595.2096557617188 L 488.06591796875 657.7836303710938 L 503.4202880859375 641.1398315429688 L 559.12646484375 641.1398315429688 C 566.5169677734375 641.1398315429688 572.5089111328125 634.3253173828125 572.5089111328125 627.705078125 L 572.5089111328125 595.2096557617188 C 572.5089111328125 588.5892944335938 566.5169677734375 583.221923828125 559.12646484375 583.221923828125 L 501.448486328125 583.221923828125 M 501.448486328125 579.221923828125 L 559.12646484375 579.221923828125 C 563.687255859375 579.221923828125 567.99560546875 580.8313598632813 571.258056640625 583.7537231445313 C 572.886962890625 585.212890625 574.1708984375 586.9226684570313 575.07421875 588.8356323242188 C 576.0262451171875 590.8517456054688 576.5089111328125 592.9962158203125 576.5089111328125 595.2096557617188 L 576.5089111328125 627.705078125 C 576.5089111328125 631.9684448242188 574.6756591796875 636.3296508789063 571.4793090820313 639.6703491210938 C 569.884033203125 641.3377075195313 568.0465087890625 642.6599731445313 566.017822265625 643.6005859375 C 563.8148803710938 644.6219482421875 561.4962768554688 645.1398315429688 559.12646484375 645.1398315429688 L 505.1723022460938 645.1398315429688 L 491.0059204101563 660.495849609375 C 490.2335205078125 661.3331298828125 489.1607055664063 661.7837524414063 488.0650024414063 661.7837524414063 C 487.5762939453125 661.7837524414063 487.0831909179688 661.6941528320313 486.6099243164063 661.5092163085938 C 485.07568359375 660.9096069335938 484.06591796875 659.4308471679688 484.06591796875 657.7836303710938 L 484.06591796875 595.2096557617188 C 484.06591796875 592.9962158203125 484.5486450195313 590.8516845703125 485.5006713867188 588.8356323242188 C 486.4039306640625 586.9226684570313 487.6879272460938 585.212890625 489.31689453125 583.7537231445313 C 492.5792846679688 580.8313598632813 496.8877563476563 579.221923828125 501.448486328125 579.221923828125 Z"/></g><path d="M-.942-12.681a1.07,1.07,0,0,1,.968.457,1.885,1.885,0,0,1,.3,1.056,1.885,1.885,0,0,1-.3,1.056,1.07,1.07,0,0,1-.968.457H-12.025v8.163H-1.646a1.035,1.035,0,0,1,.932.457A1.885,1.885,0,0,1-.414.021a1.8,1.8,0,0,1-.3,1.038,1.048,1.048,0,0,1-.932.44H-12.025v9.535a1.241,1.241,0,0,1-.545,1.126,2.253,2.253,0,0,1-1.249.352,2.168,2.168,0,0,1-1.231-.352,1.255,1.255,0,0,1-.528-1.126V-10.077A2.81,2.81,0,0,1-15-12.118a3.069,3.069,0,0,1,2.129-.563Zm13.124-.176a2.342,2.342,0,0,1,1.249.334,2.416,2.416,0,0,1,.9,1.249l8.339,21.5a1.64,1.64,0,0,1-.018,1.355,1.568,1.568,0,0,1-.968.792,2.609,2.609,0,0,1-1.372.053,1.445,1.445,0,0,1-.985-1.038L17,5.087H7.256l-2.393,6.4a1.342,1.342,0,0,1-.9.968,2.243,2.243,0,0,1-1.319-.088,1.7,1.7,0,0,1-.95-.756,1.521,1.521,0,0,1,0-1.284l8.374-21.6a2.466,2.466,0,0,1,.88-1.249A2.252,2.252,0,0,1,12.182-12.857Zm-.035,4.328q-.352,1.161-.7,2.2T10.6-3.955L8.311,2.132h7.635L13.695-3.955q-.493-1.337-.862-2.428T12.146-8.529Zm23.82-4.539q5.067,0,7.758,2.955T46.416-1V.654a18.878,18.878,0,0,1-.616,5.1,10.444,10.444,0,0,1-1.777,3.659l2.217,2.217a1.079,1.079,0,0,1,.387.968,1.571,1.571,0,0,1-.528.968,1.73,1.73,0,0,1-.95.51,1.1,1.1,0,0,1-.985-.369l-2.393-2.393a10.915,10.915,0,0,1-5.805,1.407q-5.067,0-7.758-2.956T25.517.654V-1q0-6.157,2.692-9.113T35.966-13.068Zm0,3.2a6.252,6.252,0,0,0-5.19,2.129Q29.07-5.609,29.07-.718V.372q0,4.891,1.706,7a6.276,6.276,0,0,0,5.19,2.111,6.493,6.493,0,0,0,3.237-.7L36.67,6.213a1.1,1.1,0,0,1-.369-.985,1.73,1.73,0,0,1,.51-.95,1.73,1.73,0,0,1,.95-.51,1.1,1.1,0,0,1,.985.369L41.49,6.882A12.623,12.623,0,0,0,42.863.372V-.718q0-4.891-1.706-7.019A6.252,6.252,0,0,0,35.966-9.866Z" transform="translate(28.13 29.247)"/></g></svg>