<svg xmlns="http://www.w3.org/2000/svg" width="18" height="18" viewBox="0 0 18 18"><defs><style>.a{fill:#212121;}.b,.d{fill:none;}.b{stroke:#212121;}.c{stroke:none;}</style></defs><circle class="a" cx="2" cy="2" r="2" transform="translate(7 7)"/><g class="b"><circle class="c" cx="9" cy="9" r="9"/><circle class="d" cx="9" cy="9" r="8.5"/></g><path class="a" d="M0,0H2A0,0,0,0,1,2,0V3A1,1,0,0,1,1,4H1A1,1,0,0,1,0,3V0A0,0,0,0,1,0,0Z" transform="translate(8 14)"/><path class="a" d="M0,0H2A0,0,0,0,1,2,0V3A1,1,0,0,1,1,4H1A1,1,0,0,1,0,3V0A0,0,0,0,1,0,0Z" transform="translate(10 4) rotate(-180)"/><path class="a" d="M1,0H1A1,1,0,0,1,2,1V4A0,0,0,0,1,2,4H0A0,0,0,0,1,0,4V1A1,1,0,0,1,1,0Z" transform="translate(18 8) rotate(90)"/><path class="a" d="M0,0H2A0,0,0,0,1,2,0V3A1,1,0,0,1,1,4H1A1,1,0,0,1,0,3V0A0,0,0,0,1,0,0Z" transform="translate(4 8) rotate(90)"/></svg>