<svg xmlns="http://www.w3.org/2000/svg" width="76.145" height="96.434" viewBox="0 0 76.145 96.434"><defs><style>.a,.c,.d,.e,.g{fill:none;}.a,.b,.c,.d,.e{stroke:#000;stroke-width:4px;}.a,.b,.d,.e{stroke-linecap:round;}.a{stroke-miterlimit:10;}.b{fill:#fff;}.d{stroke-linejoin:round;}.f{stroke:none;}</style></defs><g transform="translate(2 2)"><g transform="translate(0 0)"><g transform="translate(0 0)"><path class="a" d="M46.2,111.892H18.1a3.083,3.083,0,0,1-3.1-3.069V30.569A3.083,3.083,0,0,1,18.1,27.5H61.469a3.083,3.083,0,0,1,3.1,3.069v43.1" transform="translate(-15 -27.5)"/><line class="b" x2="9.478" transform="translate(20.499 9.409)"/></g></g><g class="c" transform="translate(25.039 45.328)"><circle class="f" cx="24.553" cy="24.553" r="24.553"/><circle class="g" cx="24.553" cy="24.553" r="22.553"/></g><g transform="translate(36.546 64.415)"><path class="d" d="M105.833,1520.5l5.68,13.941,4.776-13.941,4.776,13.941,5.55-13.941" transform="translate(-102.994 -1520.5)"/><path class="e" d="M103.417,1524.292h5.292" transform="translate(-103.417 -1518.418)"/><path class="e" d="M103.417,1524.292h5.292" transform="translate(-81.731 -1518.418)"/></g></g></svg>