<svg xmlns="http://www.w3.org/2000/svg" width="18.624" height="16" viewBox="0 0 18.624 16"><defs><style>.a{fill:#fff;stroke-linecap:round;stroke-linejoin:round;}.b,.c{stroke:none;}.c{fill:#fff;}</style></defs><g class="a" transform="translate(12457.841 -929)"><path class="b" d="M -12448.529296875 944.9217529296875 L -12449.3828125 943.5203247070313 L -12456.6943359375 931.5203247070313 L -12457.62109375 930 L -12455.8408203125 930 L -12441.216796875 930 L -12439.4365234375 930 L -12440.36328125 931.5203857421875 L -12445.4521484375 939.8715209960938 L -12447.67578125 943.5203857421875 L -12448.529296875 944.9217529296875 Z"/><path class="c" d="M -12448.529296875 943 L -12446.3056640625 939.3511352539063 L -12441.216796875 931 L -12455.8408203125 931 L -12448.529296875 943 M -12448.529296875 945 C -12448.529296875 945 -12448.529296875 945 -12448.529296875 945 C -12449.2265625 945 -12449.8740234375 944.6364135742188 -12450.2373046875 944.0406494140625 L -12457.548828125 932.0406494140625 C -12457.9248046875 931.4232177734375 -12457.9384765625 930.65087890625 -12457.5849609375 930.0205078125 C -12457.23046875 929.3901977539063 -12456.5634765625 929 -12455.8408203125 929 L -12441.216796875 929 C -12440.494140625 929 -12439.8271484375 929.3901977539063 -12439.47265625 930.0205688476563 C -12439.119140625 930.6509399414063 -12439.1328125 931.42333984375 -12439.5087890625 932.0407104492188 L -12444.59765625 940.391845703125 L -12446.8212890625 944.040771484375 C -12447.1845703125 944.636474609375 -12447.83203125 945 -12448.529296875 945 Z"/></g></svg>