<svg xmlns="http://www.w3.org/2000/svg" width="24.605" height="29.13" viewBox="0 0 24.605 29.13"><defs><style>.a,.d,.g{fill:none;}.a{stroke-linecap:round;}.a,.d{stroke-linejoin:round;}.b,.c{fill:#fff;}.c,.d{stroke:#000;stroke-width:2px;}.e,.f{stroke:none;}.f{fill:#000;}</style></defs><g class="a" transform="translate(4.301 4.766)"><path class="e" d="M0,0H20.3V24.364H0Z"/><path class="f" d="M 2.000003814697266 1.999998092651367 L 2.000003814697266 22.3640193939209 L 18.30346298217773 22.3640193939209 L 18.30346298217773 1.999998092651367 L 2.000003814697266 1.999998092651367 M 3.814697265625e-06 -1.9073486328125e-06 L 20.30346298217773 -1.9073486328125e-06 L 20.30346298217773 24.3640193939209 L 3.814697265625e-06 24.3640193939209 L 3.814697265625e-06 -1.9073486328125e-06 Z"/></g><rect width="10.717" height="2.03" transform="translate(3.648 4.796)"/><rect width="10.717" height="2.03" transform="translate(3.648 8.665)"/><rect width="10.717" height="2.03" transform="translate(3.648 12.534)"/><rect width="10.717" height="2.03" transform="translate(3.648 16.403)"/><path class="b" d="M0,0H20.3V24.364H0Z" transform="translate(2.271 2.735)"/><line class="c" x2="9.259" transform="translate(4.97 6.044)"/><line class="c" x2="9.259" transform="translate(4.97 9.914)"/><line class="c" x2="9.259" transform="translate(4.97 13.782)"/><line class="c" x2="9.259" transform="translate(4.97 17.652)"/><g class="d"><rect class="e" width="19.861" height="23.833"/><rect class="g" x="1" y="1" width="17.861" height="21.833"/></g></svg>