<svg xmlns="http://www.w3.org/2000/svg" width="96" height="96" viewBox="0 0 96 96"><defs><style>.a,.b,.c,.d{fill:none;}.b,.c,.d{stroke:#000;stroke-width:2px;}.b,.d{stroke-linecap:round;}.c{stroke-linejoin:round;}.d{stroke-miterlimit:10;}</style></defs><g transform="translate(0.302 0.302)"><rect class="a" width="96" height="96" transform="translate(-0.302 -0.302)"/><g transform="translate(67.288 7.626)"><path class="b" d="M45,9.1A10.467,10.467,0,0,1,55.467,19.567h0" transform="translate(-45 -3.119)"/><path class="b" d="M45,5.1A16.448,16.448,0,0,1,61.448,21.548" transform="translate(-45 -5.1)"/><path class="b" d="M45,13.1a4.486,4.486,0,0,1,4.486,4.486" transform="translate(-45 -1.138)"/></g><path class="c" d="M59.653,41H85.745V67.915H5V41H30" transform="translate(2.476 20.307)"/><rect class="c" width="30" height="50" transform="translate(32.698 26.698)"/><line class="d" x2="6" transform="translate(44.698 31.698)"/></g></svg>