<svg xmlns="http://www.w3.org/2000/svg" width="13.766" height="14.935" viewBox="0 0 13.766 14.935"><defs><style>.a{fill:none;}.a,.b{stroke:#999;stroke-miterlimit:10;}.b{fill:rgba(0,0,0,0);}</style></defs><g transform="translate(0.5 0.5)"><path class="a" d="M553.945,208.576h1.728a.754.754,0,0,0,.712-.786v-4.769a1.772,1.772,0,0,0-1.674-1.848H554" transform="translate(-543.619 -197.383)"/><path class="a" d="M541.88,201.174h-.751a1.773,1.773,0,0,0-1.674,1.848v4.769a.754.754,0,0,0,.712.786h1.748" transform="translate(-539.455 -197.383)"/><path class="b" d="M.99,4.9A.963.963,0,0,1,0,3.973V.93A.964.964,0,0,1,.99,0H6.727a.964.964,0,0,1,.99.93V3.973a.963.963,0,0,1-.99.929Z" transform="translate(2.525)"/><rect class="a" width="7.717" height="6.443" rx="1.574" transform="translate(2.524 7.492)"/></g></svg>