<svg xmlns="http://www.w3.org/2000/svg" width="21.414" height="21.415" viewBox="0 0 21.414 21.415">
  <g id="통합검색" transform="translate(-0.285 2.676)">
    <g id="Ellipse_1" data-name="Ellipse 1" transform="translate(-660.719 -53.021)" fill="none">
      <path d="M663.73,53.085a9.269,9.269,0,0,1,13.159,0,9.394,9.394,0,0,1,0,13.233,9.269,9.269,0,0,1-13.159,0A9.394,9.394,0,0,1,663.73,53.085Z" stroke="none"/>
      <path d="M 670.3094482421875 52.3448486328125 C 668.3602294921875 52.3448486328125 666.5271606445313 53.10868835449219 665.1478271484375 54.49574279785156 C 662.2929077148438 57.36631774902344 662.2929077148438 62.037109375 665.1478881835938 64.90779113769531 C 666.5271606445313 66.29479217529297 668.3602294921875 67.05863952636719 670.3094482421875 67.05863952636719 C 672.2586669921875 67.05863952636719 674.0916748046875 66.29479217529297 675.470947265625 64.90774536132813 C 678.325927734375 62.037109375 678.325927734375 57.36631774902344 675.470947265625 54.49568939208984 C 674.0916748046875 53.10868835449219 672.2586669921875 52.3448486328125 670.3094482421875 52.3448486328125 M 670.3094482421875 50.3448486328125 C 672.6908569335938 50.3448486328125 675.072265625 51.25836944580078 676.8890991210938 53.08542633056641 C 680.5230102539063 56.73926544189453 680.5230102539063 62.66416168212891 676.8890991210938 66.31805419921875 C 675.072265625 68.14511108398438 672.6908569335938 69.05863952636719 670.3094482421875 69.05863952636719 C 667.9280395507813 69.05863952636719 665.546630859375 68.14511108398438 663.729736328125 66.31805419921875 C 660.0958862304688 62.66416168212891 660.0958862304688 56.73926544189453 663.729736328125 53.08542633056641 C 665.546630859375 51.25836944580078 667.9280395507813 50.3448486328125 670.3094482421875 50.3448486328125 Z" stroke="none" fill="#000"/>
    </g>
    <line id="Shape_3" data-name="Shape 3" x2="4.678" y2="4.678" transform="translate(15.607 12.646)" fill="none" stroke="#000" stroke-linecap="round" stroke-linejoin="round" stroke-width="2"/>
  </g>
</svg>
