<svg xmlns="http://www.w3.org/2000/svg" xmlns:xlink="http://www.w3.org/1999/xlink" width="198" height="124" viewBox="0 0 198 124"><defs><style>.a{fill:#fff;stroke-linecap:round;stroke-linejoin:round;}.b,.c{stroke:none;}.c{fill:#fff;}.d{filter:url(#a);}</style><filter id="a" x="0" y="0" width="198" height="124" filterUnits="userSpaceOnUse"><feOffset dy="3" input="SourceAlpha"/><feGaussianBlur stdDeviation="5" result="b"/><feFlood flood-opacity="0.161"/><feComposite operator="in" in2="b"/><feComposite in="SourceGraphic"/></filter></defs><g class="d" transform="matrix(1, 0, 0, 1, 0, 0)"><g class="a" transform="translate(12500 -839)"><path class="b" d="M -12448.529296875 944.9226684570313 L -12449.3828125 943.5210571289063 L -12453.357421875 936.9989013671875 L -12474.9990234375 936.9989013671875 C -12479.9619140625 936.9989013671875 -12484 932.9623413085938 -12484 928.0007934570313 L -12484 860.9992065429688 C -12484 856.0376586914063 -12479.9619140625 852.0010986328125 -12474.9990234375 852.0010986328125 L -12326.998046875 852.0010986328125 C -12322.0361328125 852.0010986328125 -12318 856.0376586914063 -12318 860.9992065429688 L -12318 928.0007934570313 C -12318 932.9623413085938 -12322.0361328125 936.9989013671875 -12326.998046875 936.9989013671875 L -12443.7021484375 936.9989013671875 L -12447.6748046875 943.52099609375 L -12448.529296875 944.9226684570313 Z"/><path class="c" d="M -12448.529296875 943.000732421875 L -12444.263671875 935.9989013671875 L -12326.998046875 935.9989013671875 C -12322.5810546875 935.9989013671875 -12319 932.4180908203125 -12319 928.0007934570313 L -12319 860.9992065429688 C -12319 856.5819091796875 -12322.5810546875 853.0010986328125 -12326.998046875 853.0010986328125 L -12474.9990234375 853.0010986328125 C -12479.4189453125 853.0010986328125 -12483 856.5819091796875 -12483 860.9992065429688 L -12483 928.0007934570313 C -12483 932.4180908203125 -12479.4189453125 935.9989013671875 -12474.9990234375 935.9989013671875 L -12452.7958984375 935.9989013671875 L -12448.529296875 943.000732421875 M -12448.529296875 945.000732421875 C -12449.2265625 945.0007934570313 -12449.8740234375 944.6372680664063 -12450.2373046875 944.0414428710938 L -12453.9189453125 937.9989013671875 L -12474.9990234375 937.9989013671875 C -12480.513671875 937.9989013671875 -12485 933.5137329101563 -12485 928.0007934570313 L -12485 860.9992065429688 C -12485 855.4862060546875 -12480.513671875 851.0010986328125 -12474.9990234375 851.0010986328125 L -12326.998046875 851.0010986328125 C -12321.4853515625 851.0010986328125 -12317 855.4862060546875 -12317 860.9992065429688 L -12317 928.0007934570313 C -12317 933.5137329101563 -12321.4853515625 937.9989013671875 -12326.998046875 937.9989013671875 L -12443.140625 937.9989013671875 L -12446.8212890625 944.041259765625 C -12447.1845703125 944.6370849609375 -12447.8310546875 945.0006713867188 -12448.529296875 945.000732421875 Z"/></g></g></svg>