<svg xmlns="http://www.w3.org/2000/svg" width="80.133" height="22.09" viewBox="0 0 80.133 22.09"><defs><style>.a{fill:#fff;}.b{fill:#2d2d2d;}</style></defs><path class="a" d="M102.672,277.838A11.045,11.045,0,1,0,91.619,266.8a11.047,11.047,0,0,0,11.053,11.042" transform="translate(-91.619 -255.748)"/><path class="b" d="M110.134,266.566v9.69h3.08v-.872h-2.192v-8.819Z" transform="translate(-99.525 -260.366)"/><path class="b" d="M103.763,269.206a1.325,1.325,0,1,0-1.323-1.323,1.324,1.324,0,0,0,1.323,1.323" transform="translate(-96.24 -260.362)"/><path class="b" d="M104.458,258.886c-.116-.005-.335-.013-.44-.013a9.251,9.251,0,1,0,9.248,9.252v-.411h-6.607v.851h5.726c0,.019,0,.109,0,.133a8.384,8.384,0,0,1-14.294,5.355,8.384,8.384,0,0,1,5.93-14.312c.1,0,.332,0,.44.006Z" transform="translate(-92.962 -257.082)"/><path class="a" d="M142.244,262.1h-3.32v14.379h10.2v-2.8h-6.88ZM156.43,271h2.7v2.514a7.639,7.639,0,0,1-2.4.38c-2.989,0-3.984-1.519-3.984-4.6,0-2.942.948-4.675,3.937-4.675a3.842,3.842,0,0,1,3.391,1.519l2.064-1.9c-1.258-1.8-3.464-2.348-5.527-2.348-4.65,0-7.092,2.54-7.092,7.379,0,4.816,2.205,7.426,7.069,7.426a10.57,10.57,0,0,0,5.6-1.4v-6.976H156.43Z" transform="translate(-111.823 -258.368)"/><path class="a" d="M220.654,259.516v-3.622h-2.673v3.622h-3.532v2.555h3.532v3.58h2.673v-3.58h3.556v-2.555Z" transform="translate(-144.077 -255.811)"/><path class="a" d="M197.777,262.243v8.306c0,2.3-1.14,3.425-3.068,3.425s-3.068-1.129-3.068-3.425v-8.306h-3.259V270.6c0,4.534,2.412,6.236,6.21,6.236h.233c3.8,0,6.211-1.7,6.211-6.236v-8.356Z" transform="translate(-132.945 -258.521)"/></svg>