<svg xmlns="http://www.w3.org/2000/svg" width="32" height="32" viewBox="0 0 32 32">
  <g id="naver_blog" data-name="naver blog" transform="translate(-467 -6756)">
    <rect id="사각형_1823" data-name="사각형 1823" width="32" height="32" rx="6" transform="translate(467 6756)" fill="#eee"/>
    <path id="패스_69899" data-name="패스 69899" d="M1248.312,262.358c-.012,2.5-.006,5,0,7.5a4.743,4.743,0,0,0,4.356,4.481c1.914.046,3.829-.007,5.746.026.442.944.917,1.874,1.372,2.814.126.235.218.535.513.6.3-.057.393-.362.519-.6.462-.943.929-1.881,1.386-2.827,1.913-.021,3.827.021,5.741-.021a4.743,4.743,0,0,0,4.352-4.477c.01-1.993,0-3.987.007-5.98a8.432,8.432,0,0,0-.209-2.628,4.752,4.752,0,0,0-4.416-3.318q-7.371-.007-14.744,0A4.749,4.749,0,0,0,1248.312,262.358Zm8.058.374a2.116,2.116,0,0,1,1.238.38,2.419,2.419,0,0,1,.874,2.019c-.006,1.3,0,2.6,0,3.9q-.714.007-1.426,0c-.022-1.3.027-2.6-.027-3.9a.976.976,0,0,0-.656-.983C1256.361,263.677,1256.367,263.205,1256.37,262.732Zm-5.187,6.288c.022-2.049-.024-4.1.026-6.147.476.014.95.009,1.424.014-.017.764.008,1.532-.018,2.3a1.893,1.893,0,0,1,2.613.025,2.454,2.454,0,0,1-.1,3.507,1.79,1.79,0,0,1-2.5-.12c0,.109.005.326.009.434C1252.151,269.034,1251.666,269.039,1251.183,269.02Zm1.954-2.974a.967.967,0,0,0-.054,1.729.939.939,0,1,0,.054-1.729Zm7.915-1.257a2.786,2.786,0,0,1,2.653.547,2.246,2.246,0,0,1-.172,3.317,2.639,2.639,0,0,1-3.934-.888A2.226,2.226,0,0,1,1261.052,264.79Zm.551,1.231a.968.968,0,0,0-.157,1.734.938.938,0,1,0,.157-1.734Zm4.414-1a1.774,1.774,0,0,1,2.344.2c0-.1,0-.3,0-.395.478,0,.959,0,1.438,0,0,1.354,0,2.708,0,4.062a2.438,2.438,0,0,1-.872,1.965,2.828,2.828,0,0,1-1.864.417c0-.442,0-.883,0-1.325a1.472,1.472,0,0,0,.994-.249,1.615,1.615,0,0,0,.322-1.1,1.965,1.965,0,0,1-2.643.017A2.416,2.416,0,0,1,1266.018,265.016Zm1.123.99a.972.972,0,0,0-.11,1.714.941.941,0,1,0,.11-1.714Z" transform="translate(-777.306 6504.068)" fill="#999"/>
  </g>
</svg>
