<svg xmlns="http://www.w3.org/2000/svg" width="32" height="32" viewBox="0 0 32 32">
  <g id="공식_blog" data-name="공식 blog" transform="translate(-0.338 0.323)">
    <rect id="사각형_1825" data-name="사각형 1825" width="32" height="32" rx="6" transform="translate(0.338 -0.323)" fill="#eee"/>
    <path id="패스_69582" data-name="패스 69582" d="M0,0H8.58a8.364,8.364,0,0,1,3.467.554,5.009,5.009,0,0,1,1.916,1.58,4.114,4.114,0,0,1,.756,2.5q0,2.991-3.319,3.992a4.745,4.745,0,0,1,2.874,1.676,4.4,4.4,0,0,1,.958,2.732,4.634,4.634,0,0,1-1.564,3.491Q12.1,18,8.58,18H0ZM4.3,3.178V7.121H7.569q1.794,0,2.259-.692A2.387,2.387,0,0,0,10.293,5.1a1.863,1.863,0,0,0-.384-1.18,1.636,1.636,0,0,0-.843-.62,8.3,8.3,0,0,0-1.808-.125Zm0,7.147v4.338H7.616a3.8,3.8,0,0,0,2.4-.58,2.119,2.119,0,0,0,.026-3.126A3.208,3.208,0,0,0,7.8,10.325Z" transform="translate(8.338 6.676)" fill="#999"/>
  </g>
</svg>
