<svg xmlns="http://www.w3.org/2000/svg" width="52.77" height="64" viewBox="0 0 52.77 64"><defs><style>.a{fill:#fff;}.b{fill:#ddd;}</style></defs><g transform="translate(0 0)"><path class="a" d="M1622.773,889.739V934.7a4.8,4.8,0,0,1-4.8,4.8h-40.663a4.8,4.8,0,0,1-4.8-4.8V882.8a4.8,4.8,0,0,1,4.8-4.8h33.473" transform="translate(-1571.254 -876.75)"/><path class="b" d="M1616.72,939.5h-40.663a6.06,6.06,0,0,1-6.053-6.053V881.553a6.06,6.06,0,0,1,6.053-6.053h33.473V878h-33.473a3.557,3.557,0,0,0-3.553,3.553v51.894a3.557,3.557,0,0,0,3.553,3.553h40.663a3.557,3.557,0,0,0,3.553-3.553V888.489h2.5v44.958A6.06,6.06,0,0,1,1616.72,939.5Z" transform="translate(-1570.004 -875.5)"/></g><g transform="translate(38.276)"><path class="a" d="M1661.05,889.739h-11.994V878Z" transform="translate(-1647.806 -876.75)"/><path class="b" d="M1659.8,889.739h-11.994a1.25,1.25,0,0,1-1.25-1.25V876.75a1.25,1.25,0,0,1,2.125-.894l11.994,11.739a1.251,1.251,0,0,1-.875,2.144Zm-10.744-2.5h7.68l-7.68-7.517Z" transform="translate(-1646.556 -875.5)"/></g><g transform="translate(12.731 17.608)"><line class="a" x2="16.842" transform="translate(0 1.25)"/><rect class="b" width="16.842" height="2.5" transform="translate(0)"/></g><g transform="translate(12.731 27.05)"><line class="a" x2="27.05" transform="translate(0 1.25)"/><rect class="b" width="27.05" height="2.5" transform="translate(0)"/></g><g transform="translate(12.731 36.492)"><line class="a" x2="27.05" transform="translate(0 1.25)"/><rect class="b" width="27.05" height="2.5" transform="translate(0)"/></g><g transform="translate(12.731 45.934)"><line class="a" x2="27.05" transform="translate(0 1.25)"/><rect class="b" width="27.05" height="2.5" transform="translate(0)"/></g></svg>