<svg xmlns="http://www.w3.org/2000/svg" width="68" height="65.505" viewBox="0 0 68 65.505"><defs><style>.a{fill:#fff;}.a,.b{stroke:#ddd;stroke-width:3px;}.b,.d{fill:none;}.c{stroke:none;}</style></defs><g transform="translate(-1.915 4.584)"><g class="a" transform="translate(6.915 20.92)"><rect class="c" width="57" height="40" rx="6"/><rect class="d" x="1.5" y="1.5" width="54" height="37" rx="4.5"/></g><g class="a" transform="translate(1.915 5.92)"><rect class="c" width="68" height="21" rx="6"/><rect class="d" x="1.5" y="1.5" width="65" height="18" rx="4.5"/></g><path class="b" d="M36.237-.225H21.548c-6.057,0-6.615-11.708,4.1-9.787A19.689,19.689,0,0,1,36.237-.225Z" transform="translate(-0.322 7.146)"/><path class="b" d="M17.237-.225h14.69c6.057,0,6.615-11.708-4.1-9.787A19.689,19.689,0,0,0,17.237-.225Z" transform="translate(18.678 7.146)"/><line class="b" y2="50" transform="translate(35.415 8.42)"/></g></svg>