<svg xmlns="http://www.w3.org/2000/svg" width="68.245" height="77.731" viewBox="0 0 68.245 77.731"><defs><style>.a{fill:#fff;}.b{fill:#ddd;}</style></defs><g transform="translate(0 0)"><path class="a" d="M1390.7,1169.626v-35.415a2.2,2.2,0,0,0-1.1-1.905l-30.67-17.707a2.2,2.2,0,0,0-2.2,0l-30.67,17.707a2.2,2.2,0,0,0-1.1,1.905v35.415a2.2,2.2,0,0,0,1.1,1.9l30.67,17.708a2.2,2.2,0,0,0,2.2,0l30.67-17.708A2.2,2.2,0,0,0,1390.7,1169.626Z" transform="translate(-1323.704 -1113.053)"/><path class="b" d="M1356.58,1189.538a3.456,3.456,0,0,1-1.727-.461l-30.67-17.707a3.462,3.462,0,0,1-1.726-2.99v-35.415a3.463,3.463,0,0,1,1.725-2.99l30.671-17.707a3.464,3.464,0,0,1,3.452,0l30.67,17.707a3.463,3.463,0,0,1,1.726,2.99v35.415a3.462,3.462,0,0,1-1.726,2.99l-30.671,17.707A3.451,3.451,0,0,1,1356.58,1189.538Zm0-75.226a.945.945,0,0,0-.473.127l-30.671,17.707a.95.95,0,0,0-.473.82v35.415a.949.949,0,0,0,.474.82l30.67,17.707a.95.95,0,0,0,.946,0l30.671-17.707a.949.949,0,0,0,.473-.82v-35.415a.949.949,0,0,0-.473-.82l-30.671-17.707A.946.946,0,0,0,1356.58,1114.312Z" transform="translate(-1322.457 -1111.807)"/></g><g transform="translate(24.561 24.859)"><path class="b" d="M1381.827,1161.419c6.548,0,9.771,2.982,9.771,8.125a6.277,6.277,0,0,1-3.429,5.588,6.457,6.457,0,0,1,4.731,6.514c0,5.794-3.771,8.536-10.559,8.536h-7.1c-2.4,0-3.771-1.337-3.771-3.7v-21.359c0-2.366,1.371-3.7,3.771-3.7Zm0,11.691a3.532,3.532,0,1,0,0-7.063h-3.36a.757.757,0,0,0-.823.823v6.239Zm.514,12.445c2.708,0,4.388-1.337,4.388-3.943s-1.68-3.943-4.388-3.943h-4.7v7.062a.757.757,0,0,0,.823.823Z" transform="translate(-1371.473 -1161.419)"/></g></svg>