<svg xmlns="http://www.w3.org/2000/svg" width="68.36" height="66.894" viewBox="0 0 68.36 66.894"><defs><style>.a{fill:#fff;}.b{fill:#ddd;}</style></defs><g transform="translate(0 0)"><g transform="translate(0 9.41)"><g transform="translate(0 9.467)"><path class="a" d="M2050.775,1666.607v9.17c0,4.676,10.959,8.465,24.479,8.465s24.478-3.79,24.478-8.465v-8.407" transform="translate(-2049.772 -1666.607)"/><path class="b" d="M2074.255,1685.244c-12.352,0-25.481-3.318-25.481-9.467v-9.17h2v9.17c0,3.53,9.642,7.463,23.477,7.463s23.476-3.933,23.476-7.463v-8.407h2v8.407C2099.736,1681.926,2086.607,1685.244,2074.255,1685.244Z" transform="translate(-2048.774 -1666.607)"/></g><ellipse class="a" cx="24.478" cy="8.465" rx="24.478" ry="8.465" transform="translate(1.003 1.002)"/><path class="b" d="M2074.255,1666.648c-12.352,0-25.481-3.318-25.481-9.467s13.129-9.467,25.481-9.467,25.481,3.318,25.481,9.467S2086.607,1666.648,2074.255,1666.648Zm0-16.93c-13.835,0-23.477,3.933-23.477,7.463s9.642,7.463,23.477,7.463,23.476-3.933,23.476-7.463S2088.09,1649.718,2074.255,1649.718Z" transform="translate(-2048.774 -1647.714)"/></g><g transform="translate(0 27.342)"><path class="a" d="M2050.775,1683.5v9.17c0,4.675,10.959,8.465,24.479,8.465s24.478-3.79,24.478-8.465v-8.407" transform="translate(-2049.772 -1683.501)"/><path class="b" d="M2074.255,1702.137c-12.352,0-25.481-3.318-25.481-9.467v-9.17h2v9.17c0,3.53,9.642,7.462,23.477,7.462s23.476-3.932,23.476-7.462v-8.408h2v8.408C2099.736,1698.819,2086.607,1702.137,2074.255,1702.137Z" transform="translate(-2048.774 -1683.501)"/><path class="a" d="M2099.731,1683.5c0,4.675-10.959,8.465-24.478,8.465s-24.479-3.79-24.479-8.465" transform="translate(-2049.772 -1683.501)"/><path class="b" d="M2074.255,1692.968c-12.352,0-25.481-3.318-25.481-9.467h2c0,3.53,9.642,7.462,23.477,7.462s23.476-3.933,23.476-7.462h2C2099.736,1689.65,2086.607,1692.968,2074.255,1692.968Z" transform="translate(-2048.774 -1683.501)"/></g><g transform="translate(0 9.467)"><path class="a" d="M2050.775,1647.827V1657c0,4.675,10.959,8.465,24.479,8.465s24.478-3.79,24.478-8.465v-8.407" transform="translate(-2049.772 -1647.827)"/><path class="b" d="M2074.255,1666.463c-12.352,0-25.481-3.318-25.481-9.467v-9.169h2V1657c0,3.53,9.642,7.463,23.477,7.463s23.476-3.932,23.476-7.463v-8.407h2V1657C2099.736,1663.145,2086.607,1666.463,2074.255,1666.463Z" transform="translate(-2048.774 -1647.827)"/></g><ellipse class="a" cx="24.478" cy="8.465" rx="24.478" ry="8.465" transform="translate(1.003 1.002)"/><path class="b" d="M2074.255,1647.868c-12.352,0-25.481-3.318-25.481-9.467s13.129-9.467,25.481-9.467,25.481,3.318,25.481,9.467S2086.607,1647.868,2074.255,1647.868Zm0-16.93c-13.835,0-23.477,3.933-23.477,7.463s9.642,7.463,23.477,7.463,23.476-3.933,23.476-7.463S2088.09,1630.938,2074.255,1630.938Z" transform="translate(-2048.774 -1628.934)"/></g><g transform="translate(17.399 39.792)"><path class="a" d="M2085.5,1708.348v9.17c0,4.676,10.959,8.465,24.479,8.465s24.478-3.79,24.478-8.465v-8.407" transform="translate(-2084.495 -1708.348)"/><path class="b" d="M2108.978,1726.985c-12.353,0-25.481-3.318-25.481-9.467v-9.169h2v9.169c0,3.53,9.641,7.463,23.477,7.463s23.476-3.933,23.476-7.463v-8.407h2v8.407C2134.458,1723.667,2121.33,1726.985,2108.978,1726.985Z" transform="translate(-2083.497 -1708.349)"/></g><g transform="translate(17.399 48.257)"><path class="a" d="M2085.5,1725.242v9.17c0,4.675,10.959,8.465,24.479,8.465s24.478-3.79,24.478-8.465V1726" transform="translate(-2084.495 -1725.242)"/><path class="b" d="M2108.978,1743.878c-12.353,0-25.481-3.318-25.481-9.467v-9.17h2v9.17c0,3.53,9.641,7.462,23.477,7.462s23.476-3.932,23.476-7.462V1726h2v8.407C2134.458,1740.56,2121.33,1743.878,2108.978,1743.878Z" transform="translate(-2083.497 -1725.242)"/><path class="b" d="M2108.978,1734.709c-12.353,0-25.481-3.318-25.481-9.467h2c0,3.53,9.641,7.463,23.477,7.463s23.476-3.933,23.476-7.463h2C2134.458,1731.391,2121.33,1734.709,2108.978,1734.709Z" transform="translate(-2083.497 -1725.242)"/></g><g transform="translate(17.399 30.325)"><ellipse class="a" cx="24.478" cy="8.465" rx="24.478" ry="8.465" transform="translate(1.002 1.002)"/><path class="b" d="M2108.978,1708.389c-12.353,0-25.481-3.318-25.481-9.467s13.128-9.467,25.481-9.467,25.48,3.318,25.48,9.467S2121.33,1708.389,2108.978,1708.389Zm0-16.93c-13.835,0-23.477,3.934-23.477,7.463s9.641,7.463,23.477,7.463,23.476-3.933,23.476-7.463S2122.813,1691.459,2108.978,1691.459Z" transform="translate(-2083.497 -1689.455)"/></g></svg>