<svg xmlns="http://www.w3.org/2000/svg" xmlns:xlink="http://www.w3.org/1999/xlink" width="51" height="51" viewBox="0 0 51 51"><defs><style>.a{fill:url(#a);}.b{fill:#fff;}.c{fill:#ff5340;}</style><linearGradient id="a" x1="0.5" x2="0.5" y2="1" gradientUnits="objectBoundingBox"><stop offset="0" stop-color="#ff7545"/><stop offset="1" stop-color="#ff4387"/></linearGradient></defs><g transform="translate(-2453.9 -2165.308)"><circle class="a" cx="25.5" cy="25.5" r="25.5" transform="translate(2453.9 2165.308)"/><rect class="b" width="41.884" height="41.884" rx="20.927" transform="translate(2500.342 2169.809) rotate(90)"/><g transform="translate(2468.943 2181.507)"><g transform="translate(1.749)"><path class="c" d="M2474.854,2181.492a4.177,4.177,0,1,0,4.176,4.177A4.182,4.182,0,0,0,2474.854,2181.492Zm2.247,4.177a2.248,2.248,0,1,1-2.247-2.248A2.25,2.25,0,0,1,2477.1,2185.669Z" transform="translate(-2470.677 -2181.492)"/><path class="c" d="M2482.507,2184.768l3.486,4.99.061.087h1.994v-8.351h-1.93v5.076l-3.544-5.077h-2v8.352h1.929Z" transform="translate(-2470.677 -2181.492)"/></g><g transform="translate(0 10.346)"><rect class="c" width="1.93" height="8.351" transform="translate(9.748)"/><path class="c" d="M2488.358,2197.487a3.173,3.173,0,0,0,1.438-2.617,3.01,3.01,0,0,0-2.822-3.032h-4.649v8.351h1.93V2197.9h2.111l1.18,2.286h2.156l-1.451-2.634Zm-.491-2.617a1.1,1.1,0,0,1-1.152,1.1h-2.46v-2.207h2.46A1.107,1.107,0,0,1,2487.867,2194.87Z" transform="translate(-2468.928 -2191.838)"/><path class="c" d="M2471.908,2191.838l-2.98,8.351h2.115l.66-1.852h3l.66,1.852h2.131l-3-8.351Zm2.222,4.879h-1.851l.925-2.594Z" transform="translate(-2468.928 -2191.838)"/></g></g></g></svg>