<svg xmlns="http://www.w3.org/2000/svg" xmlns:xlink="http://www.w3.org/1999/xlink" width="18" height="18" viewBox="0 0 18 18">
  <defs>
    <clipPath id="clip">
      <use xlink:href="#fill"/>
    </clipPath>
    <clipPath id="clip-2">
      <use xlink:href="#fill-2"/>
    </clipPath>
    <clipPath id="clip-3">
      <use xlink:href="#fill-3"/>
    </clipPath>
    <clipPath id="clip-4">
      <use xlink:href="#fill-4"/>
    </clipPath>
  </defs>
  <g id="_icon_정렬" data-name="@icon 정렬" transform="translate(-187 -16)">
    <rect id="사각형_4049" data-name="사각형 4049" width="18" height="18" transform="translate(187 16)" fill="none"/>
    <g id="그룹_6585" data-name="그룹 6585" transform="translate(1 1)">
      <g id="사각형_4050" data-name="사각형 4050" transform="translate(188 18)" fill="#fff" stroke="#707070" stroke-width="1.2">
        <rect id="fill" width="13" height="1" rx="0.5" stroke="none"/>
        <path d="M0,0.3999999761581421h13M12.399999976158142,0v1M13,0.6000000238418579h-13M0.6000000238418579,1v-1" fill="none" clip-path="url(#clip)"/>
      </g>
      <g id="사각형_4051" data-name="사각형 4051" transform="translate(188 23)" fill="#fff" stroke="#707070" stroke-width="1.2">
        <rect id="fill-2" width="7" height="1" rx="0.5" stroke="none"/>
        <path d="M0,0.3999999761581421h7M6.399999976158142,0v1M7,0.6000000238418579h-7M0.6000000238418579,1v-1" fill="none" clip-path="url(#clip-2)"/>
      </g>
      <g id="사각형_4052" data-name="사각형 4052" transform="translate(188 28)" fill="#fff" stroke="#707070" stroke-width="1.2">
        <rect id="fill-3" width="5" height="1" rx="0.5" stroke="none"/>
        <path d="M0,0.3999999761581421h5M4.399999976158142,0v1M5,0.6000000238418579h-5M0.6000000238418579,1v-1" fill="none" clip-path="url(#clip-3)"/>
      </g>
      <g id="사각형_4053" data-name="사각형 4053" transform="translate(198 21)" fill="#fff" stroke="#707070" stroke-width="1.2">
        <rect id="fill-4" width="1" height="7" rx="0.5" stroke="none"/>
        <path d="M0,0.6000000238418579h1M0.6000000238418579,0v7M1,6.399999976158142h-1M0.3999999761581421,7v-7" fill="none" clip-path="url(#clip-4)"/>
      </g>
      <path id="패스_2417" data-name="패스 2417" d="M203.322,25.269l-2.078,2.078-2.078-2.078" transform="translate(-2.665 1.153)" fill="none" stroke="#707070" stroke-linecap="round" stroke-linejoin="round" stroke-width="1.2"/>
    </g>
  </g>
</svg>
