<svg id="그룹_12001" data-name="그룹 12001" xmlns="http://www.w3.org/2000/svg" width="73.896" height="50.61" viewBox="0 0 73.896 50.61">
  <g id="그룹_11997" data-name="그룹 11997" transform="translate(0)">
    <path id="패스_11948" data-name="패스 11948" d="M2477.518,1656.819v32.045a4.06,4.06,0,0,1-4.06,4.06h-63.271a4.06,4.06,0,0,1-4.06-4.06V1648.88a4.06,4.06,0,0,1,4.06-4.06h55.332Z" transform="translate(-2404.874 -1643.567)" fill="#fff"/>
    <path id="패스_11949" data-name="패스 11949" d="M2472.21,1692.929h-63.271a5.319,5.319,0,0,1-5.312-5.312v-39.985a5.319,5.319,0,0,1,5.313-5.313h55.332a1.254,1.254,0,0,1,.886.367l12,12a1.253,1.253,0,0,1,.367.886v32.045A5.319,5.319,0,0,1,2472.21,1692.929Zm-63.271-48.1a2.811,2.811,0,0,0-2.807,2.808v39.985a2.811,2.811,0,0,0,2.807,2.807h63.271a2.811,2.811,0,0,0,2.808-2.807V1656.09l-11.266-11.266Z" transform="translate(-2403.627 -1642.319)" fill="#ddd"/>
  </g>
  <g id="그룹_11998" data-name="그룹 11998" transform="translate(58.803 1.86)">
    <path id="패스_11950" data-name="패스 11950" d="M2535.48,1658.029h-10.449a1.551,1.551,0,0,1-1.551-1.551V1646.03" transform="translate(-2522.228 -1646.03)" fill="#fff"/>
    <path id="패스_11951" data-name="패스 11951" d="M2534.233,1659.282h-10.449a2.806,2.806,0,0,1-2.8-2.8V1646.03h2.505v10.449a.3.3,0,0,0,.3.3h10.449Z" transform="translate(-2520.981 -1646.03)" fill="#ddd"/>
  </g>
  <g id="그룹_12000" data-name="그룹 12000" transform="translate(15.353 9.992)">
    <g id="그룹_11999" data-name="그룹 11999">
      <circle id="타원_958" data-name="타원 958" cx="2.012" cy="2.012" r="2.012" fill="#ddd"/>
      <circle id="타원_959" data-name="타원 959" cx="2.012" cy="2.012" r="2.012" transform="translate(0 9.181)" fill="#ddd"/>
      <circle id="타원_960" data-name="타원 960" cx="2.012" cy="2.012" r="2.012" transform="translate(0 18.361)" fill="#ddd"/>
      <circle id="타원_961" data-name="타원 961" cx="2.012" cy="2.012" r="2.012" transform="translate(0 27.542)" fill="#ddd"/>
    </g>
  </g>
  <path id="패스_11952" data-name="패스 11952" d="M2478.04,1678.986a4.794,4.794,0,0,0-4.8-4.925,4.721,4.721,0,0,0-4.73,4.925,4.663,4.663,0,0,0,4.73,4.974A4.778,4.778,0,0,0,2478.04,1678.986Zm-6.717.024a1.951,1.951,0,1,1,1.951,1.951A1.95,1.95,0,0,1,2471.322,1679.01Z" transform="translate(-2435.997 -1658.156)" fill="#ddd"/>
  <path id="패스_11953" data-name="패스 11953" d="M2489.311,1674.315l-13.389,17.923a.633.633,0,0,0,.507,1.012h1.906a.632.632,0,0,0,.508-.255l13.344-17.923a.633.633,0,0,0-.508-1.011h-1.86A.633.633,0,0,0,2489.311,1674.315Z" transform="translate(-2439.634 -1658.156)" fill="#ddd"/>
  <path id="패스_11954" data-name="패스 11954" d="M2501.686,1692.311a4.689,4.689,0,0,0-4.755,4.948,4.576,4.576,0,0,0,4.755,4.877,4.677,4.677,0,0,0,4.779-4.877A4.8,4.8,0,0,0,2501.686,1692.311Zm.012,6.864a1.951,1.951,0,1,1,1.95-1.951A1.951,1.951,0,0,1,2501.7,1699.175Z" transform="translate(-2450.179 -1667.261)" fill="#ddd"/>
</svg>
