<svg xmlns="http://www.w3.org/2000/svg" width="28" height="26" viewBox="0 0 28 26"><defs><style>.a,.c{fill:#fff;}.a{opacity:0;}.b{fill:none;}.b,.c{stroke:#5ba5b1;stroke-linejoin:round;stroke-width:1.2px;}.d{fill:#5ba5b1;}</style></defs><g transform="translate(0.804 1.043)"><rect class="a" width="28" height="26" transform="translate(-0.804 -1.043)"/><g transform="translate(0 0.457)"><path class="b" d="M831.98,2098.6h6.361l-.328,2.993,4.527-2.993h1.411a3.816,3.816,0,0,0,3.816-3.815v-7.719a3.815,3.815,0,0,0-3.816-3.815H831.98a3.815,3.815,0,0,0-3.816,3.815v7.719A3.816,3.816,0,0,0,831.98,2098.6Z" transform="translate(-821.266 -2078.249)"/><rect class="c" width="21.986" height="17.216" rx="4.279"/><circle class="d" cx="0.951" cy="0.951" r="0.951" transform="translate(5.947 7.22)"/><circle class="d" cx="0.951" cy="0.951" r="0.951" transform="translate(10.042 7.22)"/><circle class="d" cx="0.951" cy="0.951" r="0.951" transform="translate(14.136 7.22)"/></g></g></svg>