<svg xmlns="http://www.w3.org/2000/svg" width="57.2" height="65.445" viewBox="0 0 57.2 65.445"><defs><style>.a{fill:#fff;}.b{fill:#ddd;}</style></defs><g transform="translate(16.796 53.642)"><path class="a" d="M2115.626,1231.12a10.551,10.551,0,1,1-21.1,0" transform="translate(-2093.272 -1231.12)"/><path class="b" d="M2103.828,1242.923a11.817,11.817,0,0,1-11.8-11.8h2.505a9.3,9.3,0,0,0,18.6,0h2.505A11.817,11.817,0,0,1,2103.828,1242.923Z" transform="translate(-2092.024 -1231.12)"/></g><g transform="translate(0 0)"><path class="a" d="M2114.093,1178.261h-51.485a1.6,1.6,0,0,1-1.438-2.309l7.678-15.641v-13.69c0-10.5,8.07-19.538,18.56-20.032a19.5,19.5,0,0,1,20.446,19.481v14.24l7.678,15.641A1.6,1.6,0,0,1,2114.093,1178.261Z" transform="translate(-2059.751 -1125.314)"/><path class="b" d="M2112.846,1178.266H2061.36a2.855,2.855,0,0,1-2.562-4.113l7.55-15.38v-13.4a21.009,21.009,0,0,1,19.754-21.283,20.757,20.757,0,0,1,21.757,20.732v13.95l7.55,15.38a2.855,2.855,0,0,1-2.563,4.113Zm-25.734-51.694c-.3,0-.594.007-.893.021a18.508,18.508,0,0,0-17.366,18.781v13.98l-7.806,15.9a.35.35,0,0,0,.314.5h51.486a.35.35,0,0,0,.314-.5l-7.806-15.9v-14.531a18.25,18.25,0,0,0-18.242-18.251Z" transform="translate(-2058.503 -1124.065)"/></g></svg>