<svg xmlns="http://www.w3.org/2000/svg" width="40" height="40" viewBox="0 0 40 40">
  <g id="그룹_6494" data-name="그룹 6494" transform="translate(-36 -288)">
    <circle id="타원_572" data-name="타원 572" cx="20" cy="20" r="20" transform="translate(36 288)" fill="#ff5340"/>
    <path id="패스_2303" data-name="패스 2303" d="M201.962,1020.319a2.255,2.255,0,0,0-2.253,2.253v4.3l-6.462.009v-4.312a2.255,2.255,0,0,0-2.252-2.253,2.334,2.334,0,0,0-2.253,2.5v13.157a2.225,2.225,0,0,0,2.253,2,2.255,2.255,0,0,0,2.252-2.253v-4.288h6.462v4.288a2.181,2.181,0,0,0,2.2,2.308,2.283,2.283,0,0,0,2.308-2.308v-13.156A2.255,2.255,0,0,0,201.962,1020.319Z" transform="translate(-140.204 -720.319)" fill="#fff"/>
  </g>
</svg>
