<svg xmlns="http://www.w3.org/2000/svg" width="40" height="40" viewBox="0 0 40 40">
  <g id="그룹_6518" data-name="그룹 6518" transform="translate(-36 -288)">
    <g id="타원_572" data-name="타원 572" transform="translate(36 288)" fill="none" stroke="#eee" stroke-width="1">
      <circle cx="20" cy="20" r="20" stroke="none"/>
      <circle cx="20" cy="20" r="19.5" fill="none"/>
    </g>
    <g id="그룹_121" data-name="그룹 121" transform="translate(-279.425 -114.232)">
      <path id="패스_189" data-name="패스 189" d="M354.936,411.232a3.827,3.827,0,1,0,3.826,3.827A3.829,3.829,0,0,0,354.936,411.232Z" transform="translate(-13.323)" fill="#161615"/>
      <path id="패스_190" data-name="패스 190" d="M334.934,427.005a4.306,4.306,0,0,0-3.1,1.292v-6.309h-1.413v16.536h1.454v-7.662c0-1.555,1.571-2.492,2.969-2.492a2.484,2.484,0,0,1,2.661,2.641v7.514h1.457V431.01A3.816,3.816,0,0,0,334.934,427.005Z" transform="translate(0 -6.929)" fill="#161615"/>
    </g>
  </g>
</svg>
