<svg xmlns="http://www.w3.org/2000/svg" width="18" height="18" viewBox="0 0 18 18"><defs><style>.a,.b{fill:none;}.b{stroke:#999;stroke-linecap:round;stroke-linejoin:round;}</style></defs><g transform="translate(-196 -203)"><rect class="a" width="18" height="18" transform="translate(196 203)"/><g transform="translate(-463.176 -152.904)"><path class="b" d="M662.176,367.3l5.314-7.795a3.646,3.646,0,0,1,5.1-.951h0a3.718,3.718,0,0,1,.943,5.142l-5.479,8.052a2.624,2.624,0,0,1-3.67.685h0a2.677,2.677,0,0,1-.679-3.7l4.594-6.676a1.7,1.7,0,0,1,2.379-.444h0a1.735,1.735,0,0,1,.44,2.4l-3.282,4.814"/></g></g></svg>