<svg xmlns="http://www.w3.org/2000/svg" width="22" height="22" viewBox="0 0 22 22"><defs><style>.a{fill:red;opacity:0;}.b,.c{fill:none;}.c{stroke:#fff;}.d,.e{stroke:none;}.e{fill:#fff;}</style></defs><g transform="translate(0.329 0.329)"><rect class="a" width="22" height="22" transform="translate(-0.329 -0.329)"/><g class="b" transform="translate(403.457 206.147)"><path class="d" d="M-384.966-203.7a2.68,2.68,0,0,0-3.79,0l-10.624,10.624a.6.6,0,0,0-.153.262l-1.4,5.044a.6.6,0,0,0,.153.58.6.6,0,0,0,.58.153l5.044-1.4a.6.6,0,0,0,.262-.153l10.624-10.624a2.683,2.683,0,0,0,0-3.79Z"/><path class="e" d="M -386.8604736328125 -203.4799957275391 C -387.3091735839844 -203.4799957275391 -387.7309875488281 -203.3052520751953 -388.0483093261719 -202.9879608154297 L -398.5970153808594 -192.439453125 L -399.7750244140625 -188.1867065429688 L -395.5223083496094 -189.3648986816406 L -384.9746704101563 -199.9128265380859 C -384.3207702636719 -200.5682220458984 -384.3207397460938 -201.6346130371094 -384.9738464355469 -202.2891693115234 L -385.6727600097656 -202.9879913330078 C -385.989990234375 -203.3052673339844 -386.4118041992188 -203.4799957275391 -386.8604736328125 -203.4799957275391 M -386.8604736328125 -204.4799957275391 C -386.1746520996094 -204.4799957275391 -385.4888610839844 -204.2183532714844 -384.9656066894531 -203.695068359375 L -384.2667846679688 -202.9963073730469 C -383.2218627929688 -201.9490661621094 -383.2218627929688 -200.2537841796875 -384.2667846679688 -199.2065124511719 L -394.8905944824219 -188.5823974609375 C -394.9635314941406 -188.5095825195313 -395.0537719726563 -188.4570007324219 -395.1528015136719 -188.4295959472656 L -400.1966857910156 -187.0322265625 C -400.2491455078125 -187.0177154541016 -400.3025207519531 -187.0106506347656 -400.3554992675781 -187.0106506347656 C -400.5113220214844 -187.0106506347656 -400.6634826660156 -187.0718688964844 -400.7768249511719 -187.18505859375 C -400.9284973144531 -187.3369750976563 -400.9868469238281 -187.5584411621094 -400.929443359375 -187.7652282714844 L -399.5323181152344 -192.8089904785156 C -399.5049133300781 -192.9080810546875 -399.4523010253906 -192.998291015625 -399.3795471191406 -193.0711364746094 L -388.7554016113281 -203.695068359375 C -388.2321166992188 -204.2183532714844 -387.5462951660156 -204.4799957275391 -386.8604736328125 -204.4799957275391 Z"/></g><path class="c" d="M4.728,13.622l3.111,2.956" transform="translate(0.104 0.162)"/><path class="c" d="M4.728,13.622l3.111,2.956" transform="translate(10.193 -9.912)"/></g></svg>