<svg xmlns="http://www.w3.org/2000/svg" width="22" height="22" viewBox="0 0 22 22"><defs><style>.a{fill:none;opacity:0.51;}.b{fill:#9ccefd;}.b,.c{stroke:#9ccefd;}.b,.c,.d,.e{stroke-linecap:round;stroke-linejoin:round;}.c{fill:#fff;}.d{fill:#daeaec;stroke:#daeaec;}.e{fill:#ea0c76;stroke:#000;stroke-width:0.6px;}</style></defs><g transform="translate(-631.958 -285.623)"><rect class="a" width="22" height="22" transform="translate(631.958 285.623)"/><g transform="translate(1)"><path class="b" d="M644.612,291.273l-10.133-1.542-.647.647,7.6,4.411Z"/><line class="c" x1="1.32" y2="1.32" transform="translate(638.722 288.975)"/><line class="c" x1="1.32" y2="1.32" transform="translate(641.3 289.343)"/><path class="b" d="M647.2,293.859l1.542,10.133-.647.647-4.411-7.6Z"/><line class="c" x1="1.32" y2="1.32" transform="translate(648.176 298.429)"/><line class="c" x1="1.32" y2="1.32" transform="translate(647.808 295.851)"/><path class="d" d="M639.66,300.978c.132-.108.257-.22.37-.332l9.464-8.663c.783-.783,1.888-3.241,1.061-4.067s-3.284.278-4.067,1.061l-8.663,9.464c-.112.113-.224.238-.332.37l-3.858-.437-.677.677,4.1,2.363,2.363,4.1.677-.678Z"/><line class="e" x1="1.117" y2="1.117" transform="translate(647.417 289.938)"/></g></g></svg>