<svg xmlns="http://www.w3.org/2000/svg" width="22.204" height="22" viewBox="0 0 22.204 22"><defs><style>.a,.c{fill:none;}.a{opacity:0.51;}.b{fill:#fff;}.b,.c{stroke:#000;stroke-miterlimit:10;}.c{stroke-width:0.6px;}</style></defs><g transform="translate(-486.389 -285.422)"><rect class="a" width="22" height="22" transform="translate(486.494 285.422)"/><g transform="translate(-0.4)"><rect class="b" width="8.595" height="4.851" rx="2.325" transform="matrix(0.657, -0.754, 0.754, 0.657, 487.494, 294.902)"/><rect class="b" width="8.595" height="4.851" rx="2.325" transform="matrix(0.657, 0.754, -0.754, 0.657, 502.64, 288.422)"/><path class="b" d="M504.843,297.987c0-.013,0-.027-.01-.041l-2.045-6.023c-.03-.1-.066-.2-.1-.3l-.027-.079c0-.009-.008-.017-.011-.026-.052-.129-.11-.256-.174-.38-.008-.014-.013-.03-.021-.044a4.546,4.546,0,0,0-4.016-2.438h-1.081a4.548,4.548,0,0,0-4,2.4,2.386,2.386,0,0,0-.243.5l-2.175,6.4c-.008.023-.009.047-.016.07a5.007,5.007,0,0,0-.268,1.607v.244a5.072,5.072,0,0,0,5.057,5.057h4.353a5.073,5.073,0,0,0,5.058-5.057v-.244A5.015,5.015,0,0,0,504.843,297.987Z"/><path d="M496.715,296.04a.8.8,0,1,1-.8-.8.8.8,0,0,1,.8.8"/><path d="M500.666,296.04a.8.8,0,1,1-.8-.8.8.8,0,0,1,.8.8"/><path class="c" d="M499.6,299.984a1.709,1.709,0,0,1-3.418,0c0-.81.765-1.243,1.709-1.243S499.6,299.174,499.6,299.984Z"/><line class="c" y2="3.137" transform="translate(497.891 301.748)"/></g></g></svg>