<svg xmlns="http://www.w3.org/2000/svg" xmlns:xlink="http://www.w3.org/1999/xlink" width="22" height="22" viewBox="0 0 22 22"><defs><style>.a,.b,.f{fill:none;}.b{opacity:0.51;}.c{fill:#ff7043;stroke:#ff7043;}.c,.e,.f{stroke-miterlimit:10;}.d{clip-path:url(#a);}.e{fill:#ea0c76;}.e,.f{stroke:#fff;}</style><clipPath id="a"><path class="a" d="M525.6,183.17a9.23,9.23,0,1,0,0,13.06A9.244,9.244,0,0,0,525.6,183.17Z"/></clipPath></defs><g transform="translate(-508.091 -178.72)"><rect class="b" width="22" height="22" transform="translate(508.091 178.72)"/><circle class="c" cx="8.733" cy="8.733" r="8.733" transform="translate(510.339 180.975)"/><g class="d"><line class="e" x2="13.293" y2="13.293" transform="translate(512.339 183.059)"/><line class="e" x1="12.99" y2="12.99" transform="translate(512.589 183.192)"/><path class="f" d="M509.743,190.562a7.281,7.281,0,0,1,8.316,8.319"/><path class="f" d="M519.749,180.47a7.627,7.627,0,0,0,2.062,6.49,8.883,8.883,0,0,0,6.59,2.067"/></g></g></svg>