<svg xmlns="http://www.w3.org/2000/svg" xmlns:xlink="http://www.w3.org/1999/xlink" width="22" height="22" viewBox="0 0 22 22"><defs><style>.a,.b{fill:none;}.b{opacity:0.51;}.c{fill:#b674f2;stroke:#b674f2;stroke-linecap:round;stroke-linejoin:round;}.d{fill:#8f4cd6;}.e{clip-path:url(#a);}.f{fill:#fff;}</style><clipPath id="a"><path class="a" d="M652.028,150.137l-3.465-5.065a.5.5,0,0,0-.413-.218H635.656a.5.5,0,0,0-.413.218l-3.464,5.065a.5.5,0,0,0,.011.58l7.641,10.272a3.082,3.082,0,0,0,4.945,0l7.64-10.272A.5.5,0,0,0,652.028,150.137Z"/></clipPath></defs><g transform="translate(-631.191 -142.354)"><rect class="b" width="22" height="22" transform="translate(631.191 142.354)"/><g transform="translate(0.3)"><path class="c" d="M651.615,150.419l-3.466-5.065H635.657l-3.466,5.065,7.641,10.271a2.581,2.581,0,0,0,4.142,0Z"/><path class="d" d="M638.394,150.317l3.53,11.793,3.488-11.793"/><g class="e"><path class="f" d="M652.785,149.919h-7.11l-1.427-5.792a.4.4,0,1,0-.777.191l1.38,5.6h-5.9l1.381-5.6a.4.4,0,1,0-.777-.191l-1.428,5.792h-6.847a.5.5,0,0,0,0,1h6.865l3.371,11.558c0,.007.01.011.013.019a.391.391,0,0,0,.128.185c.007.005.015.006.022.011a.344.344,0,0,0,.22.073.405.405,0,0,0,.113-.016.428.428,0,0,0,.108-.057c.007-.005.014-.006.021-.011a.4.4,0,0,0,.129-.185c0-.008.011-.012.013-.019l3.369-11.558h7.129a.5.5,0,0,0,0-1ZM641.9,160.937l-2.921-10.018h5.841Z"/></g></g></g></svg>