<svg xmlns="http://www.w3.org/2000/svg" width="22" height="22" viewBox="0 0 22 22"><defs><style>.a{fill:none;opacity:0.51;}.b,.c,.d{fill:#fff;stroke:#000;}.b,.d{stroke-linecap:round;}.b,.c{stroke-miterlimit:10;}.b{stroke-width:0.8px;}.d{stroke-linejoin:round;}</style></defs><g transform="translate(-486.291 -214.525)"><rect class="a" width="22" height="22" transform="translate(486.291 214.525)"/><line class="b" x2="3.073" transform="translate(495.689 217.525)"/><line class="b" y2="1.484" transform="translate(497.226 217.568)"/><rect class="c" width="4.582" height="2.532" rx="1.266" transform="translate(487.291 223.598)"/><rect class="c" width="4.582" height="2.532" rx="1.266" transform="translate(502.578 223.598)"/><path class="d" d="M489.86,223.6v7.693a1.773,1.773,0,0,0,1.774,1.762h11.321a1.773,1.773,0,0,0,1.773-1.762V223.6Z"/><path class="d" d="M504.66,221.586v-.33a2.217,2.217,0,0,0-2.217-2.2H492.008a2.217,2.217,0,0,0-2.216,2.2v.33Z"/></g></svg>