<svg xmlns="http://www.w3.org/2000/svg" width="22" height="22" viewBox="0 0 22 22"><defs><style>.a{fill:none;}.b{fill:#74b3e2;stroke:#74b3e2;}.b,.d,.f{stroke-linejoin:round;}.c{fill:#b0d8fd;stroke:#b0d8fd;}.c,.e{stroke-miterlimit:10;}.d{fill:#0dca71;stroke:#0dca71;}.d,.f{stroke-linecap:round;}.d,.e{stroke-width:0.6px;}.e{fill:#00a854;stroke:#00a854;}.f{fill:#eff7ff;stroke:#eff7ff;}</style></defs><g transform="translate(-512.515 -106.946)"><rect class="a" width="22" height="22" transform="translate(512.515 106.946)"/><rect class="b" width="6.203" height="5.418" transform="translate(520.245 108.946)"/><path class="c" d="M526.925,111.073h2.994a1.262,1.262,0,0,1,1.258,1.258v13.306a1.262,1.262,0,0,1-1.258,1.258H516.774a1.262,1.262,0,0,1-1.259-1.258V112.331a1.262,1.262,0,0,1,1.259-1.258H520.1l1.737,3.725"/><path class="d" d="M522.707,116.617l-1.5,5.708,2.14,1.855,2.14-1.855-1.471-5.708"/><path class="e" d="M524.2,116.617l.82-1.854a.223.223,0,0,0-.221-.222h-2.907a.222.222,0,0,0-.221.222l.842,1.854Z"/><path class="f" d="M520.245,108.946l-1.389,1.96,1.439,6.129,3.076-2.705A11.87,11.87,0,0,1,520.245,108.946Z"/><path class="f" d="M526.448,108.946l1.389,1.96-1.439,6.129-3.076-2.705A11.87,11.87,0,0,0,526.448,108.946Z"/></g></svg>