<svg xmlns="http://www.w3.org/2000/svg" width="22" height="22" viewBox="0 0 22 22"><defs><style>.a{fill:none;opacity:0.51;}.b,.c{fill:#fff;stroke:#000;stroke-linecap:round;stroke-linejoin:round;}.c{stroke-width:0.6px;}</style></defs><g transform="translate(-486.609 -141.869)"><rect class="a" width="22" height="22" transform="translate(486.609 141.869)"/><path class="b" d="M494.4,143.869l-2.975,1.555v0a.337.337,0,0,0-.1.243v4.085a.338.338,0,0,0,.337.337h2.8a.338.338,0,0,0,.337-.337v-5.488A.4.4,0,0,0,494.4,143.869Z"/><rect class="b" width="5.207" height="3.431" rx="0.589" transform="translate(490.459 150.039)"/><path class="b" d="M496.239,153.427h-6.353a.277.277,0,0,0-.277.276v7.516a1.109,1.109,0,0,0,1.1,1.105h4.7a1.108,1.108,0,0,0,1.105-1.105V153.7A.277.277,0,0,0,496.239,153.427Z"/><path class="b" d="M505.274,162.324H498.92a.277.277,0,0,1-.276-.276v-8.706a1.108,1.108,0,0,1,1.1-1.1h4.7a1.108,1.108,0,0,1,1.1,1.1v8.706A.277.277,0,0,1,505.274,162.324Z"/><line class="c" x2="6.575" transform="translate(498.842 159.918)"/></g></svg>