<svg xmlns="http://www.w3.org/2000/svg" xmlns:xlink="http://www.w3.org/1999/xlink" width="22.204" height="22" viewBox="0 0 22.204 22"><defs><style>.a,.b,.f{fill:none;}.b{opacity:0.51;}.c{fill:#ae632c;stroke:#ae632c;}.c,.d,.e,.f{stroke-miterlimit:10;}.d{fill:#f7f0eb;stroke:#f7f0eb;}.e{fill:#77411d;stroke-width:0.6px;}.e,.f{stroke:#77411d;}.g{clip-path:url(#a);}.h{fill:#ffc663;}</style><clipPath id="a"><path class="a" d="M529.147,291.978l2.057,6.069a5.5,5.5,0,0,1,.3,1.78v.244a5.584,5.584,0,0,1-5.577,5.577h-4.352A5.584,5.584,0,0,1,516,300.071v-.244a5.518,5.518,0,0,1,.295-1.773l2.191-6.473a2.863,2.863,0,0,1,.294-.607,5.045,5.045,0,0,1,4.438-2.642h1.08a5.2,5.2,0,0,1,4.476,2.715A6.047,6.047,0,0,1,529.147,291.978Z"/></clipPath></defs><g transform="translate(-512.734 -285.582)"><rect class="b" width="22" height="22" transform="translate(512.84 285.582)"/><g transform="translate(0.1)"><rect class="c" width="8.595" height="4.851" rx="2.325" transform="matrix(0.657, -0.754, 0.754, 0.657, 513.34, 295.079)"/><rect class="c" width="8.595" height="4.851" rx="2.325" transform="matrix(0.657, 0.754, -0.754, 0.657, 528.486, 288.599)"/><path class="d" d="M530.689,298.165c-.005-.014-.005-.028-.01-.042l-2.045-6.023c-.031-.1-.066-.2-.1-.3l-.027-.079a.2.2,0,0,0-.012-.025c-.052-.13-.11-.257-.173-.38-.008-.015-.014-.031-.022-.045a4.548,4.548,0,0,0-4.016-2.438H523.2a4.549,4.549,0,0,0-4,2.4,2.354,2.354,0,0,0-.243.5l-2.175,6.4c-.008.023-.009.047-.016.07a5.006,5.006,0,0,0-.268,1.607v.244a5.072,5.072,0,0,0,5.057,5.057h4.354a5.072,5.072,0,0,0,5.057-5.057v-.244A5.006,5.006,0,0,0,530.689,298.165Z"/><path class="e" d="M525.445,300.161a1.709,1.709,0,0,1-3.418,0c0-.81.766-1.242,1.709-1.242S525.445,299.351,525.445,300.161Z"/><line class="f" y2="3.797" transform="translate(523.736 301.851)"/><g class="g"><path class="h" d="M523.983,294.327a5.168,5.168,0,1,1-10.3,0c0-3.1,5.159-7.325,8-7.325S523.983,291.227,523.983,294.327Z"/></g><path d="M522.56,296.217a.8.8,0,1,1-.8-.8.8.8,0,0,1,.8.8"/><path d="M526.511,296.217a.8.8,0,1,1-.8-.8.8.8,0,0,1,.8.8"/></g></g></svg>