<svg xmlns="http://www.w3.org/2000/svg" width="22" height="22" viewBox="0 0 22 22"><defs><style>.a,.e{fill:none;}.a{opacity:0.51;}.b,.c,.d{fill:#fff;}.b,.c,.d,.e{stroke:#000;}.b,.c{stroke-miterlimit:10;}.c,.e{stroke-width:0.6px;}.d,.e{stroke-linecap:round;stroke-linejoin:round;}</style></defs><g transform="translate(-486.501 -249.395)"><rect class="a" width="22" height="22" transform="translate(486.501 249.395)"/><rect class="b" width="14.415" height="8.734" rx="1.13" transform="translate(490.103 253.395)"/><rect class="c" width="5.329" height="3.957" rx="1.134" transform="translate(491.351 256.521)"/><rect class="c" width="5.329" height="3.957" rx="1.134" transform="translate(497.942 256.521)"/><line class="d" y2="2.896" transform="translate(488.501 264.956)"/><path class="d" d="M505.82,261.2h-.147v-.9a.767.767,0,0,0-.749-.781H489.7a.768.768,0,0,0-.75.781v.9H488.8a.308.308,0,0,0-.3.313v4.224a.308.308,0,0,0,.3.313H505.82a.308.308,0,0,0,.3-.313V261.51A.308.308,0,0,0,505.82,261.2Z"/><line class="d" y2="2.896" transform="translate(506.12 264.956)"/><line class="e" x2="14.124" transform="translate(490.249 261.179)"/></g></svg>