<svg xmlns="http://www.w3.org/2000/svg" width="22" height="22" viewBox="0 0 22 22"><defs><style>.a,.d,.e{fill:none;}.a{opacity:0.51;}.b{fill:#ffbeb9;stroke:#ffbeb9;}.b,.c,.d,.e{stroke-miterlimit:10;}.c{fill:#ffdcc8;stroke:#ffdcc8;}.d{stroke:#000;stroke-width:0.8px;}.d,.e{stroke-linecap:round;}.e{stroke:#684c46;}.f{fill:#ffabe1;}</style></defs><g transform="translate(-632.949 -178.107)"><rect class="a" width="22" height="22" transform="translate(632.949 178.107)"/><g transform="translate(1.5)"><circle class="b" cx="1.871" cy="1.871" r="1.871" transform="translate(632.949 189.328)"/><circle class="b" cx="1.871" cy="1.871" r="1.871" transform="translate(648.145 189.328)"/><path class="c" d="M649.72,187.25a7.443,7.443,0,0,0-7.3-6.143h0a7.443,7.443,0,0,0-7.3,6.143,5.41,5.41,0,0,0-.118,1.117v4.049a5.411,5.411,0,0,0,5.4,5.4h4.05a5.412,5.412,0,0,0,5.4-5.4v-4.049A5.344,5.344,0,0,0,649.72,187.25Z"/><path d="M640.875,190.508a.7.7,0,1,1-.7-.7.7.7,0,0,1,.7.7"/><path d="M645.364,190.508a.7.7,0,1,1-.7-.7.7.7,0,0,1,.7.7"/><path class="d" d="M644.109,193.471a1.8,1.8,0,0,1-1.521.848h-.342a1.793,1.793,0,0,1-1.518-.844"/><path class="e" d="M640.972,181.267a4.5,4.5,0,0,1,3.242,3.007s.192,1.791-1.259,2.26a1.763,1.763,0,0,1-2.068-.6,1.473,1.473,0,0,1,.042-1.749,1.236,1.236,0,0,1,1.109-.362"/><circle class="f" cx="1.493" cy="1.493" r="1.493" transform="translate(635.902 191.767)"/><circle class="f" cx="1.493" cy="1.493" r="1.493" transform="translate(645.949 191.767)"/></g></g></svg>