<svg xmlns="http://www.w3.org/2000/svg" xmlns:xlink="http://www.w3.org/1999/xlink" width="22" height="22" viewBox="0 0 22 22"><defs><style>.a,.c,.e,.j{fill:none;}.b{fill:#818691;}.b,.c{stroke:#818691;}.b,.c,.e,.f,.j{stroke-linecap:round;}.b,.c,.e,.f{stroke-linejoin:round;}.d{fill:#f8f8f8;opacity:0;}.e{stroke:#b1b5bc;}.f{fill:#d9dbe2;stroke:#d9dbe2;}.g{opacity:0.31;}.h{clip-path:url(#a);}.i{fill:#fff;}.j{stroke:#fff;stroke-miterlimit:10;}.k{fill:#989ca8;}.l{fill:#ff5340;}</style><clipPath id="a"><rect class="a" width="10.234" height="12.544"/></clipPath></defs><path class="b" d="M53.217,18.267H46.96a1.257,1.257,0,0,1,0-2.5h6.257a1.257,1.257,0,0,1,0,2.5Z" transform="translate(-39.089 1.233)"/><line class="c" x2="11.44" transform="translate(5.28 19.5)"/><rect class="d" width="22" height="22"/><path class="e" d="M4.354,2.239l3.018,3,2.982-3" transform="translate(0.246 0.261)"/><rect class="f" width="17" height="11.5" transform="translate(2.5 5.5)"/><g class="g" transform="translate(0 -0.229)"><g transform="translate(6.237 5.192)"><g class="h"><path class="i" d="M11.252,5.692h4.493L11.252,17.257h-4.3Z" transform="translate(-6.237 -5.203)"/><path class="j" d="M11.252,5.692h4.493L11.252,17.257h-4.3Z" transform="translate(-6.237 -5.203)"/></g></g></g><line class="k" x2="11.679" transform="translate(5.161 19.761)"/><rect class="a" width="22" height="22"/><path class="l" d="M50.418,7.452l1.263,2.776,1.273-2.776H54.4l-2.426,5.263h-.581l-1.842-4.07H48.337v4.07h-1.3V8.645h-1.5V7.452Z" transform="translate(-38.969 1.704)"/></svg>