<svg xmlns="http://www.w3.org/2000/svg" width="19.038" height="15.003" viewBox="0 0 19.038 15.003"><defs><style>.a{fill:#fff;}.b,.c{fill:none;stroke:#222;}.b{stroke-linecap:round;stroke-linejoin:round;}.c{stroke-miterlimit:10;stroke-width:0.6px;}</style></defs><g transform="translate(109.019 -1659.297)"><path class="a" d="M11.3,43.923A1.36,1.36,0,0,1,10.232,45.5,1.323,1.323,0,0,1,8.7,44.4a1.359,1.359,0,0,1,1.068-1.579,1.322,1.322,0,0,1,1.529,1.1" transform="translate(-109.514 1617)"/><path class="b" d="M11.3,43.923A1.36,1.36,0,0,1,10.232,45.5,1.323,1.323,0,0,1,8.7,44.4a1.359,1.359,0,0,1,1.068-1.579A1.322,1.322,0,0,1,11.3,43.923Z" transform="translate(-109.514 1617)"/><path class="a" d="M14.7,55l-.007,2.065L4.624,57.027l.007-2.066" transform="translate(-109.217 1616.739)"/><path class="b" d="M14.7,55l-.007,2.065L4.624,57.027l.007-2.066" transform="translate(-109.217 1616.739)"/><path class="a" d="M15.29,54.655l2.288-6.809-4.833,2.286" transform="translate(-109.811 1616.892)"/><path class="b" d="M15.29,54.655l2.288-6.809-4.833,2.286" transform="translate(-109.811 1616.892)"/><path class="a" d="M4.507,54.573,2.269,47.74,7.08,50.066l2.574-4.458,2.539,4.477,2.545,4.523" transform="translate(-109.093 1616.94)"/><path class="b" d="M4.507,54.573,2.269,47.74,7.08,50.066l2.574-4.458,2.539,4.477,2.32,4.489" transform="translate(-109.093 1616.94)"/><path class="a" d="M19.51,46.621A1.36,1.36,0,0,1,18.442,48.2a1.322,1.322,0,0,1-1.529-1.1,1.359,1.359,0,0,1,1.068-1.579,1.323,1.323,0,0,1,1.529,1.1" transform="translate(-110.03 1616.942)"/><path class="b" d="M19.51,46.621A1.36,1.36,0,0,1,18.442,48.2a1.322,1.322,0,0,1-1.529-1.1,1.359,1.359,0,0,1,1.068-1.579A1.323,1.323,0,0,1,19.51,46.621Z" transform="translate(-110.03 1616.942)"/><path class="a" d="M3.118,46.465A1.357,1.357,0,0,1,2.05,48.044a1.323,1.323,0,0,1-1.529-1.1,1.36,1.36,0,0,1,1.068-1.579,1.324,1.324,0,0,1,1.529,1.1" transform="translate(-109 1616.946)"/><path class="b" d="M3.118,46.465A1.357,1.357,0,0,1,2.05,48.044a1.323,1.323,0,0,1-1.529-1.1,1.36,1.36,0,0,1,1.068-1.579A1.324,1.324,0,0,1,3.118,46.465Z" transform="translate(-109 1616.946)"/><line class="c" x2="9.943" transform="translate(-104.593 1671.623)"/></g></svg>