<svg id="그룹_11977" data-name="그룹 11977" xmlns="http://www.w3.org/2000/svg" width="65.082" height="64.141" viewBox="0 0 65.082 64.141">
  <g id="그룹_11956" data-name="그룹 11956">
    <path id="패스_2885" data-name="패스 2885" d="M2781.376,1127.056h57.257l2.66,56.187a5.449,5.449,0,0,1-5.449,5.449h-51.679a5.449,5.449,0,0,1-5.448-5.449Z" transform="translate(-2777.464 -1125.803)" fill="#fff"/>
    <path id="패스_2886" data-name="패스 2886" d="M2834.6,1188.7h-51.679a6.709,6.709,0,0,1-6.7-6.7c0-.02,0-.04,0-.059l2.66-56.187a1.252,1.252,0,0,1,1.251-1.193h57.256a1.252,1.252,0,0,1,1.251,1.193l2.66,56.187c0,.02,0,.04,0,.059A6.709,6.709,0,0,1,2834.6,1188.7Zm-55.875-6.673a4.2,4.2,0,0,0,4.2,4.168H2834.6a4.2,4.2,0,0,0,4.2-4.168l-2.6-54.962h-54.866Z" transform="translate(-2776.217 -1124.556)" fill="#ddd"/>
  </g>
  <g id="그룹_11957" data-name="그룹 11957" transform="translate(20.513 11.167)">
    <path id="패스_2887" data-name="패스 2887" d="M2840.775,1150.34v6.527c0,4.156-1.6,11.853-9.781,11.853-8.565,0-10.34-7.235-10.34-11.853v-6.527" transform="translate(-2818.901 -1148.587)" fill="#fff"/>
    <path id="패스_2888" data-name="패스 2888" d="M2829.248,1168.728c-8.916,0-12.093-7.029-12.093-13.607v-6.526a1.754,1.754,0,1,1,3.508,0v6.526c0,3.772,1.115,10.1,8.585,10.1,7.449,0,8.028-7.73,8.028-10.1v-6.526a1.754,1.754,0,0,1,3.508,0v6.526C2840.784,1161.4,2837.762,1168.728,2829.248,1168.728Z" transform="translate(-2817.155 -1146.841)" fill="#ddd"/>
  </g>
</svg>
