<svg xmlns="http://www.w3.org/2000/svg" width="22" height="22" viewBox="0 0 22 22"><defs><style>.a,.e{fill:none;}.a{opacity:0.51;}.b{fill:#e20000;stroke:#e20000;}.b,.c,.d{stroke-linecap:round;}.b,.c,.d,.e{stroke-linejoin:round;}.c{fill:#ffe2ae;stroke:#ffe2ae;}.d{fill:#fdd278;stroke:#fdd278;}.e{stroke:#fff;stroke-width:0.6px;}</style></defs><g transform="translate(-512.455 -142.046)"><rect class="a" width="22" height="22" transform="translate(512.455 142.046)"/><path class="b" d="M520.25,144.046l-2.976,1.555v0a.335.335,0,0,0-.1.242v4.085a.338.338,0,0,0,.338.337h2.8a.338.338,0,0,0,.338-.337v-5.488A.4.4,0,0,0,520.25,144.046Z"/><rect class="c" width="5.207" height="3.431" rx="0.589" transform="translate(516.304 150.216)"/><path class="d" d="M522.085,153.6h-6.354a.277.277,0,0,0-.276.277V161.4a1.108,1.108,0,0,0,1.1,1.105h4.7a1.108,1.108,0,0,0,1.105-1.105v-7.515A.277.277,0,0,0,522.085,153.6Z"/><path class="d" d="M531.119,162.5h-6.353a.277.277,0,0,1-.276-.276v-8.706a1.108,1.108,0,0,1,1.1-1.1h4.7a1.108,1.108,0,0,1,1.1,1.1v8.706A.277.277,0,0,1,531.119,162.5Z"/><line class="e" x2="7.904" transform="translate(523.987 160.095)"/></g></svg>