<svg xmlns="http://www.w3.org/2000/svg" width="22" height="22" viewBox="0 0 22 22"><defs><style>.a{fill:none;opacity:0.51;}.b{fill:#fff;stroke:#303030;stroke-width:0.8px;}.b,.c,.d,.e{stroke-linecap:round;}.b,.d,.e{stroke-miterlimit:10;}.c,.e{fill:#8ec9ed;stroke:#8ec9ed;}.c{stroke-linejoin:round;}.d{fill:#c2e2f9;stroke:#c2e2f9;}</style></defs><g transform="translate(-512.137 -214.702)"><rect class="a" width="22" height="22" transform="translate(512.137 214.702)"/><line class="b" x2="3.073" transform="translate(521.535 217.702)"/><line class="b" y2="1.484" transform="translate(523.071 217.745)"/><rect class="c" width="4.582" height="2.532" rx="1.266" transform="translate(513.137 223.775)"/><rect class="c" width="4.582" height="2.532" rx="1.266" transform="translate(528.424 223.775)"/><path class="d" d="M515.706,223.775v7.693a1.774,1.774,0,0,0,1.773,1.763H528.8a1.774,1.774,0,0,0,1.773-1.763v-7.693Z"/><path class="e" d="M530.505,221.6v-.165a2.216,2.216,0,0,0-2.216-2.2H517.854a2.217,2.217,0,0,0-2.217,2.2v.165Z"/></g></svg>