<svg xmlns="http://www.w3.org/2000/svg" width="18.01" height="18" viewBox="0 0 18.01 18"><defs><style>.a{fill:#bdd4ef;}.b{fill:none;stroke:#bdd4ef;}.b,.c{stroke-linecap:round;stroke-linejoin:round;}.c,.d{fill:#29aa0e;}.c{stroke:#29aa0e;}</style></defs><g transform="translate(-2 -2)"><path class="a" d="M19.615,11.115a8.5,8.5,0,1,1-8.5-8.5,8.5,8.5,0,0,1,8.5,8.5"/><circle class="b" cx="8.5" cy="8.5" r="8.5" transform="translate(2.5 2.5)"/><path class="c" d="M6.847,14.075c.479-.473.917-1.75,1.346-2.27.717-.868,2.194-.641,2.807-1.585.625-.963-.22-2.6,0-3.723a7.257,7.257,0,0,1,2.435-3.469l.046-.039a8.384,8.384,0,0,0-9.82,12.064A4.227,4.227,0,0,0,6.847,14.075Z" transform="translate(-0.115 -0.115)"/><path class="c" d="M18.091,6.54l-.137.132A4.826,4.826,0,0,0,16.1,10.107a3.1,3.1,0,0,0,1.112,2.7c.739.848,1.179.98,1.179,1.914v.241a8.354,8.354,0,0,0-.3-8.424Z" transform="translate(0.125)"/><path class="d" d="M12.069,16.477A1.662,1.662,0,0,0,14.006,16a1.684,1.684,0,0,0,.262-1.444c-.191-.77-.984-.784-1.515-.614a4.09,4.09,0,0,0-1.22.559,1.178,1.178,0,0,0,.536,1.976"/><path class="d" d="M11.949,16.911a2.12,2.12,0,0,0,2.4-.626,2,2,0,0,0,.422-1.311,1.729,1.729,0,0,0-.4-1.154,1.832,1.832,0,0,0-1.985-.23,3.57,3.57,0,0,0-1.17.592,1.424,1.424,0,0,0-.433.729,1.7,1.7,0,0,0,1.06,1.955.462.462,0,0,0,.615-.162.454.454,0,0,0-.161-.615,2.41,2.41,0,0,1-.217-.105c-.032-.018-.064-.038-.1-.058-.016-.011-.111-.083-.024-.013a1.343,1.343,0,0,1-.146-.136c-.022-.022-.042-.047-.062-.071.081.1,0-.009-.016-.032s-.03-.051-.043-.077c-.043-.084.012-.028,0,0,.009-.02-.043-.131-.049-.158a.276.276,0,0,1-.015-.08c-.012.055.006.091.007.04s0-.123,0-.183c0-.093-.025.107,0,.017.006-.024.009-.05.015-.074.012-.049.03-.095.044-.143.026-.086-.053.093-.006.018.013-.02.022-.043.034-.063s.025-.041.037-.06c.06-.1-.052.047,0,0,.033-.03.063-.064.1-.094-.079.072.006,0,.024-.015l.064-.041c.069-.042.14-.081.213-.116l.113-.052c.049-.022.052-.023.01-.005l.078-.033c.149-.058.3-.11.452-.16.058-.019.116-.038.175-.052s.168-.013.2-.04c-.041.035-.089.006-.016,0l.075,0c.06,0,.12,0,.18,0,.1,0-.1-.023,0,0,.029.006.058.011.087.019s.056.018.084.025c.073.021-.084-.045.026.014.026.014.05.03.075.045.084.051-.065-.069,0,0,.019.021.042.044.063.065-.078-.077-.014-.018,0,.011s.032.058.048.087c-.052-.1,0,0,.007.025.021.067.033.135.048.2.024.114-.005-.1,0,.02,0,.037.006.073.008.11a1.993,1.993,0,0,1,0,.232c0,.015-.021.142,0,.038-.007.04-.015.079-.024.119s-.02.078-.033.117-.017.052-.027.077c.019-.044.018-.042-.005.006s-.038.074-.061.11-.031.047-.047.07c.027-.034.023-.031-.01.009-.058.06-.116.118-.177.176-.093.085.068-.041-.037.029-.045.029-.089.059-.135.086s-.071.036-.106.054-.048.023,0,0l-.074.028a1.661,1.661,0,0,1-.268.065c.107-.017-.021,0-.037,0a1.406,1.406,0,0,1-.159,0c-.04,0-.08,0-.12-.008.105.01-.06-.012-.08-.017a1.954,1.954,0,0,1-.278-.089.452.452,0,0,0-.553.314.462.462,0,0,0,.314.554"/></g></svg>