<svg xmlns="http://www.w3.org/2000/svg" width="22" height="22" viewBox="0 0 22 22"><defs><style>.a,.f{fill:none;}.a{opacity:0.51;}.b{fill:#ffdf8e;stroke:#ffdf8e;}.b,.c{stroke-miterlimit:10;}.c{fill:#fffaed;stroke:#fffaed;}.c,.f{stroke-width:0.6px;}.d{fill:#fff;}.d,.e{stroke:#ea9b58;}.d,.e,.f{stroke-linecap:round;stroke-linejoin:round;}.e{fill:#ea9b58;}.f{stroke:#e8c3a7;}</style></defs><g transform="translate(-512.347 -249.572)"><rect class="a" width="22" height="22" transform="translate(512.347 249.572)"/><rect class="b" width="14.415" height="8.734" rx="1.13" transform="translate(515.949 253.572)"/><rect class="c" width="5.329" height="3.957" rx="1.134" transform="translate(517.196 256.698)"/><rect class="c" width="5.329" height="3.957" rx="1.134" transform="translate(523.788 256.698)"/><line class="d" y2="2.896" transform="translate(514.347 265.134)"/><path class="e" d="M531.666,261.374h-.147v-.9a.768.768,0,0,0-.75-.781H515.544a.768.768,0,0,0-.75.781v.9h-.147a.308.308,0,0,0-.3.313v4.224a.308.308,0,0,0,.3.313h17.019a.308.308,0,0,0,.3-.313v-4.224A.308.308,0,0,0,531.666,261.374Z"/><line class="d" y2="2.896" transform="translate(531.966 265.134)"/><line class="f" x2="14.124" transform="translate(516.095 261.356)"/></g></svg>