<svg xmlns="http://www.w3.org/2000/svg" width="22" height="22" viewBox="0 0 22 22"><defs><style>.a,.b{fill:#fff;}.a{opacity:0.51;}.c{fill:none;stroke:#222;stroke-linecap:round;stroke-linejoin:round;}.d{fill:#222;}</style></defs><g transform="translate(-486.494 -285.422)"><rect class="a" width="22" height="22" transform="translate(486.494 285.422)"/><g transform="translate(556.525 -1329.579)"><rect class="b" width="17" height="11.624" transform="translate(-67.531 1620.622)"/><rect class="c" width="17" height="11.5" transform="translate(-67.531 1620.5)"/><path class="b" d="M43.443.5l3.345,3.452L50.092.5" transform="translate(-109 1617)"/><path class="c" d="M43.443.5l3.018,3,2.982-3" transform="translate(-108.874 1617)"/><path class="d" d="M50.418,7.452l1.263,2.776,1.273-2.776H54.4l-2.426,5.263h-.581l-1.842-4.07H48.337v4.07h-1.3V8.645h-1.5V7.452Z" transform="translate(-109 1616.705)"/><path class="b" d="M53.217,18.021H46.96a1.127,1.127,0,0,1,0-2.254h6.257a1.127,1.127,0,1,1,0,2.254" transform="translate(-109.119 1616.479)"/><path class="c" d="M53.217,18.267H46.96a1.257,1.257,0,0,1,0-2.5h6.257a1.257,1.257,0,0,1,0,2.5Z" transform="translate(-109.119 1616.233)"/><line class="b" x2="11.44" transform="translate(-64.751 1634.5)"/><line class="c" x2="11.44" transform="translate(-64.751 1634.5)"/></g></g></svg>