<svg xmlns="http://www.w3.org/2000/svg" width="22" height="22" viewBox="0 0 22 22"><defs><style>.a,.f{fill:none;}.b,.c,.d,.e{fill:#fff;}.b,.c,.d,.e,.f{stroke:#000;}.b,.c{stroke-miterlimit:10;}.c,.f{stroke-width:0.8px;}.d,.e,.f{stroke-linejoin:round;}.e,.f{stroke-linecap:round;}</style></defs><g transform="translate(-486.67 -106.769)"><rect class="a" width="22" height="22" transform="translate(486.67 106.769)"/><path class="b" d="M501.08,110.895h2.993a1.263,1.263,0,0,1,1.259,1.259V125.46a1.262,1.262,0,0,1-1.259,1.258H490.928a1.262,1.262,0,0,1-1.258-1.258V112.154a1.262,1.262,0,0,1,1.258-1.259h3.326"/><path class="c" d="M498.355,116.44l.82-1.855a.222.222,0,0,0-.221-.221h-2.907a.222.222,0,0,0-.221.221l.843,1.855Z"/><path class="d" d="M494.4,108.769l-1.389,1.96,1.439,6.129,3.077-2.705A11.868,11.868,0,0,1,494.4,108.769Z"/><path class="e" d="M500.6,108.769l1.389,1.96-1.439,6.129-3.076-2.705A11.87,11.87,0,0,0,500.6,108.769Z"/><path class="f" d="M496.669,116.44l-1.308,5.708L497.5,124l2.14-1.855-1.286-5.708"/><line class="e" x2="6.203" transform="translate(494.399 108.769)"/></g></svg>