<svg xmlns="http://www.w3.org/2000/svg" xmlns:xlink="http://www.w3.org/1999/xlink" width="140" height="140" viewBox="0 0 140 140">
  <defs>
    <clipPath id="clip-path">
      <rect id="사각형_4547" data-name="사각형 4547" width="140" height="140" fill="none"/>
    </clipPath>
  </defs>
  <g id="그룹_6517" data-name="그룹 6517" clip-path="url(#clip-path)">
    <path id="패스_2472" data-name="패스 2472" d="M140,70A70,70,0,1,1,70,0a70,70,0,0,1,70,70" fill="none"/>
    <path id="패스_2474" data-name="패스 2474" d="M71.449,120.581l29.19-49.245a5.463,5.463,0,0,1,9.4,0l29.191,49.245a5.463,5.463,0,0,1-4.7,8.248H76.148A5.463,5.463,0,0,1,71.449,120.581Z" transform="translate(-35.339 -34.329)" fill="none" stroke="#ddd" stroke-width="3"/>
    <g id="그룹_6518" data-name="그룹 6518">
      <path id="패스_2473" data-name="패스 2473" d="M71.449,120.581l29.19-49.245a5.463,5.463,0,0,1,9.4,0l29.191,49.245a5.463,5.463,0,0,1-4.7,8.248H76.148a5.463,5.463,0,0,1-4.7-8.248" transform="translate(-35.339 -34.33)" fill="#fff"/>
      <path id="패스_2475" data-name="패스 2475" d="M136.978,130.273h0a3.455,3.455,0,0,1-3.455-3.454v-16.41a3.455,3.455,0,0,1,6.909,0v16.41a3.455,3.455,0,0,1-3.454,3.454" transform="translate(-66.761 -53.477)" fill="#ddd"/>
      <path id="패스_2476" data-name="패스 2476" d="M140.432,162.228a3.455,3.455,0,1,1-3.454-3.455,3.454,3.454,0,0,1,3.454,3.455" transform="translate(-66.761 -79.386)" fill="#ddd"/>
    </g>
  </g>
</svg>
