<svg xmlns="http://www.w3.org/2000/svg" width="19" height="15.883" viewBox="0 0 19 15.883"><defs><style>.a{fill:#d8d8d8;}.b,.d,.f,.h,.i{fill:none;}.b{stroke:#d8d8d8;}.b,.f,.i{stroke-linecap:round;stroke-linejoin:round;}.c{fill:#e5e5e5;}.d{stroke:#e5e5e5;}.d,.h{stroke-miterlimit:10;stroke-width:0.6px;}.e{fill:#45675c;}.f{stroke:#45675c;}.g{fill:#515151;}.h{stroke:#515151;}.i{stroke:#9e9e9e;}</style></defs><g transform="translate(-1.646 -3.084)"><path class="a" d="M3.4,6.885V18.3h15.52V6.885" transform="translate(0 0.162)"/><path class="b" d="M3.4,6.885V18.3h15.52V6.885" transform="translate(0 0.162)"/><rect class="c" width="1.407" height="11.417" transform="translate(4.66 7.167)"/><rect class="d" width="1.407" height="11.417" transform="translate(4.66 7.167)"/><rect class="c" width="1.407" height="11.417" transform="translate(16.391 7.167)"/><rect class="d" width="1.407" height="11.417" transform="translate(16.391 7.167)"/><rect class="e" width="18" height="3.301" transform="translate(2.146 3.584)"/><rect class="f" width="18" height="3.301" transform="translate(2.146 3.584)"/><path class="g" d="M11.029,12.606h0a1.792,1.792,0,0,0-1.8,1.788v3.829a.143.143,0,0,0,.143.142h3.306a.143.143,0,0,0,.143-.142V14.394a1.792,1.792,0,0,0-1.8-1.788" transform="translate(0.117 0.102)"/><path class="h" d="M11.029,12.606h0a1.792,1.792,0,0,0-1.8,1.788v3.829a.143.143,0,0,0,.143.142h3.306a.143.143,0,0,0,.143-.142V14.394A1.792,1.792,0,0,0,11.029,12.606Z" transform="translate(0.117 0.102)"/><line class="i" x2="18" transform="translate(2.146 18.467)"/></g></svg>