<svg xmlns="http://www.w3.org/2000/svg" width="22" height="22" viewBox="0 0 22 22"><defs><style>.a{fill:none;opacity:0.51;}.b{fill:#fff;}.b,.c{stroke:#000;stroke-linecap:round;stroke-linejoin:round;}.c{fill:#ea0c76;stroke-width:0.6px;}</style></defs><g transform="translate(-605.112 -285.445)"><rect class="a" width="22" height="22" transform="translate(605.112 285.445)"/><path class="b" d="M618.767,291.1l-10.133-1.542-.647.647,7.6,4.411Z"/><line class="b" x1="1.32" y2="1.32" transform="translate(612.876 288.797)"/><line class="b" x1="1.32" y2="1.32" transform="translate(615.455 289.166)"/><path class="b" d="M621.352,293.682l1.542,10.133-.647.647-4.411-7.6Z"/><line class="b" x1="1.32" y2="1.32" transform="translate(622.331 298.252)"/><line class="b" x1="1.32" y2="1.32" transform="translate(621.963 295.673)"/><path class="b" d="M613.815,300.8a4.787,4.787,0,0,0,.369-.332l9.465-8.662c.783-.783,1.888-3.241,1.061-4.068s-3.284.278-4.067,1.062l-8.663,9.464a4.811,4.811,0,0,0-.332.37l-3.859-.437-.677.677,4.1,2.363,2.362,4.1.677-.677Z"/><line class="c" x1="1.117" y2="1.117" transform="translate(621.571 289.761)"/></g></svg>