<svg xmlns="http://www.w3.org/2000/svg" width="18" height="18" viewBox="0 0 18 18"><defs><style>.a{fill:#fff;}.b{fill:none;stroke:#222;stroke-linecap:round;stroke-linejoin:round;}.c{fill:#222;}</style></defs><g transform="translate(67.797 -1658.049)"><path class="a" d="M58.473,49.953a8.385,8.385,0,1,1-8.385-8.385,8.385,8.385,0,0,1,8.385,8.385" transform="translate(-109 1617)"/><circle class="b" cx="8.5" cy="8.5" r="8.5" transform="translate(-67.297 1658.549)"/><path class="c" d="M52.206,41.663a6.914,6.914,0,0,0-2.574,3.817c-.181,1.265.985,3.284-.6,3.933a7.148,7.148,0,0,0-1.768.746,4.143,4.143,0,0,0-1.029,1.525,2.879,2.879,0,0,1-1.367,1.532,4.395,4.395,0,0,1-2.17.338c-.578-.044-.575.856,0,.9a4.257,4.257,0,0,0,3.859-1.494c.378-.559.583-1.22.966-1.775.429-.62,1.236-.689,1.886-.958,1.521-.632,1.418-2.016,1.189-3.411a3.221,3.221,0,0,1,.391-2.387,8.615,8.615,0,0,1,1.85-2.129c.441-.377-.2-1.011-.637-.636" transform="translate(-109 1617)"/><path class="c" d="M56.724,45.312a8.135,8.135,0,0,0-1.414,1.762,5.409,5.409,0,0,0-.567,2.978,3.736,3.736,0,0,0,1.015,2.058c.5.557,1.253,1.092,1.269,1.909a.45.45,0,1,0,.9,0,2.178,2.178,0,0,0-.3-1.16,7.779,7.779,0,0,0-.826-.948,4.342,4.342,0,0,1-1.082-1.562,4.059,4.059,0,0,1,.326-2.719,6.958,6.958,0,0,1,1.315-1.656c.4-.433-.231-1.1-.636-.663" transform="translate(-109 1617)"/><path class="c" d="M51.038,55.864a2.12,2.12,0,0,0,2.4-.626,2,2,0,0,0,.422-1.311,1.729,1.729,0,0,0-.4-1.154,1.832,1.832,0,0,0-1.985-.23,3.57,3.57,0,0,0-1.17.592,1.424,1.424,0,0,0-.433.729,1.7,1.7,0,0,0,1.06,1.955.462.462,0,0,0,.615-.162.454.454,0,0,0-.161-.615,2.41,2.41,0,0,1-.217-.1c-.032-.018-.064-.038-.095-.058s-.111-.083-.024-.013a1.344,1.344,0,0,1-.146-.136c-.022-.022-.042-.047-.062-.071.081.1,0-.009-.016-.032s-.03-.051-.043-.077c-.043-.084.012-.028,0,0,.009-.02-.043-.131-.049-.158a.276.276,0,0,1-.015-.08c-.012.055.006.091.007.04s0-.123,0-.183c0-.093-.025.107,0,.017.006-.024.009-.05.015-.074.012-.049.03-.1.044-.143.026-.086-.053.093-.006.018.013-.02.022-.043.034-.063s.025-.041.037-.06c.06-.1-.052.047,0,0,.033-.03.063-.064.1-.094-.079.072.006,0,.024-.015l.064-.041c.069-.042.14-.081.213-.116l.113-.052c.049-.022.052-.023.01-.005l.078-.033c.149-.058.3-.11.452-.16.058-.019.116-.038.175-.052.044-.012.168-.013.2-.04-.041.035-.089.006-.016,0l.075,0c.06,0,.12,0,.18,0,.1,0-.1-.023,0,0,.029.006.058.011.087.019s.056.018.084.025c.073.021-.084-.045.026.014.026.014.05.03.075.045.084.051-.065-.069,0,0,.019.021.042.044.063.065-.078-.077-.014-.018,0,.011s.032.058.048.087c-.052-.1,0,0,.007.025.021.067.033.135.048.2.024.114-.005-.1,0,.02,0,.037.006.073.008.11a1.992,1.992,0,0,1,0,.232c0,.015-.021.142,0,.038-.007.04-.015.079-.024.119s-.02.078-.033.117-.017.052-.027.077c.019-.044.018-.042-.005.006s-.038.074-.061.11-.031.047-.047.07c.027-.034.023-.031-.01.009-.058.06-.116.118-.177.176-.093.085.068-.041-.037.029-.045.029-.089.059-.135.086s-.071.036-.106.054-.048.023,0,0l-.074.028a1.662,1.662,0,0,1-.268.065c.107-.017-.021,0-.037,0a1.407,1.407,0,0,1-.159,0c-.04,0-.08,0-.12-.008.105.01-.06-.012-.08-.017A1.954,1.954,0,0,1,51.277,55a.452.452,0,0,0-.553.314.462.462,0,0,0,.314.554" transform="translate(-109 1617)"/></g></svg>