<svg xmlns="http://www.w3.org/2000/svg" width="19" height="15.885" viewBox="0 0 19 15.885"><defs><style>.a{fill:#fff;}.b,.c{fill:none;}.b{stroke:#222;stroke-linecap:round;stroke-linejoin:round;}.c{stroke:#000;stroke-miterlimit:10;stroke-width:0.6px;}</style></defs><g transform="translate(108.266 -1619.037)"><path class="a" d="M2.492,5.838V17.254h15.52V5.838" transform="translate(-109 1617.168)"/><path class="b" d="M2.492,5.838V17.254h15.52V5.838" transform="translate(-109 1617.168)"/><line class="c" y1="11.417" transform="translate(-103.825 1623.12)"/><line class="c" y1="11.417" transform="translate(-93.541 1623.12)"/><rect class="a" width="18" height="3.301" transform="translate(-107.766 1619.537)"/><rect class="b" width="18" height="3.301" transform="translate(-107.766 1619.537)"/><path class="c" d="M10.088,11.56h0a1.768,1.768,0,0,0-1.767,1.768v3.786a.141.141,0,0,0,.141.14h3.252a.141.141,0,0,0,.141-.14V13.328A1.768,1.768,0,0,0,10.088,11.56Z" transform="translate(-108.854 1617.168)"/><line class="b" x2="18" transform="translate(-107.766 1634.422)"/></g></svg>