<svg xmlns="http://www.w3.org/2000/svg" xmlns:xlink="http://www.w3.org/1999/xlink" width="22" height="22" viewBox="0 0 22 22"><defs><style>.a,.b,.c{fill:none;}.b{opacity:0.51;}.c,.e{stroke:#000;stroke-miterlimit:10;}.d{clip-path:url(#a);}.e{fill:#ea0c76;}</style><clipPath id="a"><path class="a" d="M503.927,182.717a9,9,0,1,0,0,12.737A9.018,9.018,0,0,0,503.927,182.717Z"/></clipPath></defs><g transform="translate(-486.557 -178.084)"><rect class="b" width="22" height="22" transform="translate(486.557 178.084)"/><circle class="c" cx="8.733" cy="8.733" r="8.733" transform="translate(488.826 180.353)"/><g class="d"><line class="e" x2="12.571" y2="12.571" transform="translate(491.152 182.802)"/><line class="e" x1="12.669" y2="12.669" transform="translate(491.236 182.739)"/><path class="c" d="M488.461,189.927a7.1,7.1,0,0,1,8.11,8.113"/><path class="c" d="M498.235,180.3a7.09,7.09,0,0,0,2,6.115c1.233,1.233,4.981,2.172,6.118,2"/></g></g></svg>