<svg xmlns="http://www.w3.org/2000/svg" width="22" height="22" viewBox="0 0 22 22"><defs><style>.a,.c{fill:none;}.a{opacity:0.51;}.b{fill:#fff;}.b,.c{stroke:#000;stroke-miterlimit:10;}.c{stroke-linecap:round;stroke-width:0.8px;}</style></defs><g transform="translate(-606.103 -177.929)"><rect class="a" width="22" height="22" transform="translate(606.103 177.929)"/><g transform="translate(0.5)"><circle class="b" cx="1.871" cy="1.871" r="1.871" transform="translate(607.103 189.151)"/><circle class="b" cx="1.871" cy="1.871" r="1.871" transform="translate(622.299 189.151)"/><path class="b" d="M623.874,187.073a7.442,7.442,0,0,0-7.3-6.144h0a7.443,7.443,0,0,0-7.3,6.144,5.337,5.337,0,0,0-.119,1.117v4.049a5.412,5.412,0,0,0,5.4,5.4H618.6a5.412,5.412,0,0,0,5.4-5.4V188.19A5.341,5.341,0,0,0,623.874,187.073Z"/><path d="M615.029,190.331a.7.7,0,1,1-.7-.7.7.7,0,0,1,.7.7"/><path d="M619.519,190.331a.7.7,0,1,1-.7-.7.7.7,0,0,1,.7.7"/><path class="c" d="M618.263,193.294a1.794,1.794,0,0,1-1.521.848H616.4a1.8,1.8,0,0,1-1.519-.844"/><path class="c" d="M615.126,181.089a4.5,4.5,0,0,1,3.242,3.008s.192,1.791-1.258,2.26a1.764,1.764,0,0,1-2.069-.6,1.472,1.472,0,0,1,.043-1.749,1.235,1.235,0,0,1,1.109-.362"/></g></g></svg>