<svg xmlns="http://www.w3.org/2000/svg" width="153.435" height="41" viewBox="0 0 153.435 41">
  <g id="img_gnblogo" transform="translate(-36 -5)">
    <g id="logo" transform="translate(36 5)">
      <g id="사각형_3" data-name="사각형 3" transform="translate(0)" fill="#fff" stroke="#707070" stroke-width="1" opacity="0">
        <rect width="85" height="40" stroke="none"/>
        <rect x="0.5" y="0.5" width="84" height="39" fill="none"/>
      </g>
      <g id="그룹_5" data-name="그룹 5" transform="translate(0 0.77)">
        <g id="그룹_3" data-name="그룹 3" transform="translate(0 4.376)">
          <g id="그룹_1" data-name="그룹 1" transform="translate(0 16.919)">
            <path id="패스_1" data-name="패스 1" d="M815.775,401.074c-1.391-.649-2.532-1.175-2.532-2.237,0-.81.649-1.4,1.932-1.4a6.542,6.542,0,0,1,1.258.131,3.943,3.943,0,0,0,.615.066c1.121,0,1.754-.67,2.173-1.938l.174-.518a11.7,11.7,0,0,0-4.4-.877c-3.8,0-5.805,2.438-5.8,4.964a4.282,4.282,0,0,0,1.024,2.927,9.24,9.24,0,0,0,3.028,2.073c1.565.769,2.978,1.335,2.978,2.475,0,1.01-1.042,1.584-2.439,1.584a7.6,7.6,0,0,1-3.8-1.225l-1.57,2.944a10.841,10.841,0,0,0,5.629,1.44c3.544,0,6.23-2.033,6.23-5.162C820.28,403.2,817.79,402.053,815.775,401.074Z" transform="translate(-808.42 -394.298)" fill="#c00020"/>
            <path id="패스_2" data-name="패스 2" d="M876.678,403.679l6.432-7.887h-4.583l-5.129,6.8h-.078v-6.8h-3.777v16.7h.225c1.633,0,3.578-.754,3.578-3.482v-3.837h.077l5.229,7.112h4.806Z" transform="translate(-855.455 -395.448)" fill="#c00020"/>
          </g>
          <g id="그룹_2" data-name="그룹 2" transform="translate(23.983)">
            <path id="패스_3" data-name="패스 3" d="M916.361,318.155c-1.329.25-3.3,1.458-3.293,3.593,0,1.936,1.59,3.114,1.594,5.652a4.5,4.5,0,0,1-2.185,3.912c.46-.042.966-.069,1.519-.069a12.792,12.792,0,0,1,1.909.114l5.965-7.321A24.829,24.829,0,0,0,916.361,318.155Z" transform="translate(-912.477 -318.155)" fill="#c00020"/>
            <path id="패스_4" data-name="패스 4" d="M942.117,357.562c.752-1.169.846-3.033.91-4.929.071-1.77.441-3.1,2.809-3.112.525,0,1.025.069,1.929.069a13.956,13.956,0,0,0,7.143-2,24.83,24.83,0,0,0-12.294-3.92c-.339.96-2.98,8.306-3.181,8.9a9.845,9.845,0,0,1,1.071,1.567A17.326,17.326,0,0,1,942.117,357.562Z" transform="translate(-933.221 -337.792)" fill="#c00020"/>
          </g>
        </g>
        <g id="그룹_4" data-name="그룹 4" transform="translate(17.925 0)">
          <path id="패스_5" data-name="패스 5" d="M888.547,317.314c-.3,0-.452-.2-.494-.545s-1.529-14-1.751-16.062c-.033-.3-.108-.856-.109-1.053a.442.442,0,0,1,.451-.485,20.817,20.817,0,0,1,8.649,3.766,4.362,4.362,0,0,0-3.3,4.094c.007,2.247,1.616,3.482,1.624,5.735C893.629,316.427,889.419,317.314,888.547,317.314Z" transform="translate(-886.193 -299.169)" fill="#e95d15"/>
          <path id="패스_6" data-name="패스 6" d="M952.563,373.375a2.615,2.615,0,0,0,.186.413.407.407,0,0,0,.367.232.842.842,0,0,0,.341-.093c.314-.143,12.773-5.943,14.652-6.809.271-.131.788-.36.958-.46a.457.457,0,0,0,.257-.4.48.48,0,0,0-.071-.247,15.3,15.3,0,0,0-3.457-3.057,15.391,15.391,0,0,1-7.815,2.26c-.91,0-1.116-.06-1.738-.058-1.814.008-2.268.783-2.334,2.374-.011.3-.016.7-.034,1.148C953.818,370.1,953.648,372.063,952.563,373.375Z" transform="translate(-937.266 -348.255)" fill="#e95d15"/>
        </g>
      </g>
      <g id="그룹_6" data-name="그룹 6" transform="translate(40.849 25.709)">
        <path id="패스_7" data-name="패스 7" d="M1029.16,423.3h.535a1.484,1.484,0,0,0,1.484-1.482V410.107h-2.02Z" transform="translate(-1019.132 -410.107)" fill="#e95d15"/>
        <path id="패스_8" data-name="패스 8" d="M992.724,413.716H991.66v-3.609h-5.35v1.412h3.332v2.2h-3.332v1.412h3.27c-.336,2.27-1.908,3.75-3.74,3.75h-.189v1.411h.225a5.776,5.776,0,0,0,5.731-5.161h1.117V423.3h.535a1.482,1.482,0,0,0,1.482-1.482V410.107h-2.016Z" transform="translate(-985.65 -410.107)" fill="#e95d15"/>
        <path id="패스_9" data-name="패스 9" d="M1093.9,423.3h.535a1.483,1.483,0,0,0,1.482-1.482V410.107H1093.9Z" transform="translate(-1068.949 -410.107)" fill="#e95d15"/>
        <path id="패스_10" data-name="패스 10" d="M1051.18,410.462V418a1.484,1.484,0,0,0,1.484,1.482h5.093A1.482,1.482,0,0,0,1059.24,418v-7.9h-8.06Zm6.043,7.613H1053.2v-6.556h4.023Z" transform="translate(-1036.076 -410.107)" fill="#e95d15"/>
        <path id="패스_11" data-name="패스 11" d="M1123.3,412.775v-2.668h-7.436v1.412h5.418v.9h-5.418v1.41h5.116c-.452.823-1.395,1.107-2.715,1.107h-3.016v1.409h4.126C1121.332,416.342,1123.3,415.341,1123.3,412.775Z" transform="translate(-1085.379 -410.107)" fill="#e95d15"/>
        <path id="패스_12" data-name="패스 12" d="M1159.151,412.419v-2.311h-2.018V416.6h2.018v-2.769h1.542v-1.412Z" transform="translate(-1117.608 -410.107)" fill="#e95d15"/>
        <path id="패스_13" data-name="패스 13" d="M1124,444.591h8.1v-2.234a1.485,1.485,0,0,0-1.482-1.482h-8.637v1.412h8.1v.891h-8.1V445.5a1.483,1.483,0,0,0,1.484,1.482h9v-1.414H1124Z" transform="translate(-1090.562 -433.783)" fill="#e95d15"/>
      </g>
    </g>
    <path id="패스_8420" data-name="패스 8420" d="M-7.266-11l-4.19,12.521H-14.4L-18.569-11l-.487-1.86.049,1.86V1.525h-2.728V-16.008h3.995l4.433,12.975.39,1.542.414-1.542L-8.07-16.008H-4.1V1.525H-6.828V-11l.049-1.86ZM12.465,1.525H.529V-16.008H12.465v2.382H3.574v4.446h8.282v2.359H3.574V-.856h8.891ZM26.009-12.016a7.5,7.5,0,0,0-2.083-1.35,6.186,6.186,0,0,0-2.472-.488q-3,0-3,2.019a1.975,1.975,0,0,0,.67,1.576,6.292,6.292,0,0,0,1.839,1.032l1.681.68a10.139,10.139,0,0,1,3.423,2.132A4.106,4.106,0,0,1,27.275-3.42a5.068,5.068,0,0,1-.487,2.291A4.327,4.327,0,0,1,25.412.482a6.17,6.17,0,0,1-2.119.941,11.243,11.243,0,0,1-2.716.306A10.894,10.894,0,0,1,17.6,1.344,6.605,6.605,0,0,1,15.169.074V-2.875a.2.2,0,0,1,.122-.193.183.183,0,0,1,.219.034,10.292,10.292,0,0,0,1.047.975,5.983,5.983,0,0,0,1.145.726,6.01,6.01,0,0,0,1.328.454A7.284,7.284,0,0,0,20.6-.72,4.23,4.23,0,0,0,23.2-1.344a2.29,2.29,0,0,0,.792-1.917,2.168,2.168,0,0,0-.731-1.667,7.148,7.148,0,0,0-2.119-1.236l-1.681-.68a12.3,12.3,0,0,1-1.669-.817,6.011,6.011,0,0,1-1.315-1.032,4.41,4.41,0,0,1-.865-1.327,4.456,4.456,0,0,1-.317-1.747,4.154,4.154,0,0,1,.438-1.951,3.838,3.838,0,0,1,1.242-1.395,6.072,6.072,0,0,1,1.924-.851,9.655,9.655,0,0,1,2.46-.295,12.1,12.1,0,0,1,1.242.068,9.975,9.975,0,0,1,1.315.227,7.067,7.067,0,0,1,1.279.442,5.453,5.453,0,0,1,1.157.715v2.631a.2.2,0,0,1-.122.193A.183.183,0,0,1,26.009-12.016Z" transform="translate(162.16 43.613)" fill="#151515"/>
    <g id="사각형_1293" data-name="사각형 1293" transform="translate(130 28)" fill="none" stroke="#c1c1c1" stroke-width="1">
      <rect width="1" height="18" stroke="none"/>
      <rect x="0.5" y="0.5" height="17" fill="none"/>
    </g>
  </g>
</svg>
