<?xml version="1.0" standalone="no"?>
<!DOCTYPE svg PUBLIC "-//W3C//DTD SVG 1.1//EN" "http://www.w3.org/Graphics/SVG/1.1/DTD/svg11.dtd" >
<svg xmlns="http://www.w3.org/2000/svg">
<metadata>Generated by IcoMoon</metadata>
<defs>
<font id="icon" horiz-adv-x="1024">
<font-face units-per-em="1024" ascent="960" descent="-64" />
<missing-glyph horiz-adv-x="1024" />
<glyph unicode="&#x20;" horiz-adv-x="512" d="" />
<glyph unicode="&#xe900;" glyph-name="acknowledg" d="M501.76 263.68c0 136.533 109.227 245.76 245.76 245.76 51.2 0 95.573-13.653 136.533-40.96v293.547c0 44.373-37.547 81.92-81.92 81.92h-651.947c-44.373-3.413-81.92-37.547-81.92-81.92v-488.107c0-44.373 37.547-81.92 81.92-81.92h365.227c-6.827 20.48-13.653 44.373-13.653 71.68zM150.187 680.107v47.787l324.267-204.8 324.267 204.8v-47.787l-324.267-204.8-324.267 204.8zM750.933 174.933l-143.36 143.36 17.067 34.133 126.293-126.293 160.427 160.427c-30.72 47.787-102.4 81.92-167.253 81.92-116.053 0-208.213-92.16-208.213-208.213s92.16-208.213 208.213-208.213c116.053 0 208.213 92.16 208.213 208.213 0 34.133-10.24 64.853-23.893 95.573l-177.493-180.907z" />
<glyph unicode="&#xe901;" glyph-name="add" d="M512 4.267c-245.76 0-443.733 197.973-443.733 443.733s197.973 443.733 443.733 443.733 443.733-197.973 443.733-443.733-197.973-443.733-443.733-443.733zM512 826.88c-208.213 0-378.88-170.667-378.88-378.88s170.667-378.88 378.88-378.88 378.88 170.667 378.88 378.88-170.667 378.88-378.88 378.88zM682.667 482.133h-136.533v136.533h-68.267v-136.533h-136.533v-68.267h136.533v-136.533h68.267v136.533h136.533z" />
<glyph unicode="&#xe902;" glyph-name="alarm" d="M522.24 4.267c54.613 0 98.987 44.373 98.987 98.987h-197.973c0-54.613 40.96-98.987 98.987-98.987zM781.653 290.987v221.867c0 136.533-71.68 249.173-201.387 279.893v30.72c0 37.547-30.72 68.267-68.267 68.267s-68.267-30.72-68.267-68.267v-30.72c-126.293-30.72-201.387-143.36-201.387-279.893v-221.867l-88.747-88.747v-44.373h709.973v44.373l-81.92 88.747zM709.973 232.96h-382.293v283.307c0 116.053 71.68 211.627 191.147 211.627s191.147-95.573 191.147-211.627v-283.307z" />
<glyph unicode="&#xe903;" glyph-name="alarm_off" d="M477.867 4.267c54.613 0 98.987 44.373 98.987 98.987h-197.973c0-54.613 44.373-98.987 98.987-98.987zM170.667 864.427l-54.613-54.613 136.533-136.533c-27.307-47.787-40.96-102.4-40.96-160.427v-218.453l-88.747-88.747v-44.373h645.12l85.333-88.747 54.613 54.613-737.28 737.28zM740.693 512.853c0 136.533-71.68 249.173-201.387 279.893v30.72c0 37.547-30.72 68.267-68.267 68.267s-68.267-30.72-68.267-68.267v-30.72c-13.653-3.413-27.307-10.24-40.96-17.067l378.88-378.88v116.053z" />
<glyph unicode="&#xe904;" glyph-name="alarm_on" d="M522.24 4.267c54.613 0 98.987 44.373 98.987 98.987h-197.973c0-54.613 40.96-98.987 98.987-98.987zM781.653 290.987v221.867c0 136.533-71.68 249.173-201.387 279.893v30.72c0 37.547-30.72 68.267-68.267 68.267s-68.267-30.72-68.267-68.267v-30.72c-126.293-30.72-201.387-143.36-201.387-279.893v-221.867l-88.747-88.747v-44.373h709.973v44.373l-81.92 88.747z" />
<glyph unicode="&#xe905;" glyph-name="folder_open" d="M839.68 86.187h-655.36c-61.44 0-116.053 54.613-116.053 116.053v491.52c0 61.44 54.613 116.053 116.053 116.053h259.413l81.92-81.92h314.027c61.44 0 116.053-54.613 116.053-116.053v-409.6c0-61.44-54.613-116.053-116.053-116.053zM184.32 741.547c-23.893 0-47.787-23.893-47.787-47.787v-491.52c0-23.893 23.893-47.787 47.787-47.787h655.36c23.893 0 47.787 23.893 47.787 47.787v409.6c0 23.893-23.893 47.787-47.787 47.787h-341.333l-81.92 81.92h-232.107zM102.4 550.4h819.2v-68.267h-819.2v68.267z" />
<glyph unicode="&#xe906;" glyph-name="approval" d="M293.547 666.453h433.493v-85.333h-433.493v85.333zM293.547 492.373h433.493v-85.333h-433.493v85.333zM293.547 318.293h433.493v-85.333h-433.493v85.333zM877.227 857.6v-819.2h-730.453v819.2h730.453zM945.493 925.867h-866.987v-955.733h870.4v955.733h-3.413z" />
<glyph unicode="&#xe907;" glyph-name="approval--alarm" d="M102.4 891.733v-887.467h819.2v887.467h-819.2zM785.067 209.067h-546.133v68.267h546.133v-68.267zM785.067 413.867h-546.133v68.267h546.133v-68.267zM785.067 618.667h-546.133v68.267h546.133v-68.267z" />
<glyph unicode="&#xe908;" glyph-name="arrow_circle" d="M290.133 475.307v-54.613h334.507l-153.6-153.6 40.96-40.96 221.867 221.867-221.867 221.867-40.96-40.96 153.6-153.6h-334.507zM512 4.267c-245.76 0-443.733 197.973-443.733 443.733s197.973 443.733 443.733 443.733 443.733-197.973 443.733-443.733-197.973-443.733-443.733-443.733zM512 826.88c-208.213 0-378.88-170.667-378.88-378.88s170.667-378.88 378.88-378.88 378.88 170.667 378.88 378.88-170.667 378.88-378.88 378.88z" />
<glyph unicode="&#xe909;" glyph-name="arrow_down" d="M658.773 417.28h177.493l-324.267-413.013-324.267 413.013h177.493v474.453h296.96l-3.413-474.453z" />
<glyph unicode="&#xe90a;" glyph-name="arrow_up" d="M365.227 478.72h-177.493l324.267 413.013 324.267-413.013h-177.493v-474.453h-296.96l3.413 474.453z" />
<glyph unicode="&#xe90b;" glyph-name="arrow--lastpage_left" d="M785.067 857.6l-477.867-406.187v406.187h-68.267v-853.333h68.267v406.187l477.867-406.187z" />
<glyph unicode="&#xe90c;" glyph-name="align" d="M436.907 403.627h518.827v85.333h-518.827zM436.907 144.213h518.827v85.333h-518.827zM436.907 663.040h518.827v88.747h-518.827zM262.827 663.040h109.227l-153.6 153.6-150.187-153.6h109.227v-433.493h-109.227l150.187-150.187 150.187 150.187h-105.813v433.493z" />
<glyph unicode="&#xe90d;" glyph-name="arrow--lastpage_right" d="M238.933 4.267l477.867 406.187v-406.187h68.267v853.333h-68.267v-406.187l-477.867 406.187z" />
<glyph unicode="&#xe90e;" glyph-name="drag_file" d="M204.8 72.533h68.267v-68.267h-68.267v68.267zM68.267 591.36v-40.96h68.267v68.267h-30.72c-17.067 0-37.547-6.827-37.547-27.307zM204.8 618.667h68.267v-68.267h-68.267v68.267zM68.267 38.4c0-20.48 20.48-34.133 37.547-34.133h30.72v68.267h-68.267v-34.133zM68.267 209.067h68.267v-68.267h-68.267v68.267zM68.267 482.133h68.267v-68.267h-68.267v68.267zM341.333 72.533h68.267v-68.267h-68.267v68.267zM68.267 345.6h68.267v-68.267h-68.267v68.267zM477.867 618.667h68.267v-68.267h-68.267v68.267zM614.4 482.133h68.267v-68.267h-68.267v68.267zM658.773 618.667h-44.373v-68.267h68.267v40.96c0 20.48-3.413 27.307-23.893 27.307zM614.4 345.6h68.267v-68.267h-68.267v68.267zM614.4 4.267h44.373c20.48 0 23.893 17.067 23.893 34.133v34.133h-68.267v-68.267zM477.867 72.533h68.267v-68.267h-68.267v68.267zM341.333 618.667h68.267v-68.267h-68.267v68.267zM614.4 209.067h68.267v-68.267h-68.267v68.267zM918.187 925.867h-484.693c-37.547 0-58.027-30.72-58.027-68.267v-136.533h58.027v136.533l484.693 3.413v-481.28h-133.12v-68.267h133.12c37.547 0 71.68 23.893 71.68 61.44v484.693c0 37.547-34.133 68.267-71.68 68.267z" />
<glyph unicode="&#xe90f;" glyph-name="arrow--page_left" d="M723.627-19.627l-474.453 481.28 477.867 453.973 44.373-47.787-423.253-406.187 426.667-433.493z" />
<glyph unicode="&#xe910;" glyph-name="arrow--page_right" d="M300.373 915.627l474.453-481.28-477.867-453.973-44.373 47.787 423.253 406.187-426.667 433.493z" />
<glyph unicode="&#xe911;" glyph-name="board" d="M914.773 782.507h-365.227v40.96c0 23.893-17.067 40.96-40.96 40.96s-37.547-17.067-37.547-40.96v-40.96h-361.813c-23.893 0-40.96-17.067-40.96-37.547 0-23.893 17.067-40.96 40.96-40.96h13.653v-471.040c0-23.893 17.067-40.96 40.96-40.96h310.613v-81.92h-95.573c-23.893 0-40.96-17.067-40.96-40.96s17.067-40.96 40.96-40.96h269.653c23.893 0 40.96 17.067 40.96 40.96s-17.067 40.96-40.96 40.96h-95.573v81.92h310.613c23.893 0 40.96 17.067 40.96 40.96v471.040h13.653c20.48 0 37.547 17.067 37.547 40.96 0 20.48-17.067 37.547-40.96 37.547zM822.613 273.92h-621.227v430.080h617.813l3.413-430.080z" />
<glyph unicode="&#xe912;" glyph-name="calendar" d="M839.68 75.947h-655.36v505.173h655.36zM689.493 891.733v-88.747h-354.987v88.747h-71.68v-88.747h-61.44c-47.787 0-88.747-40.96-88.747-88.747v-621.227c0-47.787 40.96-88.747 88.747-88.747h621.227c47.787 0 88.747 40.96 88.747 88.747v621.227c0 47.787-40.96 88.747-88.747 88.747h-61.44v88.747z" />
<glyph unicode="&#xe913;" glyph-name="calendar--alarm" d="M512 413.867h273.067v-273.067h-273.067v273.067zM866.987 823.467h-81.92v68.267h-68.267v-68.267h-409.6v68.267h-68.267v-68.267h-78.507c-54.613 0-58.027-20.48-58.027-75.093v-658.773c0-54.613 3.413-85.333 58.027-85.333h706.56c54.613 0 54.613 30.72 54.613 85.333v658.773c0 54.613 0 75.093-54.613 75.093zM853.333 72.533h-682.667v477.867h682.667v-477.867z" />
<glyph unicode="&#xe914;" glyph-name="calender--mail" d="M836.267 86.187h-648.533v481.28h645.12zM672.427 891.733v-119.467h-324.267v119.467h-78.507v-119.467h-81.92c-44.373 0-81.92-37.547-81.92-81.92v-604.16c0-44.373 37.547-81.92 81.92-81.92h645.12c44.373 0 81.92 37.547 81.92 81.92v604.16c0 44.373-37.547 81.92-81.92 81.92h-81.92v119.467h-78.507zM310.613 448h81.92v-81.92h-81.92v81.92zM471.040 448h81.92v-81.92h-81.92v81.92zM631.467 448h81.92v-81.92h-81.92v81.92zM310.613 287.573h81.92v-81.92h-81.92v81.92zM471.040 287.573h81.92v-81.92h-81.92v81.92zM631.467 287.573h81.92v-81.92h-81.92v81.92z" />
<glyph unicode="&#xe915;" glyph-name="cancle" d="M566.613 465.067l372.053 372.053-54.613 54.613-372.053-372.053-372.053 372.053-54.613-54.613 372.053-372.053-389.12-389.12 54.613-54.613 389.12 389.12 389.12-389.12 54.613 54.613z" />
<glyph unicode="&#xe916;" glyph-name="cancle--alarm" d="M628.053 458.24l317.44 317.44c30.72 30.72 30.72 75.093 0 105.813s-75.093 30.72-105.813 0l-317.44-317.44-317.44 314.027c-27.307 30.72-75.093 30.72-102.4 0s-30.72-75.093 0-102.4l317.44-317.44-317.44-317.44c-30.72-30.72-30.72-75.093 0-105.813 13.653-13.653 37.547-23.893 51.2-23.893s37.547 10.24 51.2 27.307l317.44 317.44 317.44-317.44c13.653-13.653 37.547-23.893 51.2-23.893s37.547 6.827 51.2 23.893c30.72 30.72 30.72 75.093 0 105.813l-314.027 314.027z" />
<glyph unicode="&#xe917;" glyph-name="cancle--LNB" d="M512 823.467c208.213 0 375.467-167.253 375.467-375.467s-167.253-375.467-375.467-375.467-375.467 167.253-375.467 375.467 167.253 375.467 375.467 375.467zM512 891.733c-245.76 0-443.733-197.973-443.733-443.733s197.973-443.733 443.733-443.733 443.733 197.973 443.733 443.733-197.973 443.733-443.733 443.733v0zM570.027 458.24l143.36 143.36c13.653 13.653 13.653 34.133 0 47.787s-34.133 13.653-47.787 0l-143.36-143.36-143.36 143.36c-13.653 13.653-34.133 13.653-47.787 0s-13.653-34.133 0-47.787l143.36-143.36-143.36-143.36c-13.653-13.653-13.653-34.133 0-47.787 6.827-6.827 17.067-10.24 23.893-10.24s17.067 3.413 23.893 10.24l143.36 143.36 143.36-143.36c6.827-6.827 17.067-10.24 23.893-10.24s17.067 3.413 23.893 10.24c13.653 13.653 13.653 34.133 0 47.787l-143.36 143.36z" />
<glyph unicode="&#xe918;" glyph-name="category" d="M385.707 891.733h252.587v-887.467h-252.587v887.467z" />
<glyph unicode="&#xe919;" glyph-name="check" d="M955.733 721.067l-109.227 81.92-419.84-515.413-262.827 259.413-95.573-92.16 368.64-361.813z" />
<glyph unicode="&#xe91a;" glyph-name="checkbox" d="M464.213 273.92l-211.627 211.627 47.787 47.787 163.84-163.84 433.493 433.493 47.787-47.787zM887.467 38.4h-750.933c-20.48 0-34.133 13.653-34.133 34.133v750.933c0 20.48 13.653 34.133 34.133 34.133h512v-68.267h-477.867v-682.667h682.667v375.467h68.267v-409.6c0-20.48-13.653-34.133-34.133-34.133z" />
<glyph unicode="&#xe91b;" glyph-name="class" d="M866.987 721.067h-354.987l-88.747 68.267h-266.24c-47.787 0-88.747-27.307-88.747-75.093v-532.48c0-47.787 40.96-75.093 88.747-75.093h709.973c47.787 0 88.747 27.307 88.747 75.093v443.733c0 47.787-40.96 95.573-88.747 95.573z" />
<glyph unicode="&#xe91c;" glyph-name="clock" d="M546.133 891.733c-245.76 0-443.733-197.973-443.733-443.733 0-242.347 197.973-443.733 443.733-443.733s443.733 197.973 443.733 443.733-197.973 443.733-443.733 443.733zM733.867 263.68l-232.107 139.947v266.24h64.853v-232.107l201.387-119.467-34.133-54.613z" />
<glyph unicode="&#xe91d;" glyph-name="commu--mail" d="M761.173 492.373h-88.747v88.747h88.747zM583.68 492.373h-88.747v88.747h88.747zM406.187 492.373h-88.747v88.747h88.747zM894.293 891.733h-709.973c-51.2 0-88.747-40.96-88.747-88.747v-798.72l177.493 177.493h621.227c47.787 0 88.747 40.96 88.747 88.747v532.48c0 47.787-40.96 88.747-88.747 88.747z" />
<glyph unicode="&#xe91e;" glyph-name="community" d="M911.36 714.24h-88.747v-399.36h-576.853v-88.747c0-23.893 20.48-44.373 44.373-44.373h488.107l177.493-177.493v665.6c0 23.893-20.48 44.373-44.373 44.373zM733.867 448v399.36c0 23.893-20.48 44.373-44.373 44.373h-576.853c-23.893 0-44.373-20.48-44.373-44.373v-621.227l177.493 177.493h443.733c23.893 0 44.373 20.48 44.373 44.373z" />
<glyph unicode="&#xe91f;" glyph-name="company" d="M512 669.867v177.493h-443.733v-798.72h887.467v621.227h-443.733zM245.76 137.387h-88.747v88.747h88.747v-88.747zM245.76 314.88h-88.747v88.747h88.747v-88.747zM245.76 492.373h-88.747v88.747h88.747v-88.747zM245.76 669.867h-88.747v88.747h88.747v-88.747zM423.253 137.387h-88.747v88.747h88.747v-88.747zM423.253 314.88h-88.747v88.747h88.747v-88.747zM423.253 492.373h-88.747v88.747h88.747v-88.747zM423.253 669.867h-88.747v88.747h88.747v-88.747zM884.053 120.32h-372.053v105.813h88.747v88.747h-88.747v88.747h88.747v88.747h-88.747v105.813h372.053v-477.867zM778.24 492.373h-88.747v-88.747h88.747v88.747zM778.24 314.88h-88.747v-88.747h88.747v88.747z" />
<glyph unicode="&#xe920;" glyph-name="construction" d="M69.271 5.271c0 0-3.012 0 0 0-15.059 3.012-24.094 12.047-21.082 24.094l72.282 578.259c0 0 0 0 0 0-24.094 3.012-39.153 6.024-39.153 6.024s-3.012 0-3.012 0c-15.059 3.012-36.141 21.082-39.153 51.2 0 24.094 0 87.341 0 87.341 0 3.012 0 21.082 15.059 36.141 6.024 6.024 18.071 15.059 36.141 12.047l60.235 6.024 3.012 63.247c0 12.047 9.035 21.082 21.082 21.082h96.376c12.047 0 21.082-9.035 21.082-21.082l3.012-66.259c0 0 0 0 0 0 51.2 0 536.094 3.012 536.094 3.012 24.094 0 57.224-15.059 60.235-51.2 3.012-42.165-18.071-69.271-57.224-75.294-27.106-3.012-481.882-51.2-499.953-54.212-9.035-3.012-9.035-12.047-9.035-15.059l48.188-554.165h102.4l6.024 430.682c0 12.047 9.035 21.082 24.094 21.082h156.612c12.047 0 21.082-9.035 21.082-21.082l18.071-439.718h114.447l15.059 316.235c0 12.047 9.035 21.082 21.082 21.082h111.435c12.047 0 24.094-9.035 24.094-24.094s-9.035-24.094-24.094-24.094h-87.341l-15.059-310.212c0-12.047-9.035-21.082-21.082-21.082h-156.612c-12.047 0-21.082 9.035-21.082 21.082l-18.071 439.718h-111.435l-6.024-430.682c0-12.047-9.035-21.082-24.094-21.082h-147.576c-12.047 0-21.082 9.035-21.082 21.082l-51.2 572.235c-3.012 42.165 27.106 60.235 48.188 63.247 159.624 18.071 475.859 51.2 496.941 54.212 12.047 3.012 18.071 6.024 18.071 27.106 0 9.035-15.059 9.035-15.059 9.035s-518.024-3.012-539.106-3.012c-15.059 0-27.106 6.024-30.118 12.047-12.047 15.059-12.047 30.118-12.047 36.141v42.165h-51.2l-3.012-48.188c-6.024-30.118-27.106-42.165-42.165-42.165h-66.259c-3.012 0-6.024 0-6.024 0s0-3.012 0-3.012 0-63.247 0-87.341c0-6.024 3.012-6.024 6.024-9.035 6.024 0 21.082-3.012 42.165-6.024 9.035 0 18.071-6.024 24.094-12.047 12.047-15.059 9.035-33.129 9.035-36.141l-72.282-581.271c0-12.047-9.035-18.071-21.082-18.071zM810.165 511.247c-42.165 0-78.306 36.141-78.306 78.306 0 12.047 9.035 24.094 24.094 24.094s24.094-9.035 24.094-24.094c0-18.071 15.059-33.129 33.129-33.129s33.129 15.059 33.129 33.129v162.635c0 12.047 9.035 21.082 24.094 21.082 0 0 0 0 0 0 12.047 0 21.082-9.035 21.082-24.094v-162.635c-3.012-39.153-36.141-75.294-81.318-75.294z" />
<glyph unicode="&#xe921;" glyph-name="contact" d="M880.64 779.093h-737.28c-40.96 0-75.093-30.72-75.093-71.68v-518.827c0-40.96 34.133-75.093 75.093-75.093h740.693c40.96 0 75.093 34.133 75.093 75.093v518.827c-3.413 40.96-37.547 71.68-78.507 71.68zM365.227 669.867c61.44 0 112.64-51.2 112.64-112.64s-51.2-109.227-112.64-109.227-112.64 51.2-112.64 112.64 51.2 109.227 112.64 109.227zM587.093 226.133h-443.733v37.547c0 75.093 146.773 116.053 221.867 116.053s221.867-40.96 221.867-116.053v-37.547zM727.040 372.907h61.44l54.613-75.093-75.093-75.093c-47.787 37.547-85.333 88.747-102.4 146.773-6.827 23.893-10.24 47.787-10.24 75.093s3.413 51.2 10.24 75.093c17.067 61.44 51.2 112.64 102.4 146.773l75.093-75.093-54.613-75.093h-61.44c-6.827-17.067-10.24-40.96-10.24-68.267s3.413-51.2 10.24-75.093z" />
<glyph unicode="&#xe922;" glyph-name="cooperation" d="M866.987 891.733h-709.973c-47.787 0-88.747-40.96-88.747-88.747v-798.72l177.493 177.493h621.227c47.787 0 88.747 40.96 88.747 88.747v532.48c0 47.787-40.96 88.747-88.747 88.747zM245.76 581.12h532.48v-71.68h-532.48v71.68zM600.747 376.32h-354.987v71.68h354.987v-71.68zM778.24 642.56h-532.48v71.68h532.48v-71.68z" />
<glyph unicode="&#xe923;" glyph-name="creative" d="M378.88 65.707c0-23.893 20.48-44.373 44.373-44.373h177.493c23.893 0 44.373 20.48 44.373 44.373v44.373h-266.24v-44.373zM512 874.667c-170.667 0-310.613-139.947-310.613-310.613 0-105.813 51.2-197.973 133.12-256v-98.987c0-23.893 20.48-44.373 44.373-44.373h266.24c23.893 0 44.373 20.48 44.373 44.373v98.987c81.92 54.613 133.12 150.187 133.12 256 0 170.667-139.947 310.613-310.613 310.613zM655.36 383.147l-37.547-27.307v-119.467h-211.627v119.467l-37.547 27.307c-61.44 40.96-95.573 109.227-95.573 180.907 0 122.88 116.053 238.933 238.933 238.933s238.933-116.053 238.933-238.933c0-71.68-34.133-139.947-95.573-180.907z" />
<glyph unicode="&#xe924;" glyph-name="direct" d="M750.933 106.667h-119.467l-85.333-102.4h204.8c47.787 0 102.4 51.2 102.4 98.987v211.627l-102.4-85.333v-122.88zM375.467 4.267h119.467l361.813 375.467-126.293 129.707-358.4-372.053zM948.907 533.333l-75.093 75.093c-13.653 13.653-34.133 13.653-47.787 0l-58.027-58.027 122.88-122.88 61.44 61.44c10.24 10.24 10.24 30.72-3.413 44.373zM802.133 618.667c23.893 23.893 51.2 37.547 51.2 40.96v44.373c0 47.787-54.613 51.2-102.4 51.2v0 102.4h-102.4v-102.4h-341.333v102.4h-102.4v-102.4h-51.2c-44.373 0-85.333-3.413-85.333-51.2v-600.747c0-47.787 40.96-98.987 85.333-98.987h187.733v102.4h-170.667v443.733h566.613c0 0 44.373 47.787 64.853 68.267z" />
<glyph unicode="&#xe925;" glyph-name="download" d="M133.12 4.267h761.173v71.68h-761.173zM890.88 567.467h-218.453v324.267h-324.267v-324.267h-215.040l378.88-382.293 378.88 382.293z" />
<glyph unicode="&#xe926;" glyph-name="drawer-button" d="M34.133 482.133h955.733v-68.267h-955.733v68.267zM34.133 174.933h955.733v-68.267h-955.733v68.267zM34.133 789.333h955.733v-68.267h-955.733v68.267z" />
<glyph unicode="&#xe927;" glyph-name="edit" d="M68.267 188.587v-184.32h184.32l546.133 546.133-184.32 184.32-546.133-546.133zM942.080 693.76c20.48 20.48 20.48 51.2 0 68.267l-116.053 116.053c-20.48 20.48-51.2 20.48-68.267 0l-88.747-88.747 184.32-184.32 88.747 88.747z" />
<glyph unicode="&#xe928;" glyph-name="equipment" d="M945.493 110.080l-92.16-92.16c-17.067-17.067-40.96-17.067-58.027 0l-365.227 368.64c-92.16-37.547-201.387-17.067-276.48 61.44-81.92 81.92-102.4 201.387-51.2 296.96l177.493-174.080 119.467 119.467-174.080 174.080c95.573 44.373 218.453 27.307 296.96-51.2 75.093-75.093 95.573-184.32 61.44-276.48l365.227-365.227c17.067-17.067 17.067-44.373-3.413-61.44z" />
<glyph unicode="&#xe929;" glyph-name="error" d="M692.706 589.553l-39.153 39.153-141.553-141.553-141.553 141.553-39.153-39.153 141.553-141.553-141.553-141.553 39.153-39.153 141.553 141.553 141.553-141.553 39.153 39.153-141.553 141.553z" />
<glyph unicode="&#xe92a;" glyph-name="etc" d="M322.259 20.329c-3.012 0-9.035 0-12.047 3.012l-262.024 150.588c-6.024 3.012-12.047 12.047-12.047 18.071v307.2c0 9.035 3.012 15.059 12.047 18.071l262.024 150.588c6.024 3.012 15.059 3.012 24.094 0l75.294-42.165v135.529c0 9.035 3.012 15.059 12.047 18.071l153.6 90.353c6.024 3.012 15.059 3.012 24.094 0l153.6-90.353c6.024-3.012 12.047-12.047 12.047-18.071v-138.541c6.024 3.012 15.059 3.012 21.082 0l189.741-108.424c6.024-3.012 12.047-12.047 12.047-18.071v-216.847c0-9.035-3.012-15.059-12.047-18.071l-189.741-108.424c-6.024-3.012-15.059-3.012-24.094 0l-153.6 90.353v-42.165c0-9.035-3.012-15.059-12.047-18.071l-262.024-150.588c-3.012-9.035-6.024-12.047-12.047-12.047zM84.329 210.071l240.941-138.541 240.941 138.541v69.271c0 9.035 3.012 15.059 12.047 18.071 6.024 3.012 15.059 3.012 24.094 0l177.694-102.4 165.647 96.376v192.753l-165.647 96.376-27.106-15.059c-6.024-3.012-15.059-3.012-24.094 0-6.024 3.012-12.047 12.047-12.047 18.071v165.647l-132.518 75.294-129.506-75.294v-159.624c0-9.035-3.012-15.059-12.047-18.071-6.024-3.012-15.059-3.012-24.094 0l-96.376 57.224-240.941-138.541v-280.094zM587.294 255.247c-12.047 0-24.094 9.035-24.094 24.094v144.565c0 12.047 9.035 24.094 24.094 24.094s24.094-9.035 24.094-24.094v-144.565c-3.012-12.047-12.047-24.094-24.094-24.094zM689.694 526.306c-6.024 0-15.059 3.012-18.071 9.035-6.024 9.035-6.024 24.094 6.024 30.118l51.2 39.153c9.035 6.024 24.094 6.024 30.118-6.024 6.024-9.035 6.024-24.094-6.024-30.118l-51.2-39.153c-3.012-3.012-6.024-3.012-12.047-3.012zM493.929 529.318c-3.012 0-9.035 0-12.047 3.012l-156.612 93.365c-12.047 6.024-15.059 21.082-9.035 30.118 6.024 12.047 21.082 15.059 30.118 9.035l156.612-93.365c12.047-6.024 15.059-21.082 9.035-30.118-3.012-9.035-9.035-12.047-18.071-12.047z" />
<glyph unicode="&#xe92b;" glyph-name="etc--mail" d="M614.4 789.333c0-56.554-45.846-102.4-102.4-102.4s-102.4 45.846-102.4 102.4c0 56.554 45.846 102.4 102.4 102.4s102.4-45.846 102.4-102.4zM614.4 106.667c0-56.554-45.846-102.4-102.4-102.4s-102.4 45.846-102.4 102.4c0 56.554 45.846 102.4 102.4 102.4s102.4-45.846 102.4-102.4zM614.4 448c0-56.554-45.846-102.4-102.4-102.4s-102.4 45.846-102.4 102.4c0 56.554 45.846 102.4 102.4 102.4s102.4-45.846 102.4-102.4z" />
<glyph unicode="&#xe92c;" glyph-name="excel" d="M928.427 789.333h-314.027v-102.4h102.4v-68.267h-102.4v-68.267h102.4v-68.267h-102.4v-68.267h102.4v-68.267h-102.4v-68.267h102.4v-68.267h-102.4v-102.4h314.027c17.067 0 27.307 13.653 27.307 30.72v621.227c0 17.067-13.653 30.72-27.307 30.72zM887.467 209.067h-136.533v68.267h136.533v-68.267zM887.467 345.6h-136.533v68.267h136.533v-68.267zM887.467 482.133h-136.533v68.267h136.533v-68.267zM887.467 618.667h-136.533v68.267h136.533v-68.267zM68.267 792.747v-689.493l512-98.987v887.467l-512-98.987zM392.533 273.92l-58.027 112.64c-3.413 3.413-3.413 10.24-6.827 23.893v0c0-6.827-3.413-13.653-6.827-23.893l-61.44-112.64h-95.573l109.227 174.080-102.4 174.080h95.573l47.787-102.4c3.413-6.827 6.827-17.067 10.24-30.72v0c3.413 6.827 6.827 17.067 10.24 30.72l54.613 102.4h85.333l-102.4-170.667 105.813-174.080-85.333-3.413z" />
<glyph unicode="&#xe92d;" glyph-name="favorite" d="M866.987 714.24h-354.987l-88.747 88.747h-266.24c-47.787 0-88.747-40.96-88.747-88.747v-532.48c0-47.787 40.96-88.747 88.747-88.747h709.973c47.787 0 88.747 40.96 88.747 88.747v443.733c0 47.787-40.96 88.747-88.747 88.747zM774.827 226.133l-129.707 75.093-129.707-75.093 34.133 146.773-116.053 98.987 150.187 13.653 58.027 139.947 58.027-139.947 150.187-13.653-116.053-98.987 40.96-146.773z" />
<glyph unicode="&#xe92e;" glyph-name="file" d="M672.427 690.347v-464.213c0-88.747-71.68-160.427-160.427-160.427s-160.427 71.68-160.427 160.427v505.173c0 54.613 44.373 102.4 102.4 102.4s102.4-44.373 102.4-102.4v-423.253c0-20.48-17.067-40.96-40.96-40.96-20.48 0-40.96 17.067-40.96 40.96v382.293h-64.853v-382.293c0-54.613 44.373-102.4 102.4-102.4s102.4 44.373 102.4 102.4v423.253c0 88.747-75.093 160.427-163.84 160.427s-160.427-71.68-160.427-160.427v-505.173c0-122.88 98.987-221.867 221.867-221.867s221.867 98.987 221.867 221.867v464.213h-61.44z" />
<glyph unicode="&#xe92f;" glyph-name="finance" d="M99.388 393.788c-9.035 0-15.059 6.024-21.082 12.047-6.024 12.047 0 24.094 9.035 30.118l677.647 328.282c12.047 6.024 24.094 0 30.118-9.035 6.024-12.047 0-24.094-9.035-30.118l-677.647-328.282c-3.012 0-6.024-3.012-9.035-3.012zM502.965 276.329c-6.024 0-12.047 3.012-15.059 6.024l-129.506 129.506c-9.035 9.035-9.035 24.094 0 33.129s24.094 9.035 33.129 0l87.341-87.341-9.035 99.388c0 9.035 3.012 18.071 12.047 21.082s18.071 3.012 24.094-3.012l72.282-66.259-15.059 120.471c-3.012 12.047 6.024 24.094 18.071 24.094 12.047 3.012 24.094-6.024 24.094-18.071l24.094-183.718c0-9.035-3.012-18.071-12.047-24.094-6.024 0-15.059 0-24.094 9.035l-75.294 69.271 9.035-102.4c0-9.035-3.012-18.071-12.047-21.082-6.024-3.012-9.035-6.024-12.047-6.024zM599.341 444.988c-9.035 0-15.059 6.024-21.082 12.047-6.024 12.047 0 24.094 9.035 30.118l39.153 18.071c12.047 6.024 24.094 0 30.118-9.035 6.024-12.047 0-24.094-9.035-30.118l-39.153-18.071c-3.012-3.012-6.024-3.012-9.035-3.012zM379.482 336.565c-9.035 0-15.059 6.024-21.082 12.047-6.024 12.047 0 24.094 9.035 30.118l42.165 21.082c12.047 6.024 24.094 0 30.118-9.035 6.024-12.047 0-24.094-9.035-30.118l-39.153-21.082c-3.012 0-9.035-3.012-12.047-3.012zM180.706 47.435c-3.012 0-3.012 0-6.024 0h-114.447c-12.047 0-24.094 9.035-24.094 24.094s9.035 24.094 24.094 24.094h117.459c3.012 0 15.059 0 21.082 12.047 9.035 12.047 0 36.141-3.012 42.165l-150.588 313.224c-15.059 33.129-3.012 69.271 30.118 84.329l608.376 295.153c15.059 6.024 33.129 9.035 48.188 3.012s30.118-18.071 36.141-33.129l180.706-373.459c6.024-15.059 9.035-33.129 3.012-48.188s-18.071-30.118-33.129-36.141l-445.741-216.847c0-3.012-3.012-9.035-3.012-27.106s0-18.071 36.141-18.071h457.788c12.047 0 24.094-9.035 24.094-24.094s-9.035-24.094-24.094-24.094h-457.788c-33.129 0-81.318 0-81.318 63.247 0 48.188 18.071 63.247 27.106 66.259l448.753 216.847c6.024 3.012 9.035 6.024 9.035 12.047 3.012 6.024 0 9.035 0 15.059l-180.706 373.459c-3.012 6.024-6.024 9.035-12.047 9.035-6.024 3.012-9.035 0-15.059 0l-608.376-292.141c-9.035-6.024-12.047-15.059-9.035-24.094l153.6-316.235c3.012-6.024 21.082-51.2 0-87.341-18.071-27.106-42.165-33.129-57.224-33.129z" />
<glyph unicode="&#xe930;" glyph-name="flag" d="M610.987 785.92l-20.48 105.813h-471.040v-887.467h71.68v365.227h327.68l20.48-105.813h365.227v522.24h-293.547z" />
<glyph unicode="&#xe931;" glyph-name="flag_complete" d="M890.88 686.933l-78.507 64.853-389.12-467.627-242.347 242.347-71.68-75.093 324.267-317.44z" />
<glyph unicode="&#xe932;" glyph-name="flod" d="M423.253 403.627h532.48v88.747h-532.48zM423.253 581.12h532.48v88.747h-532.48zM68.267 847.36v-88.747h887.467v88.747zM68.267 48.64h887.467v88.747h-887.467zM68.267 448l177.493-177.493v354.987zM423.253 226.133h532.48v88.747h-532.48v-88.747z" />
<glyph unicode="&#xe933;" glyph-name="global" d="M512 891.733c-245.76 0-443.733-197.973-443.733-443.733s197.973-443.733 443.733-443.733c245.76 0 443.733 197.973 443.733 443.733s-197.973 443.733-443.733 443.733zM836.267 625.493h-146.773c-13.653 54.613-68.267 143.36-95.573 191.147 81.92-27.307 197.973-119.467 242.347-191.147zM512 816.64c37.547-54.613 81.92-129.707 102.4-191.147h-204.8c20.48 64.853 64.853 139.947 102.4 191.147zM150.187 359.253c-6.827 27.307-10.24 58.027-10.24 88.747s3.413 61.44 10.24 88.747h167.253c-3.413-30.72-6.827-58.027-6.827-88.747s3.413-58.027 6.827-88.747h-167.253zM187.733 270.507h146.773c13.653-54.613 51.2-143.36 78.507-191.147-81.92 27.307-180.907 116.053-225.28 191.147zM334.507 625.493h-146.773c40.96 75.093 160.427 163.84 242.347 191.147-23.893-47.787-78.507-136.533-95.573-191.147zM512 79.36c-37.547 54.613-81.92 129.707-102.4 191.147h204.8c-20.48-64.853-64.853-139.947-102.4-191.147zM631.467 359.253h-242.347c-3.413 30.72-6.827 58.027-6.827 88.747s3.413 61.44 6.827 88.747h242.347c3.413-27.307 6.827-58.027 6.827-88.747s0-58.027-6.827-88.747zM610.987 79.36c27.307 47.787 64.853 136.533 78.507 191.147h146.773c-44.373-71.68-143.36-163.84-225.28-191.147zM706.56 359.253c3.413 30.72 6.827 58.027 6.827 88.747s-3.413 58.027-6.827 88.747h167.253c6.827-27.307 10.24-58.027 10.24-88.747s-3.413-61.44-10.24-88.747h-167.253z" />
<glyph unicode="&#xe934;" glyph-name="hode" d="M955.733 618.667l-102.4 102.4-341.333-337.92-341.333 337.92-102.4-102.4 443.733-443.733z" />
<glyph unicode="&#xe935;" glyph-name="home" d="M512 857.6l-481.28-433.493h143.36v-385.707h242.347v242.347h191.147v-242.347h242.347v385.707h143.36l-481.28 433.493z" />
<glyph unicode="&#xe936;" glyph-name="import" d="M426.667 178.347h174.080v-174.080h-174.080v174.080zM426.667 891.733h174.080v-552.96h-174.080v552.96z" />
<glyph unicode="&#xe937;" glyph-name="import_low" d="M836.267 328.533l-85.333 95.573-136.533-146.773v614.4h-204.8v-610.987l-136.533 143.36-88.747-92.16 232.107-232.107v-3.413l92.16-92.16 3.413 3.413v-3.413l95.573 95.573h-3.413z" />
<glyph unicode="&#xe938;" glyph-name="keep" d="M68.267 891.733h887.467v-197.973h-887.467v197.973zM116.053 645.973h788.48v-641.707h-788.48v641.707zM389.12 495.787c-13.653 0-23.893-10.24-23.893-23.893v-75.093h296.96v75.093c0 13.653-10.24 23.893-23.893 23.893h-249.173z" />
<glyph unicode="&#xe939;" glyph-name="knowledge" d="M228.693 400.213v-160.427l283.307-153.6 283.307 153.6v160.427l-283.307-153.6-283.307 153.6zM512 809.813l-443.733-242.347 443.733-242.347 361.813 197.973v-279.893h81.92v324.267l-443.733 242.347z" />
<glyph unicode="&#xe93a;" glyph-name="list--mail" d="M85.333 830.293h170.667v-170.667h-170.667v170.667zM341.333 830.293h597.333v-170.667h-597.333v170.667zM85.333 533.333h170.667v-170.667h-170.667v170.667zM341.333 533.333h597.333v-170.667h-597.333v170.667zM85.333 232.96h170.667v-170.667h-170.667v170.667zM341.333 232.96h597.333v-170.667h-597.333v170.667z" />
<glyph unicode="&#xe93b;" glyph-name="lock" d="M512 215.893c-47.787 0-85.333 37.547-85.333 85.333s37.547 85.333 85.333 85.333c47.787 0 85.333-37.547 85.333-85.333s-37.547-85.333-85.333-85.333zM781.653 72.533v457.387h-539.307v-457.387h525.653zM764.587 594.773c47.787 0 85.333-37.547 85.333-85.333v-423.253c0-47.787-37.547-85.333-85.333-85.333h-505.173c-47.787 0-85.333 37.547-85.333 85.333v426.667c0 47.787 37.547 85.333 85.333 85.333h40.96v81.92c0 116.053 95.573 211.627 211.627 211.627s211.627-95.573 211.627-211.627v-85.333h40.96zM512 823.467c-71.68 0-143.36-75.093-143.36-143.36v-85.333h286.72v85.333c0 71.68-71.68 143.36-143.36 143.36z" />
<glyph unicode="&#xe93c;" glyph-name="mail" d="M921.6 755.2v-614.4h-819.2v614.4h819.2zM989.867 823.467h-955.733v-750.933h955.733v750.933zM512 318.293l-320.853 293.547 47.787 51.2 273.067-252.587 283.307 252.587 44.373-51.2z" />
<glyph unicode="&#xe93d;" glyph-name="mail_read" d="M573.44 488.96v-395.947h382.293v395.947h-382.293zM890.88 188.587h-256v30.72h256v-30.72zM890.88 284.16h-256v30.72h256v-30.72zM890.88 379.733h-256v30.72h256v-30.72zM785.067 516.267v204.8c0 40.96-34.133 68.267-71.68 68.267h-593.92c-37.547 0-51.2-27.307-51.2-68.267v-443.733c0-40.96 13.653-68.267 51.2-68.267h426.667v307.2h238.933zM136.533 645.973v58.027l290.133-184.32 290.133 184.32v-58.027l-290.133-184.32-290.133 184.32z" />
<glyph unicode="&#xe93e;" glyph-name="mail--alarm" d="M866.987 802.987h-709.973c-47.787 0-88.747-40.96-88.747-88.747v-532.48c0-47.787 40.96-88.747 88.747-88.747h709.973c47.787 0 88.747 40.96 88.747 88.747v532.48c0 47.787-40.96 88.747-88.747 88.747zM866.987 625.493l-354.987-221.867-354.987 221.867v88.747l354.987-221.867 354.987 221.867v-88.747z" />
<glyph unicode="&#xe93f;" glyph-name="meeting" d="M433.493 434.347l126.293-129.707 269.653 303.787-44.373 44.373-225.28-252.587-126.293 126.293-238.933-235.52 47.787-47.787zM68.267 789.333v-682.667h887.467v682.667h-887.467zM887.467 174.933h-750.933v546.133h750.933v-546.133z" />
<glyph unicode="&#xe940;" glyph-name="memo" d="M733.867 536.747h-443.733v88.747h443.733zM733.867 359.253h-443.733v88.747h443.733zM600.747 181.76h-310.613v88.747h310.613zM512 802.987c23.893 0 44.373-20.48 44.373-44.373s-20.48-44.373-44.373-44.373-44.373 20.48-44.373 44.373 20.48 44.373 44.373 44.373zM822.613 802.987h-184.32c-20.48 51.2-68.267 88.747-126.293 88.747s-105.813-37.547-126.293-88.747h-184.32c-47.787 0-88.747-40.96-88.747-88.747v-621.227c0-47.787 40.96-88.747 88.747-88.747h621.227c47.787 0 88.747 40.96 88.747 88.747v621.227c0 47.787-40.96 88.747-88.747 88.747z" />
<glyph unicode="&#xe941;" glyph-name="my" d="M354.987 209.067h-180.907c-23.893 0-40.96 30.72-40.96 54.613v498.347c0 20.48 20.48 61.44 40.96 61.44h245.76l85.333-88.747h283.307c23.893 0 58.027-23.893 58.027-44.373v-228.693h71.68v218.453c0 68.267-34.133 129.707-102.4 129.707h-290.133l-81.92 81.92h-269.653c-68.267 0-109.227-61.44-109.227-129.707v-498.347c0-68.267 40.96-129.707 109.227-129.707h180.907v75.093zM375.467 448l-95.573-58.027 27.307 105.813-81.92 71.68 109.227 10.24 44.373 102.4 44.373-102.4 109.227-10.24-81.92-71.68 23.893-105.813zM621.227 188.587c-3.413 10.24-6.827 20.48-10.24 30.72l-44.373 119.467h-64.853v-262.827h58.027v109.227c0 10.24 0 20.48 0 34.133l44.373-122.88h37.547l40.96 109.227 3.413 13.653c0-13.653 0-23.893 0-34.133v-109.227h58.027v262.827h-64.853l-44.373-122.88-13.653-27.307zM901.12 280.747l-27.307-92.16-6.827-23.893c0-3.413 0-6.827-3.413-10.24-3.413 10.24-6.827 23.893-10.24 34.133l-30.72 92.16h-64.853l75.093-191.147-3.413-10.24c-6.827-17.067-13.653-23.893-30.72-23.893-3.413 0-6.827 0-10.24 3.413h-3.413l-13.653-51.2 6.827-3.413c10.24-3.413 17.067-3.413 27.307-3.413 51.2 0 71.68 34.133 85.333 75.093l71.68 204.8h-61.44z" />
<glyph unicode="&#xe942;" glyph-name="new_tab" d="M610.987 891.733v-98.987h177.493l-385.707-385.707 68.267-68.267 385.707 385.707v-177.493h98.987v344.747h-344.747zM856.747 103.253h-689.493v689.493h296.96v98.987h-296.96c-54.613 0-98.987-44.373-98.987-98.987v-689.493c0-54.613 44.373-98.987 98.987-98.987h689.493c54.613 0 98.987 44.373 98.987 98.987v296.96h-98.987v-296.96z" />
<glyph unicode="&#xe943;" glyph-name="part" d="M701.741 426.918c-57.224 0-105.412 48.188-105.412 105.412s48.188 105.412 105.412 105.412c57.224 0 105.412-48.188 105.412-105.412s-48.188-105.412-105.412-105.412zM701.741 592.565c-33.129 0-60.235-27.106-60.235-60.235s27.106-60.235 60.235-60.235c33.129 0 60.235 27.106 60.235 60.235s-27.106 60.235-60.235 60.235zM322.259 246.212c-66.259 0-120.471 54.212-120.471 117.459 0 66.259 54.212 120.471 120.471 120.471s117.459-54.212 117.459-120.471c3.012-63.247-51.2-117.459-117.459-117.459zM322.259 438.965c-42.165 0-75.294-33.129-75.294-75.294s33.129-72.282 75.294-72.282c42.165 0 72.282 33.129 72.282 72.282 3.012 42.165-30.118 75.294-72.282 75.294zM364.424 80.565h-84.329c-18.071 0-36.141 15.059-36.141 36.141v57.224c-3.012 0-3.012 0-6.024 3.012l-39.153-39.153c-12.047-12.047-36.141-12.047-48.188 0l-60.235 60.235c-15.059 15.059-15.059 36.141 0 48.188l39.153 39.153c0 3.012-3.012 3.012-3.012 6.024h-54.212c-18.071 0-36.141 15.059-36.141 36.141v84.329c0 18.071 15.059 36.141 36.141 36.141h57.224c0 3.012 3.012 3.012 3.012 6.024l-42.165 33.129c-6.024 6.024-9.035 15.059-9.035 24.094s3.012 18.071 9.035 24.094l60.235 60.235c12.047 12.047 36.141 12.047 48.188 0l42.165-39.153c3.012 0 3.012 3.012 6.024 3.012v57.224c0 18.071 15.059 36.141 36.141 36.141h84.329c18.071 0 36.141-15.059 36.141-36.141v-57.224c3.012 0 6.024-3.012 9.035-3.012l96.376 48.188c0 3.012 3.012 9.035 6.024 12.047l-39.153 39.153c-15.059 15.059-15.059 36.141 0 48.188l60.235 60.235c12.047 12.047 36.141 12.047 48.188 0l39.153-39.153c3.012 0 3.012 3.012 6.024 3.012v54.212c0 18.071 15.059 36.141 36.141 36.141h84.329c18.071 0 36.141-15.059 36.141-36.141v-57.224c3.012 0 3.012 0 6.024-3.012l39.153 39.153c12.047 12.047 36.141 12.047 48.188 0l60.235-60.235c15.059-15.059 15.059-36.141 0-48.188l-39.153-39.153c0-3.012 3.012-3.012 3.012-6.024h57.224c18.071 0 36.141-15.059 36.141-36.141v-84.329c0-18.071-15.059-36.141-36.141-36.141h-57.224c0-3.012-3.012-3.012-3.012-6.024l39.153-39.153c15.059-15.059 15.059-36.141 0-48.188l-60.235-60.235c-12.047-12.047-36.141-12.047-48.188 0l-48.188 42.165c-3.012 0-3.012-3.012-6.024-3.012v-57.224c0-18.071-15.059-36.141-36.141-36.141h-84.329c-18.071 0-36.141 15.059-36.141 36.141v57.224c-6.024 3.012-12.047 3.012-15.059 6.024h-60.235l-27.106-42.165c-3.012-6.024-3.012-12.047-6.024-18.071l39.153-39.153c15.059-15.059 15.059-36.141 0-48.188l-60.235-60.235c-12.047-12.047-36.141-12.047-48.188 0l-39.153 39.153c-3.012 0-3.012-3.012-6.024-3.012v-57.224c3.012-18.071-15.059-33.129-33.129-33.129zM292.141 125.741h63.247v63.247c0 9.035 6.024 18.071 15.059 21.082 12.047 3.012 21.082 6.024 30.118 12.047s21.082 3.012 27.106-3.012l45.176-45.176 45.176 45.176-45.176 45.176c-6.024 6.024-9.035 18.071-3.012 27.106s9.035 18.071 12.047 30.118c0 3.012 0 3.012 3.012 6.024l33.129 57.224c3.012 6.024 12.047 12.047 18.071 12.047h81.318c3.012 0 6.024 0 12.047-3.012 9.035-3.012 18.071-9.035 30.118-12.047 9.035-3.012 15.059-12.047 15.059-21.082v-63.247h63.247v63.247c0 9.035 6.024 18.071 15.059 21.082 12.047 3.012 21.082 6.024 30.118 12.047s21.082 3.012 27.106-3.012l45.176-45.176 45.176 45.176-45.176 45.176c-6.024 6.024-9.035 18.071-3.012 27.106s9.035 18.071 12.047 30.118c3.012 9.035 12.047 15.059 21.082 15.059h63.247v63.247h-63.247c-9.035 0-18.071 6.024-21.082 15.059s-6.024 21.082-12.047 30.118c-6.024 9.035-3.012 18.071 3.012 27.106l45.176 45.176-45.176 45.176-45.176-45.176c-6.024-6.024-18.071-9.035-27.106-3.012-9.035 3.012-18.071 9.035-30.118 12.047-9.035 3.012-15.059 12.047-15.059 21.082v51.2h-63.247v-63.247c0-9.035-6.024-18.071-15.059-21.082-12.047-3.012-21.082-6.024-30.118-12.047s-18.071-3.012-27.106 3.012l-45.176 45.176-45.176-45.176 45.176-45.176c6.024-6.024 9.035-18.071 3.012-27.106s-9.035-18.071-12.047-30.118c-3.012-6.024-6.024-12.047-12.047-15.059l-117.459-51.2c-6.024-3.012-15.059-3.012-21.082 0-9.035 3.012-18.071 9.035-30.118 12.047-9.035 3.012-15.059 12.047-15.059 21.082v63.247h-60.235v-63.247c0-9.035-6.024-18.071-15.059-21.082-12.047-3.012-21.082-6.024-30.118-12.047s-18.071-3.012-27.106 3.012l-45.176 45.176-45.176-45.176 45.176-45.176c6.024-6.024 9.035-18.071 3.012-27.106s-9.035-18.071-12.047-30.118c-3.012-9.035-12.047-15.059-21.082-15.059h-60.235v-63.247h63.247c9.035 0 18.071-6.024 21.082-15.059s6.024-21.082 12.047-30.118c6.024-9.035 3.012-21.082-3.012-27.106l-45.176-45.176 45.176-45.176 45.176 45.176c6.024 6.024 18.071 9.035 27.106 3.012 9.035-3.012 18.071-9.035 30.118-12.047 9.035-3.012 15.059-12.047 15.059-21.082v-57.224z" />
<glyph unicode="&#xe944;" glyph-name="pay" d="M392.533 850.773v-242.347h81.92v-119.467h-245.76c-44.373 0-81.92-37.547-81.92-81.92v-119.467h-78.507v-242.347h242.347v242.347h-81.92v119.467h242.347v-119.467h-81.92v-242.347h242.347v242.347h-81.92v119.467h242.347v-119.467h-81.92v-242.347h245.76v242.347h-81.92v119.467c0 44.373-37.547 81.92-81.92 81.92h-242.347v119.467h81.92v242.347h-238.933z" />
<glyph unicode="&#xe945;" glyph-name="personal" d="M512 492.373c98.987 0 177.493 78.507 177.493 177.493s-78.507 177.493-177.493 177.493c-98.987 0-177.493-78.507-177.493-177.493s78.507-177.493 177.493-177.493zM512 386.56c-146.773 0-443.733-75.093-443.733-221.867v-116.053h887.467v116.053c0 146.773-296.96 221.867-443.733 221.867z" />
<glyph unicode="&#xe946;" glyph-name="personal--mali" d="M532.48 891.733c122.88 0 221.867-98.987 221.867-221.867s-98.987-221.867-221.867-221.867-221.867 98.987-221.867 221.867 98.987 221.867 221.867 221.867zM532.48 335.36c245.76 0 443.733-98.987 443.733-221.867v-109.227h-887.467v112.64c0 119.467 197.973 218.453 443.733 218.453z" />
<glyph unicode="&#xe947;" glyph-name="plus" d="M955.733 482.133h-409.6v409.6h-68.267v-409.6h-409.6v-68.267h409.6v-409.6h68.267v409.6h409.6z" />
<glyph unicode="&#xe948;" glyph-name="portlet" d="M887.467 823.467v-580.267h-580.267v580.267h580.267zM904.533 891.733h-580.267c-37.547 0-85.333-13.653-85.333-51.2v-580.267c0-37.547 47.787-85.333 85.333-85.333h580.267c37.547 0 51.2 47.787 51.2 85.333v580.267c0 37.547-13.653 51.2-51.2 51.2v0zM716.8 38.4h-580.267c-20.48 0-34.133 13.653-34.133 34.133v614.4h68.267v-580.267h546.133v-68.267z" />
<glyph unicode="&#xe949;" glyph-name="print" d="M778.24 847.36h-532.48v-177.493h532.48v177.493zM822.613 448c-23.893 0-44.373 20.48-44.373 44.373s20.48 44.373 44.373 44.373 44.373-20.48 44.373-44.373-20.48-44.373-44.373-44.373zM689.493 137.387h-354.987v221.867h354.987zM822.613 625.493h-621.227c-75.093 0-133.12-58.027-133.12-133.12v-266.24h177.493v-177.493h532.48v177.493h177.493v266.24c0 75.093-58.027 133.12-133.12 133.12z" />
<glyph unicode="&#xe94a;" glyph-name="readmail" d="M938.667 471.893c-10.24 10.24-23.893 17.067-40.96 17.067h-494.933c-13.653 0-27.307-6.827-37.547-13.653l283.307-197.973 290.133 194.56zM344.747 448v-368.64c0-34.133 23.893-58.027 58.027-58.027h494.933c34.133 0 58.027 23.893 58.027 58.027v365.227l-307.2-208.213-303.787 211.627zM706.56 649.387l-303.787 221.867-303.787-221.867c-20.48-10.24-30.72-27.307-30.72-51.2v-290.133c0-34.133 23.893-58.027 58.027-58.027h174.080v208.213l-163.84 133.12 266.24 197.973 266.24-191.147 3.413-64.853h64.853v64.853c0 23.893-13.653 40.96-30.72 51.2z" />
<glyph unicode="&#xe94b;" glyph-name="receivedmail" d="M709.973 550.4h-95.573v136.533h-204.8v-136.533h-95.573l197.973-197.973zM856.747 891.733h-689.493c-54.613 0-98.987-44.373-98.987-98.987v-689.493c0-54.613 44.373-98.987 98.987-98.987h689.493c54.613 0 98.987 44.373 98.987 98.987v689.493c0 54.613-44.373 98.987-98.987 98.987zM887.467 311.467h-228.693c0-102.4-64.853-146.773-146.773-146.773s-146.773 44.373-146.773 146.773h-228.693v512h750.933v-512z" />
<glyph unicode="&#xe94c;" glyph-name="refresh" d="M955.733 516.267v375.467l-129.707-129.707c-81.92 78.507-191.147 129.707-314.027 129.707-245.76 0-443.733-197.973-443.733-443.733s197.973-440.32 443.733-440.32c208.213 0 378.88 133.12 430.080 337.92h-116.053c-44.373-136.533-167.253-225.28-314.027-225.28-184.32 0-334.507 146.773-334.507 331.093s150.187 331.093 334.507 331.093c92.16 0 174.080-30.72 235.52-92.16l-180.907-174.080h389.12z" />
<glyph unicode="&#xe94d;" glyph-name="folder" d="M839.68 86.187h-655.36c-61.44 0-116.053 54.613-116.053 116.053v491.52c0 61.44 54.613 116.053 116.053 116.053h259.413l81.92-81.92h314.027c61.44 0 116.053-54.613 116.053-116.053v-409.6c0-61.44-54.613-116.053-116.053-116.053zM184.32 741.547c-23.893 0-47.787-23.893-47.787-47.787v-491.52c0-23.893 23.893-47.787 47.787-47.787h655.36c23.893 0 47.787 23.893 47.787 47.787v409.6c0 23.893-23.893 47.787-47.787 47.787h-341.333l-81.92 81.92h-232.107z" />
<glyph unicode="&#xe94e;" glyph-name="search" d="M952.32 55.467l-249.173 249.173c51.2 61.44 81.92 139.947 81.92 225.28 0 194.56-160.427 354.987-354.987 354.987-197.973 0-354.987-157.013-354.987-351.573s160.427-354.987 354.987-354.987c85.333 0 163.84 30.72 225.28 81.92l249.173-249.173c6.827-6.827 13.653-10.24 23.893-10.24s17.067 3.413 23.893 10.24c10.24 10.24 10.24 30.72 0 44.373zM139.947 533.333c0 160.427 129.707 290.133 290.133 290.133s290.133-129.707 290.133-290.133-133.12-290.133-290.133-290.133c-160.427 0-290.133 129.707-290.133 290.133z" />
<glyph unicode="&#xe94f;" glyph-name="search--LNB" d="M399.36 891.733c180.907 0 331.093-146.773 331.093-331.093 0-81.92-30.72-157.013-78.507-215.040l13.653-13.653h40.96l252.587-252.587-78.507-75.093-252.587 252.587v40.96l-17.067 13.653c-58.027-47.787-133.12-78.507-215.040-78.507-180.907 0-327.68 146.773-327.68 327.68s146.773 331.093 331.093 331.093zM399.36 789.333c-129.707 0-228.693-98.987-228.693-228.693s102.4-228.693 228.693-228.693 228.693 102.4 228.693 228.693-102.4 228.693-228.693 228.693z" />
<glyph unicode="&#xe950;" glyph-name="select" d="M655.36 509.44l-17.067 17.067-126.293-126.293-126.293 126.293-17.067-13.653 143.36-143.36z" />
<glyph unicode="&#xe951;" glyph-name="reply" d="M413.013 622.080v194.56l-344.747-344.747 344.747-344.747v201.387c245.76 0 419.84-78.507 542.72-252.587-47.787 249.173-197.973 494.933-542.72 546.133z" />
<glyph unicode="&#xe952;" glyph-name="sendmail" d="M68.267 826.88v-293.547l634.88-85.333-634.88-85.333v-293.547l887.467 378.88z" />
<glyph unicode="&#xe953;" glyph-name="send" d="M68.267 280.747v334.507h447.147v215.040l440.32-382.293-440.32-382.293v215.040h-447.147z" />
<glyph unicode="&#xe954;" glyph-name="setting" d="M512 294.4c-85.333 0-157.013 68.267-157.013 153.6s68.267 157.013 157.013 157.013 157.013-68.267 157.013-157.013-71.68-153.6-157.013-153.6zM843.093 403.627c3.413 13.653 3.413 27.307 3.413 44.373s0 30.72-3.413 44.373l92.16 71.68c6.827 6.827 10.24 17.067 6.827 27.307l-88.747 153.6c-6.827 10.24-17.067 17.067-27.307 10.24l-109.227-44.373c-23.893 17.067-47.787 30.72-75.093 44.373l-17.067 116.053c-3.413 13.653-13.653 20.48-23.893 20.48h-177.493c-10.24 0-20.48-6.827-20.48-17.067l-17.067-119.467c-27.307-10.24-51.2-27.307-75.093-44.373l-112.64 44.373c-6.827 6.827-20.48 0-27.307-10.24l-88.747-153.6c-6.827-10.24-3.413-20.48 6.827-27.307l92.16-71.68c-3.413-13.653-3.413-30.72-3.413-44.373s0-27.307 3.413-44.373l-92.16-75.093c-6.827-6.827-10.24-17.067-6.827-27.307l88.747-150.187c6.827-10.24 20.48-13.653 27.307-10.24l109.227 44.373c23.893-17.067 47.787-34.133 75.093-44.373l17.067-116.053c3.413-10.24 10.24-17.067 20.48-17.067h177.493c10.24 0 20.48 6.827 20.48 17.067l17.067 116.053c27.307 10.24 51.2 27.307 75.093 44.373l109.227-44.373c10.24-3.413 20.48 0 27.307 10.24l88.747 153.6c6.827 10.24 3.413 20.48-6.827 27.307l-85.333 71.68z" />
<glyph unicode="&#xe955;" glyph-name="slice_height" d="M552.96 867.84h378.88v-843.093h-378.88v843.093zM92.16 867.84h378.88v-843.093h-378.88v843.093z" />
<glyph unicode="&#xe956;" glyph-name="slice_width" d="M92.16 407.040h843.093v-378.88h-843.093v378.88zM92.16 867.84h843.093v-378.88h-843.093v378.88z" />
<glyph unicode="&#xe957;" glyph-name="spam" d="M512 878.080c-235.52 0-430.080-194.56-430.080-430.080s194.56-430.080 430.080-430.080 430.080 194.56 430.080 430.080-194.56 430.080-430.080 430.080zM512 768.853c68.267 0 129.707-20.48 184.32-58.027l-447.147-447.147c-37.547 54.613-58.027 116.053-58.027 184.32 0 177.493 143.36 320.853 320.853 320.853zM512 127.147c-68.267 0-129.707 20.48-184.32 58.027l447.147 447.147c37.547-54.613 58.027-119.467 58.027-184.32 0-177.493-143.36-320.853-320.853-320.853z" />
<glyph unicode="&#xe958;" glyph-name="steel" d="M361.412 399.812c-63.247 0-111.435 51.2-111.435 111.435s51.2 111.435 111.435 111.435 111.435-51.2 111.435-111.435-48.188-111.435-111.435-111.435zM361.412 580.518c-36.141 0-66.259-30.118-66.259-66.259s30.118-66.259 66.259-66.259 66.259 30.118 66.259 66.259-30.118 66.259-66.259 66.259zM701.741 2.259c-60.235 0-108.424 48.188-108.424 108.424s48.188 108.424 108.424 108.424c60.235 0 108.424-48.188 108.424-108.424s-48.188-108.424-108.424-108.424zM701.741 173.929c-36.141 0-63.247-27.106-63.247-63.247s27.106-63.247 63.247-63.247c36.141 0 63.247 27.106 63.247 63.247s-27.106 63.247-63.247 63.247zM662.588 487.153c-12.047 0-24.094 9.035-24.094 24.094v358.4c0 12.047 9.035 24.094 24.094 24.094s24.094-9.035 24.094-24.094v-361.412c-3.012-12.047-12.047-21.082-24.094-21.082zM60.235 490.165c-12.047 0-24.094 9.035-24.094 24.094v361.412c0 12.047 9.035 24.094 24.094 24.094s24.094-9.035 24.094-24.094v-361.412c0-15.059-12.047-24.094-24.094-24.094zM448.753 14.306h-388.518c-12.047 0-24.094 9.035-24.094 24.094s9.035 24.094 24.094 24.094h388.518c12.047 0 24.094-9.035 24.094-24.094s-12.047-24.094-24.094-24.094zM448.753 14.306c-9.035 0-18.071 6.024-21.082 15.059-6.024 27.106-12.047 51.2-12.047 78.306 0 30.118 3.012 57.224 12.047 84.329-21.082-6.024-45.176-6.024-69.271-6.024-177.694 0-325.271 144.565-325.271 325.271s150.588 325.271 328.282 325.271 325.271-144.565 325.271-325.271c0-42.165-9.035-81.318-24.094-120.471 12.047 3.012 27.106 3.012 39.153 3.012 156.612 0 286.118-126.494 286.118-286.118 0-27.106-3.012-54.212-12.047-78.306-3.012-12.047-15.059-18.071-27.106-15.059s-18.071 15.059-15.059 27.106c6.024 21.082 9.035 45.176 9.035 66.259 0 132.518-108.424 240.941-240.941 240.941-24.094 0-48.188-3.012-72.282-12.047-9.035-3.012-18.071 0-24.094 6.024s-6.024 18.071-3.012 24.094c24.094 42.165 39.153 90.353 39.153 141.553 0 153.6-123.482 280.094-280.094 280.094s-280.094-123.482-280.094-280.094 123.482-280.094 280.094-280.094c33.129 0 66.259 6.024 99.388 18.071 9.035 3.012 18.071 0 24.094-6.024s9.035-18.071 3.012-24.094c-18.071-33.129-27.106-72.282-27.106-108.424 0-21.082 3.012-45.176 9.035-66.259 3.012-12.047-3.012-24.094-15.059-27.106 0 3.012-3.012 0-6.024 0z" />
<glyph unicode="&#xe959;" glyph-name="stop" d="M692.907 891.733h68.267v-887.467h-68.267v887.467zM262.827 891.733h68.267v-887.467h-68.267v887.467z" />
<glyph unicode="&#xe95a;" glyph-name="success" d="M701.741 550.4l-42.165 42.165-210.824-207.812-84.329 84.329-42.165-42.165 126.494-126.494z" />
<glyph unicode="&#xe95b;" glyph-name="survey" d="M399.36 434.347l-61.44-61.44 133.12-133.12 242.347 242.347-64.853 61.44-177.493-177.493zM853.333 99.84v658.773c0 44.373-13.653 64.853-58.027 64.853h-191.147c-17.067 68.267-58.027 95.573-109.227 95.573s-92.16-27.307-109.227-95.573h-160.427c-44.373 0-88.747-20.48-88.747-64.853v-679.253c0-40.96 27.307-40.96 71.68-40.96h600.747c40.96 0 44.373 17.067 44.373 61.44zM494.933 837.12c20.48 0 37.547-17.067 37.547-37.547s-17.067-37.547-37.547-37.547-37.547 17.067-37.547 37.547 17.067 37.547 37.547 37.547zM785.067 106.667h-580.267v546.133h136.533v-68.267h307.2v68.267h136.533v-546.133z" />
<glyph unicode="&#xe95c;" glyph-name="team" d="M344.747 475.307c61.44 0 112.64 51.2 112.64 112.64s-47.787 112.64-112.64 112.64c-61.44 0-112.64-51.2-112.64-112.64s51.2-112.64 112.64-112.64zM679.253 475.307c61.44 0 112.64 51.2 112.64 112.64s-47.787 112.64-112.64 112.64-112.64-51.2-112.64-112.64 51.2-112.64 112.64-112.64zM344.747 410.453c-92.16 0-276.48-44.373-276.48-139.947v-71.68h556.373v71.68c0 92.16-187.733 139.947-279.893 139.947zM679.253 410.453c-13.653 0-47.787 0-64.853-3.413 44.373-34.133 75.093-78.507 75.093-136.533v-71.68h266.24v71.68c0 92.16-184.32 139.947-276.48 139.947z" />
<glyph unicode="&#xe95d;" glyph-name="tempo_folder" d="M866.987 181.76h-709.973v443.733h709.973zM866.987 714.24h-354.987l-88.747 88.747h-266.24c-47.787 0-88.747-40.96-88.747-88.747v-532.48c0-47.787 40.96-88.747 88.747-88.747h709.973c47.787 0 88.747 40.96 88.747 88.747v443.733c0 47.787-40.96 88.747-88.747 88.747z" />
<glyph unicode="&#xe95e;" glyph-name="tempo-mail" d="M866.987 721.067h-354.987l-88.747 68.267h-266.24c-47.787 0-88.747-27.307-88.747-75.093v-532.48c0-47.787 40.96-75.093 88.747-75.093h709.973c47.787 0 88.747 27.307 88.747 75.093v443.733c0 47.787-40.96 95.573-88.747 95.573z" />
<glyph unicode="&#xe95f;" glyph-name="to_do" d="M310.613 779.093l-44.373 44.373-122.88-122.88-47.787 47.787-40.96-44.373 88.747-88.747zM146.773 188.587l-51.2 47.787-40.96-40.96 92.16-92.16 163.84 163.84-44.373 44.373zM310.613 512.853l-44.373 40.96-122.88-122.88-47.787 47.787-40.96-40.96 88.747-92.16zM409.6 755.2h546.133v-102.4h-546.133v102.4zM409.6 243.2h546.133v-102.4h-546.133v102.4zM409.6 516.267h546.133v-102.4h-546.133v102.4z" />
<glyph unicode="&#xe960;" glyph-name="to_do--LNB" d="M713.387 444.587l-47.787 47.787-215.040-215.040-95.573 95.573-47.787-51.2 139.947-139.947 266.24 262.827zM822.613 802.987h-44.373v88.747h-88.747v-88.747h-354.987v88.747h-88.747v-88.747h-44.373c-47.787 0-88.747-40.96-88.747-88.747v-621.227c0-47.787 40.96-88.747 88.747-88.747h621.227c47.787 0 88.747 40.96 88.747 88.747v621.227c0 47.787-40.96 88.747-88.747 88.747zM822.613 93.013h-621.227v488.107h621.227v-488.107z" />
<glyph unicode="&#xe961;" glyph-name="tools" d="M122.88 854.187h75.093v-812.373h-75.093v812.373zM68.267 809.813h146.773v-221.867h-146.773v221.867zM808.96 280.747h146.773v-221.867h-146.773v221.867zM457.387 540.16h146.773v-221.867h-146.773v221.867zM474.453 854.187h75.093v-812.373h-75.093v812.373zM826.027 854.187h75.093v-812.373h-75.093v812.373z" />
<glyph unicode="&#xe962;" glyph-name="total-delete" d="M583.68 618.667h-515.413v-85.333h515.413v85.333zM583.68 792.747h-515.413v-85.333h515.413v85.333zM68.267 362.667h344.747v85.333h-344.747c0 0 0-85.333 0-85.333zM955.733 417.28l-64.853 61.44-126.293-126.293-126.293 126.293-61.44-61.44 129.707-122.88-129.707-129.707 61.44-61.44 126.293 126.293 126.293-126.293 64.853 61.44-129.707 129.707z" />
<glyph unicode="&#xe963;" glyph-name="trash" d="M204.8 103.253c0-54.613 54.613-98.987 109.227-98.987h395.947c54.613 0 109.227 44.373 109.227 98.987v583.68h-614.4v-583.68zM580.267 584.533h68.267v-409.6h-68.267v409.6zM375.467 584.533h68.267v-409.6h-68.267v409.6zM686.080 857.6l-51.2 34.133h-245.76l-51.2-34.133h-167.253v-102.4h682.667v102.4z" />
<glyph unicode="&#xe964;" glyph-name="usersearch" d="M945.493 79.36l-92.16 92.16c23.893 30.72 30.72 64.853 30.72 102.4 0 102.4-81.92 184.32-184.32 184.32s-184.32-81.92-184.32-184.32 81.92-184.32 184.32-184.32c37.547 0 71.68 10.24 102.4 30.72l92.16-92.16c6.827-6.827 13.653-10.24 27.307-10.24s17.067 3.413 27.307 10.24c10.24 13.653 10.24 37.547-3.413 51.2zM808.96 273.92c0-58.027-47.787-112.64-112.64-112.64s-112.64 47.787-112.64 112.64c0 58.027 47.787 112.64 112.64 112.64s112.64-54.613 112.64-112.64zM409.6 465.067c102.4 6.827 197.973 98.987 197.973 208.213 0 116.053-92.16 208.213-204.8 208.213s-208.213-95.573-208.213-208.213c0-61.44 27.307-116.053 71.68-157.013-109.227-27.307-197.973-102.4-197.973-211.627v-300.373h416.427v68.267h-348.16v232.107c0 105.813 112.64 160.427 218.453 160.427h54.613zM402.773 813.227c78.507 0 139.947-61.44 139.947-139.947s-61.44-139.947-139.947-139.947c-78.507 0-139.947 61.44-139.947 139.947 0 75.093 64.853 139.947 139.947 139.947z" />
<glyph unicode="&#xe965;" d="M512 598.588l-180.706-301.176h361.412z" />
<glyph unicode="&#xe966;" d="M496.941 357.647h30.118v-30.118h-30.118v30.118z" />
<glyph unicode="&#xe967;" d="M493.929 366.682h36.141v-36.141h-36.141v36.141z" />
<glyph unicode="&#xe968;" d="M493.929 487.153h36.141v-90.353h-36.141v90.353z" />
<glyph unicode="&#xe969;" glyph-name="mail_list" d="M580.267 140.8h375.467v-68.267h-375.467v68.267zM580.267 482.133h375.467v-68.267h-375.467v68.267zM580.267 311.467h375.467v-68.267h-375.467v68.267zM645.12 605.013v163.84c0 34.133-27.307 54.613-58.027 54.613h-477.867c-30.72 0-40.96-20.48-40.96-54.613v-354.987c0-34.133 10.24-54.613 40.96-54.613h344.747v245.76h191.147zM122.88 710.827v44.373l232.107-146.773 235.52 146.773v-47.787l-232.107-146.773-235.52 150.187z" />
<glyph unicode="&#xe96a;" glyph-name="approval_list" d="M962.56 11.093h-402.773v61.44h402.773v-61.44zM962.56 192h-402.773v61.44h402.773v-61.44zM962.56 372.907h-402.773v64.853h402.773v-64.853zM443.733 584.533h170.667v146.773c0 34.133-40.96 58.027-75.093 58.027h-95.573c0 68.267-40.96 92.16-92.16 92.16-47.787 0-88.747-23.893-88.747-92.16h-122.88c-34.133 0-71.68-23.893-71.68-58.027v-358.4c0-34.133 37.547-61.44 71.68-61.44h303.787v102.4h-238.933v68.267h238.933v102.4zM354.987 823.467c17.067 0 30.72-13.653 30.72-30.72s-13.653-30.72-30.72-30.72-30.72 13.653-30.72 30.72 13.653 30.72 30.72 30.72zM204.8 584.533v68.267h273.067v-68.267zM559.787 437.76h402.773v-64.853h-402.773v64.853zM559.787 256.853h402.773v-64.853h-402.773v64.853zM559.787 72.533h402.773v-64.853h-402.773v64.853z" />
<glyph unicode="&#xe96b;" glyph-name="reply_all" d="M549.547 577.707v146.773l-259.413-259.413 259.413-259.413v150.187c184.32 0 314.027-58.027 406.187-187.733-37.547 187.733-146.773 372.053-406.187 409.6zM327.68 615.253v109.227l-259.413-259.413 259.413-256v112.64l-146.773 146.773 146.773 146.773z" />
<glyph unicode="&#xe96c;" glyph-name="circle_line" d="M512 840.533c215.040 0 392.533-177.493 392.533-392.533s-177.493-392.533-392.533-392.533-392.533 177.493-392.533 392.533 177.493 392.533 392.533 392.533zM512 891.733c-245.76 0-443.733-197.973-443.733-443.733s197.973-443.733 443.733-443.733 443.733 197.973 443.733 443.733-197.973 443.733-443.733 443.733v0z" />
<glyph unicode="&#xe96d;" glyph-name="check_start" d="M955.733 724.48l-88.747 75.093-443.733-532.48-273.067 276.48-81.92-85.333 368.64-361.813z" />
<glyph unicode="&#xe96e;" glyph-name="circle_end" d="M955.733 448c0-245.067-198.666-443.733-443.733-443.733s-443.733 198.666-443.733 443.733c0 245.067 198.666 443.733 443.733 443.733s443.733-198.666 443.733-443.733z" />
<glyph unicode="&#xe96f;" glyph-name="list_hide" d="M273.067 891.733v-887.467l484.693 443.733z" />
<glyph unicode="&#xe970;" glyph-name="list_open" d="M955.733 871.253l-880.64-832.853h880.64z" />
<glyph unicode="&#xe971;" glyph-name="voter_comments" d="M870.4 806.4c10.24 0 17.067-6.827 17.067-17.067v-512c0-10.24-6.827-17.067-17.067-17.067h-389.12l-23.893-17.067-116.053-71.68v88.747h-153.6c-10.24 0-17.067 6.827-17.067 17.067v512c0 10.24 6.827 17.067 17.067 17.067h682.667zM870.4 908.8h-682.667c-64.853 0-119.467-54.613-119.467-119.467v-512c0-64.853 54.613-119.467 119.467-119.467h51.2v-170.667l273.067 170.667h358.4c64.853 0 119.467 54.613 119.467 119.467v512c0 64.853-54.613 119.467-119.467 119.467v0zM273.067 584.533h102.4v-102.4h-102.4v102.4zM477.867 584.533h102.4v-102.4h-102.4v102.4zM682.667 584.533h102.4v-102.4h-102.4v102.4z" />
<glyph unicode="&#xe972;" glyph-name="info" d="M512 891.733c-245.76 0-443.733-197.973-443.733-443.733s197.973-443.733 443.733-443.733 443.733 197.973 443.733 443.733-197.973 443.733-443.733 443.733zM556.373 226.133h-88.747v266.24h88.747v-266.24zM556.373 581.12h-88.747v88.747h88.747v-88.747z" />
<glyph unicode="&#xe973;" glyph-name="more" d="M955.733 448c0-56.554-45.846-102.4-102.4-102.4s-102.4 45.846-102.4 102.4c0 56.554 45.846 102.4 102.4 102.4s102.4-45.846 102.4-102.4zM273.067 448c0-56.554-45.846-102.4-102.4-102.4s-102.4 45.846-102.4 102.4c0 56.554 45.846 102.4 102.4 102.4s102.4-45.846 102.4-102.4zM614.4 448c0-56.554-45.846-102.4-102.4-102.4s-102.4 45.846-102.4 102.4c0 56.554 45.846 102.4 102.4 102.4s102.4-45.846 102.4-102.4z" />
<glyph unicode="&#xe974;" glyph-name="lock_mail" d="M512 260.267c37.547 0 68.267 30.72 68.267 68.267s-30.72 68.267-68.267 68.267c-37.547 0-68.267-30.72-68.267-68.267s30.72-68.267 68.267-68.267zM716.8 567.467c37.547 0 68.267-30.72 68.267-68.267v-341.333c0-37.547-30.72-68.267-68.267-68.267h-409.6c-37.547 0-68.267 30.72-68.267 68.267v341.333c0 37.547 30.72 68.267 68.267 68.267h34.133v68.267c0 95.573 75.093 170.667 170.667 170.667s170.667-75.093 170.667-170.667v-68.267h34.133zM512 738.133c-58.027 0-102.4-44.373-102.4-102.4v-68.267h204.8v68.267c0 58.027-44.373 102.4-102.4 102.4z" />
<glyph unicode="&#xe975;" glyph-name="preview" d="M512 751.787c-201.387 0-375.467-126.293-443.733-303.787 68.267-177.493 242.347-303.787 443.733-303.787s375.467 126.293 443.733 303.787c-68.267 177.493-242.347 303.787-443.733 303.787zM512 246.613c-112.64 0-201.387 88.747-201.387 201.387s88.747 201.387 201.387 201.387 201.387-88.747 201.387-201.387-88.747-201.387-201.387-201.387zM512 567.467c-68.267 0-119.467-54.613-119.467-119.467s54.613-119.467 119.467-119.467 119.467 54.613 119.467 119.467-51.2 119.467-119.467 119.467z" />
<glyph unicode="&#xe976;" glyph-name="move" d="M556.373 492.373h225.28l-68.267 68.267 64.853 64.853 177.493-177.493-177.493-177.493-64.853 64.853 68.267 68.267h-225.28v-225.28l68.267 68.267 64.853-64.853-177.493-177.493-177.493 177.493 64.853 64.853 68.267-68.267v225.28h-225.28l68.267-68.267-64.853-64.853-177.493 177.493 177.493 177.493 64.853-64.853-68.267-68.267h225.28v225.28l-68.267-68.267-64.853 64.853 177.493 177.493 177.493-177.493-64.853-64.853-68.267 68.267v-225.28z" />
<glyph unicode="&#xe977;" glyph-name="star_line" d="M955.733 546.987l-317.44 27.307-126.293 293.547-126.293-293.547-317.44-27.307 242.347-208.213-71.68-314.027 273.067 163.84 273.067-163.84-71.68 310.613 242.347 211.627zM512 273.92l-167.253-102.4 44.373 191.147-146.773 126.293 194.56 17.067 75.093 180.907 75.093-180.907 194.56-17.067-146.773-126.293 44.373-191.147-167.253 102.4z" />
<glyph unicode="&#xe978;" glyph-name="star" d="M512 192l273.067-163.84-71.68 310.613 242.347 208.213-317.44 27.307-126.293 293.547-126.293-293.547-317.44-27.307 242.347-208.213-71.68-314.027 273.067 167.253z" />
<glyph unicode="&#xe979;" glyph-name="down_list" d="M351.573 430.933h105.813l-194.56-249.173-194.56 249.173h105.813v283.307h180.907l-3.413-283.307zM501.76 410.453v75.093h303.787v-75.093h-303.787zM501.76 181.76v75.093h150.187v-75.093h-150.187zM501.76 639.147v75.093h453.973v-75.093h-453.973z" />
<glyph unicode="&#xe97a;" glyph-name="format" d="M556.373 581.12h245.76l-245.76 242.347v-242.347zM245.76 891.733h354.987l266.24-266.24v-532.48c0-47.787-40.96-88.747-88.747-88.747h-532.48c-47.787 0-88.747 40.96-88.747 88.747v709.973c0 47.787 40.96 88.747 88.747 88.747zM645.12 181.76v88.747h-399.36v-88.747h399.36zM778.24 359.253v88.747h-532.48v-88.747h532.48z" />
<glyph unicode="&#xe97b;" glyph-name="manual" d="M556.373 581.12h242.347l-242.347 242.347v-242.347zM245.76 891.733h354.987l266.24-266.24v-532.48c0-47.787-40.96-88.747-88.747-88.747h-532.48c-47.787 0-88.747 40.96-88.747 88.747v709.973c0 47.787 40.96 88.747 88.747 88.747zM464.213 427.52c17.067-40.96 40.96-71.68 68.267-95.573l17.067-13.653c-37.547-6.827-92.16-20.48-146.773-40.96v0h-6.827l23.893 47.787c20.48 34.133 34.133 71.68 44.373 102.4zM750.933 260.267c6.827 6.827 13.653 17.067 13.653 30.72 0 10.24 0 17.067-6.827 23.893-13.653 20.48-47.787 30.72-102.4 30.72l-58.027-3.413-37.547 27.307c-27.307 23.893-54.613 64.853-71.68 112.64l3.413 6.827c13.653 58.027 27.307 129.707 0 160.427-6.827 6.827-17.067 10.24-27.307 10.24h-10.24c-17.067 0-30.72-17.067-34.133-34.133-17.067-58.027-6.827-92.16 10.24-146.773v0c-10.24-37.547-23.893-85.333-47.787-129.707l-40.96-78.507-40.96-20.48c-54.613-34.133-78.507-71.68-81.92-95.573-3.413-6.827 0-17.067 3.413-23.893v-3.413l17.067-17.067 20.48-3.413c37.547 0 75.093 40.96 133.12 136.533l6.827 3.413c44.373 13.653 102.4 23.893 177.493 34.133 44.373-23.893 98.987-34.133 133.12-34.133 20.48 0 34.133 3.413 40.96 13.653zM733.867 290.987l3.413-3.413c0-3.413-3.413-3.413-3.413-6.827h-10.24c-20.48 0-51.2 6.827-85.333 23.893 3.413 3.413 6.827 3.413 10.24 3.413 64.853 0 81.92-13.653 85.333-17.067zM327.68 226.133c-30.72-51.2-54.613-81.92-75.093-88.747 0 17.067 20.48 47.787 54.613 75.093l20.48 13.653zM460.8 533.333c-10.24 40.96-10.24 71.68-3.413 92.16l3.413 6.827 6.827-3.413c6.827-10.24 6.827-23.893 3.413-47.787v-6.827l-10.24-40.96z" />
<glyph unicode="&#xe97c;" glyph-name="open" d="M656.238 569.050l48.271-48.271-193.085-193.085-48.271 48.271 193.085 193.085zM319.484 520.772l48.271 48.271 193.085-193.085-48.271-48.271-193.085 193.085zM68.267 448c0 245.76 197.973 443.733 443.733 443.733s443.733-197.973 443.733-443.733-197.973-443.733-443.733-443.733-443.733 197.973-443.733 443.733zM890.88 448c0 208.213-170.667 378.88-378.88 378.88s-378.88-170.667-378.88-378.88 170.667-378.88 378.88-378.88 378.88 170.667 378.88 378.88z" />
<glyph unicode="&#xe97d;" glyph-name="portlet_fill" d="M921.6 806.4c0 27.307-23.893 51.2-51.2 51.2h-614.4c-27.307 0-51.2-23.893-51.2-51.2v-614.4c0-27.307 23.893-51.2 51.2-51.2h614.4c27.307 0 51.2 23.893 51.2 51.2v614.4zM136.533 652.8h-68.267v-597.333c0-20.48 30.72-51.2 51.2-51.2h563.2v68.267h-546.133v580.267z" />
<glyph unicode="&#xe97e;" glyph-name="rule" d="M556.373 581.12h245.76l-245.76 242.347v-242.347zM245.76 891.733h354.987l266.24-266.24v-532.48c0-47.787-40.96-88.747-88.747-88.747h-532.48c-47.787 0-88.747 40.96-88.747 88.747v709.973c0 47.787 40.96 88.747 88.747 88.747zM600.747 93.013v44.373c0 58.027-119.467 88.747-177.493 88.747s-177.493-30.72-177.493-88.747v-44.373h354.987zM423.253 448c-47.787 0-88.747-40.96-88.747-88.747s40.96-88.747 88.747-88.747 88.747 40.96 88.747 88.747-40.96 88.747-88.747 88.747z" />
<glyph unicode="&#xe97f;" glyph-name="t_open" d="M822.613 492.373h-177.493v-177.493h-88.747v177.493h-177.493v88.747h177.493v177.493h88.747v-177.493h177.493zM866.987 891.733h-532.48c-47.787 0-88.747-40.96-88.747-88.747v-532.48c0-47.787 40.96-88.747 88.747-88.747h532.48c47.787 0 88.747 40.96 88.747 88.747v532.48c0 47.787-40.96 88.747-88.747 88.747zM157.013 714.24h-88.747v-621.227c0-47.787 40.96-88.747 88.747-88.747h621.227v88.747h-621.227v621.227z" />
<glyph unicode="&#xe980;" glyph-name="up_list" d="M174.080 465.067h-105.813l194.56 249.173 194.56-249.173h-105.813v-286.72h-177.493v286.72zM501.76 410.453v75.093h303.787v-75.093h-303.787zM501.76 181.76v75.093h150.187v-75.093h-150.187zM501.76 639.147v75.093h453.973v-75.093h-453.973z" />
<glyph unicode="&#xe981;" glyph-name="work" d="M556.373 581.12h245.76l-245.76 242.347v-242.347zM245.76 891.733h354.987l266.24-266.24v-532.48c0-47.787-40.96-88.747-88.747-88.747h-532.48c-47.787 0-88.747 40.96-88.747 88.747v709.973c0 47.787 40.96 88.747 88.747 88.747zM290.133 93.013h88.747v266.24h-88.747v-266.24zM467.627 93.013h88.747v354.987h-88.747v-354.987zM645.12 93.013h88.747v177.493h-88.747v-177.493z" />
<glyph unicode="&#xe982;" glyph-name="contact_out" d="M822.613 246.613c-54.613 0-109.227 10.24-157.013 23.893-17.067 3.413-34.133 0-44.373-10.24l-98.987-98.987c-126.293 64.853-228.693 167.253-293.547 293.547l98.987 98.987c13.653 13.653 17.067 30.72 10.24 44.373-17.067 51.2-23.893 102.4-23.893 157.013 0 23.893-20.48 44.373-44.373 44.373h-157.013c-23.893 3.413-44.373-17.067-44.373-40.96 0-416.427 337.92-754.347 754.347-754.347 23.893 0 44.373 20.48 44.373 44.373v153.6c0 27.307-20.48 44.373-44.373 44.373zM733.867 448l221.867 221.867-221.867 221.867v-133.12h-177.493v-177.493h177.493v-133.12z" />
<glyph unicode="&#xe983;" glyph-name="group" d="M136.533 867.84c-47.787 0-68.267-40.96-68.267-88.747v-665.6c0-47.787 20.48-88.747 68.267-88.747h30.72v843.093h-30.72zM887.467 867.84h-634.88v-843.093h634.88c47.787 0 68.267 40.96 68.267 88.747v665.6c0 47.787-20.48 88.747-68.267 88.747zM600.747 714.24c75.093 0 133.12-58.027 133.12-133.12s-58.027-133.12-133.12-133.12-133.12 58.027-133.12 133.12 58.027 133.12 133.12 133.12zM866.987 181.76h-532.48v44.373c0 88.747 177.493 136.533 266.24 136.533s266.24-47.787 266.24-136.533v-44.373z" />
<glyph unicode="&#xe984;" glyph-name="contact_edit" d="M68.267 779.093v-665.6c0-47.787 20.48-88.747 68.267-88.747h30.72v843.093h-30.72c-47.787 0-68.267-40.96-68.267-88.747zM887.467 867.84h-634.88v-843.093h634.88c47.787 0 68.267 40.96 68.267 88.747v665.6c0 47.787-20.48 88.747-68.267 88.747zM884.053 198.827c0-17.067-13.653-30.72-30.72-30.72-290.133 0-525.653 235.52-525.653 525.653 0 17.067 13.653 30.72 30.72 30.72h109.227c17.067 0 30.72-13.653 30.72-30.72 0-37.547 6.827-75.093 17.067-109.227 3.413-10.24 0-23.893-6.827-30.72l-68.267-68.267c44.373-88.747 116.053-160.427 204.8-204.8l68.267 68.267c10.24 10.24 20.48 10.24 30.72 6.827 34.133-10.24 71.68-17.067 109.227-17.067 17.067 0 30.72-13.653 30.72-30.72v-109.227z" />
<glyph unicode="&#xe985;" glyph-name="contact_in" d="M822.613 246.613c-54.613 0-109.227 10.24-157.013 23.893-17.067 3.413-34.133 0-44.373-10.24l-98.987-98.987c-126.293 64.853-228.693 167.253-293.547 293.547l98.987 98.987c13.653 13.653 17.067 30.72 10.24 44.373-17.067 51.2-23.893 102.4-23.893 157.013 0 23.893-20.48 44.373-44.373 44.373h-157.013c-23.893 3.413-44.373-17.067-44.373-40.96 0-416.427 337.92-754.347 754.347-754.347 23.893 0 44.373 20.48 44.373 44.373v153.6c0 27.307-20.48 44.373-44.373 44.373zM778.24 891.733l-221.867-221.867 221.867-221.867v133.12h177.493v177.493h-177.493v133.12z" />
<glyph unicode="&#xe986;" glyph-name="contact_list" d="M955.733 45.227h-402.773v64.853h402.773v-64.853zM955.733 229.547h-402.773v64.853h402.773v-64.853zM955.733 410.453h-402.773v64.853h402.773v-64.853zM378.88 598.187c71.68 0 126.293 58.027 126.293 126.293s-58.027 126.293-126.293 126.293c-68.267 0-126.293-58.027-126.293-126.293s54.613-126.293 126.293-126.293zM382.293 523.093c-170.667 0-314.027-51.2-314.027-157.013v-88.747h409.6v232.107c-34.133 6.827-68.267 13.653-95.573 13.653z" />
<glyph unicode="&#xe987;" glyph-name="location" d="M512 4.267l-17.067 20.48c-13.653 13.653-296.96 331.093-296.96 552.96 0 174.080 139.947 314.027 314.027 314.027s314.027-139.947 314.027-314.027c0-225.28-283.307-539.307-296.96-552.96l-17.067-20.48zM512 843.947c-146.773 0-266.24-119.467-266.24-266.24 0-174.080 204.8-430.080 266.24-501.76 61.44 71.68 266.24 327.68 266.24 501.76 0 146.773-119.467 266.24-266.24 266.24zM512 451.413c-71.68 0-126.293 58.027-126.293 126.293s58.027 126.293 126.293 126.293 126.293-58.027 126.293-126.293-54.613-126.293-126.293-126.293zM512 656.213c-44.373 0-78.507-34.133-78.507-78.507s34.133-78.507 78.507-78.507 78.507 34.133 78.507 78.507-34.133 78.507-78.507 78.507z" />
<glyph unicode="&#xe988;" glyph-name="depart" d="M843.093 45.227h-662.187c-61.44 0-112.64 51.2-112.64 112.64v453.973c0 61.44 51.2 112.64 112.64 112.64h174.080v126.293h351.573v-122.88h133.12c61.44 0 112.64-51.2 112.64-112.64v-453.973c3.413-64.853-47.787-116.053-109.227-116.053zM129.707 383.147v-225.28c0-27.307 23.893-51.2 51.2-51.2h658.773c27.307 0 51.2 23.893 51.2 51.2v225.28h-235.52v-61.44h-279.893v61.44h-245.76zM129.707 444.587h764.587v167.253c0 27.307-23.893 51.2-51.2 51.2h-662.187c-27.307 0-51.2-23.893-51.2-51.2v-167.253zM419.84 727.893h228.693v61.44h-228.693v-61.44z" />
<glyph unicode="&#xe989;" glyph-name="contact_line" d="M252.587 833.707c13.653 0 23.893-6.827 27.307-13.653 0 0 0 0 0 0 13.653-10.24 23.893-23.893 34.133-34.133 6.827-6.827 13.653-13.653 17.067-20.48l54.613-54.613c20.48-20.48 20.48-40.96 0-61.44-6.827-6.827-10.24-10.24-17.067-17.067-17.067-17.067-30.72-34.133-47.787-47.787 0 0 0 0 0 0-17.067-17.067-13.653-34.133-10.24-44.373 0 0 0 0 0-3.413 13.653-34.133 34.133-64.853 64.853-102.4v0c54.613-68.267 112.64-119.467 174.080-160.427 6.827-3.413 17.067-10.24 23.893-13.653s13.653-6.827 20.48-10.24c0 0 0 0 3.413 0 6.827-3.413 13.653-3.413 20.48-3.413 17.067 0 27.307 10.24 30.72 13.653l68.267 68.267c6.827 6.827 17.067 13.653 30.72 13.653s23.893-6.827 27.307-13.653c0 0 0 0 0 0l109.227-109.227c20.48-20.48 20.48-40.96 0-61.44 0 0 0 0 0 0s0 0 0 0c-6.827-6.827-17.067-17.067-23.893-23.893-13.653-13.653-27.307-23.893-37.547-40.96-20.48-20.48-44.373-30.72-75.093-30.72-3.413 0-6.827 0-10.24 0-58.027 3.413-112.64 27.307-153.6 44.373-112.64 54.613-208.213 129.707-290.133 228.693-68.267 81.92-112.64 157.013-139.947 235.52-20.48 47.787-27.307 88.747-23.893 122.88 3.413 23.893 10.24 40.96 27.307 58.027l68.267 68.267c6.827 10.24 17.067 13.653 27.307 13.653zM252.587 891.733c-17.067 0-44.373-6.827-68.267-30.72l-68.267-68.267c-27.307-23.893-40.96-58.027-44.373-92.16-3.413-47.787 3.413-92.16 23.893-150.187 30.72-85.333 78.507-167.253 150.187-252.587 85.333-102.4 191.147-184.32 310.613-242.347 44.373-20.48 105.813-47.787 174.080-51.2 3.413 0 6.827 0 13.653 0 47.787 0 85.333 17.067 116.053 51.2 13.653 13.653 23.893 27.307 34.133 37.547l3.413 3.413c0 0 3.413 3.413 3.413 3.413v0l10.24 10.24c3.413 3.413 6.827 6.827 6.827 10.24 40.96 44.373 40.96 98.987 0 143.36l-109.227 109.227c-17.067 20.48-44.373 30.72-68.267 30.72s-51.2-10.24-71.68-30.72l-54.613-64.853c-3.413 3.413-6.827 3.413-13.653 6.827s-13.653 6.827-20.48 10.24c-58.027 37.547-109.227 85.333-160.427 146.773v0c-23.893 30.72-37.547 54.613-51.2 78.507 17.067 13.653 30.72 27.307 44.373 44.373 3.413 3.413 6.827 6.827 10.24 10.24l6.827 6.827c20.48 20.48 34.133 44.373 34.133 71.68s-10.24 51.2-34.133 71.68l-64.853 64.853-6.827 3.413c-13.653 13.653-23.893 23.893-37.547 37.547-17.067 20.48-40.96 30.72-68.267 30.72v0z" />
<glyph unicode="&#xe98a;" glyph-name="mali_line" d="M921.6 731.307v-566.613h-819.2v566.613h819.2zM955.733 765.44h-887.467v-634.88h887.467v634.88zM856.747 731.307l-344.747-273.067-344.747 273.067h689.493zM955.733 765.44h-887.467l443.733-351.573 443.733 351.573z" />
<glyph unicode="&#xe98b;" glyph-name="phone" d="M788.48 69.12v238.933c0 10.24-6.827 17.067-17.067 17.067s-17.067-6.827-17.067-17.067v-238.933c0-17.067-13.653-30.72-30.72-30.72h-423.253c-13.653 0-27.307 13.653-27.307 30.72v757.76c0 17.067 13.653 30.72 30.72 30.72h419.84c17.067 0 30.72-13.653 30.72-30.72v-515.413c0-10.24 6.827-17.067 17.067-17.067s17.067 6.827 17.067 17.067v515.413c0 37.547-30.72 64.853-64.853 64.853h-423.253c-34.133 0-64.853-30.72-64.853-64.853v-757.76c0-37.547 30.72-64.853 64.853-64.853h419.84c37.547 0 68.267 30.72 68.267 64.853zM566.613 178.347h-109.227c-10.24 0-17.067-6.827-17.067-17.067s6.827-17.067 17.067-17.067h109.227c10.24 0 17.067 6.827 17.067 17.067s-6.827 17.067-17.067 17.067z" />
<glyph unicode="&#xe98c;" glyph-name="cart" d="M778.24 181.76c-47.787 0-88.747-40.96-88.747-88.747s40.96-88.747 88.747-88.747c47.787 0 88.747 40.96 88.747 88.747s-40.96 88.747-88.747 88.747zM68.267 891.733v-88.747h88.747l160.427-337.92-61.44-109.227c-6.827-13.653-10.24-27.307-10.24-40.96 0-47.787 40.96-88.747 88.747-88.747h532.48v88.747h-515.413c-6.827 0-10.24 3.413-10.24 10.24 0 3.413 0 3.413 0 6.827l40.96 71.68h331.093c34.133 0 61.44 17.067 78.507 44.373l160.427 286.72c0 10.24 3.413 17.067 3.413 23.893 0 23.893-20.48 44.373-44.373 44.373h-655.36l-40.96 88.747zM334.507 181.76c-47.787 0-88.747-40.96-88.747-88.747s40.96-88.747 88.747-88.747 88.747 40.96 88.747 88.747c0 47.787-40.96 88.747-88.747 88.747z" />
<glyph unicode="&#xe98d;" glyph-name="mail_setting" d="M866.987 714.24c20.48 0 37.547-17.067 37.547-37.547v-457.387c0-20.48-17.067-37.547-37.547-37.547h-709.973c-20.48 0-37.547 17.067-37.547 37.547v457.387c0 20.48 17.067 37.547 37.547 37.547h709.973zM866.987 765.44h-709.973c-47.787 0-88.747-40.96-88.747-88.747v-457.387c0-47.787 40.96-88.747 88.747-88.747h709.973c47.787 0 88.747 40.96 88.747 88.747v457.387c0 47.787-40.96 88.747-88.747 88.747v0zM515.413 386.56c-20.48 0-40.96 6.827-58.027 20.48 0 0-324.267 252.587-334.507 262.827-20.48 17.067 6.827 58.027 30.72 40.96 17.067-13.653 334.507-262.827 334.507-262.827 17.067-13.653 37.547-13.653 51.2 0 0 0 317.44 245.76 334.507 259.413 20.48 17.067 44.373-30.72 30.72-40.96s-331.093-259.413-331.093-259.413c-17.067-13.653-37.547-20.48-58.027-20.48z" />
<glyph unicode="&#xe98e;" glyph-name="me" d="M583.68 799.573c10.24 0 17.067-6.827 17.067-17.067v-136.533c0-10.24-6.827-17.067-17.067-17.067h-136.533c-10.24 0-17.067 6.827-17.067 17.067v136.533c0 10.24 6.827 17.067 17.067 17.067h136.533zM583.68 850.773h-136.533c-37.547 0-68.267-30.72-68.267-68.267v-136.533c0-37.547 30.72-68.267 68.267-68.267h136.533c37.547 0 68.267 30.72 68.267 68.267v136.533c0 37.547-30.72 68.267-68.267 68.267v0zM682.667 437.76c0 0 3.413-3.413 3.413-6.827 6.827-13.653 37.547-109.227 61.44-180.907 13.653-44.373 27.307-85.333 34.133-105.813 3.413-6.827 3.413-13.653-3.413-23.893-6.827-13.653-23.893-20.48-40.96-20.48h-481.28c-3.413 0-6.827 3.413-10.24 6.827-6.827 10.24-6.827 37.547-3.413 44.373s13.653 37.547 23.893 71.68c27.307 71.68 58.027 163.84 68.267 194.56 3.413 10.24 13.653 17.067 20.48 20.48h327.68zM686.080 488.96h-341.333c0 0-47.787-10.24-61.44-54.613-13.653-47.787-85.333-238.933-92.16-266.24s-10.24-109.227 58.027-122.88h488.107c34.133 0 68.267 17.067 85.333 47.787 10.24 17.067 13.653 40.96 6.827 64.853-20.48 64.853-88.747 266.24-95.573 290.133s-27.307 40.96-47.787 40.96v0z" />
<glyph unicode="&#xe98f;" glyph-name="sign" d="M320.853 236.373c-44.373 0-88.747 13.653-129.707 37.547-3.413 0-3.413 3.413-3.413 3.413-3.413 3.413-78.507 75.093-44.373 218.453 37.547 150.187 252.587 378.88 699.733 378.88 20.48 0 40.96 0 64.853 0 13.653 0 23.893-10.24 23.893-23.893s-6.827-23.893-17.067-27.307h-6.827c-105.813-58.027-208.213-269.653-208.213-269.653-3.413-6.827-6.827-10.24-13.653-13.653l-126.293-51.2 61.44-23.893c6.827-3.413 13.653-10.24 13.653-17.067 3.413-6.827 0-17.067-3.413-20.48-3.413-10.24-136.533-191.147-310.613-191.147zM221.867 314.88c34.133-17.067 68.267-27.307 102.4-27.307 112.64 0 208.213 95.573 249.173 139.947l-88.747 34.133c-10.24 3.413-17.067 13.653-17.067 23.893s6.827 20.48 17.067 23.893l174.080 68.267c17.067 34.133 85.333 163.84 167.253 242.347-450.56-6.827-607.573-245.76-631.467-341.333-27.307-95.573 17.067-150.187 27.307-163.84zM143.36 21.333l-51.2 6.827c3.413 20.48 78.507 508.587 464.213 696.32l23.893-44.373c-361.813-177.493-433.493-651.947-436.907-658.773z" />
<glyph unicode="&#xe990;" glyph-name="templet" d="M651.947 4.267h-477.867c-30.72 0-58.027 27.307-58.027 58.027v771.413c0 30.72 27.307 58.027 58.027 58.027h675.84c30.72 0 58.027-27.307 58.027-58.027v-576.853l-256-252.587zM177.493 843.947c-6.827 0-10.24-6.827-10.24-10.24v-771.413c0-3.413 3.413-10.24 10.24-10.24h460.8l225.28 225.28v556.373c0 3.413-3.413 10.24-10.24 10.24h-675.84zM655.36 34.987c-13.653 0-27.307-13.653-27.307 3.413v242.347h249.173c13.653 0-6.827-10.24-6.827-27.307s10.24-27.307-6.827-27.307h-191.147v-167.253c10.24-10.24-3.413-23.893-17.067-23.893zM733.867 622.080h-450.56c-13.653 0-27.307 10.24-27.307 27.307s10.24 27.307 27.307 27.307h450.56c13.653 0 27.307-10.24 27.307-27.307s-13.653-27.307-27.307-27.307zM508.587 434.347h-225.28c-13.653 0-27.307 10.24-27.307 27.307s10.24 27.307 27.307 27.307h225.28c13.653 0 27.307-10.24 27.307-27.307s-13.653-27.307-27.307-27.307z" />
<glyph unicode="&#xe991;" glyph-name="class_setting" d="M897.707 168.107v-102.4h-204.8v102.4h204.8zM914.773 219.307h-238.933c-20.48 0-34.133-17.067-34.133-34.133v-136.533c0-20.48 17.067-34.133 34.133-34.133h238.933c20.48 0 34.133 17.067 34.133 34.133v136.533c0 17.067-13.653 34.133-34.133 34.133v0zM296.96 830.293v-102.4h-170.667v102.4h170.667zM314.027 881.493h-204.8c-20.48 0-34.133-17.067-34.133-34.133v-136.533c0-20.48 17.067-34.133 34.133-34.133h204.8c20.48 0 34.133 17.067 34.133 34.133v136.533c0 17.067-17.067 34.133-34.133 34.133v0zM897.707 499.2v-102.4h-204.8v102.4h204.8zM914.773 550.4h-238.933c-20.48 0-34.133-17.067-34.133-34.133v-136.533c0-20.48 17.067-34.133 34.133-34.133h238.933c20.48 0 34.133 17.067 34.133 34.133v136.533c0 17.067-13.653 34.133-34.133 34.133v0zM211.627 103.253c-13.653 0-27.307 10.24-27.307 27.307v474.453c0 13.653 10.24 27.307 27.307 27.307s27.307-10.24 27.307-27.307v-474.453c-3.413-13.653-13.653-27.307-27.307-27.307zM559.787 420.693h-348.16c-13.653 0-27.307 10.24-27.307 27.307s10.24 27.307 27.307 27.307h348.16c13.653 0 27.307-10.24 27.307-27.307s-13.653-27.307-27.307-27.307zM559.787 89.6h-348.16c-13.653 0-27.307 10.24-27.307 27.307s13.653 23.893 27.307 23.893h348.16c13.653 0 27.307-10.24 27.307-27.307s-13.653-23.893-27.307-23.893z" />
<glyph unicode="&#xe992;" glyph-name="answer" d="M85.333 4.267v781.653c0 54.613 47.787 105.813 102.4 105.813h645.12c54.613 0 102.4-47.787 102.4-105.813v-484.693c0-54.613-47.787-102.4-102.4-102.4h-552.96l-194.56-194.56zM187.733 843.947c-30.72 0-54.613-27.307-54.613-61.44v-669.013l126.293 133.12h573.44c30.72 0 54.613 23.893 54.613 54.613v484.693c0 30.72-23.893 58.027-54.613 58.027h-645.12zM310.613 584.533h81.92v-81.92h-81.92v81.92zM471.040 584.533h81.92v-81.92h-81.92v81.92zM631.467 584.533h81.92v-81.92h-81.92v81.92z" />
<glyph unicode="&#xe993;" glyph-name="clock_line" d="M512 840.533c215.040 0 392.533-177.493 392.533-392.533s-177.493-392.533-392.533-392.533-392.533 177.493-392.533 392.533 177.493 392.533 392.533 392.533zM512 891.733c-245.76 0-443.733-197.973-443.733-443.733 0-242.347 197.973-443.733 443.733-443.733s443.733 197.973 443.733 443.733-197.973 443.733-443.733 443.733v0zM699.733 263.68l-232.107 139.947v266.24h64.853v-232.107l201.387-119.467z" />
<glyph unicode="&#xe994;" glyph-name="personal_line" d="M512 393.387c-146.773 0-443.733-75.093-443.733-221.867v-167.253h887.467v167.253c0 146.773-296.96 221.867-443.733 221.867zM512 891.733c-122.88 0-221.867-98.987-221.867-221.867s98.987-221.867 221.867-221.867 221.867 98.987 221.867 221.867-98.987 221.867-221.867 221.867zM512 287.573c163.84 0 337.92-81.92 337.92-116.053v-61.44h-675.84v61.44c0 34.133 170.667 116.053 337.92 116.053zM512 785.92c64.853 0 116.053-51.2 116.053-116.053v0c0-64.853-51.2-116.053-116.053-116.053v0c-64.853 0-116.053 51.2-116.053 116.053v0c0 64.853 51.2 116.053 116.053 116.053v0z" />
<glyph unicode="&#xe995;" glyph-name="view_line" d="M512 700.587c170.667 0 320.853-98.987 389.12-252.587-68.267-153.6-218.453-252.587-389.12-252.587s-320.853 98.987-389.12 252.587c68.267 153.6 218.453 252.587 389.12 252.587zM512 277.333c95.573 0 170.667 78.507 170.667 170.667s-78.507 170.667-170.667 170.667-170.667-78.507-170.667-170.667 75.093-170.667 170.667-170.667zM512 751.787c-201.387 0-375.467-126.293-443.733-303.787 68.267-177.493 242.347-303.787 443.733-303.787s375.467 126.293 443.733 303.787c-68.267 177.493-242.347 303.787-443.733 303.787v0zM512 328.533c-68.267 0-119.467 54.613-119.467 119.467s54.613 119.467 119.467 119.467 119.467-54.613 119.467-119.467-51.2-119.467-119.467-119.467v0z" />
<glyph unicode="&#xe996;" glyph-name="comemt" d="M378.88 4.267c-23.893 0-44.373 20.48-44.373 44.373v133.12h-177.493c-47.787 0-88.747 40.96-88.747 88.747v532.48c0 47.787 40.96 88.747 88.747 88.747h709.973c47.787 0 88.747-40.96 88.747-88.747v-532.48c0-47.787-40.96-88.747-88.747-88.747h-269.653l-163.84-163.84c-10.24-6.827-20.48-13.653-30.72-13.653v0h-23.893zM423.253 270.507v-136.533l136.533 136.533h307.2v532.48h-709.973v-532.48h266.24zM733.867 492.373h-88.747v88.747h88.747v-88.747zM556.373 492.373h-88.747v88.747h88.747v-88.747zM378.88 492.373h-88.747v88.747h88.747v-88.747z" />
<glyph unicode="&#xe997;" glyph-name="arrow_right_circle" d="M391.68 592.238l48.271 48.271 193.085-193.085-48.271-48.271-193.085 193.085zM439.228 254.758l-48.271 48.271 193.085 193.085 48.271-48.271-193.085-193.085zM512 4.267c-245.76 0-443.733 197.973-443.733 443.733s197.973 443.733 443.733 443.733 443.733-197.973 443.733-443.733-197.973-443.733-443.733-443.733zM512 826.88c-208.213 0-378.88-170.667-378.88-378.88s170.667-378.88 378.88-378.88 378.88 170.667 378.88 378.88-170.667 378.88-378.88 378.88z" />
<glyph unicode="&#xe998;" glyph-name="smile" d="M826.027 762.027c-174.080 174.080-453.973 174.080-628.053 0s-174.080-453.973 0-628.053c174.080-174.080 453.973-174.080 628.053 0s174.080 453.973 0 628.053zM778.24 181.76c-146.773-146.773-385.707-146.773-532.48 0s-146.773 385.707 0 532.48c146.773 146.773 385.707 146.773 532.48 0s146.773-385.707 0-532.48zM344.747 567.467c0 27.307 23.893 51.2 51.2 51.2s51.2-23.893 51.2-51.2c0-27.307-23.893-51.2-51.2-51.2s-51.2 23.893-51.2 51.2zM580.267 567.467c0 27.307 23.893 51.2 51.2 51.2s51.2-23.893 51.2-51.2c0-27.307-23.893-51.2-51.2-51.2s-51.2 23.893-51.2 51.2zM703.147 355.84c-30.72-75.093-105.813-122.88-191.147-122.88s-160.427 47.787-194.56 122.88c-6.827 13.653 0 27.307 13.653 34.133 3.413 0 6.827 3.413 10.24 3.413 10.24 0 20.48-6.827 23.893-17.067 23.893-54.613 81.92-92.16 146.773-92.16s122.88 37.547 146.773 92.16c6.827 13.653 20.48 17.067 34.133 13.653 10.24-6.827 17.067-20.48 10.24-34.133z" />
<glyph unicode="&#xe999;" glyph-name="t_save" d="M713.387 649.387v160.427h-402.773v-160.427h402.773zM593.92 246.613c68.267 0 119.467 54.613 119.467 119.467s-54.613 119.467-119.467 119.467-119.467-54.613-119.467-119.467 51.2-119.467 119.467-119.467zM795.307 891.733l160.427-160.427v-484.693c0-44.373-37.547-81.92-81.92-81.92h-563.2c-44.373 0-81.92 37.547-81.92 81.92v563.2c0 44.373 37.547 81.92 81.92 81.92h484.693zM68.267 649.387h81.92v-563.2h563.2v-81.92h-563.2c-44.373 0-81.92 37.547-81.92 81.92v563.2z" />
<glyph unicode="&#xe99a;" glyph-name="heart" d="M512 41.813l-64.853 58.027c-228.693 208.213-378.88 344.747-378.88 512 0 136.533 105.813 245.76 242.347 245.76 78.507 0 150.187-37.547 201.387-92.16 47.787 58.027 122.88 92.16 201.387 92.16 136.533 0 242.347-105.813 242.347-245.76 0-167.253-150.187-303.787-378.88-512l-64.853-58.027z" />
<glyph unicode="&#xe99b;" glyph-name="data" d="M180.907 4.267l-112.64 109.227v689.493c0 47.787 40.96 88.747 88.747 88.747h709.973c47.787 0 88.747-40.96 88.747-88.747v-709.973c0-47.787-40.96-88.747-88.747-88.747h-133.12v310.613c0 23.893-20.48 44.373-44.373 44.373h-399.36c-23.893 0-44.373-20.48-44.373-44.373v-310.613h-64.853zM201.387 802.987v-266.24c0-23.893 20.48-44.373 44.373-44.373h532.48c23.893 0 44.373 20.48 44.373 44.373v266.24h-621.227zM334.507 270.507h133.12v-177.493h-133.12v177.493zM866.987 802.987v-44.373h44.373v44.373h-44.373z" />
<glyph unicode="&#xe99c;" glyph-name="arrow_left_circle" d="M633.050 303.036l-48.271-48.271-193.085 193.085 48.271 48.271 193.085-193.085zM584.042 640.516l48.271-48.271-193.085-193.085-48.271 48.271 193.085 193.085zM512 891.733c245.76 0 443.733-197.973 443.733-443.733s-197.973-443.733-443.733-443.733-443.733 197.973-443.733 443.733 197.973 443.733 443.733 443.733zM512 69.12c208.213 0 378.88 170.667 378.88 378.88s-170.667 378.88-378.88 378.88-378.88-170.667-378.88-378.88 170.667-378.88 378.88-378.88z" />
<glyph unicode="&#xe99d;" glyph-name="recall" d="M587.093 663.040h-286.72l157.013 157.013-71.68 71.68-279.893-279.893 279.893-279.893 71.68 71.68-157.013 157.013h286.72c126.293 0 228.693-102.4 228.693-228.693s-102.4-228.693-228.693-228.693h-177.493v-102.4h177.493c180.907 0 331.093 146.773 331.093 331.093s-146.773 331.093-331.093 331.093zM208.213 4.267h102.4v102.4h-102.4v-102.4z" />
<glyph unicode="&#xe99e;" glyph-name="repetition" d="M955.733 540.16h-334.507l136.533 139.947c-133.12 133.12-351.573 136.533-488.107 3.413-133.12-133.12-133.12-348.16 0-484.693 133.12-133.12 351.573-133.12 488.107 0 68.267 68.267 98.987 143.36 98.987 242.347h98.987c0-98.987-44.373-225.28-129.707-310.613-174.080-170.667-453.973-170.667-628.053 0s-174.080 450.56 0 621.227 450.56 170.667 624.64 0l133.12 139.947v-351.573zM535.893 645.973v-208.213l174.080-102.4-34.133-58.027-211.627 126.293v242.347h71.68z" />
<glyph unicode="&#xe99f;" glyph-name="save_new" d="M873.813 246.613v361.813h-563.2v-361.813h563.2zM873.813 809.813c44.373 0 81.92-37.547 81.92-81.92v-484.693c0-44.373-37.547-81.92-81.92-81.92h-563.2c-44.373 0-81.92 37.547-81.92 81.92v488.107c0 44.373 37.547 81.92 81.92 81.92h40.96v78.507h81.92v-81.92h324.267v81.92h81.92v-81.92h34.133zM733.867 485.547l-177.493-177.493-109.227 105.813 44.373 44.373 64.853-64.853 136.533 136.533 40.96-44.373zM150.187 86.187h563.2v-81.92h-563.2c-44.373 0-81.92 37.547-81.92 81.92v481.28h81.92v-481.28z" />
<glyph unicode="&#xe9a0;" glyph-name="thumb" d="M68.267 495.787h395.947v395.947h-395.947zM68.267 4.267h395.947v395.947h-395.947zM559.787 4.267h395.947v395.947h-395.947zM559.787 891.733v-395.947h395.947v395.947z" />
<glyph unicode="&#xe9a1;" glyph-name="recall_all" d="M378.88 379.733v-307.2h-310.613v88.747h157.013c-68.267 75.093-112.64 177.493-112.64 290.133 0 232.107 187.733 423.253 423.253 423.253s419.84-194.56 419.84-426.667-187.733-423.253-423.253-423.253h-20.48v88.747h23.893c184.32 0 334.507 150.187 334.507 334.507s-153.6 331.093-337.92 331.093-331.093-146.773-331.093-331.093c0-88.747 34.133-167.253 88.747-225.28v157.013h88.747z" />
<glyph unicode="&#xe9a2;" glyph-name="board_img" d="M843.093 755.2h-177.493c0 34.133-58.027 133.12-133.12 133.12s-133.12-98.987-133.12-133.12h-177.493c-47.787 0-119.467-58.027-119.467-105.813v-576.853c0-47.787 71.68-68.267 119.467-68.267h621.227c47.787 0 78.507 17.067 78.507 68.267v576.853c0 47.787-27.307 105.813-78.507 105.813zM744.107 523.093c27.307 0 47.787-20.48 47.787-47.787s-20.48-47.787-47.787-47.787-47.787 20.48-47.787 47.787 20.48 47.787 47.787 47.787zM532.48 782.507c23.893 0 44.373-20.48 44.373-44.373s-20.48-44.373-44.373-44.373-44.373 20.48-44.373 44.373 20.48 44.373 44.373 44.373zM815.787 174.933h-563.2c-3.413 0-6.827-13.653-3.413-6.827l194.56 300.373c3.413 3.413 6.827 0 10.24-3.413l105.813-180.907c0-3.413 3.413-3.413 6.827-3.413l88.747 61.44c3.413 3.413 10.24 0 13.653-3.413l160.427-170.667c-6.827-6.827-6.827 6.827-13.653 6.827z" />
<glyph unicode="&#xe9a3;" glyph-name="board_normal" d="M378.88 758.613c0 75.093 58.027 133.12 133.12 133.12s133.12-58.027 133.12-133.12h177.493c47.787 0 88.747-40.96 88.747-88.747v-576.853c0-47.787-40.96-88.747-88.747-88.747h-621.227c-47.787 0-88.747 40.96-88.747 88.747v576.853c0 47.787 40.96 88.747 88.747 88.747h177.493zM512 802.987c-23.893 0-44.373-20.48-44.373-44.373s20.48-44.373 44.373-44.373 44.373 20.48 44.373 44.373-20.48 44.373-44.373 44.373z" />
<glyph unicode="&#xe9a4;" glyph-name="board_schedule" d="M836.267 86.187h-648.533v481.28h645.12zM672.427 891.733v-119.467h-324.267v119.467h-78.507v-119.467h-81.92c-44.373 0-81.92-37.547-81.92-81.92v-604.16c0-44.373 37.547-81.92 81.92-81.92h645.12c44.373 0 81.92 37.547 81.92 81.92v604.16c0 44.373-37.547 81.92-81.92 81.92h-81.92v119.467h-78.507zM730.453 427.52h-436.907v71.68h436.907zM730.453 287.573h-436.907v71.68h436.907zM597.333 144.213h-303.787v71.68h303.787z" />
<glyph unicode="&#xe9a5;" glyph-name="chart" d="M68.267 758.613h354.987v133.12h88.747v-887.467h-88.747v177.493h-177.493v133.12h177.493v88.747h-266.24v133.12h266.24v88.747h-354.987v133.12zM600.747 758.613h133.12v-133.12h-133.12v133.12zM600.747 536.747h221.867v-133.12h-221.867v133.12zM600.747 314.88h354.987v-133.12h-354.987v133.12z" />
<glyph unicode="&#xe9a6;" glyph-name="claender" d="M839.68 75.947h-655.36v505.173h655.36zM689.493 891.733v-88.747h-354.987v88.747h-71.68v-88.747h-61.44c-47.787 0-88.747-40.96-88.747-88.747v-621.227c0-47.787 40.96-88.747 88.747-88.747h621.227c47.787 0 88.747 40.96 88.747 88.747v621.227c0 47.787-40.96 88.747-88.747 88.747h-61.44v88.747z" />
<glyph unicode="&#xe9a7;" glyph-name="commu_list" d="M283.307 782.507h672.427v-95.573h-672.427v95.573zM283.307 400.213v95.573h672.427v-95.573h-672.427zM139.947 806.4c40.96 0 71.68-30.72 71.68-71.68s-30.72-71.68-71.68-71.68-71.68 34.133-71.68 71.68 30.72 71.68 71.68 71.68zM139.947 519.68c40.96 0 71.68-30.72 71.68-71.68s-30.72-71.68-71.68-71.68-71.68 30.72-71.68 71.68 30.72 71.68 71.68 71.68zM283.307 113.493v95.573h672.427v-95.573h-672.427zM139.947 232.96c40.96 0 71.68-30.72 71.68-71.68s-30.72-71.68-71.68-71.68-71.68 30.72-71.68 71.68 30.72 71.68 71.68 71.68z" />
<glyph unicode="&#xe9a8;" glyph-name="group_add" d="M549.547 393.387c-75.093 0-221.867-37.547-221.867-112.64v-71.68h443.733v75.093c0 71.68-146.773 109.227-221.867 109.227zM795.307 386.56c30.72-27.307 51.2-61.44 51.2-105.813v-71.68h109.227v75.093c0 54.613-88.747 88.747-160.427 102.4zM549.547 465.067c61.44 0 112.64 51.2 112.64 112.64s-51.2 109.227-112.64 109.227-112.64-51.2-112.64-112.64 51.2-109.227 112.64-109.227zM733.867 465.067c61.44 0 112.64 51.2 112.64 112.64s-51.2 109.227-112.64 109.227c-10.24 0-23.893-3.413-34.133-6.827 20.48-30.72 34.133-68.267 34.133-105.813s-13.653-75.093-34.133-105.813c10.24 0 23.893-3.413 34.133-3.413zM365.227 502.613h-112.64v112.64h-71.68v-112.64h-112.64v-75.093h112.64v-112.64h75.093v112.64h112.64v75.093z" />
<glyph unicode="&#xe9a9;" glyph-name="invitation" d="M549.547 393.387c-75.093 0-221.867-37.547-221.867-112.64v-71.68h443.733v75.093c0 71.68-146.773 109.227-221.867 109.227zM795.307 386.56c30.72-27.307 51.2-61.44 51.2-105.813v-71.68h109.227v75.093c0 54.613-88.747 88.747-160.427 102.4zM549.547 465.067c61.44 0 112.64 51.2 112.64 112.64s-51.2 109.227-112.64 109.227-112.64-51.2-112.64-112.64 51.2-109.227 112.64-109.227zM733.867 465.067c61.44 0 112.64 51.2 112.64 112.64s-51.2 109.227-112.64 109.227c-10.24 0-23.893-3.413-34.133-6.827 20.48-30.72 34.133-64.853 34.133-105.813s-13.653-75.093-34.133-105.813c10.24 0 23.893-3.413 34.133-3.413zM187.733 591.36v-81.92h116.053v81.92l119.467-119.467-119.467-119.467v81.92h-116.053v-81.92l-119.467 119.467z" />
<glyph unicode="&#xe9aa;" glyph-name="join" d="M675.84 376.32c-92.16 0-279.893-47.787-279.893-139.947v-92.16h559.787v92.16c0 95.573-187.733 139.947-279.893 139.947zM675.84 471.893c78.507 0 139.947 61.44 139.947 139.947s-61.44 139.947-139.947 139.947-139.947-61.44-139.947-139.947 61.44-139.947 139.947-139.947zM440.32 519.68h-139.947v139.947h-92.16v-139.947h-139.947v-92.16h139.947v-139.947h92.16v139.947h139.947v92.16z" />
<glyph unicode="&#xe9ab;" glyph-name="join_docu" d="M484.693 499.2c-10.24-37.547-27.307-75.093-51.2-119.467-10.24-17.067-20.48-37.547-23.893-51.2l6.827 3.413c61.44 23.893 122.88 37.547 163.84 44.373-6.827 3.413-13.653 10.24-20.48 17.067-30.72 27.307-54.613 61.44-75.093 105.813zM802.133 311.467c-6.827-10.24-23.893-13.653-44.373-13.653-37.547 0-98.987 10.24-146.773 37.547-85.333-10.24-146.773-20.48-197.973-37.547-3.413 0-6.827-3.413-10.24-3.413-61.44-105.813-105.813-153.6-146.773-153.6-6.827 0-17.067 3.413-20.48 6.827l-23.893 13.653v3.413c-6.827 10.24-6.827 17.067-3.413 27.307 6.827 27.307 34.133 68.267 92.16 105.813 10.24 6.827 23.893 13.653 44.373 23.893 13.653 27.307 30.72 54.613 47.787 88.747 23.893 51.2 40.96 102.4 54.613 143.36v0c-17.067 58.027-30.72 95.573-10.24 160.427 0 20.48 17.067 40.96 34.133 40.96h10.24c10.24 0 23.893-3.413 30.72-10.24 34.133-34.133 17.067-112.64 0-177.493 0-3.413 0-6.827-3.413-6.827 20.48-54.613 47.787-98.987 78.507-126.293 13.653-10.24 27.307-20.48 44.373-27.307 20.48 3.413 44.373 3.413 64.853 3.413 61.44 0 98.987-10.24 112.64-34.133 3.413-6.827 6.827-17.067 6.827-27.307 0-17.067-3.413-27.307-13.653-37.547zM856.747 891.733h-689.493c-54.613 0-98.987-44.373-98.987-98.987v-689.493c0-54.613 44.373-98.987 98.987-98.987h689.493c54.613 0 98.987 44.373 98.987 98.987v689.493c0 54.613-44.373 98.987-98.987 98.987zM781.653 349.013c-3.413 3.413-23.893 17.067-92.16 17.067-3.413 0-6.827 0-10.24-3.413 37.547-17.067 71.68-23.893 92.16-23.893 3.413 0 6.827 0 10.24 0h3.413c3.413 0 3.413 0 3.413 6.827-3.413-3.413-3.413 0-6.827 3.413zM331.093 273.92c-10.24-6.827-17.067-10.24-23.893-13.653-34.133-30.72-58.027-64.853-58.027-81.92 20.48 6.827 51.2 37.547 81.92 95.573zM481.28 615.253v0c6.827 17.067 6.827 30.72 10.24 40.96v6.827c3.413 27.307 3.413 40.96-3.413 54.613l-6.827 3.413c-3.413 0-3.413-3.413-3.413-3.413-10.24-20.48-10.24-58.027 3.413-102.4z" />
<glyph unicode="&#xe9ac;" glyph-name="profile" d="M378.88 458.24c-30.72 0-54.613-23.893-54.613-54.613s23.893-54.613 54.613-54.613c30.72 0 54.613 23.893 54.613 54.613s-23.893 54.613-54.613 54.613zM645.12 458.24c-30.72 0-54.613-23.893-54.613-54.613s23.893-54.613 54.613-54.613 54.613 23.893 54.613 54.613c0 30.72-23.893 54.613-54.613 54.613zM512 891.733c-245.76 0-443.733-197.973-443.733-443.733s197.973-443.733 443.733-443.733 443.733 197.973 443.733 443.733-197.973 443.733-443.733 443.733zM512 93.013c-194.56 0-354.987 160.427-354.987 354.987 0 13.653 0 27.307 3.413 37.547 105.813 47.787 187.733 133.12 232.107 238.933 81.92-112.64 211.627-187.733 361.813-187.733 34.133 0 68.267 3.413 98.987 10.24 10.24-30.72 13.653-64.853 13.653-98.987 0-194.56-160.427-354.987-354.987-354.987z" />
<glyph unicode="&#xe9ad;" glyph-name="notice" d="M723.627 424.107v-187.733c0-27.307-20.48-47.787-47.787-47.787-6.827 0-17.067 0-44.373 23.893s-78.507 71.68-129.707 92.16c-47.787 20.48-95.573 23.893-143.36 23.893l58.027-153.6v-6.827c0-13.653-10.24-23.893-23.893-23.893h-92.16c-10.24 0-20.48 6.827-20.48 17.067l-61.44 170.667h-10.24c-27.307 0-47.787 20.48-47.787 47.787-51.2 0-92.16 40.96-92.16 92.16s40.96 92.16 92.16 92.16c0 27.307 20.48 47.787 47.787 47.787h139.947c51.2 0 102.4 0 153.6 23.893s98.987 71.68 129.707 92.16c27.307 23.893 37.547 23.893 44.373 23.893 27.307 0 47.787-20.48 47.787-47.787v-187.733c27.307 0 47.787-20.48 47.787-47.787-3.413-23.893-23.893-44.373-47.787-44.373zM955.733 471.893c0-64.853-27.307-122.88-68.267-163.84l-64.853 64.853c23.893 23.893 40.96 61.44 40.96 98.987s-17.067 75.093-40.96 98.987l64.853 64.853c40.96-40.96 68.267-98.987 68.267-163.84z" />
<glyph unicode="&#xe9ae;" glyph-name="floder_filled" d="M423.253 802.987h-266.24c-47.787 0-88.747-40.96-88.747-88.747v-532.48c0-47.787 40.96-88.747 88.747-88.747h709.973c47.787 0 88.747 40.96 88.747 88.747v443.733c0 47.787-40.96 88.747-88.747 88.747h-354.987l-88.747 88.747z" />
<glyph unicode="&#xe9af;" glyph-name="todo_list" d="M580.267 140.8h375.467v-68.267h-375.467v68.267zM580.267 482.133h375.467v-68.267h-375.467v68.267zM580.267 311.467h375.467v-68.267h-375.467v68.267zM443.733 345.6h-307.2v273.067h375.467v-34.133h68.267v126.293c0 30.72-30.72 44.373-61.44 44.373h-40.96v68.267h-34.133v-68.267h-238.933v68.267h-68.267v-68.267h-13.653c-30.72 0-54.613-20.48-54.613-51.2v-382.293c0-30.72 23.893-44.373 54.613-44.373h320.853v68.267zM221.867 492.373l-30.72-30.72 92.16-88.747 167.253 167.253-30.72 30.72-136.533-136.533z" />
<glyph unicode="&#xe9b0;" glyph-name="user_line" d="M512 393.387c-146.773 0-443.733-75.093-443.733-221.867v-167.253h887.467v167.253c0 146.773-296.96 221.867-443.733 221.867zM512 891.733c-122.88 0-221.867-98.987-221.867-221.867s98.987-221.867 221.867-221.867 221.867 98.987 221.867 221.867-98.987 221.867-221.867 221.867zM512 287.573c163.84 0 337.92-81.92 337.92-116.053v-61.44h-675.84v61.44c0 34.133 170.667 116.053 337.92 116.053zM512 785.92c64.853 0 116.053-51.2 116.053-116.053v0c0-64.853-51.2-116.053-116.053-116.053v0c-64.853 0-116.053 51.2-116.053 116.053v0c0 64.853 51.2 116.053 116.053 116.053v0z" />
<glyph unicode="&#xe9b1;" glyph-name="board_data" d="M293.547 147.627c17.067 6.827 40.96 34.133 68.267 81.92l-20.48-13.653c-27.307-27.307-44.373-54.613-47.787-68.267zM488.107 512.853l6.827 34.133v6.827c3.413 20.48 3.413 34.133-3.413 44.373l-6.827 3.413-3.413-3.413c-6.827-20.48-6.827-51.2 6.827-85.333v0zM658.773 301.227c-3.413 0-6.827 0-10.24-3.413 30.72-13.653 58.027-20.48 78.507-20.48h6.827c3.413 0 3.413 0 3.413 6.827l-3.413 3.413c0 3.413-17.067 13.653-75.093 13.653zM488.107 413.867c-10.24-30.72-23.893-61.44-40.96-98.987l-20.48-40.96h3.413c51.2 20.48 102.4 30.72 136.533 37.547l-17.067 13.653c-23.893 20.48-44.373 51.2-61.44 88.747zM822.613 755.2h-177.493c0 102.4-58.027 133.12-133.12 133.12s-133.12-30.72-133.12-133.12h-177.493c-47.787 0-98.987-27.307-98.987-75.093v-576.853c0-47.787 51.2-98.987 98.987-98.987h621.227c47.787 0 98.987 51.2 98.987 98.987v576.853c0 47.787-51.2 75.093-98.987 75.093zM512 813.227c23.893 0 44.373-20.48 44.373-44.373s-20.48-44.373-44.373-44.373-44.373 20.48-44.373 44.373 20.48 44.373 44.373 44.373zM754.347 256.853c-6.827-6.827-20.48-13.653-37.547-13.653-30.72 0-81.92 10.24-122.88 30.72-71.68-6.827-122.88-17.067-163.84-30.72h-6.827c-51.2-85.333-88.747-126.293-119.467-126.293l-17.067 3.413-20.48 13.653v3.413c-3.413 6.827-3.413 13.653-3.413 20.48 3.413 20.48 27.307 54.613 75.093 85.333l37.547 20.48 51.2 75.093c17.067 40.96 51.2 81.92 51.2 119.467v0c-40.96 64.853-34.133 75.093-20.48 129.707 3.413 17.067 6.827 30.72 20.48 30.72h10.24c10.24 0 17.067 0 23.893-6.827 27.307-27.307 13.653-92.16 0-146.773v-3.413c17.067-44.373 40.96-81.92 64.853-102.4l34.133-23.893 51.2 3.413c51.2 0 81.92-10.24 92.16-27.307 3.413-6.827 6.827-13.653 3.413-23.893 6.827-13.653 3.413-20.48-3.413-30.72z" />
<glyph unicode="&#xe9b2;" glyph-name="period" d="M836.267 86.187h-648.533v481.28h645.12zM672.427 891.733v-119.467h-324.267v119.467h-78.507v-119.467h-81.92c-44.373 0-81.92-37.547-81.92-81.92v-604.16c0-44.373 37.547-81.92 81.92-81.92h645.12c44.373 0 81.92 37.547 81.92 81.92v604.16c0 44.373-37.547 81.92-81.92 81.92h-81.92v119.467h-78.507zM310.613 448h81.92v-81.92h-81.92v81.92zM471.040 448h81.92v-81.92h-81.92v81.92zM631.467 448h81.92v-81.92h-81.92v81.92zM310.613 287.573h81.92v-81.92h-81.92v81.92zM471.040 287.573h81.92v-81.92h-81.92v81.92zM631.467 287.573h81.92v-81.92h-81.92v81.92z" />
<glyph unicode="&#xe9b3;" glyph-name="search_part" d="M703.147 335.36l252.587-252.587-75.093-78.507-252.587 252.587v40.96l-17.067 13.653c-58.027-51.2-133.12-78.507-215.040-78.507-180.907 0-327.68 146.773-327.68 327.68s146.773 331.093 331.093 331.093 331.093-146.773 331.093-331.093c0-81.92-30.72-157.013-78.507-215.040l13.653-13.653h37.547zM399.36 816.64h-27.307c-13.653-27.307-34.133-75.093-47.787-126.293h143.36c-13.653 54.613-34.133 98.987-44.373 126.293-6.827 0-17.067 0-23.893 0zM617.813 690.347c-30.72 51.2-78.507 92.16-136.533 112.64 13.653-27.307 27.307-64.853 40.96-112.64h95.573zM177.493 690.347h95.573c10.24 47.787 27.307 85.333 40.96 112.64-58.027-20.48-105.813-61.44-136.533-112.64zM143.36 560.64c0-23.893 3.413-51.2 10.24-75.093h109.227l-6.827 75.093 6.827 75.093h-105.813c-10.24-20.48-13.653-47.787-13.653-75.093zM638.293 485.547c6.827 23.893 10.24 51.2 10.24 75.093s-3.413 51.2-10.24 75.093h-109.227c3.413-23.893 6.827-51.2 6.827-75.093s-3.413-51.2-6.827-75.093h109.227zM314.027 639.147l-6.827-75.093 6.827-75.093h163.84c3.413 23.893 6.827 51.2 6.827 75.093s-3.413 51.2-6.827 75.093h-163.84zM399.36 308.053c10.24 0 17.067 0 27.307 0 13.653 27.307 30.72 71.68 44.373 126.293h-146.773c13.653-54.613 34.133-98.987 44.373-126.293h30.72zM617.813 434.347h-95.573c-10.24-47.787-27.307-85.333-40.96-112.64 58.027 20.48 105.813 61.44 136.533 112.64zM177.493 434.347c30.72-51.2 78.507-92.16 136.533-112.64-13.653 27.307-27.307 64.853-40.96 112.64h-95.573z" />
<glyph unicode="&#xe9b4;" glyph-name="type" d="M761.173 533.333h-88.747l-194.56-522.24h88.747l47.787 129.707h204.8l47.787-129.707h88.747l-194.56 522.24zM645.12 229.547l71.68 187.733 71.68-187.733h-143.36zM460.8 884.907h-119.467l-273.067-727.040h122.88l68.267 180.907h286.72l3.413-10.24 61.44 160.427-150.187 395.947zM303.787 458.24l98.987 262.827 98.987-262.827h-197.973z" />
<glyph unicode="&#xe9b5;" glyph-name="area" d="M955.733 495.787h-395.947v395.947c218.453 0 395.947-177.493 395.947-395.947zM856.747 400.213c0-136.533-71.68-259.413-177.493-327.68l-191.147 327.68h368.64zM464.213 4.267c-136.533 0-259.413 71.68-327.68 177.493l320.853 184.32 184.32-320.853c-54.613-27.307-116.053-40.96-177.493-40.96zM68.267 400.213c0 215.040 177.493 392.533 395.947 392.533v-365.227l-354.987-204.8c-27.307 51.2-40.96 112.64-40.96 177.493z" />
<glyph unicode="&#xe9b6;" glyph-name="export" d="M238.933 236.373l-170.667 126.293 170.667 126.293v-75.093h307.2v136.533h-68.267v102.4h85.333c47.787 0 85.333-23.893 85.333-71.68v-174.080c0-47.787-64.853-95.573-109.227-95.573h-300.373v-75.093zM897.707 823.467h-464.213c-47.787 0-92.16-34.133-92.16-78.507v-262.827h68.267v273.067h477.867v-614.4h-477.867v102.4h-68.267v-92.16c0-47.787 44.373-78.507 92.16-78.507h464.213c47.787 0 58.027 34.133 58.027 78.507v593.92c0 44.373-10.24 78.507-58.027 78.507z" />
</font>
</defs>
</svg>
