<svg xmlns="http://www.w3.org/2000/svg" width="41" height="16" viewBox="0 0 41 16"><defs><style>.a{fill:#aaa;}</style></defs><g transform="translate(-635.173 -936.716)"><g transform="translate(655.624 939.887)"><path class="a" d="M673.744,943.145h3.331a4.214,4.214,0,0,1,1.369.2,2.658,2.658,0,0,1,.962.557,2.227,2.227,0,0,1,.568.847,2.953,2.953,0,0,1,.187,1.061v.272a2.838,2.838,0,0,1-.2,1.068,2.5,2.5,0,0,1-.587.874,2.8,2.8,0,0,1-.962.6,3.731,3.731,0,0,1-1.336.22h-2.052v3.636h-1.281Zm1.281,1.113v3.468h1.838q2.018,0,2.019-1.669v-.233a1.415,1.415,0,0,0-.486-1.184,2.21,2.21,0,0,0-1.391-.382Z" transform="translate(-673.744 -943.145)"/><path class="a" d="M689.625,954.356a2.549,2.549,0,0,1-1.7-.53,1.813,1.813,0,0,1-.628-1.462v-.349a1.93,1.93,0,0,1,.608-1.475,2.822,2.822,0,0,1,1.967-.569h1.8v-.414a1.441,1.441,0,0,0-.343-1.055,1.54,1.54,0,0,0-1.12-.343,2.758,2.758,0,0,0-1.08.194,6,6,0,0,0-.951.518l-.621-.932a5.976,5.976,0,0,1,1.165-.628,3.937,3.937,0,0,1,1.5-.266,3.751,3.751,0,0,1,1.087.149,2.441,2.441,0,0,1,.847.44,2.049,2.049,0,0,1,.557.712,2.188,2.188,0,0,1,.2.951v4.956h-1.2V953.4h-.013a1.353,1.353,0,0,1-.278.356,2.033,2.033,0,0,1-.382.278,2.641,2.641,0,0,1-.615.239A3.257,3.257,0,0,1,689.625,954.356Zm2.045-3.326H689.9a1.565,1.565,0,0,0-1.054.285,1.006,1.006,0,0,0-.317.789v.181a.826.826,0,0,0,.362.751,1.572,1.572,0,0,0,.867.233,2.652,2.652,0,0,0,.809-.11,2.022,2.022,0,0,0,.628-.33,1.124,1.124,0,0,0,.369-.446,1.659,1.659,0,0,0,.11-.654Z" transform="translate(-679.92 -944.922)"/><path class="a" d="M702.9,952.938l1.863-5.656h1.32l-3.675,10-1.138-.4.919-2.42-2.575-7.182h1.359l1.877,5.656Z" transform="translate(-685.533 -945.03)"/></g><path class="a" d="M635.173,936.716v16H651.5v-16Zm12.245,11.662h-2.783L642,944.587v3.792h-2.746v-7.324h2.785l2.634,3.791v-3.791h2.745Z"/></g></svg>