<svg xmlns="http://www.w3.org/2000/svg" width="53" height="12" viewBox="0 0 53 12"><defs><style>.a{fill:#aaa;}</style></defs><g transform="translate(-904.8 -493.786)"><path class="a" d="M904.8,495.483a1.27,1.27,0,0,1,1.283-1.276h3.484c2.783,0,4.467,1.641,4.467,4.011v.033c0,2.685-2.1,4.078-4.717,4.078h-1.95v2.4a1.283,1.283,0,0,1-2.567,0Zm4.6,4.575a1.8,1.8,0,0,0,2.033-1.757v-.034c0-1.144-.8-1.757-2.083-1.757h-1.983v3.547Z" transform="translate(0 -0.322)"/><path class="a" d="M941.462,504l4.066-9.133a1.587,1.587,0,0,1,1.5-1.011h.15a1.564,1.564,0,0,1,1.483,1.011L952.729,504a1.241,1.241,0,0,1,.133.514,1.213,1.213,0,0,1-1.217,1.226,1.307,1.307,0,0,1-1.234-.878l-.783-1.823H944.5l-.817,1.906a1.261,1.261,0,0,1-1.184.8,1.178,1.178,0,0,1-1.183-1.193A1.347,1.347,0,0,1,941.462,504Zm7.216-3.216-1.616-3.829-1.617,3.829Z" transform="translate(-27.904 -0.053)"/><path class="a" d="M988.25,501.38l-3.766-5.089a1.505,1.505,0,0,1-.317-.912,1.25,1.25,0,0,1,1.283-1.226,1.478,1.478,0,0,1,1.267.779l2.833,4.061,2.883-4.094a1.472,1.472,0,0,1,1.233-.762,1.186,1.186,0,0,1,1.25,1.243,1.582,1.582,0,0,1-.334.9l-3.767,5.055v3.348a1.283,1.283,0,0,1-2.567,0Z" transform="translate(-60.653 -0.268)"/><path class="a" d="M1029.745,499.819v-.033a5.913,5.913,0,0,1,6.083-6,6.2,6.2,0,0,1,3.9,1.177,1.274,1.274,0,0,1,.5,1.011,1.249,1.249,0,0,1-1.267,1.243,1.352,1.352,0,0,1-.767-.249,3.851,3.851,0,0,0-2.383-.829,3.446,3.446,0,0,0-3.383,3.613v.033a3.454,3.454,0,0,0,3.383,3.646,3.757,3.757,0,0,0,2.533-.911,1.185,1.185,0,1,1,1.533,1.806,6.155,6.155,0,0,1-10.133-4.508Z" transform="translate(-95.483)"/><path class="a" d="M1077.04,499.819v-.033a6.2,6.2,0,0,1,12.4-.033v.033a6.2,6.2,0,0,1-12.4.033Zm9.716,0v-.033a3.534,3.534,0,0,0-3.533-3.646,3.479,3.479,0,0,0-3.5,3.613v.033a3.534,3.534,0,0,0,3.533,3.646A3.478,3.478,0,0,0,1086.756,499.819Z" transform="translate(-131.64)"/></g></svg>