<svg xmlns="http://www.w3.org/2000/svg" width="65" height="14" viewBox="0 0 65 14"><defs><style>.a{fill:#ff5340;}</style></defs><g transform="translate(-374.301 1480.015)"><path class="a" d="M388.327-1473.126a7,7,0,0,1-6.816,6.916,6.951,6.951,0,0,1-7.21-6.859,6.9,6.9,0,0,1,6.646-6.936A6.954,6.954,0,0,1,388.327-1473.126Zm-7.153.033c-.993-.067-2.111.1-3.235.088a10.021,10.021,0,0,0-1.132.085c-.449.046-.611.264-.542.7.017.109.037.218.055.327a5.164,5.164,0,0,0,5.248,4.247,5.162,5.162,0,0,0,4.78-4.615c.034-.444-.129-.641-.586-.667C384.277-1473.01,382.794-1473.112,381.174-1473.093Z" transform="translate(0 0)"/><path class="a" d="M653.57-1415.519a2.617,2.617,0,0,1,1.941-.855,2.177,2.177,0,0,1,1.744.781c.2.249.3.205.484-.009a2.325,2.325,0,0,1,2.3-.731,1.741,1.741,0,0,1,1.463,1.587,37.113,37.113,0,0,1,.088,4.242c0,.227-.118.327-.343.325-.436,0-.873-.022-1.306.008-.418.029-.575-.113-.564-.545.025-1,.013-1.991.005-2.987a.846.846,0,0,0-1.08-.933c-.474.065-.731.387-.736.965-.009,1-.017,1.992,0,2.987.008.381-.114.536-.505.511a9.575,9.575,0,0,0-1.179,0c-.378.022-.485-.142-.479-.5.015-1.023.012-2.047,0-3.071a.813.813,0,0,0-.914-.907.805.805,0,0,0-.893.884c-.013.967,0,1.935-.006,2.9,0,.682,0,.682-.7.683-.365,0-.731-.006-1.1,0-.249,0-.353-.109-.352-.356q.005-2.65,0-5.3c0-.282.139-.364.393-.36.393.007.788.021,1.18,0C653.422-1416.228,653.672-1416.12,653.57-1415.519Z" transform="translate(-254.035 -58.397)"/><path class="a" d="M570.231-1443.1a7.52,7.52,0,0,1,2.429.436c.291.109.4.261.287.559-.133.344-.068.833-.349,1.024s-.663-.158-1.019-.208a4.216,4.216,0,0,0-1.833-.035c-.264.078-.51.182-.558.489s.159.477.4.614a5.844,5.844,0,0,0,1.337.488,5.7,5.7,0,0,1,1.351.564,2.138,2.138,0,0,1,1.121,2.182,2.148,2.148,0,0,1-1.4,1.9,6.07,6.07,0,0,1-4.9-.23.276.276,0,0,1-.179-.393c.11-.31.207-.625.3-.94.075-.258.218-.318.47-.206a6.211,6.211,0,0,0,1.7.462,2.845,2.845,0,0,0,1.161-.118.7.7,0,0,0,.575-.542c.044-.309-.184-.508-.433-.648a3.741,3.741,0,0,0-.656-.273,10.412,10.412,0,0,1-1.838-.708,2.237,2.237,0,0,1-.618-3.561,3.706,3.706,0,0,1,2.318-.855C570.005-1443.11,570.118-1443.1,570.231-1443.1Z" transform="translate(-176.526 -33.792)"/><path class="a" d="M853.1-1416.227a2.856,2.856,0,0,1,3.074,2.876c.022.294-.071.424-.383.463-1.181.15-2.358.329-3.536.5-.123.017-.275,0-.318.147s.074.234.161.322a2.02,2.02,0,0,0,1.662.532,5.254,5.254,0,0,0,1.593-.363c.257-.1.366-.03.444.24.336,1.16.346,1.16-.836,1.434a5.921,5.921,0,0,1-2.954.034,2.956,2.956,0,0,1-2.224-3.348A3.009,3.009,0,0,1,853.1-1416.227Zm-.1,1.391a1.2,1.2,0,0,0-1.3.946c-.028.16-.052.271.19.231.661-.11,1.325-.2,1.988-.291.23-.031.246-.143.155-.316A1.019,1.019,0,0,0,853-1414.836Z" transform="translate(-435.808 -58.541)"/><path class="a" d="M945.981-1437.389c0-1.189.012-2.379-.007-3.568-.006-.361.118-.488.486-.467a17.651,17.651,0,0,1,3.105.1,2.388,2.388,0,0,1,1.353,3.959,3.473,3.473,0,0,1-2.374.9c-.056,0-.112,0-.168,0-1.012.007-1.012.007-1.012.974,0,.574-.009,1.148,0,1.723.006.3-.093.449-.434.443-1.119-.02-.94.1-.95-.91C945.973-1435.284,945.981-1436.336,945.981-1437.389Zm1.386-1.583h0c0,.314.01.629,0,.943-.011.275.09.391.388.392a6.781,6.781,0,0,0,1.254-.117,1.129,1.129,0,0,0,1.036-1.271,1.218,1.218,0,0,0-1.165-1.189c-.39-.037-.785-.014-1.178-.022-.228,0-.335.1-.331.321C947.37-1439.6,947.367-1439.286,947.367-1438.972Z" transform="translate(-523.976 -35.314)"/><path class="a" d="M1021.962-1410.621a2.656,2.656,0,0,1-2.829.4,1.648,1.648,0,0,1-1.063-1.577,1.742,1.742,0,0,1,.963-1.732,3.914,3.914,0,0,1,2.423-.321c.411.059.432-.115.39-.409a1.057,1.057,0,0,0-1.033-.933,3.243,3.243,0,0,0-1.752.355c-.316.159-.437.07-.542-.24-.242-.714-.256-.715.48-.958a4.74,4.74,0,0,1,2.485-.234,1.979,1.979,0,0,1,1.671,1.811c.139,1.313.062,2.633.073,3.949,0,.266-.121.383-.388.367a4.133,4.133,0,0,0-.463,0C1022.1-1410.13,1021.885-1410.186,1021.962-1410.621Zm-1.016-2.3a2.032,2.032,0,0,0-1.17.278.794.794,0,0,0-.384.866.79.79,0,0,0,.727.658,1.937,1.937,0,0,0,1.258-.242.941.941,0,0,0,.469-1.247c-.11-.427-.522-.258-.815-.312A.625.625,0,0,0,1020.946-1412.923Z" transform="translate(-590.125 -58.43)"/><path class="a" d="M817.15-1446.765c0-1.316.01-2.632-.007-3.948,0-.361.092-.532.495-.5a10.732,10.732,0,0,0,1.222,0c.331-.015.445.119.443.434-.01,1.248,0,2.495,0,3.743,0,1.426-.008,2.852.005,4.277,0,.346-.1.506-.481.485a11.688,11.688,0,0,0-1.222,0c-.354.018-.46-.127-.457-.459C817.158-1444.078,817.15-1445.421,817.15-1446.765Z" transform="translate(-405.87 -26.363)"/><path class="a" d="M1088.748-1410.306l.923-2.61c.052-.146.1-.293.153-.437.428-1.105.1-.9,1.338-.933.349-.009.413.106.288.42-.432,1.081-.848,2.167-1.27,3.251-.6,1.542-1.209,3.08-1.793,4.627-.124.328-.232.438-.6.292-.951-.376-.741-.3-.484-1.048a.205.205,0,0,1,.013-.04,3.5,3.5,0,0,0,0-3.564c-.537-1.121-.905-2.323-1.346-3.491-.157-.417-.14-.448.322-.442,1.186.014.911-.164,1.3.92.36,1.014.7,2.035,1.05,3.052Z" transform="translate(-652.209 -60.383)"/><path class="a" d="M783.425-1411.109c0,.841-.012,1.683.006,2.524.008.351-.125.476-.468.461-.435-.019-.871-.011-1.306,0-.258,0-.389-.087-.388-.365q.008-2.65,0-5.3c0-.217.076-.349.314-.348.506,0,1.011,0,1.517,0,.3,0,.325.2.324.425C783.424-1412.848,783.425-1411.979,783.425-1411.109Z" transform="translate(-372.991 -60.449)"/><path class="a" d="M781.086-1448.686a1.193,1.193,0,0,1-1.2-1.205,1.194,1.194,0,0,1,1.208-1.2,1.213,1.213,0,0,1,1.205,1.206A1.209,1.209,0,0,1,781.086-1448.686Z" transform="translate(-371.727 -26.527)"/></g></svg>