<svg xmlns="http://www.w3.org/2000/svg" width="53" height="14" viewBox="0 0 53 14"><defs><style>.a{fill:#ff5340;}</style></defs><g transform="translate(-101.031 1259.799)"><path class="a" d="M101.031-1230.215c.117-.713.194-1.431.369-2.135a11.945,11.945,0,0,1,3.412-6.175,6.6,6.6,0,0,1,8.556-.4,6.166,6.166,0,0,1,2.414,4.38,6.408,6.408,0,0,1-5.256,6.884,6.12,6.12,0,0,1-6.362-2.879c-.148-.248-.255-.262-.488-.125-.876.516-1.763,1.014-2.645,1.518Z" transform="translate(0 -18.24)"/><path class="a" d="M505.448-1197.367a5.161,5.161,0,0,1-5.108-4.957,5.172,5.172,0,0,1,5.027-5.256,5.1,5.1,0,0,1,5.186,5.1A5.076,5.076,0,0,1,505.448-1197.367Zm2.689-5.112a2.716,2.716,0,0,0-2.711-2.689,2.71,2.71,0,0,0-2.669,2.7,2.713,2.713,0,0,0,2.678,2.691A2.724,2.724,0,0,0,508.137-1202.479Z" transform="translate(-374.231 -49.045)"/><path class="a" d="M813.25-1207.474a4.606,4.606,0,0,1,3.6,1.462c.3.325.3.334-.089.563-.5.29-.995.573-1.485.87a.254.254,0,0,1-.4-.071,2.224,2.224,0,0,0-2.411-.735,1.384,1.384,0,0,0-.378.163.721.721,0,0,0-.378.69.644.644,0,0,0,.453.564,7.6,7.6,0,0,0,1.441.4,10.3,10.3,0,0,1,2.374.711,2.642,2.642,0,0,1,.779,4.2,3.814,3.814,0,0,1-2.486,1.3,6.234,6.234,0,0,1-3.9-.57,3.92,3.92,0,0,1-1.319-1.179c-.137-.189-.125-.308.09-.427.558-.309,1.112-.625,1.655-.958.227-.139.348-.13.509.107a2.443,2.443,0,0,0,2.824.9,1.117,1.117,0,0,0,.6-.445.7.7,0,0,0-.292-1.069,4.879,4.879,0,0,0-1.309-.387,12.257,12.257,0,0,1-2.479-.694,2.591,2.591,0,0,1-.455-4.478A4.6,4.6,0,0,1,813.25-1207.474Z" transform="translate(-663.447 -49.144)"/><path class="a" d="M673.789-1207.395a4.513,4.513,0,0,1,3.627,1.506c.255.287.261.294-.056.48-.5.3-1.013.584-1.514.886-.182.109-.3.127-.449-.074a2.281,2.281,0,0,0-2.6-.649.808.808,0,0,0-.55.748c0,.363.244.523.533.637a12.575,12.575,0,0,0,1.944.493,6.6,6.6,0,0,1,2,.711,2.549,2.549,0,0,1,1.036,3.321,3.182,3.182,0,0,1-1.856,1.744,6.02,6.02,0,0,1-5.194-.37,3.6,3.6,0,0,1-1.147-1.09c-.134-.187-.1-.292.094-.4.584-.327,1.163-.663,1.741-1,.169-.1.288-.091.392.09a2.456,2.456,0,0,0,2.677,1.016,1.414,1.414,0,0,0,.646-.33.72.72,0,0,0-.189-1.268,6.909,6.909,0,0,0-1.566-.422,9.849,9.849,0,0,1-2.284-.682,2.545,2.545,0,0,1-.719-4.064A4.282,4.282,0,0,1,673.789-1207.395Z" transform="translate(-532.735 -49.218)"/><path class="a" d="M373.568-1251.651c0-.752-.01-1.393,0-2.033.007-.281-.079-.4-.38-.385-.424.02-.85,0-1.275.007-.24.006-.349-.073-.343-.325.012-.535.009-1.071,0-1.606,0-.214.083-.3.3-.3.446.008.893-.009,1.339.005.26.008.363-.08.355-.343-.015-.493,0-.987-.007-1.48a.479.479,0,0,1,.274-.483c.668-.368,1.329-.749,1.989-1.133.229-.133.314-.1.312.179-.008.955.007,1.911-.009,2.866,0,.3.079.407.393.4.765-.019,1.531,0,2.3-.01.277-.005.38.089.371.364q-.023.755,0,1.511c.009.282-.11.362-.379.358-.787-.011-1.573,0-2.36-.006-.2,0-.322.047-.317.279.03,1.29-.062,2.582.053,3.871a.983.983,0,0,0,1.46.9,4.584,4.584,0,0,0,.63-.3c.158-.089.264-.093.363.081.3.531.612,1.057.925,1.581.091.152.092.261-.075.365a4.794,4.794,0,0,1-3.483.8,2.691,2.691,0,0,1-2.323-2.351A17.856,17.856,0,0,1,373.568-1251.651Z" transform="translate(-253.539 0.001)"/></g></svg>