<svg xmlns="http://www.w3.org/2000/svg" width="68" height="14" viewBox="0 0 68 14"><defs><style>.a{fill:#ff5340;}</style></defs><g transform="translate(-52.086 -218.764)"><path class="a" d="M301.865,223.581h0a4.246,4.246,0,0,0-4.246-4.246H294a1.07,1.07,0,0,0-1.07,1.07v9.272a1.07,1.07,0,0,0,1.07,1.07h0a1.071,1.071,0,0,0,1.07-1.07v-1.849h2.546A4.246,4.246,0,0,0,301.865,223.581Zm-6.792,2.105v-4.211h2.546a2.105,2.105,0,0,1,2.105,2.105h0a2.105,2.105,0,0,1-2.105,2.105Z" transform="translate(-199.257 -0.472)"/><g transform="translate(52.086 218.764)"><path class="a" d="M186.335,243.5a4.3,4.3,0,0,1-4.244-4.2,4.235,4.235,0,0,1,4.254-4.3,4.351,4.351,0,0,1,4.25,4.346v3.179a1.072,1.072,0,0,1-1.035,1.069h0a1.031,1.031,0,0,1-1.1-1.01l-.006-3.226a2.245,2.245,0,0,0-2.034-2.339,2.215,2.215,0,0,0-2.36,2.359,2.186,2.186,0,0,0,2.447,2.017,1.04,1.04,0,0,1,1.269.81C187.856,242.7,187.709,243.421,186.335,243.5Z" transform="translate(-159.661 -232.186)"/><path class="a" d="M349.827,243.814a4.3,4.3,0,0,1-4.244-4.2,4.235,4.235,0,0,1,4.254-4.3,4.351,4.351,0,0,1,4.25,4.346v3.179a1.072,1.072,0,0,1-1.035,1.069h0a1.031,1.031,0,0,1-1.1-1.01l-.006-3.226a2.245,2.245,0,0,0-2.034-2.339,2.215,2.215,0,0,0-2.361,2.359A2.186,2.186,0,0,0,350,241.71a1.04,1.04,0,0,1,1.269.81C351.348,243,351.2,243.731,349.827,243.814Z" transform="translate(-294.945 -232.442)"/><path class="a" d="M240.438,218.764h-.023a1.161,1.161,0,0,0-1.035,1.067l0,9.3a1.14,1.14,0,0,0,1.092,1.044,1.064,1.064,0,0,0,1.047-1.069v-9.3A1.032,1.032,0,0,0,240.438,218.764Z" transform="translate(-207.044 -218.764)"/><path class="a" d="M262.464,218.764h-.023a1.167,1.167,0,0,0-1.037,1.067l0,9.3a1.146,1.146,0,0,0,1.094,1.044,1.065,1.065,0,0,0,1.045-1.069v-9.3A1.031,1.031,0,0,0,262.464,218.764Z" transform="translate(-225.266 -218.764)"/><path class="a" d="M60.011,219.7a1.066,1.066,0,0,0-1.064,1.064v3.412l-4.732.006v-3.418a1.064,1.064,0,1,0-2.128,0v9.124a1.064,1.064,0,1,0,2.128,0v-3.545h4.732v3.545a1.031,1.031,0,0,0,1.03,1.1,1.087,1.087,0,0,0,1.1-1.1v-9.124A1.066,1.066,0,0,0,60.011,219.7Z" transform="translate(-52.086 -219.536)"/></g><g transform="translate(62.635 221.69)"><path class="a" d="M120.677,235.625a3.211,3.211,0,0,1,3.211,3.211v4.205a1.07,1.07,0,0,1-2.14,0v-4.205a1.07,1.07,0,1,0-2.141,0v4.205a1.07,1.07,0,0,1-2.14,0v-4.205a1.07,1.07,0,1,0-2.14,0v4.205a1.07,1.07,0,0,1-2.14,0v-4.205a3.21,3.21,0,0,1,5.351-2.393A3.5,3.5,0,0,1,120.677,235.625Z" transform="translate(-113.185 -235.625)"/></g><path class="a" d="M403.815,235.906h0a1.071,1.071,0,0,0-1.407.56l-2.045,4.745-2.524-4.839a1.071,1.071,0,1,0-1.9.99l3.33,6.384-.689,1.6a1.071,1.071,0,0,0,.56,1.407h0a1.071,1.071,0,0,0,1.407-.56l3.826-8.88A1.071,1.071,0,0,0,403.815,235.906Z" transform="translate(-284.377 -14.076)"/></g></svg>