<svg xmlns="http://www.w3.org/2000/svg" width="44.482" height="14" viewBox="0 0 44.482 14"><defs><style>.a{fill:#aaa;}</style></defs><g transform="translate(-47.549 566.774)"><path class="a" d="M50.378-556.771c-.176-.119-.348-.229-.513-.348a5.2,5.2,0,0,1-2.191-3.1,4.629,4.629,0,0,1,1.513-4.585,7.259,7.259,0,0,1,4.411-1.921,8.077,8.077,0,0,1,5,1.024,5.564,5.564,0,0,1,2.55,2.891A4.688,4.688,0,0,1,59.82-557.7a7.274,7.274,0,0,1-4.3,1.92c-.562.062-1.133.03-1.7.056a.8.8,0,0,0-.391.115c-1.027.688-2.047,1.388-3.069,2.084-.059.04-.113.1-.178.115a.914.914,0,0,1-.461.044c-.2-.078-.169-.292-.121-.471.161-.614.326-1.227.489-1.84C50.185-556.038,50.28-556.4,50.378-556.771Z"/><path class="a" d="M386.505-549.993a3.391,3.391,0,0,1,1.522-.9,3.208,3.208,0,0,1,4.194,2.366,6.9,6.9,0,0,1-.277,4.783,3.944,3.944,0,0,1-4.137,2.305c-.28-.033-.559-.073-.874-.115v.327c0,.915-.007,1.83,0,2.744,0,.237-.069.311-.3.305-.621-.015-1.242-.012-1.863,0-.213,0-.295-.053-.294-.284q.009-6.014,0-12.027c0-.213.068-.284.274-.279.408.011.817.011,1.224,0a.287.287,0,0,1,.327.237C386.353-550.362,386.426-550.2,386.505-549.993Zm3.553,3.559a13.929,13.929,0,0,0-.216-1.383A1.4,1.4,0,0,0,388.479-549a6.859,6.859,0,0,0-1.224.159c-.247.038-.331.181-.328.447.014,1.532,0,3.065.008,4.6,0,.606-.069.468.468.522a2.126,2.126,0,0,0,2.5-1.883C389.98-545.551,390-545.955,390.058-546.434Z" transform="translate(-318.97 -14.912)"/><path class="a" d="M717.019-551.972l2.41-.655,1.993,6.943h.064l1.976-6.976,2.357.663a1.14,1.14,0,0,1-.031.167c-1,2.757-1.98,5.518-3,8.267a9.4,9.4,0,0,1-1.749,3.053,11.72,11.72,0,0,1-1.165,1.054.275.275,0,0,1-.265.015c-.465-.413-.917-.842-1.447-1.336a1.842,1.842,0,0,0,.263-.164,8.5,8.5,0,0,0,1.61-1.956.629.629,0,0,0,.057-.6q-1.5-4.091-2.979-8.188C717.088-551.766,717.061-551.849,717.019-551.972Z" transform="translate(-633.788 -13.363)"/><path class="a" d="M560.449-548.41c-.21-.515-.4-1-.608-1.48-.066-.155.024-.208.126-.27a6.127,6.127,0,0,1,2.262-.814,5.437,5.437,0,0,1,2.062.044,2.89,2.89,0,0,1,2.35,2.564,6.915,6.915,0,0,1,.058.875c.005,1.784,0,3.568,0,5.352v.341c-.554,0-1.075.005-1.6-.007-.06,0-.144-.089-.173-.155-.073-.17-.121-.35-.191-.56-.094.058-.174.1-.251.156a4.512,4.512,0,0,1-2.089.8,2.56,2.56,0,0,1-3.068-2.633,2.626,2.626,0,0,1,2.322-2.943,9.894,9.894,0,0,1,1.451-.153c.432-.025.866-.005,1.292-.005a1.309,1.309,0,0,0-1.266-1.687,5.668,5.668,0,0,0-2.384.455Zm3.99,2.643c-.627.035-1.221.035-1.806.111a1.117,1.117,0,0,0-1.064.864c-.173.823.1,1.383,1.047,1.343a3.164,3.164,0,0,0,1.644-.546.375.375,0,0,0,.171-.236C564.448-544.718,564.44-545.205,564.44-545.767Z" transform="translate(-484.506 -14.885)"/></g></svg>