<svg xmlns="http://www.w3.org/2000/svg" width="83" height="12" viewBox="0 0 83 12"><defs><style>.a{fill:#ff5340;}</style></defs><g transform="translate(-74.581 -330.088)"><path class="a" d="M429.928,330.3v.709a4.033,4.033,0,0,0-2.562-.926,4.541,4.541,0,0,0,0,9.061,4.032,4.032,0,0,0,2.562-.926V339h1.944V330.3Zm-2.354,7.132a2.833,2.833,0,1,1,2.54-2.818A2.69,2.69,0,0,1,427.574,337.437Z" transform="translate(-284.444)"/><path class="a" d="M374.257,330.088a4.049,4.049,0,0,0-2.593.947V330.3h-1.944v11.785h1.944v-3.93a4.049,4.049,0,0,0,2.593.947,4.517,4.517,0,0,0,0-9.017Zm-.217,7.313a2.817,2.817,0,1,1,2.549-2.8A2.686,2.686,0,0,1,374.041,337.4Z" transform="translate(-240.823)"/><path class="a" d="M483.784,331.26l-2.492,5.891-2.667-5.891H476.7l3.664,8.093-1.561,3.69h1.908l4.985-11.784Z" transform="translate(-328.112 -0.955)"/><g transform="translate(74.581 331.27)"><path class="a" d="M283.792,337.749l.1,5.729h-.04l-1.678-5.729h-2.709v7.224h1.794l-.1-5.926h.04l1.8,5.926h2.6v-7.224Z" transform="translate(-241.619 -337.516)"/><path class="a" d="M110.909,337.749l-1.353,7.3h1.973l1-6.624h.041l.973,6.624H115.5l-1.345-7.3Z" transform="translate(-103.096 -337.516)"/><path class="a" d="M154.62,337.749l-.9,5.581h-.041l-.9-5.581H149.8l-.161,7.3h1.826l.045-6.563h.041l1.221,6.563h1.851l1.219-6.562h.041l.046,6.563h1.826l-.161-7.3Z" transform="translate(-135.777 -337.516)"/><path class="a" d="M77.97,341.96a.957.957,0,0,1,.014.542.632.632,0,0,1-.712.486.651.651,0,0,1-.733-.658l0-.71H74.581v.564c0,1.628,1.281,2.117,2.651,2.117,1.324,0,2.407-.448,2.582-1.665a3.568,3.568,0,0,0-.008-1.2c-.308-1.528-3.078-1.98-3.285-2.838a.936.936,0,0,1-.008-.38.6.6,0,0,1,.667-.492.623.623,0,0,1,.68.662v.449h1.821v-.51c0-1.59-1.428-1.84-2.462-1.84-1.3,0-2.357.432-2.552,1.621a2.51,2.51,0,0,0,.017.983c.317,1.491,2.91,1.925,3.286,2.869" transform="translate(-74.581 -336.487)"/><path class="a" d="M206.584,342.122a.978.978,0,0,1,.014.536c-.058.241-.223.481-.7.481a.643.643,0,0,1-.727-.651v-.7h-1.94v.56c0,1.611,1.269,2.095,2.627,2.095,1.307,0,2.382-.441,2.554-1.648a3.529,3.529,0,0,0-.008-1.19c-.305-1.512-3.048-1.961-3.25-2.809a.934.934,0,0,1-.009-.377.6.6,0,0,1,.66-.486.616.616,0,0,1,.671.652v.447h1.8v-.5c0-1.574-1.414-1.822-2.434-1.822-1.286,0-2.336.422-2.527,1.6a2.44,2.44,0,0,0,.018.974c.313,1.477,2.881,1.906,3.254,2.84" transform="translate(-179.463 -336.664)"/><path class="a" d="M243.252,343.95a.654.654,0,0,0,.7-.526,1.454,1.454,0,0,0,.018-.279v-5.4h1.849v5.232c0,.132-.012.408-.02.482-.128,1.36-1.206,1.8-2.548,1.8s-2.419-.441-2.545-1.8c-.007-.073-.022-.349-.017-.482v-5.232h1.845v5.4a1.517,1.517,0,0,0,.018.279.653.653,0,0,0,.7.526" transform="translate(-210.006 -337.513)"/><path class="a" d="M325.572,343a.679.679,0,0,0,.745-.527,1.294,1.294,0,0,0,.018-.279v-1.057h-.746v-1.068h2.583v1.959c0,.137,0,.237-.024.483-.12,1.327-1.274,1.8-2.567,1.8s-2.446-.477-2.567-1.8c-.021-.245-.024-.345-.026-.483v-3.071a4.6,4.6,0,0,1,.031-.479c.16-1.367,1.267-1.8,2.561-1.8s2.427.432,2.563,1.8a4.533,4.533,0,0,1,.013.479v.243h-1.84v-.41a1.469,1.469,0,0,0-.022-.274.665.665,0,0,0-.729-.531.676.676,0,0,0-.728.531,1.681,1.681,0,0,0-.03.342v3.338a1.713,1.713,0,0,0,.017.279.683.683,0,0,0,.746.527" transform="translate(-277.102 -336.639)"/></g></g></svg>