<?xml version="1.0" standalone="no"?>
<!DOCTYPE svg PUBLIC "-//W3C//DTD SVG 20010904//EN"
 "http://www.w3.org/TR/2001/REC-SVG-20010904/DTD/svg10.dtd">
<svg version="1.0" xmlns="http://www.w3.org/2000/svg"
 width="106.000000pt" height="106.000000pt" viewBox="0 0 106.000000 106.000000"
 preserveAspectRatio="xMidYMid meet">
<metadata>
Created by potrace 1.11, written by Peter Selinger 2001-2013
</metadata>
<g transform="translate(0.000000,106.000000) scale(0.100000,-0.100000)"
fill="#000000" stroke="none">
<path d="M415 964 c-114 -59 -142 -215 -52 -302 62 -60 189 -102 244 -81 56
21 62 135 13 258 -27 70 -46 97 -85 121 -39 24 -79 25 -120 4z"/>
<path d="M770 700 c-45 -8 -80 -30 -81 -52 -4 -63 3 -92 43 -171 35 -71 104
-142 147 -152 87 -19 162 48 177 159 15 109 -59 188 -201 213 -27 5 -66 6 -85
3z"/>
<path d="M62 580 c-86 -53 -76 -197 16 -235 44 -19 76 -19 110 0 54 29 57 32
43 49 -11 13 -18 13 -50 1 -21 -7 -50 -11 -65 -8 -35 7 -68 57 -60 93 12 51
81 89 111 59 15 -15 68 -7 68 10 0 20 -64 51 -105 51 -19 0 -50 -9 -68 -20z"/>
<path d="M275 587 c-24 -13 -19 -45 8 -43 21 1 22 -1 22 -102 0 -87 -3 -105
-17 -113 -62 -34 -55 -72 8 -42 56 26 74 68 74 174 0 70 3 88 16 93 8 3 14 13
12 23 -2 12 -15 16 -56 17 -28 1 -59 -2 -67 -7z"/>
<path d="M516 448 c-65 -65 -120 -172 -120 -233 0 -77 51 -126 136 -131 87 -5
155 35 189 111 47 105 -32 305 -120 305 -26 0 -43 -11 -85 -52z"/>
</g>
</svg>
