<svg xmlns="http://www.w3.org/2000/svg" width="41.808" height="40.652" viewBox="0 0 41.808 40.652"><defs><style>.a{fill:#fff;}.b,.d,.e,.f{fill:none;}.b,.c,.e{stroke:#111;}.b,.d,.e{stroke-linecap:round;}.c{fill:#cfe8ec;}.d{stroke:#0b0c11;}.d,.e{stroke-linejoin:round;stroke-width:1.6px;}.g,.h{stroke:none;}.h{fill:#111;}</style></defs><g transform="translate(-269.342 -207.357)"><g transform="translate(282.38 220.603)"><g class="a" transform="translate(0 0)"><path class="g" d="M 14.3450927734375 14.00783634185791 L 1.388232946395874 14.00783634185791 C 1.063882946968079 14.00783634185791 0.8000029921531677 13.74395656585693 0.8000029921531677 13.41959667205811 L 0.8000029921531677 1.388236403465271 C 0.8000029921531677 1.063876390457153 1.063882946968079 0.7999963760375977 1.388232946395874 0.7999963760375977 L 14.3450927734375 0.7999963760375977 C 14.66944313049316 0.7999963760375977 14.93332290649414 1.063876390457153 14.93332290649414 1.388236403465271 L 14.93332290649414 13.41959667205811 C 14.93332290649414 13.74395656585693 14.66944313049316 14.00783634185791 14.3450927734375 14.00783634185791 Z"/><path class="h" d="M 1.600003242492676 1.599996566772461 L 1.600003242492676 13.20783615112305 L 14.13332271575928 13.20783615112305 L 14.13332271575928 1.599996566772461 L 1.600003242492676 1.599996566772461 M 1.388233184814453 -3.814697265625e-06 L 14.3450927734375 -3.814697265625e-06 C 15.11179256439209 -3.814697265625e-06 15.733323097229 0.6215362548828125 15.733323097229 1.388236045837402 L 15.733323097229 13.41959667205811 C 15.733323097229 14.1862964630127 15.11179256439209 14.80783653259277 14.3450927734375 14.80783653259277 L 1.388233184814453 14.80783653259277 C 0.6215333938598633 14.80783653259277 2.86102294921875e-06 14.1862964630127 2.86102294921875e-06 13.41959667205811 L 2.86102294921875e-06 1.388236045837402 C 2.86102294921875e-06 0.6215362548828125 0.6215333938598633 -3.814697265625e-06 1.388233184814453 -3.814697265625e-06 Z"/></g><path class="b" d="M191.9,235.056h3.4" transform="translate(-182.354 -223.21)"/><path class="c" d="M300.951,230.839v5.881l1.64-.853,1.64.853v-5.881Z" transform="translate(-295.051 -230.432)"/></g><g transform="translate(270.58 208.016)"><g transform="translate(0 14.229) rotate(-30)"><path class="d" d="M0,10.859A14.547,14.547,0,0,1,27.327,8.553" transform="translate(0 0)"/><path class="e" d="M0,0H2.878V2.841" transform="translate(28.459 6.379) rotate(101)"/></g><g transform="translate(9.257 29.929) rotate(-30)"><path class="d" d="M27.327,0A14.49,14.49,0,0,1,13.254,10.859,14.632,14.632,0,0,1,0,2.307" transform="translate(1.132 0)"/><path class="e" d="M0,0H2.878V2.841" transform="translate(0 4.481) rotate(-79)"/></g></g><rect class="f" width="40" height="40" transform="translate(270.247 207.683)"/></g></svg>