<svg xmlns="http://www.w3.org/2000/svg" width="40" height="40" viewBox="0 0 40 40"><defs><style>.a{fill:#cfe8ec;}.a,.b,.c{stroke:#333;stroke-width:1.6px;}.b{fill:#fff;}.c,.e{fill:none;}.c{stroke-linecap:round;stroke-linejoin:round;stroke-miterlimit:10;}.d{fill:#333;}</style></defs><g transform="translate(-48.134 -213.133)"><path class="a" d="M12.153,1.061a8.27,8.27,0,1,0,2.875,2.575L16.159,0Z" transform="translate(69.393 247.928) rotate(180)"/><path class="b" d="M18.1,23.1a12.284,12.284,0,1,1,4.282-3.826l1.684,5.4Z" transform="translate(58.724 218.768)"/><g transform="translate(68.317 226.308)"><path class="c" d="M215.608,215.713a2.594,2.594,0,0,1,2.057-2.672,2.68,2.68,0,0,1,2.078,4.856l-1.665,1.665v1.6" transform="translate(-215.604 -212.999)"/><circle class="d" cx="0.717" cy="0.717" r="0.717" transform="translate(1.758 9.673)"/></g><rect class="e" width="40" height="40" transform="translate(48.134 213.133)"/></g></svg>