<svg xmlns="http://www.w3.org/2000/svg" width="40" height="40" viewBox="0 0 40 40"><defs><style>.a{fill:#fff;}.b,.f{fill:none;}.b{stroke:#111;stroke-linecap:round;}.c{fill:#cfe8ec;}.d,.e,.h{fill:#111;}.d{font-size:5px;font-family:Roboto-Bold, Roboto;font-weight:700;letter-spacing:-0.04em;}.g,.h{stroke:none;}</style></defs><g transform="translate(-165 -218)"><g transform="translate(168.085 226.975)"><g class="a" transform="translate(0 -2)"><path class="g" d="M 27.48571968078613 21.09402084350586 L 2.114289283752441 21.09402084350586 C 1.389589190483093 21.09402084350586 0.7999992370605469 20.46129035949707 0.7999992370605469 19.68357086181641 L 0.7999992370605469 4.210451126098633 C 0.7999992370605469 3.432730913162231 1.389589190483093 2.800000905990601 2.114289283752441 2.800000905990601 L 27.48571968078613 2.800000905990601 C 28.21041870117188 2.800000905990601 28.79999923706055 3.432730913162231 28.79999923706055 4.210451126098633 L 28.79999923706055 19.68357086181641 C 28.79999923706055 20.46129035949707 28.21041870117188 21.09402084350586 27.48571968078613 21.09402084350586 Z"/><path class="h" d="M 2.114278793334961 3.600000381469727 C 1.830709457397461 3.600000381469727 1.599998474121094 3.873851776123047 1.599998474121094 4.210451126098633 L 1.599998474121094 19.68357086181641 C 1.599998474121094 20.02017021179199 1.830709457397461 20.29402160644531 2.114278793334961 20.29402160644531 L 27.48571014404297 20.29402160644531 C 27.76928901672363 20.29402160644531 28 20.02017021179199 28 19.68357086181641 L 28 4.210451126098633 C 28 3.873851776123047 27.76928901672363 3.600000381469727 27.48571014404297 3.600000381469727 L 2.114278793334961 3.600000381469727 M 2.114278793334961 2.000001907348633 L 27.48571014404297 2.000001907348633 C 28.65339851379395 2.000001907348633 29.59999847412109 2.989650726318359 29.59999847412109 4.210451126098633 L 29.59999847412109 19.68357086181641 C 29.59999847412109 20.90437126159668 28.65339851379395 21.89402008056641 27.48571014404297 21.89402008056641 L 2.114278793334961 21.89402008056641 C 0.9465999603271484 21.89402008056641 0 20.90437126159668 0 19.68357086181641 L 0 4.210451126098633 C 0 2.989650726318359 0.9465999603271484 2.000001907348633 2.114278793334961 2.000001907348633 Z"/></g><path class="b" d="M197.9,235.056h27.489" transform="translate(-196.501 -229.857)"/><g class="a" transform="translate(3.684 10.946)"><path class="g" d="M 6.262625694274902 4.657858848571777 C 5.699605941772461 4.657858848571777 5.172346115112305 4.436288833618164 4.777956008911133 4.033958911895752 L 4.420866012573242 3.669668674468994 L 4.063806056976318 4.033988475799561 C 3.669505834579468 4.436298847198486 3.142155885696411 4.657858848571777 2.578905820846558 4.657858848571777 C 1.43259584903717 4.657858848571777 0.4999958872795105 3.725258827209473 0.4999958872795105 2.578928709030151 C 0.4999958872795105 1.43259871006012 1.43259584903717 0.4999987185001373 2.578905820846558 0.4999987185001373 C 3.142155885696411 0.4999987185001373 3.669505834579468 0.721558690071106 4.063806056976318 1.123868703842163 L 4.420866012573242 1.488188743591309 L 4.777956008911133 1.12389874458313 C 5.172346115112305 0.7215687036514282 5.699605941772461 0.4999987185001373 6.262625694274902 0.4999987185001373 C 7.408956050872803 0.4999987185001373 8.341555595397949 1.43259871006012 8.341555595397949 2.578928709030151 C 8.341555595397949 3.725258827209473 7.408956050872803 4.657858848571777 6.262625694274902 4.657858848571777 Z"/><path class="h" d="M 6.262625694274902 4.157858848571777 C 7.133245944976807 4.157858848571777 7.841556072235107 3.449548721313477 7.841556072235107 2.578928709030151 C 7.841556072235107 1.708308696746826 7.133245944976807 0.9999986886978149 6.262625694274902 0.9999986886978149 C 5.83504581451416 0.9999986886978149 5.434586048126221 1.168298721313477 5.135015964508057 1.473908662796021 L 4.420835971832275 2.202478647232056 L 3.706715822219849 1.473848700523376 C 3.407235860824585 1.168278694152832 3.00670599937439 0.9999986886978149 2.578905820846558 0.9999986886978149 C 1.708295941352844 0.9999986886978149 0.9999958872795105 1.708308696746826 0.9999958872795105 2.578928709030151 C 0.9999958872795105 3.449548721313477 1.708295941352844 4.157858848571777 2.578905820846558 4.157858848571777 C 3.00670599937439 4.157858848571777 3.407235860824585 3.989578723907471 3.706715822219849 3.684008598327637 L 4.420835971832275 2.955378770828247 L 5.135015964508057 3.683948755264282 C 5.434586048126221 3.989558696746826 5.83504581451416 4.157858848571777 6.262625694274902 4.157858848571777 M 6.262625694274902 5.157858848571777 C 5.541356086730957 5.157858848571777 4.889035701751709 4.861538887023926 4.420896053314209 4.383968830108643 C 3.95283579826355 4.861538887023926 3.30051589012146 5.157858848571777 2.578905820846558 5.157858848571777 C 1.154515862464905 5.157858848571777 -4.109649580641417e-06 4.003338813781738 -4.109649580641417e-06 2.578928709030151 C -4.109649580641417e-06 1.154518723487854 1.154515862464905 -1.290969862566271e-06 2.578905820846558 -1.290969862566271e-06 C 3.30051589012146 -1.290969862566271e-06 3.95283579826355 0.2963187098503113 4.420896053314209 0.7738887071609497 C 4.889035701751709 0.2963187098503113 5.541356086730957 -1.290969862566271e-06 6.262625694274902 -1.290969862566271e-06 C 7.687056064605713 -1.290969862566271e-06 8.841555595397949 1.154518723487854 8.841555595397949 2.578928709030151 C 8.841555595397949 4.003338813781738 7.687056064605713 5.157858848571777 6.262625694274902 5.157858848571777 Z"/></g></g><g transform="translate(189 236.448)"><g class="c" transform="translate(0)"><path class="g" d="M 6.35830020904541 11.91658401489258 C 3.293440103530884 11.91658401489258 0.8000001907348633 9.423144340515137 0.8000001907348633 6.358294486999512 C 0.8000001907348633 3.293444395065308 3.293440103530884 0.8000044822692871 6.35830020904541 0.8000044822692871 C 9.423160552978516 0.8000044822692871 11.91660022735596 3.293444395065308 11.91660022735596 6.358294486999512 C 11.91660022735596 9.423144340515137 9.423160552978516 11.91658401489258 6.35830020904541 11.91658401489258 Z"/><path class="h" d="M 6.35830020904541 1.600004196166992 C 3.734560012817383 1.600004196166992 1.600000381469727 3.734564781188965 1.600000381469727 6.358294486999512 C 1.600000381469727 8.982024192810059 3.734560012817383 11.11658477783203 6.35830020904541 11.11658477783203 C 8.982040405273438 11.11658477783203 11.11660003662109 8.982024192810059 11.11660003662109 6.358294486999512 C 11.11660003662109 3.734564781188965 8.982040405273438 1.600004196166992 6.35830020904541 1.600004196166992 M 6.35830020904541 4.76837158203125e-06 C 9.869890213012695 4.76837158203125e-06 12.71660041809082 2.846704483032227 12.71660041809082 6.358294486999512 C 12.71660041809082 9.869884490966797 9.869890213012695 12.71658420562744 6.35830020904541 12.71658420562744 C 2.846710205078125 12.71658420562744 0 9.869884490966797 0 6.358294486999512 C 0 2.846704483032227 2.846710205078125 4.76837158203125e-06 6.35830020904541 4.76837158203125e-06 Z"/></g><text class="d" transform="translate(6 7.884)"><tspan x="-2.186" y="0">W</tspan></text><rect class="e" width="5.895" height="0.737" transform="translate(3.337 5.895)"/></g><rect class="f" width="40" height="40" transform="translate(165 218)"/></g></svg>