<svg xmlns="http://www.w3.org/2000/svg" width="40" height="40" viewBox="0 0 40 40"><defs><style>.a,.c,.f{fill:none;}.b{fill:#fff;}.c,.d,.f{stroke:#111;stroke-linecap:round;}.c{stroke-width:1.6px;}.d,.e{fill:#cfe8ec;}.d{stroke-miterlimit:10;}.g,.h{stroke:none;}.h{fill:#111;}</style></defs><g transform="translate(-164 -214.856)"><rect class="a" width="40" height="40" transform="translate(164 214.856)"/><g class="b" transform="translate(168.415 224.513)"><path class="g" d="M 29.07273101806641 20.79805564880371 L 2.127270460128784 20.79805564880371 C 1.395410418510437 20.79805564880371 0.8000003695487976 20.15463638305664 0.8000003695487976 19.3637752532959 L 0.8000003695487976 2.234285593032837 C 0.8000003695487976 1.443425536155701 1.395410418510437 0.8000055551528931 2.127270460128784 0.8000055551528931 L 29.07273101806641 0.8000055551528931 C 29.80459022521973 0.8000055551528931 30.39999961853027 1.443425536155701 30.39999961853027 2.234285593032837 L 30.39999961853027 19.3637752532959 C 30.39999961853027 20.15463638305664 29.80459022521973 20.79805564880371 29.07273101806641 20.79805564880371 Z"/><path class="h" d="M 2.127269744873047 1.599994659423828 C 1.841461181640625 1.599994659423828 1.600000381469727 1.890464782714844 1.600000381469727 2.234285354614258 L 1.600000381469727 19.3637752532959 C 1.600000381469727 19.70758628845215 1.841461181640625 19.99804496765137 2.127269744873047 19.99804496765137 L 29.07273101806641 19.99804496765137 C 29.35853958129883 19.99804496765137 29.60000038146973 19.70758628845215 29.60000038146973 19.3637752532959 L 29.60000038146973 2.234285354614258 C 29.60000038146973 1.890464782714844 29.35853958129883 1.599994659423828 29.07273101806641 1.599994659423828 L 2.127269744873047 1.599994659423828 M 2.127269744873047 -3.814697265625e-06 L 29.07273101806641 -3.814697265625e-06 C 30.24759101867676 -3.814697265625e-06 31.20000076293945 1.000326156616211 31.20000076293945 2.234285354614258 L 31.20000076293945 19.3637752532959 C 31.20000076293945 20.59772491455078 30.24759101867676 21.59804534912109 29.07273101806641 21.59804534912109 L 2.127269744873047 21.59804534912109 C 0.9524097442626953 21.59804534912109 0 20.59772491455078 0 19.3637752532959 L 0 2.234285354614258 C 0 1.000326156616211 0.9524097442626953 -3.814697265625e-06 2.127269744873047 -3.814697265625e-06 Z"/></g><path class="c" d="M20,3.775V.856" transform="translate(164.372 221.178)"/><g transform="translate(172.904 229.726)"><path class="d" d="M300.489,171a5.225,5.225,0,0,0-10.427,0" transform="translate(-290.062 -159.912)"/><g class="e" transform="translate(1.913 0)"><path class="g" d="M 3.271509170532227 6.068360328674316 C 1.743289113044739 6.068360328674316 0.4999991655349731 4.819380283355713 0.4999991655349731 3.284180164337158 C 0.4999991655349731 1.748980164527893 1.743289113044739 0.5000001788139343 3.271509170532227 0.5000001788139343 C 4.799729347229004 0.5000001788139343 6.04301929473877 1.748980164527893 6.04301929473877 3.284180164337158 C 6.04301929473877 4.819380283355713 4.799729347229004 6.068360328674316 3.271509170532227 6.068360328674316 Z"/><path class="h" d="M 3.271509170532227 1 C 2.018999099731445 1 0.9999990463256836 2.024680137634277 0.9999990463256836 3.284180164337158 C 0.9999990463256836 4.543680191040039 2.018999099731445 5.568360328674316 3.271509170532227 5.568360328674316 C 4.524019241333008 5.568360328674316 5.54301929473877 4.543680191040039 5.54301929473877 3.284180164337158 C 5.54301929473877 2.024680137634277 4.524019241333008 1 3.271509170532227 1 M 3.271509170532227 0 C 5.078319072723389 0 6.54301929473877 1.470380306243896 6.54301929473877 3.284180164337158 C 6.54301929473877 5.09798002243042 5.078319072723389 6.568360328674316 3.271509170532227 6.568360328674316 C 1.464709281921387 6.568360328674316 -9.5367431640625e-07 5.09798002243042 -9.5367431640625e-07 3.284180164337158 C -9.5367431640625e-07 1.470380306243896 1.464709281921387 0 3.271509170532227 0 Z"/></g></g><path class="f" d="M191.9,235.056h9.048" transform="translate(-5.685 -2.309)"/><path class="f" d="M191.9,235.056h5.21" transform="translate(-5.685 2.16)"/></g></svg>