<svg xmlns="http://www.w3.org/2000/svg" width="40" height="40" viewBox="0 0 40 40"><defs><style>.a{fill:#fff;}.b,.c,.f{fill:none;}.b,.c,.d{stroke:#111;}.c{stroke-linecap:round;}.d{fill:#cfe8ec;stroke-width:1.6px;}.e,.h{fill:#111;}.g,.h{stroke:none;}</style></defs><g transform="translate(-258.25 -214.25)"><g class="a" transform="translate(266.139 220.067)"><path class="g" d="M 17.45782470703125 28.37522315979004 L 3.244245052337646 28.37522315979004 C 2.447885036468506 28.37522315979004 1.800005078315735 27.72734260559082 1.800005078315735 26.93098258972168 L 1.800005078315735 2.244253158569336 C 1.800005078315735 1.447893142700195 2.447885036468506 0.8000031113624573 3.244245052337646 0.8000031113624573 L 17.45782470703125 0.8000031113624573 C 18.25418472290039 0.8000031113624573 18.90207481384277 1.447893142700195 18.90207481384277 2.244253158569336 L 18.90207481384277 26.93098258972168 C 18.90207481384277 27.72734260559082 18.25418472290039 28.37522315979004 17.45782470703125 28.37522315979004 Z"/><path class="h" d="M 3.244245529174805 1.600002288818359 C 2.889005661010742 1.600002288818359 2.599994659423828 1.889003753662109 2.599994659423828 2.244243621826172 L 2.599994659423828 26.93098258972168 C 2.599994659423828 27.28622245788574 2.889005661010742 27.57522392272949 3.244245529174805 27.57522392272949 L 17.45782470703125 27.57522392272949 C 17.81306457519531 27.57522392272949 18.10206604003906 27.28622245788574 18.10206604003906 26.93098258972168 L 18.10206604003906 2.244243621826172 C 18.10206604003906 1.889003753662109 17.81306457519531 1.600002288818359 17.45782470703125 1.600002288818359 L 3.244245529174805 1.600002288818359 M 3.244245529174805 3.814697265625e-06 L 17.45782470703125 3.814697265625e-06 C 18.69728469848633 3.814697265625e-06 19.70206451416016 1.004783630371094 19.70206451416016 2.244243621826172 L 19.70206451416016 26.93098258972168 C 19.70206451416016 28.17044258117676 18.69728469848633 29.17522239685059 17.45782470703125 29.17522239685059 L 3.244245529174805 29.17522239685059 C 2.004785537719727 29.17522239685059 0.9999942779541016 28.17044258117676 0.9999942779541016 26.93098258972168 L 0.9999942779541016 2.244243621826172 C 0.9999942779541016 1.004783630371094 2.004785537719727 3.814697265625e-06 3.244245529174805 3.814697265625e-06 Z"/></g><path class="b" d="M0,0H17.954" transform="translate(267.513 224.182)"/><path class="b" d="M0,0H17.954" transform="translate(267.513 243.632)"/><path class="c" d="M0,0H1.5" transform="translate(275.742 245.876)"/><g transform="translate(278.559 226.627)"><path class="d" d="M10.076.88A6.836,6.836,0,0,0,0,6.923,6.838,6.838,0,1,0,12.459,3.017L13.4,0Z" transform="translate(13.676 13.781) rotate(180)"/><circle class="e" cx="0.748" cy="0.748" r="0.748" transform="translate(3.167 6.532)"/><circle class="e" cx="0.748" cy="0.748" r="0.748" transform="translate(6.159 6.532)"/><circle class="e" cx="0.748" cy="0.748" r="0.748" transform="translate(9.151 6.532)"/></g><rect class="f" width="40" height="40" transform="translate(258.25 214.25)"/></g></svg>