<svg xmlns="http://www.w3.org/2000/svg" width="40" height="40" viewBox="0 0 40 40"><defs><style>.a{fill:#cfe8ec;}.a,.c,.d{stroke-miterlimit:10;}.b,.f{fill:none;}.b,.d{stroke:#111;stroke-linecap:round;}.c,.d,.e{fill:#fff;}.g,.h{stroke:none;}.h{fill:#111;}</style></defs><g transform="translate(-52.667 -211.667)"><g transform="translate(71.12 221.827)"><g class="a" transform="translate(-302.333 -351.333)"><path class="g" d="M 310.1375427246094 369.0423278808594 L 305.2993469238281 364.2041320800781 L 305.2935485839844 364.1983642578125 L 305.2876892089844 364.1927185058594 C 305.2223510742188 364.1299743652344 305.1549377441406 364.0625915527344 305.0873107910156 363.992431640625 L 305.0824279785156 363.9873352050781 L 305.0774230957031 363.9823303222656 L 304.9920654296875 363.8968200683594 L 304.9774169921875 363.8784790039063 L 304.9584350585938 363.857421875 C 303.7812805175781 362.5650024414063 303.1329956054688 360.8898315429688 303.1329956054688 359.1405334472656 C 303.1329956054688 355.2765808105469 306.2765808105469 352.1329956054688 310.1405639648438 352.1329956054688 C 314.0045166015625 352.1329956054688 317.1480712890625 355.2765808105469 317.1480712890625 359.1405334472656 C 317.1480712890625 361.0979919433594 316.3197326660156 362.9804992675781 314.87548828125 364.3053588867188 L 314.8627624511719 364.3170166015625 L 314.8505859375 364.3292236328125 L 310.1375427246094 369.0423278808594 Z"/><path class="h" d="M 310.1405639648438 352.9330139160156 C 306.7177124023438 352.9330139160156 303.9330139160156 355.7176818847656 303.9330139160156 359.1405334472656 C 303.9330139160156 360.6901245117188 304.5072326660156 362.1739807128906 305.5498657226563 363.3187255859375 L 305.5846252441406 363.3568725585938 L 305.5892944335938 363.3627319335938 L 305.6436157226563 363.4171447753906 L 305.6535949707031 363.4271545410156 L 305.6633911132813 363.4373168945313 C 305.7238464355469 363.5000610351563 305.7838439941406 363.56005859375 305.8417358398438 363.6156311035156 L 305.8534851074219 363.6269226074219 L 305.8650207519531 363.638427734375 L 310.1375122070313 367.9109497070313 L 314.2848815917969 363.7635498046875 L 314.3092651367188 363.7391357421875 L 314.3346862792969 363.7158508300781 C 315.6142272949219 362.5420837402344 316.3480529785156 360.8744506835938 316.3480529785156 359.1405334472656 C 316.3480529785156 355.7176818847656 313.5633850097656 352.9330139160156 310.1405639648438 352.9330139160156 M 310.1405639648438 351.3330078125 C 314.4525451660156 351.3330078125 317.9480590820313 354.8286437988281 317.9480590820313 359.1405334472656 C 317.9480590820313 361.4183654785156 316.97216796875 363.4676208496094 315.416259765625 364.8948974609375 L 310.6611328125 369.6500854492188 C 310.5171508789063 369.7940979003906 310.3273315429688 369.8660888671875 310.1375427246094 369.8660888671875 C 309.9477233886719 369.8660888671875 309.7579040527344 369.7940979003906 309.6139221191406 369.6500854492188 L 304.733642578125 364.7698059082031 C 304.6580200195313 364.6972045898438 304.583984375 364.6230163574219 304.51123046875 364.5475158691406 L 304.422119140625 364.458251953125 C 304.4022521972656 364.4384155273438 304.3840942382813 364.4175415039063 304.3669738769531 364.3961181640625 C 303.1034545898438 363.0088500976563 302.3330078125 361.1647644042969 302.3330078125 359.1405334472656 C 302.3330078125 354.8286437988281 305.82861328125 351.3330078125 310.1405639648438 351.3330078125 Z"/></g><g class="a" transform="translate(-354.072 -494.053)"><path class="g" d="M 362.6240234375 513.9889526367188 L 361.1349487304688 513.9889526367188 L 361.1349487304688 513.4061889648438 C 361.1349487304688 513.0195922851563 361.4494323730469 512.7050170898438 361.8359985351563 512.7050170898438 L 361.9229736328125 512.7050170898438 C 362.3095397949219 512.7050170898438 362.6240234375 513.0195922851563 362.6240234375 513.4061889648438 L 362.6240234375 513.9889526367188 Z"/><path class="h" d="M 363.4240112304688 514.7889404296875 L 360.3349609375 514.7889404296875 L 360.3349609375 513.4061889648438 C 360.3349609375 512.58056640625 361.010498046875 511.905029296875 361.8359985351563 511.905029296875 L 361.9229736328125 511.905029296875 C 362.7485961914063 511.905029296875 363.4240112304688 512.58056640625 363.4240112304688 513.4061889648438 L 363.4240112304688 514.7889404296875 Z"/></g><path class="b" d="M-448.377,423.314s-1.67,2.04-1.312,2.621c.207.336,1.306.149,1.614.58.5.7-.8,1.618-.984,2.621" transform="translate(456.844 -403.091)"/></g><g transform="translate(59.293 215.933)"><g class="c" transform="translate(-302.333 -351.333)"><path class="g" d="M 311.8394470214844 373.1075744628906 C 311.8197021484375 373.1075744628906 311.7911682128906 373.1025695800781 311.7674255371094 373.0788269042969 L 305.8228454589844 367.1343078613281 L 305.8170166015625 367.1284790039063 L 305.8110656738281 367.1227722167969 C 305.7296447753906 367.0446166992188 305.6459655761719 366.9609985351563 305.5624389648438 366.874267578125 L 305.5575256347656 366.869140625 L 305.552490234375 366.8641357421875 L 305.4439392089844 366.7553405761719 C 305.4436645507813 366.7550964355469 305.4411315917969 366.7523803710938 305.4356079101563 366.7454833984375 L 305.41943359375 366.7252502441406 L 305.4019775390625 366.7060852050781 C 303.9388122558594 365.0996398925781 303.1329956054688 363.0174865722656 303.1329956054688 360.8431396484375 C 303.1329956054688 356.0403442382813 307.0403747558594 352.1329956054688 311.8431396484375 352.1329956054688 C 316.6459045410156 352.1329956054688 320.5532836914063 356.0403442382813 320.5532836914063 360.8431396484375 C 320.5532836914063 363.2762145996094 319.5237121582031 365.6161193847656 317.7285461425781 367.2628479003906 L 317.7158508300781 367.2745056152344 L 317.7036743164063 367.2866821289063 L 311.9115600585938 373.0787963867188 C 311.8877563476563 373.1025695800781 311.8592224121094 373.1075744628906 311.8394470214844 373.1075744628906 Z"/><path class="h" d="M 311.8431396484375 352.9330139160156 C 307.4814758300781 352.9330139160156 303.9330139160156 356.4814758300781 303.9330139160156 360.8431396484375 C 303.9330139160156 362.8177490234375 304.6647644042969 364.7086181640625 305.9934387207031 366.1673889160156 L 306.0283508300781 366.2056884765625 L 306.0391845703125 366.2192687988281 L 306.1187744140625 366.2990112304688 L 306.1287841796875 366.3090515136719 L 306.1386413574219 366.3193054199219 C 306.2149353027344 366.3984985351563 306.2910766601563 366.474609375 306.364990234375 366.5455322265625 L 306.3768920898438 366.5569458007813 L 306.3885498046875 366.568603515625 L 311.8394470214844 372.0195007324219 L 317.1379699707031 366.7210083007813 L 317.162353515625 366.6966247558594 L 317.1877746582031 366.6733093261719 C 318.8181762695313 365.1777038574219 319.7532653808594 363.0526733398438 319.7532653808594 360.8431396484375 C 319.7532653808594 356.4814758300781 316.2048034667969 352.9330139160156 311.8431396484375 352.9330139160156 M 311.8431396484375 351.3330078125 C 317.095458984375 351.3330078125 321.353271484375 355.5909118652344 321.353271484375 360.8431396484375 C 321.353271484375 363.61767578125 320.16455078125 366.1138610839844 318.2693481445313 367.8523864746094 L 312.4772338867188 373.6444702148438 C 312.3018493652344 373.8198852539063 312.0706481933594 373.9075622558594 311.8394470214844 373.9075622558594 C 311.6082458496094 373.9075622558594 311.3770446777344 373.8198852539063 311.2016906738281 373.6444702148438 L 305.2571716308594 367.6999816894531 C 305.1650390625 367.611572265625 305.0748291015625 367.5212097167969 304.9862365722656 367.4292297363281 L 304.877685546875 367.3204650878906 C 304.853515625 367.2962951660156 304.8313903808594 367.2708740234375 304.810546875 367.2447814941406 C 303.271484375 365.5550231933594 302.3330078125 363.3087463378906 302.3330078125 360.8431396484375 C 302.3330078125 355.5909118652344 306.5909118652344 351.3330078125 311.8431396484375 351.3330078125 Z"/></g><g class="c" transform="translate(-352.706 -490.161)"><path class="g" d="M 363.2976684570313 514.6178588867188 L 361.135009765625 514.6178588867188 L 361.135009765625 513.7335205078125 C 361.135009765625 513.1663818359375 361.5963439941406 512.7050170898438 362.1633605957031 512.7050170898438 L 362.2692565917969 512.7050170898438 C 362.8363342285156 512.7050170898438 363.2976684570313 513.1663818359375 363.2976684570313 513.7335205078125 L 363.2976684570313 514.6178588867188 Z"/><path class="h" d="M 362.4976501464844 513.81787109375 L 362.4976501464844 513.7335205078125 C 362.4976501464844 513.61181640625 362.3909301757813 513.5050048828125 362.2692565917969 513.5050048828125 L 362.1633605957031 513.5050048828125 C 362.0417175292969 513.5050048828125 361.9350280761719 513.61181640625 361.9350280761719 513.7335205078125 L 361.9350280761719 513.81787109375 L 362.4976501464844 513.81787109375 M 364.09765625 515.4178466796875 L 360.3350219726563 515.4178466796875 L 360.3350219726563 513.7335205078125 C 360.3350219726563 512.7278442382813 361.1578369140625 511.905029296875 362.1633605957031 511.905029296875 L 362.2692565917969 511.905029296875 C 363.2749938964844 511.905029296875 364.09765625 512.7278442382813 364.09765625 513.7335205078125 L 364.09765625 515.4178466796875 Z"/></g><path class="d" d="M373.417,373.925h0c3.216,0,5.06,2.631,5.06,5.846" transform="translate(-362.743 -370.331)"/><circle class="e" cx="0.393" cy="0.393" r="0.393" transform="translate(15.34 11.013)"/><path class="b" d="M-448.08,423.314s-2.034,2.485-1.6,3.193c.252.41,1.59.182,1.966.707.607.85-.98,1.97-1.2,3.193" transform="translate(458.393 -398.68)"/></g><rect class="f" width="40" height="40" transform="translate(52.667 211.667)"/></g></svg>