<svg xmlns="http://www.w3.org/2000/svg" width="40" height="40" viewBox="0 0 40 40"><defs><style>.a{fill:#cfe8ec;stroke-linecap:round;stroke-linejoin:round;}.b{fill:#fff;stroke:#111;stroke-width:1.6px;}.c,.f{fill:#111;}.d{fill:none;}.e,.f{stroke:none;}</style></defs><g transform="translate(-162.5 -215)"><g class="a" transform="translate(-434.1 -303.024)"><path class="e" d="M 623.0830078125 545.0232543945313 L 602.717041015625 545.0232543945313 L 602.717041015625 540.452392578125 C 602.717041015625 538.006103515625 603.7429809570313 535.6961669921875 605.6058959960938 533.9481201171875 C 607.4827880859375 532.1869506835938 609.9708251953125 531.2169799804688 612.6116943359375 531.2169799804688 L 613.1876831054688 531.2169799804688 C 615.82861328125 531.2169799804688 618.3167724609375 532.1869506835938 620.19384765625 533.9481811523438 C 622.0569458007813 535.6962280273438 623.0830078125 538.0061645507813 623.0830078125 540.452392578125 L 623.0830078125 545.0232543945313 Z"/><path class="f" d="M 622.2830200195313 544.2232666015625 L 622.2830200195313 540.452392578125 C 622.2830200195313 538.2295532226563 621.3466796875 536.1268310546875 619.6464233398438 534.5315551757813 C 617.918212890625 532.9100341796875 615.6244506835938 532.0169677734375 613.1876831054688 532.0169677734375 L 612.6116943359375 532.0169677734375 C 610.1749877929688 532.0169677734375 607.88134765625 532.9100341796875 606.1533203125 534.531494140625 C 604.4533081054688 536.126708984375 603.5170288085938 538.2294921875 603.5170288085938 540.452392578125 L 603.5170288085938 544.2232666015625 L 622.2830200195313 544.2232666015625 M 623.8829956054688 545.8232421875 L 601.9170532226563 545.8232421875 L 601.9170532226563 540.452392578125 C 601.9170532226563 534.9325561523438 606.729248046875 530.4169921875 612.6116943359375 530.4169921875 L 613.1876831054688 530.4169921875 C 619.070068359375 530.4169921875 623.8829956054688 534.9325561523438 623.8829956054688 540.452392578125 L 623.8829956054688 545.8232421875 Z"/></g><g class="b" transform="translate(176.436 222.79)"><rect class="e" width="21.547" height="21.547" rx="3"/><rect class="d" x="0.8" y="0.8" width="19.947" height="19.947" rx="2.2"/></g><g transform="translate(184.004 229.589)"><path class="c" d="M250.221,110.056v5.521a.8.8,0,0,1-.8.8h0a.8.8,0,0,1-.8-.8v-2.025H245.64v2.025a.8.8,0,0,1-.8.8h0a.8.8,0,0,1-.795-.8v-5.521a.8.8,0,0,1,.795-.8h0a.8.8,0,0,1,.8.8v2.025h2.989v-2.025a.8.8,0,0,1,.8-.8h0A.8.8,0,0,1,250.221,110.056Z" transform="translate(-244.05 -109.261)"/></g><g class="b" transform="translate(172.845 240.028)"><circle class="e" cx="3.591" cy="3.591" r="3.591"/><circle class="d" cx="3.591" cy="3.591" r="2.791"/></g><g class="b" transform="translate(187.209 240.028)"><circle class="e" cx="3.591" cy="3.591" r="3.591"/><circle class="d" cx="3.591" cy="3.591" r="2.791"/></g><rect class="d" width="40" height="40" transform="translate(162.5 215)"/></g></svg>