<svg xmlns="http://www.w3.org/2000/svg" width="40" height="40" viewBox="0 0 40 40"><defs><style>.a{fill:#fff;}.b{fill:#cfe8ec;}.b,.c{stroke:#111;}.c,.d{fill:none;}.c{stroke-linecap:round;}.e,.f{stroke:none;}.f{fill:#111;}</style></defs><g transform="translate(-277.667 -214.667)"><g class="a" transform="translate(285.299 223.027)"><path class="e" d="M 22.55268096923828 22.48019409179688 L 2.182520389556885 22.48019409179688 C 1.42020046710968 22.48019409179688 0.8000004291534424 21.85999488830566 0.8000004291534424 21.09767532348633 L 0.8000004291534424 2.182514667510986 C 0.8000004291534424 1.420194745063782 1.42020046710968 0.800004780292511 2.182520389556885 0.800004780292511 L 22.55268096923828 0.800004780292511 C 23.31500053405762 0.800004780292511 23.93519973754883 1.420194745063782 23.93519973754883 2.182514667510986 L 23.93519973754883 21.09767532348633 C 23.93519973754883 21.85999488830566 23.31500053405762 22.48019409179688 22.55268096923828 22.48019409179688 Z"/><path class="f" d="M 2.182519912719727 1.599994659423828 C 1.861320495605469 1.599994659423828 1.600000381469727 1.86131477355957 1.600000381469727 2.182514190673828 L 1.600000381469727 21.09767532348633 C 1.600000381469727 21.41887474060059 1.861320495605469 21.68018531799316 2.182519912719727 21.68018531799316 L 22.55268096923828 21.68018531799316 C 22.87388038635254 21.68018531799316 23.13520050048828 21.41887474060059 23.13520050048828 21.09767532348633 L 23.13520050048828 2.182514190673828 C 23.13520050048828 1.86131477355957 22.87388038635254 1.599994659423828 22.55268096923828 1.599994659423828 L 2.182519912719727 1.599994659423828 M 2.182519912719727 -5.7220458984375e-06 L 22.55268096923828 -5.7220458984375e-06 C 23.7580509185791 -5.7220458984375e-06 24.73520088195801 0.9771442413330078 24.73520088195801 2.182514190673828 L 24.73520088195801 21.09767532348633 C 24.73520088195801 22.30304527282715 23.7580509185791 23.28018569946289 22.55268096923828 23.28018569946289 L 2.182519912719727 23.28018569946289 C 0.9771499633789063 23.28018569946289 0 22.30304527282715 0 21.09767532348633 L 0 2.182514190673828 C 0 0.9771442413330078 0.9771499633789063 -5.7220458984375e-06 2.182519912719727 -5.7220458984375e-06 Z"/></g><path class="b" d="M296.209,224.488v9.274l1.385-.894,1.385.894,1.385-.894,1.385.894v-9.274Z" transform="translate(-1.089 -0.734)"/><path class="c" d="M191.9,235.056h9.454" transform="translate(104.238 7.031)"/><path class="c" d="M191.9,235.056h5.089" transform="translate(108.603 4.121)"/><rect class="d" width="40" height="40" transform="translate(277.667 214.667)"/></g></svg>